<?xml version="1.0" encoding="UTF-8"?>
<svg width="24px" height="24px" viewBox="0 0 24 24" version="1.1" xmlns="http://www.w3.org/2000/svg" xmlns:xlink="http://www.w3.org/1999/xlink">
    <!-- Generator: Sketch 55.2 (78181) - https://sketchapp.com -->
    <title>Group 21</title>
    <desc>Created with Sketch.</desc>
    <g id="Football" stroke="none" stroke-width="1" fill="none" fill-rule="evenodd">
        <g id="Football-Fixtures-Upcoming" transform="translate(-741.000000, -368.000000)">
            <g id="Group-7" transform="translate(300.000000, 271.000000)">
                <g id="Group-21" transform="translate(439.000000, 95.000000)">
                    <rect id="Rectangle" fill="#D5D8DC" opacity="0" x="0" y="0" width="28" height="28"></rect>
                    <g id="Group-18" transform="translate(1.633333, 1.633333)" fill="#C7CBD1" fill-rule="nonzero">
                        <path d="M22.8666667,6.06666667 L22.8666667,3.96666667 C22.8666667,2.80686869 21.9264646,1.86666667 20.7666667,1.86666667 L3.96666667,1.86666667 C2.80686869,1.86666667 1.86666667,2.80686869 1.86666667,3.96666667 L1.86666667,6.06666667 L22.8666667,6.06666667 Z M3.96666667,0.466666667 L20.7666667,0.466666667 C22.6996633,0.466666667 24.2666667,2.03367004 24.2666667,3.96666667 L24.2666667,20.7666667 C24.2666667,22.6996633 22.6996633,24.2666667 20.7666667,24.2666667 L3.96666667,24.2666667 C2.03367004,24.2666667 0.466666667,22.6996633 0.466666667,20.7666667 L0.466666667,3.96666667 C0.466666667,2.03367004 2.03367004,0.466666667 3.96666667,0.466666667 Z M1.86666667,7.46666667 L1.86666667,20.7666667 C1.86666667,21.9264646 2.80686869,22.8666667 3.96666667,22.8666667 L20.7666667,22.8666667 C21.9264646,22.8666667 22.8666667,21.9264646 22.8666667,20.7666667 L22.8666667,7.46666667 L1.86666667,7.46666667 Z M4.66666667,9.56666667 L7.46666667,9.56666667 L7.46666667,12.3666667 L4.66666667,12.3666667 L4.66666667,9.56666667 Z M4.66666667,15.1666667 L7.46666667,15.1666667 L7.46666667,17.9666667 L4.66666667,17.9666667 L4.66666667,15.1666667 Z M10.9666667,9.56666667 L13.7666667,9.56666667 L13.7666667,12.3666667 L10.9666667,12.3666667 L10.9666667,9.56666667 Z M10.9666667,15.1666667 L13.7666667,15.1666667 L13.7666667,17.9666667 L10.9666667,17.9666667 L10.9666667,15.1666667 Z M17.2666667,9.56666667 L20.0666667,9.56666667 L20.0666667,12.3666667 L17.2666667,12.3666667 L17.2666667,9.56666667 Z" id="Combined-Shape"></path>
                    </g>
                </g>
            </g>
        </g>
    </g>
</svg>