<?xml version="1.0" encoding="UTF-8"?>
<svg width="2103px" height="2389px" viewBox="0 0 2103 2389" version="1.1" xmlns="http://www.w3.org/2000/svg" xmlns:xlink="http://www.w3.org/1999/xlink">
    <!-- Generator: Sketch 54.1 (76490) - https://sketchapp.com -->
    <title>Shape</title>
    <desc>Created with Sketch.</desc>
    <defs>
        <linearGradient x1="20.9401644%" y1="94.1222062%" x2="57.2618563%" y2="43.0445996%" id="linearGradient-1">
            <stop stop-color="#FFD200" offset="0%"></stop>
            <stop stop-color="#FF0056" stop-opacity="0.732135052" offset="50%"></stop>
            <stop stop-color="#D431FF" stop-opacity="0.00595498252" offset="100%"></stop>
        </linearGradient>
        <path d="M1071.24681,1016.95156 L1007.57511,478.47604 L926.250416,531.831535 L872.557399,99.9862975 L1024.46404,0.32341121 L1057.13925,262.741952 L1139.51756,208.695201 L1071.24681,1016.95156 Z M1175.97295,1085.02337 L1466.01879,653.101527 L1375.31288,625.48269 L1606.06359,276.978022 L1775.49344,328.567328 L1635.30732,540.38078 L1727.18839,568.357437 L1175.97295,1085.02337 Z M1207.66756,1217.30804 L1681.52602,1144.95384 L1634.57319,1052.53941 L2014.59699,991.52462 L2102.30033,1164.1458 L1871.37202,1201.27672 L1918.93316,1294.88844 L1207.66756,1217.30804 Z M1147.76438,1336.31502 L1527.85559,1665.91256 L1552.16017,1562.83766 L1858.84428,1825.05439 L1813.44569,2017.5883 L1627.04985,1858.28589 L1602.43039,1962.6962 L1147.76438,1336.31502 Z M1031.35386,1372.33162 L1095.02556,1910.80715 L1176.35025,1857.45165 L1230.04327,2289.29689 L1078.13663,2388.95977 L1045.46142,2126.54123 L963.083112,2180.58798 L1031.35386,1372.33162 Z M926.627722,1304.25982 L636.58188,1736.18166 L727.287792,1763.8005 L496.537076,2112.30516 L327.107234,2060.71586 L467.293353,1848.90241 L375.412284,1820.92575 L926.627722,1304.25982 Z M894.933107,1171.97515 L421.074648,1244.32935 L468.027483,1336.74377 L88.0036747,1397.75857 L0.300334798,1225.13738 L231.228651,1188.00647 L183.66751,1094.39475 L894.933107,1171.97515 Z M954.836294,1052.96817 L574.745077,723.370621 L550.440501,826.445522 L243.756392,564.228799 L289.154981,371.694888 L475.550819,530.997295 L500.170277,426.58699 L954.836294,1052.96817 Z" id="path-2"></path>
    </defs>
    <g id="Page-1" stroke="none" stroke-width="1" fill="none" fill-rule="evenodd">
        <g id="Shape">
            <use fill="url(#linearGradient-1)" xlink:href="#path-2"></use>
            <use fill-opacity="0.13" fill="#FFFFFF" xlink:href="#path-2"></use>
        </g>
    </g>
</svg>