<?xml version="1.0" encoding="UTF-8"?>
<svg width="20px" height="20px" viewBox="0 0 20 20" version="1.1" xmlns="http://www.w3.org/2000/svg" xmlns:xlink="http://www.w3.org/1999/xlink">
    <!-- Generator: Sketch 55.2 (78181) - https://sketchapp.com -->
    <title>Artboard</title>
    <desc>Created with Sketch.</desc>
    <g id="Artboard" stroke="none" stroke-width="1" fill="none" fill-rule="evenodd">
        <g id="Group-11">
            <rect id="Rectangle" fill="#FFFFFF" opacity="0" x="0" y="0" width="20" height="20"></rect>
            <g id="Group-4" transform="translate(3.000000, 4.000000)" fill="#979797">
                <path d="M1,0 L13,0 C13.5522847,-1.01453063e-16 14,0.44771525 14,1 L14,9 C14,9.55228475 13.5522847,10 13,10 L7,10 L3.5,10 L1.75,10 L0,12 L0,1 C-6.76353751e-17,0.44771525 0.44771525,1.01453063e-16 1,0 Z M2,2 L2,4 L12,4 L12,2 L2,2 Z M2,6 L2,8 L9,8 L9,6 L2,6 Z" id="Combined-Shape"></path>
            </g>
        </g>
    </g>
</svg>