<?xml version="1.0" encoding="UTF-8"?>
<svg width="210px" height="210px" viewBox="0 0 210 210" version="1.1" xmlns="http://www.w3.org/2000/svg" xmlns:xlink="http://www.w3.org/1999/xlink">
    <!-- Generator: Sketch 53.2 (72643) - https://sketchapp.com -->
    <title>Group</title>
    <desc>Created with Sketch.</desc>
    <g id="Page-1" stroke="none" stroke-width="1" fill="none" fill-rule="evenodd">
        <g id="Artboard">
            <g id="Group">
                <path d="M118,67.1296928 C118.414369,67.268942 118.831235,67.3989078 119.23562,67.5544027 C119.580096,67.6890102 119.904602,67.85843 120.246581,68 L141,52.2416382 L140.950076,52.2068259 L139.215216,51.0348123 L139.242674,51 L118,67.1296928" id="Fill-523" fill="#CD0000"></path>
                <path d="M145.976369,56.2398015 L144.334049,55.0334436 L144.289151,55 L135,79.1582139 C135.252846,79.4448732 135.510419,79.7291437 135.749087,80.030136 C136.001933,80.3478501 136.231149,80.6775083 136.467454,81 L146,56.206358 L145.976369,56.2398015" id="Fill-524" fill="#CD0000"></path>
                <path d="M135.748926,131.969864 C135.507947,132.270856 135.252792,132.555127 135,132.841786 L144.287156,157 L144.334407,156.966556 L145.974012,155.760198 L146,155.793642 L136.467139,131 C136.228522,131.322492 136.001718,131.65215 135.748926,131.969864" id="Fill-525" fill="#CD0000"></path>
                <path d="M141,158.758362 L120.246581,143 C119.904602,143.14157 119.580096,143.31099 119.23562,143.445597 C118.831235,143.601092 118.414369,143.731058 118,143.870307 L139.242674,160 L139.215216,159.962867 L140.950076,158.790853 L141,158.758362" id="Fill-526" fill="#CD0000"></path>
                <path d="M116,145 C115.542982,145.120189 115.099565,145.230566 114.691513,145.328679 C114.267138,145.431698 113.837323,145.512642 113.407508,145.605849 L106,170.958302 L108.402067,170.958302 L108.402067,171 L116,145" id="Fill-527" fill="#CD0000"></path>
                <path d="M92,146 L99.5674931,170 L99.5674931,169.958569 L102,169.958569 L94.5895317,146.462645 C94.1955923,146.393594 93.785124,146.356766 93.3939394,146.283111 C92.8842975,146.184137 92.4297521,146.089767 92,146" id="Fill-528" fill="#CD0000"></path>
                <path d="M89,143.883517 C88.6187735,143.739027 88.2514944,143.594538 87.9074607,143.457155 C87.5634271,143.32214 87.2426389,143.144489 86.9032544,143 L68,158.732757 L68.046491,158.765919 L69.6620545,159.962101 L69.6341598,160 L89,143.883517" id="Fill-529" fill="#CD0000"></path>
                <path d="M62.0245371,154.802883 L63.7298684,155.967708 L63.776489,156 L72.9607406,133.789909 L72.91412,133.74839 L72.9975463,133.699952 L73,133.693032 L72.7349989,133.413936 L72.5706,133.243248 C72.4675441,133.137146 72.3644881,133.033349 72.2638858,132.922633 C71.996431,132.636617 71.7240687,132.327535 71.4418916,132 L62,154.832869 L62.0245371,154.802883" id="Fill-530" fill="#CD0000"></path>
                <path d="M72.2638858,78.0750601 C72.3644881,77.9666506 72.4675441,77.8605478 72.5730538,77.754445 L72.7374526,77.5860644 L73,77.3069678 L72.9975463,77.2977415 L72.91412,77.2516098 L72.9607406,77.2077847 L63.776489,55 L63.7298684,55.0322922 L62.0245371,56.1971168 L62,56.1648246 L71.4418916,79 C71.7240687,78.6724652 71.996431,78.363383 72.2638858,78.0750601" id="Fill-531" fill="#CD0000"></path>
                <path d="M68,52.2672426 L86.8886185,68 C87.2277403,67.853142 87.5482801,67.6778598 87.8920473,67.5404765 C88.2474284,67.4007245 88.6330052,67.2680786 89,67.1283266 L69.6328946,51 L69.6607676,51.0355302 L68.046455,52.2317124 L68,52.2672426" id="Fill-532" fill="#CD0000"></path>
                <path d="M92,65 C92.4297521,64.9079313 92.8842975,64.8158627 93.3939394,64.7168888 C93.785124,64.6409322 94.1955923,64.6064064 94.5922865,64.5373549 L102,41.0414309 L99.5674931,41.0414309 L99.5674931,41 L92,65" id="Fill-533" fill="#CD0000"></path>
                <path d="M116,67 L108.402067,41 L108.402067,41.0416981 L106,41.0416981 L113.407508,66.3941509 C113.837323,66.4873585 114.267138,66.5683019 114.691513,66.6713208 C115.096844,66.769434 115.540261,66.8798113 116,67" id="Fill-534" fill="#CD0000"></path>
                <path d="M64,105 L91,105 C90.4688066,94.1948052 83.9104323,84.7187068 74.162568,79 C74.0204504,79.1628442 73.8736733,79.3185042 73.7338856,79.4837432 C73.2329795,80.0800405 72.7530417,80.6931012 72.2847528,81.3181358 C71.9842092,81.7180621 71.6883251,82.1203832 71.4017603,82.5322833 C70.9521098,83.1788708 70.5257572,83.8422216 70.1110536,84.5151515 C66.7421693,90.0111449 64.603417,96.3716496 64.0885322,103.211108 C64.0442661,103.805011 64.0209682,104.401308 64,105" id="Fill-535" fill="#CD0000"></path>
                <path d="M143,106 L116,106 C116.533523,116.8028 123.091897,126.278898 132.839762,132 C133.287083,131.485125 133.743722,130.975039 134.167745,130.436216 C134.270256,130.306899 134.361118,130.165607 134.4613,130.033895 C134.841056,129.528599 135.216153,129.018513 135.579601,128.496454 C135.602899,128.462927 135.628527,128.4294 135.651825,128.395874 C135.798602,128.182739 135.9314,127.960026 136.071188,127.744497 C136.362413,127.303859 136.655967,126.863222 136.933213,126.410611 C140.413927,120.708667 142.557339,114.077554 142.953404,106.948328 C142.972042,106.632219 142.990681,106.316109 143,106" id="Fill-536" fill="#CD0000"></path>
                <path d="M131,77.3757843 C127.482904,73.8607022 123.341918,71.0091096 118.746155,69.0374638 C118.046849,68.7363055 117.322405,68.4892616 116.602531,68.2304537 C116.433418,68.1692809 116.268876,68.0986969 116.099763,68.0398769 C115.377604,67.7904802 114.641733,67.5763755 113.899007,67.3716819 C111.046937,66.5764358 108.07146,66.1082288 105,66 L105,105 L113.677331,105 C114.189241,93.5701014 120.930913,83.5236486 131,77.3757843" id="Fill-537" fill="#CD0000"></path>
                <path d="M142.953404,104.049277 C142.557339,96.9224463 140.413927,90.2913328 136.933213,84.5893893 C136.683924,84.1798839 136.418328,83.7871419 136.157391,83.3872156 C135.987316,83.1261859 135.828889,82.8603666 135.651825,82.6041264 C135.628527,82.5705996 135.602899,82.5370729 135.579601,82.5035461 C135.216153,81.9814866 134.841056,81.4714009 134.4613,80.9661048 C134.361118,80.8343926 134.270256,80.6931012 134.167745,80.5637837 C133.743722,80.0225661 133.287083,79.5148752 132.839762,79 C123.091897,84.7187068 116.533523,94.1948052 116,105 L143,105 C142.990681,104.681496 142.972042,104.365386 142.953404,104.049277" id="Fill-538" fill="#CD0000"></path>
                <path d="M113.677331,106 L105,106 L105,145 C108.07146,144.889418 111.046937,144.421211 113.899007,143.628318 C114.641733,143.423625 115.377604,143.20952 116.099763,142.960123 C116.268876,142.901303 116.433418,142.830719 116.602531,142.769546 C117.322405,142.510738 118.046849,142.263694 118.746155,141.962536 C123.341918,139.99089 127.482904,137.139298 131,133.624216 C120.930913,127.476351 114.189241,117.429899 113.677331,106" id="Fill-539" fill="#CD0000"></path>
                <path d="M102,106 L93.3203832,106 C92.8107585,117.430588 86.0690868,127.477647 76,133.625882 C79.7364859,137.362353 84.1974158,140.32 89.1382614,142.298824 C89.8467083,142.581176 90.5551551,142.865882 91.2841698,143.105882 C91.6201107,143.218824 91.958337,143.317647 92.2988486,143.418824 C93.0164367,143.635294 93.743166,143.821176 94.474466,143.995294 C96.9060385,144.574118 99.4198822,144.910588 102,145 L102,106" id="Fill-540" fill="#CD0000"></path>
                <path d="M71.4017603,128.467717 C71.6883251,128.879617 71.9842092,129.281938 72.2847528,129.681864 C72.7530417,130.306899 73.2329795,130.919959 73.7362154,131.516257 C73.8736733,131.681496 74.0204504,131.837156 74.162568,132 C83.9104323,126.278898 90.4688066,116.8028 91,106 L64,106 C64.0209682,106.598692 64.0442661,107.194989 64.0885322,107.786497 C64.603417,114.62835 66.7421693,120.988855 70.1110536,126.484848 C70.5257572,127.160173 70.9521098,127.821129 71.4017603,128.467717" id="Fill-541" fill="#CD0000"></path>
                <path d="M102,66 C99.4198822,66.0917592 96.9060385,66.4282095 94.4767513,67.0069981 C93.743166,67.1811052 93.0164367,67.3669764 92.2988486,67.5834339 C91.9606223,67.6846042 91.6201107,67.7834218 91.2841698,67.8963562 C90.5551551,68.1363417 89.8467083,68.4210304 89.1382614,68.7033663 C84.1974158,70.6820705 79.7364859,73.6395391 76,77.3757843 C86.0690868,83.5236486 92.8107585,93.5701014 93.3203832,105 L102,105 L102,66" id="Fill-542" fill="#CD0000"></path>
                <path d="M207.115312,131 C194.718822,175.953832 153.647959,209.063397 104.998802,209.063397 C56.3520405,209.063397 15.2811783,175.953832 2.88468779,131 L0,131 C12.4683682,177.508362 54.8066721,211.85 104.998802,211.85 C155.193328,211.85 197.529236,177.508362 210,131 L207.115312,131" id="Fill-552" fill="#CD0000"></path>
                <path d="M0,77 L2.88468779,77 C15.2811783,34.1868266 56.3520405,2.65390797 104.998802,2.65390797 C153.647959,2.65390797 194.718822,34.1868266 207.115312,77 L210,77 C197.529236,32.70403 155.193328,0 104.998802,0 C54.8066721,0 12.4707641,32.70403 0,77" id="Fill-553" fill="#CD0000"></path>
                <path d="M103.998856,202.68992 C59.6251731,202.68992 22.1070779,173.19615 10.3775246,133 L9,133 C20.7707418,173.926989 58.8883576,204 103.998856,204 C149.111642,204 187.229258,173.926989 199,133 L197.622475,133 C185.892922,173.19615 148.374827,202.68992 103.998856,202.68992" id="Fill-554" fill="#CD0000"></path>
                <path d="M103.998856,7.31012174 C148.374827,7.31012174 185.890634,36.8025687 197.622475,77 L199,77 C187.229258,36.0717063 149.111642,6 103.998856,6 C58.8883576,6 20.7707418,36.0717063 9,77 L10.3775246,77 C22.1093662,36.8025687 59.6251731,7.31012174 103.998856,7.31012174" id="Fill-555" fill="#CD0000"></path>
                <path d="M42.3709569,77 C46.7004828,67.2798867 53.2810861,58.7609065 61.5074157,52.1048159 C61.7813198,51.8849858 62.0368101,51.6447592 62.3130159,51.4294618 L63.2751328,52.7303116 L63.742381,52.3971671 L67.5056851,49.7048159 L67.9729332,49.3716714 L67.0016095,48.0549575 C67.2939273,47.8623229 67.6046588,47.6946176 67.8992783,47.5087819 C77.4237752,41.4736544 88.5640759,37.729745 100.535296,37.0453258 C100.887458,37.0249292 101.230414,36.9796034 101.582576,36.9660057 L101.582576,38.6181303 L107.389803,38.6181303 L107.389803,36.9660057 C107.739664,36.9796034 108.082619,37.0249292 108.434782,37.0453258 C120.410605,37.7229462 131.555509,41.4645892 141.082308,47.4974504 C141.379229,47.6855524 141.687659,47.8509915 141.977675,48.0413598 L140.997144,49.3716714 L141.466694,49.7048159 L145.229998,52.3971671 L145.694945,52.7303116 L146.666269,51.4135977 C146.942474,51.6288952 147.197965,51.8668555 147.471869,52.0889518 C155.707405,58.7450425 162.294914,67.2730878 166.626741,77 L171,77 C160.294723,51.1915014 134.561549,33 104.498849,33 C74.4384508,33 48.7052766,51.1915014 38,77 L42.3709569,77" id="Fill-556" fill="#CD0000"></path>
                <path d="M166.629043,133 C162.294914,142.726912 155.707405,151.254958 147.471869,157.911048 C147.197965,158.130878 146.942474,158.368839 146.666269,158.586402 L145.694945,157.267422 L145.229998,157.600567 L141.466694,160.292918 L140.997144,160.628329 L141.977675,161.956374 C141.687659,162.149008 141.379229,162.314448 141.08461,162.50255 C131.555509,168.535411 120.410605,172.277054 108.434782,172.954674 C108.082619,172.975071 107.739664,173.020397 107.389803,173.033994 L107.389803,171.38187 L101.582576,171.38187 L101.582576,173.033994 C101.230414,173.01813 100.887458,172.972805 100.535296,172.954674 C88.5640759,172.270255 77.4237752,168.526346 67.8992783,162.491218 C67.6046588,162.305382 67.2939273,162.135411 67.0016095,161.945042 L67.9729332,160.628329 L67.5056851,160.292918 L63.742381,157.602833 L63.2751328,157.267422 L62.3130159,158.570538 C62.0368101,158.355241 61.7813198,158.115014 61.5074157,157.895184 C53.2810861,151.239093 46.7004828,142.717847 42.3709569,133 L38,133 C48.7052766,158.806232 74.4384508,177 104.498849,177 C134.561549,177 160.294723,158.806232 171,133 L166.629043,133" id="Fill-557" fill="#CD0000"></path>
                <path d="M38.3312635,38.2857143 L43,43.3287028 C41.9265711,43.7453539 40.8830351,44.3044866 39.9617884,44.8571429 C38.6437807,42.2406608 37.877434,39.7731369 38.3312635,38.2857143 Z M37.8927974,53.0362418 C38.4172807,52.4941198 38.5563297,51.8215286 38.0977118,51.4481168 C37.831811,51.2299183 37.3756325,51.103948 37.2902516,51.1916773 C36.8633466,50.4358558 37.3048883,49.4798315 38.2806711,48.3326023 C39.7175113,52.2399298 41.8203232,55.848078 43.5328221,57.2494971 C45.5087823,58.8713642 46.8992728,57.4991882 47.8116297,56.5521618 C47.5384105,56.5184197 47.1188239,56.423942 46.5089596,55.9268094 C44.5329994,54.3049423 41.8495967,50.3818685 40.0175645,46.5262788 C40.8372221,45.8176961 41.6666374,45.2733246 42.966868,44.737951 L48.5678614,51.7450467 L51,49.2188931 L39.6614038,35 C39.0661763,35.2654373 38.4514331,35.76257 38.06112,36.1674744 C36.0827203,38.2167406 36.4535178,42.598706 37.7879008,46.8636991 C37.3927087,47.19887 37.0877766,47.4823031 36.8535887,47.7274952 C34.8581129,49.7970066 34.4507236,52.1611984 35.7436358,53.2206983 C36.4827913,53.8280549 37.319525,53.6346006 37.8927974,53.0362418 L37.8927974,53.0362418 Z" id="Fill-558" fill="#CD0000"></path>
                <path d="M86.7283613,16.1647096 C87.282159,16.0434905 87.5619125,16.4361348 87.7331901,17.1054747 C88.2926971,19.3269453 86.8425464,21.8119355 84.6416286,22.4285714 C84.5531351,19.6510744 85.2496642,16.4809331 86.7283613,16.1647096 Z M69.3173763,31.6959955 C68.9911248,31.8951594 68.3984667,32.2246406 67.7324503,30.4420001 C66.9177867,28.2634905 66.3579468,23.4884728 67.9023327,22.5492057 C68.4853384,22.1975952 68.8752958,22.6991934 68.9776114,22.9770394 L70.064473,28.7405005 C70.3482539,30.218248 69.844398,31.3763496 69.3173763,31.6959955 Z M104.890299,25.1081802 L107.111231,16.0166269 C107.726753,15.4818297 108.167724,15.1368739 108.884301,15.1600253 C109.600879,15.1854918 108.879708,16.7528413 110.216401,16.7991441 C111.387731,16.8385015 111.971098,15.9425424 111.998659,15.0975165 C112.030813,14.1830363 111.484193,13.2708713 110.409326,13.2361442 C109.260964,13.1967869 108.328494,13.9353164 107.467223,14.6298583 L107.827808,13.1458538 L104.385019,13.0277817 L102.52697,20.5913428 L102.425914,20.6006033 C102.182461,21.8368879 101.628951,22.8115617 100.701074,22.9018521 C100.032727,22.966676 99.7019992,22.7814649 99.6376909,22.1100744 C99.6170204,21.8947664 99.6170204,21.6493616 99.6583614,21.3321875 L100.588535,13 L97.1572291,13.3356952 L96.2798805,21.2002245 C96.0387245,22.4365091 95.5058845,23.4111828 94.5780081,23.5014733 C94.054355,23.5524063 93.8200892,23.1379964 93.7672645,22.5869931 C93.746594,22.3716851 93.7488907,22.1517469 93.7764514,21.9086572 L94.7020312,13.5741546 L91.2707256,13.9098499 L90.3956738,21.7766943 C90.3910803,21.8253122 90.3979705,21.8600393 90.393377,21.9063421 C89.5435892,23.4991581 88.6639439,24.7771152 86.8380484,25.2077312 C85.7172471,25.4693419 85.0718677,25.2262523 84.7020951,23.6264908 C84.6377869,23.3440438 84.5826655,23.0083485 84.5321376,22.6749684 C87.2927997,21.8507787 89.3759283,19.1536411 88.7512194,16.449558 C88.480206,15.2734671 87.7383642,14.3057387 85.659829,14.7942332 C80.875753,15.9170759 80.6713446,21.9433843 81.2983502,24.6474674 C81.316724,24.7354427 81.3488782,24.8025817 81.3695487,24.8859268 C81.2110747,25.7865161 80.7517299,26.5227305 80.0696029,26.7542444 C79.4357071,26.9695524 79.070528,26.8653711 78.854636,26.2263926 C78.7857343,26.0203452 78.7306129,25.7842009 78.7007555,25.4623965 L77.8509676,18.107198 L79.2106282,17.6418549 L79.0866051,16.6671811 L77.7246478,17.1302091 L77.2859735,13.2546654 L74.0820436,14.856742 L74.4587063,18.2437912 L73.7099743,18.4984566 L73.8339974,19.4754455 L74.5850262,19.2207801 L75.3544287,25.9092185 L75.3199778,25.9254244 C75.5129026,27.1732847 75.3796926,28.4118844 74.5390917,28.8170338 C73.9304598,29.1087414 73.496379,28.9165848 73.2092885,28.305388 C73.1151228,28.1086011 73.0324408,27.8817174 72.9635391,27.5668584 L71.0159172,19.4059913 L67.9015595,20.9015715 L68.2116172,22.170268 L68.1381221,22.0174688 C67.839548,21.3854357 67.0954094,21.1562368 65.8597719,21.7489126 C62.0977381,23.5570366 62.5180386,29.1064263 63.9098533,32.0489687 C63.9167435,32.0628595 63.9236336,32.0721201 63.9305238,32.0860109 C64.0798109,32.965764 64.0246895,33.6417848 63.3770133,34.1233338 C62.7982389,34.5516346 62.3641581,34.3641083 62.0104626,33.877929 C61.2134994,32.7898134 60.4211296,29.7523502 59.2704709,28.1780553 C58.1335926,26.6245966 56.7601517,26.6546934 55.5245142,27.5714887 C54.8148265,28.1016557 53.928291,29.0879051 54.0523141,31.2132033 C52.9613703,30.1667602 51.8681297,30.2570507 50.8483842,31.0164164 C50.1731474,31.5188017 49.4313056,32.3383612 49.3049858,33.8732987 L48.7767392,32.7041532 L46,34.7646275 L51.0596828,46 L53.8364221,43.9372106 L50.5888544,36.7255507 C50.1662572,35.5401992 50.076685,34.3178055 50.8300104,33.7598569 C51.2526077,33.4449979 51.7188426,33.7575417 52.0311971,34.1858426 C52.1598136,34.359478 52.2516826,34.5284832 52.3274745,34.7136944 L55.8207916,42.4624667 L58.5975308,40.4019924 L55.3499632,33.1880174 C54.927366,32.0026659 54.8515741,30.7987933 55.5451847,30.2848323 C56.0091229,29.9398765 56.4960284,30.1181423 56.9645601,30.7594359 C57.8740628,32.0049811 58.753708,35.0378139 59.7206288,36.3597587 C60.5290756,37.4663954 61.9231871,38.1123193 63.5974988,36.8667742 C64.2957029,36.348183 65.0490284,35.4591694 65.0742923,33.6996633 C66.1468624,34.6882279 67.3893901,34.6859127 68.4458831,34.1788972 C69.9800947,33.4426828 70.5221215,31.9494177 70.7196398,30.6251579 C71.4683718,31.870703 72.5776894,32.1948225 73.788063,31.6137225 C74.6034,31.2201487 75.6736733,30.3866985 76.1031607,28.5230111 C76.8197386,29.6967869 77.9198693,29.9583976 79.0429673,29.5763996 C79.9570635,29.2638558 81.3442847,28.4743932 82.0080379,26.365301 C82.8509356,27.6039007 84.1899257,27.9118142 85.8022259,27.5344465 C88.0989498,26.9927038 89.5022482,25.3975726 90.4163443,23.6010243 C90.6896544,25.4091483 91.8196426,26.1245264 93.1815999,25.9902484 C94.1829716,25.8906973 95.4875107,25.4485057 96.4865857,23.3625649 C96.7736762,24.8373088 97.7084428,25.5457415 99.0658066,25.4137786 C99.7915714,25.3420093 100.767679,25.0526168 101.661105,24.1126701 L101.445213,24.990108 L104.890299,25.1081802 L104.890299,25.1081802 Z" id="Fill-559" fill="#CD0000"></path>
                <path d="M118.538907,28.9454309 C122.660636,29.8777278 124.476023,36.2080489 127.805375,36.9617168 C129.063587,37.2455658 130.294397,35.9339879 131,33.592234 C130.266995,33.7390524 129.595644,33.6925599 128.965396,33.5481885 C126.008256,32.8801646 124.087827,29.679523 121.779203,28.558809 L128.899174,11.4569095 C128.602319,11.3639245 128.300896,11.2684926 127.976638,11.1950833 C124.090111,10.3141728 119.180573,12.5140022 118.525206,15.8320986 C118.171263,17.6281773 118.93167,18.4528075 120.539259,18.8149596 C120.55981,18.584944 120.294924,18.3182239 120.546109,17.0433506 C121.073599,14.3761492 122.67662,12.7831693 124.880204,12.345161 L118,28.8475519 C118.191815,28.8646807 118.353943,28.9013853 118.538907,28.9454309" id="Fill-560" fill="#CD0000"></path>
                <path d="M146.839264,38.052846 C146.467846,37.7946793 145.819685,37.3165928 146.938794,35.7436881 C148.305515,33.8289516 152.060964,30.941309 153.823378,32.1604296 C154.486104,32.6193927 154.274906,33.2624191 154.134107,33.5014623 L149.633395,37.6082255 C148.599251,38.4472674 147.400032,38.4377057 146.839264,38.052846 Z M145.8013,42.2176145 C144.749365,42.9013101 143.874645,43.0830927 143.465686,42.8803971 C143.040822,42.6680493 143.065814,42.2916145 143.256662,42.098571 C143.799669,41.5500058 145.067445,41.6465275 146.3125,41.876571 L145.8013,42.2176145 Z M139.859317,30.8037045 C139.04808,31.8487685 137.916618,32.0354637 137.338078,31.7479102 C136.97729,31.5697986 136.349649,31.2328889 137.107515,29.687825 C138.031899,27.8015594 140.903251,24.7350367 142.600445,25.5783841 C143.23876,25.8938347 143.164041,26.5054225 143.04449,26.7457657 L139.859317,30.8037045 Z M133.180694,20.6473638 C133.621582,20.7664135 133.638085,21.1008865 133.444755,21.5695266 C132.796391,23.1171729 130.613173,24.1319299 128.78125,23.7426563 C130.016678,22.0211597 131.99242,20.3298979 133.180694,20.6473638 Z M173.261837,49.8517957 C173.577918,50.0897442 173.347811,50.3261477 172.837024,50.5795475 C171.112487,51.4309089 168.406834,51.3582882 167.03125,50.4219452 C169.327262,49.7235507 172.434969,49.2244767 173.261837,49.8517957 Z M166.556088,51.0841538 C168.519006,53.2276069 171.862719,53.9559648 174.053829,52.1986569 C174.994539,51.4402399 175.544063,50.3488592 174.184224,48.681729 C171.057061,44.8364619 165.512924,47.2689459 163.340442,49.0123803 C163.272916,49.0678742 163.226346,49.1233682 163.161148,49.1788621 C162.395075,49.4332093 161.682556,49.4239603 161.191245,48.9591986 C160.699933,48.4921247 160.620764,48.1198529 161.088791,47.6319687 C161.240143,47.4747359 161.426422,47.3151909 161.696527,47.1394601 L168.654058,42.4039778 L166.122989,40.010802 L159.554316,44.4803758 C158.452939,45.1023703 157.360877,45.333595 156.676301,44.6861658 C156.287443,44.3185185 156.448109,43.8722548 156.83231,43.4699238 C156.98599,43.312691 157.153641,43.1739561 157.35622,43.0329091 L164.313751,38.2974268 L161.782681,35.9019387 L155.218665,40.3692003 L155.209351,40.3622636 C153.439698,41.6918057 152.228883,41.8490385 150.710707,41.4397707 L159.151487,33.6521222 L156.287443,31.6589651 L155.344404,32.5329946 L155.430558,32.4127577 C155.833387,31.8416326 155.663407,31.0739666 154.529432,30.2854903 C151.071623,27.8738165 146.423955,30.9676032 144.540206,33.6336242 C144.440081,33.7746713 144.374883,33.9064694 144.291057,34.0452042 C143.636751,34.5192149 142.949846,34.7643131 142.363067,34.4775944 C141.753002,34.1793146 141.63192,33.7168651 141.929967,33.1110564 C142.027764,32.9168276 142.158159,32.7110376 142.363067,32.4636271 L147.581215,25.8806594 L144.444738,24.3453272 L143.636751,25.3742772 L143.713591,25.2239812 C144.025609,24.5950499 143.736876,23.8643798 142.498119,23.2562588 C138.721307,21.4064611 134.618506,25.1430525 133.158542,28.056484 C131.752133,28.8241501 130.417908,29.3027852 128.785636,28.7594071 C127.681931,28.3940721 127.253489,27.8437572 127.775071,26.2922394 C127.86821,26.017082 127.998606,25.7049286 128.129001,25.3927752 C130.941818,26.1511923 134.157464,24.9580728 135.042291,22.3313599 C135.426492,21.1891098 135.298425,19.9774923 133.251681,19.2976916 C128.534159,17.729988 125.188117,22.7383154 124.30329,25.3650283 C123.432435,27.9478084 124.503541,29.4715793 126.66438,30.1883759 C128.925345,30.9398562 130.972089,30.329423 132.702157,29.2865995 C132.224817,31.1572075 133.079373,32.3757617 134.308816,32.9792583 C135.854934,33.7353631 137.37311,33.2428544 138.542013,32.5792395 C138.027416,33.9411531 138.467501,35.016348 139.68763,35.6129078 C140.523559,36.0221756 141.885726,36.3620759 143.674007,35.4880465 C143.357332,36.9008295 143.974382,37.9783367 144.938378,38.6535129 C145.969899,39.3726218 147.082918,39.4396769 148.091154,39.2292624 L147.113188,40.1079164 C145.301622,39.5229178 142.966146,39.1344603 141.794915,40.7923415 C140.889132,42.0733265 141.454955,43.4121176 142.668099,44.2584001 C143.979039,45.1717377 146.025783,45.800669 148.615065,43.3936196 L149.91902,42.1820021 C150.815489,42.5034045 151.930836,42.7323169 153.258076,42.3970411 C152.736494,43.481485 153.05084,44.4850003 153.85417,45.2457296 C154.59463,45.9440283 155.796131,46.6492637 158.047782,46.0503917 C157.114057,47.23195 157.193226,48.4065715 158.194477,49.3545929 C158.879053,49.9997099 160.092197,50.739629 162.099356,50.4089776 C161.354239,51.7084605 161.6616,53.0518762 162.702435,54.3305489 C163.924893,55.8311973 165.664276,56.6659185 168.14179,55.3317519 C167.121911,55.1560211 165.918081,54.6357655 165.335959,53.9235933 C164.805063,53.2669151 164.770135,52.4553164 165.957666,51.5003583 C166.129974,51.366248 166.353509,51.2159519 166.556088,51.0841538 L166.556088,51.0841538 Z" id="Fill-561" fill="#CD0000"></path>
                <polyline id="Fill-562" fill="#CD0000" points="30.8297872 66.0706275 31.2252816 62 28.9849812 65.4860415 25.0450563 63.8706753 27.8310388 66.9773324 25 70.0505846 28.9624531 68.4853257 31.1526909 72 30.8172716 67.9246003 35 67.0250537 30.8297872 66.0706275"></polyline>
                <polyline id="Fill-563" fill="#CD0000" points="25.9624531 141.486874 28.1526909 145 27.8172716 140.926014 32 140.026253 27.8297872 139.071599 28.2252816 135 25.9849812 138.484487 22.0450563 136.868735 24.8310388 139.97852 22 143.050119 25.9624531 141.486874"></polyline>
                <polyline id="Fill-564" fill="#CD0000" points="181.962453 141.486874 184.152691 145 183.817272 140.926014 188 140.026253 183.829787 139.071599 184.225282 135 181.984981 138.484487 178.045056 136.868735 180.831039 139.97852 178 143.050119 181.962453 141.486874"></polyline>
                <polyline id="Fill-565" fill="#CD0000" points="179.829787 66.0706275 180.225282 62 177.984981 65.4860415 174.045056 63.8706753 176.828536 66.9773324 174 70.0505846 177.962453 68.4853257 180.152691 72 179.814768 67.9246003 184 67.0250537 179.829787 66.0706275"></polyline>
                <path d="M43.7692308,154.391437 L38.2585385,157.125 C38.0383918,156.140399 37.677726,155.153207 37.3076923,154.264475 C39.9869239,153.764402 42.4366409,153.684079 43.7692308,154.391437 Z M26.8615421,158.160842 C26.9402343,157.952192 27.0953704,157.640315 27.6327257,157.25596 C29.3819408,156.004061 33.2558454,154.624775 36.9229018,153.897795 C37.3973034,154.670897 37.7233139,155.419841 37.9661356,156.535569 L30.9108178,159.632373 L32.6802681,162 L47,155.73611 C46.8695958,155.219976 46.5458336,154.644542 46.2625417,154.264579 C44.8213503,152.342804 40.9519424,151.828866 37.0150841,152.092424 C36.7902493,151.723443 36.5968913,151.431333 36.4282652,151.20072 C34.975832,149.261374 32.9905402,148.508038 31.8461308,149.327264 C31.1896131,149.795079 31.2143449,150.482525 31.6325377,151.040389 C32.014757,151.549934 32.5745958,151.78494 32.9792985,151.49283 C33.2131268,151.323714 33.4042364,150.989874 33.3412826,150.906414 C34.0719959,150.713138 34.8229443,151.235861 35.6548333,152.204436 C32.0102603,152.61295 28.51183,153.599096 26.996443,154.681879 C25.2472279,155.931582 26.1982793,157.271334 26.8615421,158.160842 L26.8615421,158.160842 Z" id="Fill-566" fill="#CD0000"></path>
                <path d="M68.7635526,185.292255 C69.5993676,183.470355 72.3946765,180.419522 74.2329645,181.096228 C74.9273728,181.349709 74.8920211,181.929096 74.7834409,182.159945 L71.7305697,186.161335 C70.9528325,187.191104 69.7761261,187.437796 69.147371,187.204683 C68.7585024,187.059837 68.0741946,186.785986 68.7635526,185.292255 Z M48.2025689,165.992996 C49.437595,164.804051 49.2192348,163.612836 48.2377883,162.662134 C47.7588048,162.199262 46.9604991,161.666051 45.5775517,161.752273 L46.5472584,161.141917 L44.3284379,159 L35,164.856237 L37.2141246,166.995885 L43.2037659,163.238454 C44.2063441,162.721127 45.2652732,162.494229 45.8217393,163.034246 C46.1903688,163.390476 46.0964504,163.835196 45.5892915,164.327565 C44.605497,165.275998 42.0156991,166.435447 40.9708577,167.447412 C40.0927213,168.293742 39.7053082,169.589329 41.0436444,170.880379 C41.8161226,171.631411 43.2295935,172.393788 46.2514157,171.109546 L43.649878,173.25827 L46.1293219,175.10295 L51.5507573,170.621715 C52.4735049,169.981863 53.4948667,169.625633 54.1170756,170.086236 C54.5303163,170.394817 54.4997928,170.846344 54.0607246,171.395437 C53.2131117,172.464127 50.8111505,173.938964 49.9095346,175.071185 C49.15584,176.019618 48.9492196,177.35151 50.447217,178.46331 C51.3230054,179.109969 52.8468303,179.695366 55.7183831,177.986824 C55.500023,178.245488 55.3004466,178.497344 55.1572211,178.735587 C54.2415174,180.267149 54.7322407,181.417522 55.8639565,182.048298 C56.6552185,182.493018 57.8503292,182.846979 59.6887804,181.880394 C59.1252705,183.069339 59.4398969,184.051807 60.5152617,184.653087 C61.4497491,185.177221 63.1731504,185.653707 65.6619861,183.888441 C64.8378528,186.059855 65.7606003,187.332752 67.0825008,187.859156 C68.5124073,188.426401 69.8366558,187.909073 70.8439298,187.264683 C70.4682565,188.478587 70.9261084,189.392986 72.0531283,189.835437 C73.0345748,190.227971 74.7579762,190.484365 76.9204457,188.53985 C76.8899222,188.614726 76.8335712,188.705485 76.8100916,188.778092 C76.2700612,190.484365 77.014364,191.51902 78.2611298,191.886595 C79.3858018,192.217866 80.663091,191.848022 81.2148612,190.450331 C81.0739837,190.47302 80.888495,190.484365 80.5128217,190.375454 C79.8694811,190.182591 79.7685189,189.778713 79.9140924,189.31811 C79.9727913,189.13886 80.0761015,188.948266 80.1817596,188.757672 L86,178.606255 L82.7926891,178.102542 L77.3876893,187.518809 C77.347774,187.591416 77.3360343,187.64814 77.2984669,187.71621 L76.786612,187.514271 C76.0704848,188.365138 75.159477,189.007259 74.3776069,188.691871 C73.814097,188.469511 73.6755674,188.07244 73.9103632,187.530154 C73.9831499,187.353173 74.0841121,187.167117 74.2531651,186.93795 L78.5194052,180.904732 L75.6220248,179.749821 L74.9622485,180.691448 L75.0185995,180.555309 C75.2604392,179.990333 74.9622485,179.368633 73.811749,178.914837 C70.5058239,177.598828 67.2679895,180.655144 65.9719166,183.210016 L65.5305004,182.960428 C64.7016712,183.715998 63.7765757,184.122146 63.0440127,183.71146 C62.5157221,183.416493 62.3701487,183.11245 62.6753833,182.604198 C62.7739975,182.440832 62.9007873,182.268389 63.1003637,182.064181 L68.1625616,176.634512 L65.4530178,175.116564 L60.670227,180.244459 C59.8413977,180.993222 58.9350859,181.410715 58.2001749,180.99776 C57.7869343,180.770862 57.8338935,180.357908 58.082777,179.938147 C58.1813913,179.772511 58.3011371,179.622758 58.4467106,179.459392 L63.5112564,174.031992 L60.7993647,172.509506 L56.0189218,177.637401 C56.007182,177.648746 55.9977902,177.66236 55.9860504,177.673705 L55.3802772,177.224447 C54.3143041,177.809844 53.5277381,178.181956 52.7669997,177.614711 C52.2504489,177.231254 52.302104,176.820568 52.635514,176.403076 C53.3751209,175.470525 55.8052576,174.068296 56.8782745,172.718253 C57.9372036,171.386361 57.5638783,170.23372 56.45799,169.414618 C55.9250035,169.017546 55.0586069,168.588709 53.6991391,168.851911 L54.5796234,168.123568 L52.0954836,166.281157 L46.6388288,170.78962 L46.1081902,170.27683 C44.9694305,170.72155 44.1406013,170.98929 43.4596934,170.331286 C43.0018415,169.884297 43.1098476,169.484956 43.4925648,169.112844 C44.3542655,168.280128 46.9581511,167.195555 48.2025689,165.992996 L48.2025689,165.992996 Z" id="Fill-567" fill="#CD0000"></path>
                <path d="M101.472945,180.46031 C99.3929302,180.14813 98.6772014,179.542406 96.1061368,179.151016 C90.8644079,178.363576 88.4647476,180.77482 88.0408694,183.614731 C87.8138745,185.150007 88.5411847,185.809313 90.0050701,186.028305 C90.0143352,185.83261 89.7618613,185.620607 89.9240005,184.532635 C90.4358971,181.09166 92.3097631,180.478948 94.5588656,180.816755 L94.8136557,180.85869 L89.6946893,194.538718 L92.7521715,195 L97.7205801,181.72767 C98.8323918,182.158665 99.9025106,182.536077 100.942518,182.696827 C102.640347,182.953095 103.68267,182.233216 104,180.3811 C103.393136,180.530201 102.448096,180.609411 101.472945,180.46031" id="Fill-568" fill="#CD0000"></path>
                <path d="M102.326458,191.748575 C101.976431,194.404588 101.003041,196.406363 100.112242,196.374628 C99.4200539,196.352657 99.1919464,196.00845 99.2253759,194.512001 C99.2725706,192.302725 100.491766,188.206409 101.781753,188.250351 C102.255666,188.264998 102.428713,188.633617 102.444444,189.58324 C102.114082,189.751682 101.868276,190.152037 101.854511,190.784305 C101.846646,191.238366 101.946934,191.624074 102.326458,191.748575 Z M110.315182,187.079285 L107.233905,187.367403 L106.900293,190.223432 C106.228435,190.500117 105.531093,190.696769 104.968123,190.68305 C104.900937,190.68305 104.817534,190.680763 104.731815,190.637316 C104.79205,188.412403 103.927902,187.225631 102.079136,187.177611 C97.6657275,187.058705 96.0694868,192.096201 96.0023011,194.531486 C95.9351153,196.943905 97.346016,197.911159 99.3384209,197.968325 C101.974882,198.036925 104.187378,195.638226 104.636828,191.73491 C105.405989,191.63201 106.140399,191.433072 106.791405,191.16096 L106.427676,194.275381 C106.369757,194.794451 106.348906,195.267788 106.388291,195.665666 C106.557414,197.440108 107.634702,198.105524 108.918182,197.986618 C109.817081,197.902012 110.987039,197.517854 111.892889,195.688532 C112.145414,196.982778 112.981761,197.609321 114.200371,197.494988 C115.266076,197.396662 116.934136,196.811279 117.888637,193.943816 L117.88632,196.964485 L120.907362,196.331082 L120.900412,188.110565 C121.324377,187.522895 121.632505,187.131878 122.264978,187.003825 C122.892817,186.871199 122.600907,188.35981 123.773182,188.115139 C124.804136,187.90248 125.119214,187.010685 124.961675,186.285816 C124.792552,185.499208 124.125328,184.838365 123.180094,185.035017 C122.172308,185.247676 121.518984,186.077731 120.916629,186.85062 L120.911996,185.508354 L117.890954,186.141757 L117.888637,193.209801 L117.226047,193.27154 C117.008272,194.359987 116.505538,195.212909 115.673824,195.292941 C115.073786,195.347821 114.777242,195.185469 114.72164,194.593226 C114.703106,194.401147 114.703106,194.188488 114.740174,193.90723 L115.597372,186.589941 L112.516094,186.875773 L111.707549,193.786037 C111.487457,194.872197 111.010207,195.725119 110.176177,195.802865 C109.705877,195.846311 109.497369,195.482734 109.453351,194.997963 C109.434817,194.808171 109.437134,194.613806 109.460301,194.39886 L110.315182,187.079285 L110.315182,187.079285 Z" id="Fill-569" fill="#CD0000"></path>
                <path d="M140.095746,179.194663 C140.680865,178.899239 141.075328,179.306015 141.18271,179.528719 L142.337608,184.244145 C142.637838,185.455385 142.142569,186.409832 141.614427,186.682532 C141.2879,186.846151 140.694014,187.125668 140.003705,185.673544 C139.159993,183.896454 138.548576,179.987763 140.095746,179.194663 Z M136.049608,188.393507 C135.434803,188.580344 135.112206,188.324785 134.943894,187.850177 C134.555842,186.79573 134.714803,184.210081 134.160778,182.681026 C133.613765,181.173446 132.421557,180.842724 131.107791,181.246463 C130.469609,181.444037 129.621038,181.8714 129.088051,183.041814 L128.957142,181.989515 L126,182.897928 L127.245974,193 L130.205454,192.093734 L129.403636,185.605988 C129.366233,184.568722 129.635064,183.608767 130.373765,183.378979 C130.867012,183.228651 131.236363,183.492799 131.463116,184.117736 C131.902596,185.322511 131.820778,187.927489 132.285973,189.209576 C132.676362,190.285498 133.695583,191.148813 135.481557,190.59904 C136.484413,190.294088 137.765452,189.497347 137.989868,186.696943 C139.123634,188.610409 140.710906,188.773623 141.982594,188.19808 C143.36649,187.573143 143.83636,186.34045 143.999996,185.2452 C144.689607,186.263138 145.694801,186.516549 146.784152,186.026908 C147.833762,185.552299 149.371943,184.366852 148.918437,180.954396 L148.102593,181.325922 C148.289606,182.348156 148.184411,183.374684 147.429346,183.716145 C146.884671,183.960965 146.487269,183.808489 146.220775,183.30811 C146.134282,183.149192 146.059476,182.960207 145.991684,182.700354 L144.137918,176 L141.339737,177.264907 L141.634283,178.310763 L141.56649,178.184058 C141.290646,177.668646 140.610387,177.483957 139.502335,177.984336 C136.311426,179.429636 136.542855,183.570111 137.664933,186.054826 L137.174024,186.203007 C137.075842,187.326175 136.954284,188.114325 136.049608,188.393507 L136.049608,188.393507 Z" id="Fill-570" fill="#CD0000"></path>
                <path d="M161.922713,162.392081 C162.119141,162.116141 162.345427,162.266252 162.599998,162.634908 C163.443855,163.85125 163.517713,165.9506 162.764998,167.125 C161.965141,165.387683 161.388427,163.120562 161.922713,162.392081 Z M172.070442,147.394837 L171.394003,148.466367 C170.071973,147.066911 169.078246,146 169.078246,146 L167.758419,148.882046 L169.776719,151.041272 L169.408754,151.63477 L169.999261,152.246743 L170.371633,151.660173 L174.610944,156.16337 L174.194505,156.694517 C174.736537,157.761428 175.071452,158.546601 174.507385,159.27635 C174.11959,159.772856 173.72298,159.708195 173.328575,159.373342 C172.440611,158.61819 171.145021,156.188773 169.864855,155.096459 C168.597909,154.015692 167.471979,154.350545 166.647914,155.410528 C166.249101,155.927819 165.810628,156.763797 166.028763,158.105519 L165.345714,157.223354 L163.494871,159.611203 L167.670284,165.035824 L167.220794,165.490763 C167.302319,167.114223 167.227404,168.504441 166.070627,169.689128 C165.367747,170.407331 164.788257,170.518179 163.818768,169.47667 C163.646904,169.291923 163.46182,169.06099 163.278939,168.830057 C164.935884,166.929477 165.273002,163.922726 163.631481,162.156087 C162.919788,161.389389 161.956909,160.999112 160.654709,162.329287 C157.746241,165.296779 159.99149,169.767646 161.624198,171.647442 L161.154877,172.005388 C161.412673,173.183148 161.544876,174.030673 160.815556,174.584912 C160.319794,174.956715 159.951829,174.790443 159.652169,174.356288 C158.98234,173.38406 158.332342,170.68676 157.362853,169.280377 C156.408787,167.892468 155.236587,167.910943 154.176759,168.709972 C153.564218,169.174147 152.801847,170.040147 152.892186,171.924562 C151.968968,170.989282 151.036936,171.060872 150.159989,171.725959 C149.580499,172.162423 148.943721,172.880625 148.822535,174.238513 L148.381858,173.201622 L146,175.002901 L150.221684,185 L152.603543,183.198721 L149.89338,176.781087 C149.545245,175.728032 149.47694,174.640336 150.122532,174.155377 C150.483887,173.878257 150.880496,174.157686 151.144902,174.541035 C151.252868,174.69576 151.33219,174.845867 151.393885,175.012139 L154.306759,181.907804 L156.693024,180.104216 L153.980658,173.686582 C153.632523,172.631217 153.577438,171.566615 154.172352,171.113986 C154.571165,170.816082 154.983198,170.975426 155.379807,171.548141 C156.144381,172.658929 156.867091,175.356229 157.677936,176.536298 C158.358782,177.524692 159.542,178.106644 160.980809,177.018948 C161.813689,176.388501 162.750127,175.141461 161.974536,172.007698 C163.519108,173.52031 165.013003,173.28014 166.33283,171.933799 C168.236554,169.989342 168.196893,167.36825 167.745199,165.135126 L170.038922,168.114164 L171.891968,165.726315 L167.687911,160.271672 C167.092997,159.34563 166.77571,158.329524 167.238421,157.731407 C167.546894,157.334202 167.985368,157.380388 168.50757,157.82609 C169.521127,158.68978 170.885022,161.091485 171.962476,162.012909 C172.863661,162.779607 174.150437,163.024396 175.269756,161.578754 C175.906534,160.756632 176.497041,159.320227 175.033994,156.562885 C175.223485,156.743013 175.410773,156.930069 175.611281,157.066319 C176.704159,157.819162 177.878563,157.86073 178.662968,156.606762 C179.046357,156.001717 179.332797,155.068747 178.180427,153.556135 C178.142969,153.733953 178.01958,153.932556 177.940258,154.05726 C177.636191,154.53991 177.292463,154.507579 176.933311,154.258171 C176.74382,154.131158 176.563143,153.95334 176.391279,153.757046 L171.988917,149.082958 L172.663153,148.009119 L172.070442,147.394837 L172.070442,147.394837 Z" id="Fill-571" fill="#CD0000"></path>
                <text id="Best" font-family="Bebas" font-size="34.2857143" font-weight="normal" letter-spacing="-3.14285721" fill="#D30300">
                    <tspan x="0" y="119">Bes</tspan>
                    <tspan x="44.7029219" y="119">t</tspan>
                </text>
                <text id="SHOT" font-family="Bebas" font-size="34.2857143" font-weight="normal" letter-spacing="-3.14285721" fill="#D30300">
                    <tspan x="144" y="121">SHOT</tspan>
                </text>
            </g>
        </g>
    </g>
</svg>