<?xml version="1.0" encoding="UTF-8"?>
<svg width="40px" height="40px" viewBox="0 0 40 40" version="1.1" xmlns="http://www.w3.org/2000/svg" xmlns:xlink="http://www.w3.org/1999/xlink">
    <!-- Generator: Sketch 54.1 (76490) - https://sketchapp.com -->
    <title>Group 85</title>
    <desc>Created with Sketch.</desc>
    <defs>
        <polygon id="path-1" points="0.457128205 0.488205128 39.8307692 0.488205128 39.8307692 39.5664615 0.457128205 39.5664615"></polygon>
    </defs>
    <g id="Page-1" stroke="none" stroke-width="1" fill="none" fill-rule="evenodd">
        <g id="Artboard">
            <g id="Group-85">
                <mask id="mask-2" fill="white">
                    <use xlink:href="#path-1"></use>
                </mask>
                <g id="Clip-84"></g>
                <path d="M20.1443077,0.486461538 C9.27046154,0.486461538 0.457128205,9.30184615 0.457128205,20.1746667 C0.457128205,29.8905641 7.49507692,37.9562051 16.7494359,39.5664615 L16.7494359,39.4977436 L16.7494359,25.6064615 L11.997641,25.6064615 L11.997641,20.1746667 L16.7494359,20.1746667 L16.7494359,15.8372308 C16.7494359,10.9028718 20.0078974,7.95517949 24.5053333,7.95517949 C26.6591795,7.95517949 28.9699487,8.30902564 28.9699487,8.30902564 L28.9699487,13.3859487 L26.4294359,13.3859487 C23.9843077,13.3859487 23.5391795,14.9244103 23.5391795,16.482359 L23.5391795,20.1746667 L28.9699487,20.1746667 L28.0202051,25.6064615 L23.5391795,25.6064615 L23.5391795,39.4977436 L23.5402051,39.4977436 L23.5402051,39.5664615 C32.7935385,37.9562051 39.8325128,29.8905641 39.8325128,20.1746667 C39.8325128,9.30184615 31.0191795,0.486461538 20.1443077,0.486461538" id="Fill-83" fill="#FFFFFF" mask="url(#mask-2)"></path>
            </g>
        </g>
    </g>
</svg>