<?xml version="1.0" encoding="UTF-8"?>
<svg width="50px" height="50px" viewBox="0 0 50 50" version="1.1" xmlns="http://www.w3.org/2000/svg" xmlns:xlink="http://www.w3.org/1999/xlink">
    <!-- Generator: Sketch 54.1 (76490) - https://sketchapp.com -->
    <title>Artboard</title>
    <desc>Created with Sketch.</desc>
    <g id="Artboard" stroke="none" stroke-width="1" fill="none" fill-rule="evenodd">
        <g id="Group-3" transform="translate(1.000000, 1.000000)" fill="#1B82F4" stroke="#FFFFFF">
            <path d="M48,24 C48,10.7451563 37.2548437,0 24,0 C10.7451563,0 0,10.7451563 0,24 C0,35.9790938 8.77645312,45.9079688 20.25,47.7084375 L20.25,30.9375 L14.15625,30.9375 L14.15625,24 L20.25,24 L20.25,18.7125 C20.25,12.6975 23.8330312,9.375 29.3151563,9.375 C31.9409531,9.375 34.6875,9.84375 34.6875,9.84375 L34.6875,15.75 L31.6611562,15.75 C28.6797656,15.75 27.75,17.6000156 27.75,19.4979844 L27.75,24 L34.40625,24 L33.3421875,30.9375 L27.75,30.9375 L27.75,47.7084375 C39.2235469,45.9079688 48,35.9790938 48,24" id="Fill-1"></path>
        </g>
    </g>
</svg>