<?xml version="1.0" encoding="UTF-8"?>
<svg width="120px" height="80px" viewBox="0 0 120 80" version="1.1" xmlns="http://www.w3.org/2000/svg" xmlns:xlink="http://www.w3.org/1999/xlink">
    <!-- Generator: Sketch 53.2 (72643) - https://sketchapp.com -->
    <title>Rectangle 2</title>
    <desc>Created with Sketch.</desc>
    <defs>
        <rect id="path-1" x="0" y="0" width="120" height="80"></rect>
    </defs>
    <g id="Page-1" stroke="none" stroke-width="1" fill="none" fill-rule="evenodd">
        <g id="Cricket-Teams" transform="translate(-824.000000, -403.000000)">
            <g id="Group-5-Copy" transform="translate(800.000000, 379.000000)">
                <g id="Rectangle-2" transform="translate(24.000000, 24.000000)">
                    <mask id="mask-2" fill="white">
                        <use xlink:href="#path-1"></use>
                    </mask>
                    <use id="Rectangle" fill="#ECECEC" xlink:href="#path-1"></use>
                    <g id="Flag_of_India" mask="url(#mask-2)" fill-rule="nonzero">
                        <rect id="Rectangle" fill="#FF9933" x="0" y="0" width="120" height="80"></rect>
                        <rect id="Rectangle" fill="#FFFFFF" x="0" y="26.6666667" width="120" height="26.6666667"></rect>
                        <rect id="Rectangle" fill="#128807" x="0" y="53.3333333" width="120" height="26.6666667"></rect>
                        <g id="Group" transform="translate(30.000000, 1.666667)">
                            <ellipse id="Oval" fill="#000088" cx="30.3571429" cy="38.8372093" rx="10.7142857" ry="10.8527132"></ellipse>
                            <ellipse id="Oval" fill="#FFFFFF" cx="30.3571429" cy="38.8372093" rx="9.375" ry="9.49612403"></ellipse>
                            <ellipse id="Oval" fill="#000088" cx="30.3571429" cy="38.8372093" rx="1.875" ry="1.89922481"></ellipse>
                            <g id="d" transform="translate(1.607143, 22.945736)" fill="#000088">
                                <g id="c" transform="translate(14.642857, 10.930233)">
                                    <g id="b" transform="translate(7.559524, 3.294574)">
                                        <g id="a" transform="translate(6.011905, 0.542636)">
                                            <circle id="Oval" transform="translate(9.830510, 2.363524) rotate(7.500000) translate(-9.830510, -2.363524) " cx="9.83050986" cy="2.36352392" r="1"></circle>
                                            <path d="M0.535714286,10.620155 L0.857142857,4.92248062 C0.857142857,4.92248062 0.535714286,2.20930233 0.535714286,2.20930233 C0.535714286,2.20930233 0.214285714,4.92248062 0.214285714,4.92248062 L0.535714286,10.620155 Z" id="Path"></path>
                                        </g>
                                        <g id="a-link" transform="translate(9.447255, 8.199735) rotate(15.000000) translate(-9.447255, -8.199735) translate(2.780588, 1.533068)">
                                            <g id="a" transform="translate(1.659848, -0.006174)">
                                                <circle id="Oval" transform="translate(9.830510, 2.363524) rotate(7.500000) translate(-9.830510, -2.363524) " cx="9.83050986" cy="2.36352392" r="1"></circle>
                                                <path d="M0.535714286,10.620155 L0.857142857,4.92248062 C0.857142857,4.92248062 0.535714286,2.20930233 0.535714286,2.20930233 C0.535714286,2.20930233 0.214285714,4.92248062 0.214285714,4.92248062 L0.535714286,10.620155 Z" id="Path"></path>
                                            </g>
                                        </g>
                                    </g>
                                    <g id="b-link" transform="translate(13.405670, 13.216394) rotate(30.000000) translate(-13.405670, -13.216394) translate(3.405670, 4.049727)">
                                        <g id="b" transform="translate(-0.021989, -0.000328)">
                                            <g id="a" transform="translate(6.011905, 0.542636)">
                                                <circle id="Oval" transform="translate(9.830510, 2.363524) rotate(7.500000) translate(-9.830510, -2.363524) " cx="9.83050986" cy="2.36352392" r="1"></circle>
                                                <path d="M0.535714286,10.620155 L0.857142857,4.92248062 C0.857142857,4.92248062 0.535714286,2.20930233 0.535714286,2.20930233 C0.535714286,2.20930233 0.214285714,4.92248062 0.214285714,4.92248062 L0.535714286,10.620155 Z" id="Path"></path>
                                            </g>
                                            <g id="a-link" transform="translate(9.447255, 8.199735) rotate(15.000000) translate(-9.447255, -8.199735) translate(2.780588, 1.533068)">
                                                <g id="a" transform="translate(1.659848, -0.006174)">
                                                    <circle id="Oval" transform="translate(9.830510, 2.363524) rotate(7.500000) translate(-9.830510, -2.363524) " cx="9.83050986" cy="2.36352392" r="1"></circle>
                                                    <path d="M0.535714286,10.620155 L0.857142857,4.92248062 C0.857142857,4.92248062 0.535714286,2.20930233 0.535714286,2.20930233 C0.535714286,2.20930233 0.214285714,4.92248062 0.214285714,4.92248062 L0.535714286,10.620155 Z" id="Path"></path>
                                                </g>
                                            </g>
                                        </g>
                                    </g>
                                </g>
                                <g id="c-link" transform="translate(20.898040, 20.584217) rotate(60.000000) translate(-20.898040, -20.584217) translate(6.731373, 6.417550)">
                                    <g id="c" transform="translate(-0.032880, -0.008024)">
                                        <g id="b" transform="translate(7.559524, 3.294574)">
                                            <g id="a" transform="translate(6.011905, 0.542636)">
                                                <circle id="Oval" transform="translate(9.830510, 2.363524) rotate(7.500000) translate(-9.830510, -2.363524) " cx="9.83050986" cy="2.36352392" r="1"></circle>
                                                <path d="M0.535714286,10.620155 L0.857142857,4.92248062 C0.857142857,4.92248062 0.535714286,2.20930233 0.535714286,2.20930233 C0.535714286,2.20930233 0.214285714,4.92248062 0.214285714,4.92248062 L0.535714286,10.620155 Z" id="Path"></path>
                                            </g>
                                            <g id="a-link" transform="translate(9.447255, 8.199735) rotate(15.000000) translate(-9.447255, -8.199735) translate(2.780588, 1.533068)">
                                                <g id="a" transform="translate(1.659848, -0.006174)">
                                                    <circle id="Oval" transform="translate(9.830510, 2.363524) rotate(7.500000) translate(-9.830510, -2.363524) " cx="9.83050986" cy="2.36352392" r="1"></circle>
                                                    <path d="M0.535714286,10.620155 L0.857142857,4.92248062 C0.857142857,4.92248062 0.535714286,2.20930233 0.535714286,2.20930233 C0.535714286,2.20930233 0.214285714,4.92248062 0.214285714,4.92248062 L0.535714286,10.620155 Z" id="Path"></path>
                                                </g>
                                            </g>
                                        </g>
                                        <g id="b-link" transform="translate(13.405670, 13.216394) rotate(30.000000) translate(-13.405670, -13.216394) translate(3.405670, 4.049727)">
                                            <g id="b" transform="translate(-0.021989, -0.000328)">
                                                <g id="a" transform="translate(6.011905, 0.542636)">
                                                    <circle id="Oval" transform="translate(9.830510, 2.363524) rotate(7.500000) translate(-9.830510, -2.363524) " cx="9.83050986" cy="2.36352392" r="1"></circle>
                                                    <path d="M0.535714286,10.620155 L0.857142857,4.92248062 C0.857142857,4.92248062 0.535714286,2.20930233 0.535714286,2.20930233 C0.535714286,2.20930233 0.214285714,4.92248062 0.214285714,4.92248062 L0.535714286,10.620155 Z" id="Path"></path>
                                                </g>
                                                <g id="a-link" transform="translate(9.447255, 8.199735) rotate(15.000000) translate(-9.447255, -8.199735) translate(2.780588, 1.533068)">
                                                    <g id="a" transform="translate(1.659848, -0.006174)">
                                                        <circle id="Oval" transform="translate(9.830510, 2.363524) rotate(7.500000) translate(-9.830510, -2.363524) " cx="9.83050986" cy="2.36352392" r="1"></circle>
                                                        <path d="M0.535714286,10.620155 L0.857142857,4.92248062 C0.857142857,4.92248062 0.535714286,2.20930233 0.535714286,2.20930233 C0.535714286,2.20930233 0.214285714,4.92248062 0.214285714,4.92248062 L0.535714286,10.620155 Z" id="Path"></path>
                                                    </g>
                                                </g>
                                            </g>
                                        </g>
                                    </g>
                                </g>
                            </g>
                            <g id="d-link" transform="translate(29.613997, 30.173184) rotate(120.000000) translate(-29.613997, -30.173184) translate(7.947330, 9.339850)" fill="#000088">
                                <g id="d" transform="translate(-0.015646, -0.048692)">
                                    <g id="c" transform="translate(14.642857, 10.930233)">
                                        <g id="b" transform="translate(7.559524, 3.294574)">
                                            <g id="a" transform="translate(6.011905, 0.542636)">
                                                <circle id="Oval" transform="translate(9.830510, 2.363524) rotate(7.500000) translate(-9.830510, -2.363524) " cx="9.83050986" cy="2.36352392" r="1"></circle>
                                                <path d="M0.535714286,10.620155 L0.857142857,4.92248062 C0.857142857,4.92248062 0.535714286,2.20930233 0.535714286,2.20930233 C0.535714286,2.20930233 0.214285714,4.92248062 0.214285714,4.92248062 L0.535714286,10.620155 Z" id="Path"></path>
                                            </g>
                                            <g id="a-link" transform="translate(9.447255, 8.199735) rotate(15.000000) translate(-9.447255, -8.199735) translate(2.780588, 1.533068)">
                                                <g id="a" transform="translate(1.659848, -0.006174)">
                                                    <circle id="Oval" transform="translate(9.830510, 2.363524) rotate(7.500000) translate(-9.830510, -2.363524) " cx="9.83050986" cy="2.36352392" r="1"></circle>
                                                    <path d="M0.535714286,10.620155 L0.857142857,4.92248062 C0.857142857,4.92248062 0.535714286,2.20930233 0.535714286,2.20930233 C0.535714286,2.20930233 0.214285714,4.92248062 0.214285714,4.92248062 L0.535714286,10.620155 Z" id="Path"></path>
                                                </g>
                                            </g>
                                        </g>
                                        <g id="b-link" transform="translate(13.405670, 13.216394) rotate(30.000000) translate(-13.405670, -13.216394) translate(3.405670, 4.049727)">
                                            <g id="b" transform="translate(-0.021989, -0.000328)">
                                                <g id="a" transform="translate(6.011905, 0.542636)">
                                                    <circle id="Oval" transform="translate(9.830510, 2.363524) rotate(7.500000) translate(-9.830510, -2.363524) " cx="9.83050986" cy="2.36352392" r="1"></circle>
                                                    <path d="M0.535714286,10.620155 L0.857142857,4.92248062 C0.857142857,4.92248062 0.535714286,2.20930233 0.535714286,2.20930233 C0.535714286,2.20930233 0.214285714,4.92248062 0.214285714,4.92248062 L0.535714286,10.620155 Z" id="Path"></path>
                                                </g>
                                                <g id="a-link" transform="translate(9.447255, 8.199735) rotate(15.000000) translate(-9.447255, -8.199735) translate(2.780588, 1.533068)">
                                                    <g id="a" transform="translate(1.659848, -0.006174)">
                                                        <circle id="Oval" transform="translate(9.830510, 2.363524) rotate(7.500000) translate(-9.830510, -2.363524) " cx="9.83050986" cy="2.36352392" r="1"></circle>
                                                        <path d="M0.535714286,10.620155 L0.857142857,4.92248062 C0.857142857,4.92248062 0.535714286,2.20930233 0.535714286,2.20930233 C0.535714286,2.20930233 0.214285714,4.92248062 0.214285714,4.92248062 L0.535714286,10.620155 Z" id="Path"></path>
                                                    </g>
                                                </g>
                                            </g>
                                        </g>
                                    </g>
                                    <g id="c-link" transform="translate(20.898040, 20.584217) rotate(60.000000) translate(-20.898040, -20.584217) translate(6.731373, 6.417550)">
                                        <g id="c" transform="translate(-0.032880, -0.008024)">
                                            <g id="b" transform="translate(7.559524, 3.294574)">
                                                <g id="a" transform="translate(6.011905, 0.542636)">
                                                    <circle id="Oval" transform="translate(9.830510, 2.363524) rotate(7.500000) translate(-9.830510, -2.363524) " cx="9.83050986" cy="2.36352392" r="1"></circle>
                                                    <path d="M0.535714286,10.620155 L0.857142857,4.92248062 C0.857142857,4.92248062 0.535714286,2.20930233 0.535714286,2.20930233 C0.535714286,2.20930233 0.214285714,4.92248062 0.214285714,4.92248062 L0.535714286,10.620155 Z" id="Path"></path>
                                                </g>
                                                <g id="a-link" transform="translate(9.447255, 8.199735) rotate(15.000000) translate(-9.447255, -8.199735) translate(2.780588, 1.533068)">
                                                    <g id="a" transform="translate(1.659848, -0.006174)">
                                                        <circle id="Oval" transform="translate(9.830510, 2.363524) rotate(7.500000) translate(-9.830510, -2.363524) " cx="9.83050986" cy="2.36352392" r="1"></circle>
                                                        <path d="M0.535714286,10.620155 L0.857142857,4.92248062 C0.857142857,4.92248062 0.535714286,2.20930233 0.535714286,2.20930233 C0.535714286,2.20930233 0.214285714,4.92248062 0.214285714,4.92248062 L0.535714286,10.620155 Z" id="Path"></path>
                                                    </g>
                                                </g>
                                            </g>
                                            <g id="b-link" transform="translate(13.405670, 13.216394) rotate(30.000000) translate(-13.405670, -13.216394) translate(3.405670, 4.049727)">
                                                <g id="b" transform="translate(-0.021989, -0.000328)">
                                                    <g id="a" transform="translate(6.011905, 0.542636)">
                                                        <circle id="Oval" transform="translate(9.830510, 2.363524) rotate(7.500000) translate(-9.830510, -2.363524) " cx="9.83050986" cy="2.36352392" r="1"></circle>
                                                        <path d="M0.535714286,10.620155 L0.857142857,4.92248062 C0.857142857,4.92248062 0.535714286,2.20930233 0.535714286,2.20930233 C0.535714286,2.20930233 0.214285714,4.92248062 0.214285714,4.92248062 L0.535714286,10.620155 Z" id="Path"></path>
                                                    </g>
                                                    <g id="a-link" transform="translate(9.447255, 8.199735) rotate(15.000000) translate(-9.447255, -8.199735) translate(2.780588, 1.533068)">
                                                        <g id="a" transform="translate(1.659848, -0.006174)">
                                                            <circle id="Oval" transform="translate(9.830510, 2.363524) rotate(7.500000) translate(-9.830510, -2.363524) " cx="9.83050986" cy="2.36352392" r="1"></circle>
                                                            <path d="M0.535714286,10.620155 L0.857142857,4.92248062 C0.857142857,4.92248062 0.535714286,2.20930233 0.535714286,2.20930233 C0.535714286,2.20930233 0.214285714,4.92248062 0.214285714,4.92248062 L0.535714286,10.620155 Z" id="Path"></path>
                                                        </g>
                                                    </g>
                                                </g>
                                            </g>
                                        </g>
                                    </g>
                                </g>
                            </g>
                            <g id="d-link" transform="translate(36.640929, 43.393885) rotate(-120.000000) translate(-36.640929, -43.393885) translate(14.974263, 22.560552)" fill="#000088">
                                <g id="d" transform="translate(-0.014293, 1.715371)">
                                    <g id="c" transform="translate(14.642857, 10.930233)">
                                        <g id="b" transform="translate(7.559524, 3.294574)">
                                            <g id="a" transform="translate(6.011905, 0.542636)">
                                                <circle id="Oval" transform="translate(9.830510, 2.363524) rotate(7.500000) translate(-9.830510, -2.363524) " cx="9.83050986" cy="2.36352392" r="1"></circle>
                                                <path d="M0.535714286,10.620155 L0.857142857,4.92248062 C0.857142857,4.92248062 0.535714286,2.20930233 0.535714286,2.20930233 C0.535714286,2.20930233 0.214285714,4.92248062 0.214285714,4.92248062 L0.535714286,10.620155 Z" id="Path"></path>
                                            </g>
                                            <g id="a-link" transform="translate(9.447255, 8.199735) rotate(15.000000) translate(-9.447255, -8.199735) translate(2.780588, 1.533068)">
                                                <g id="a" transform="translate(1.659848, -0.006174)">
                                                    <circle id="Oval" transform="translate(9.830510, 2.363524) rotate(7.500000) translate(-9.830510, -2.363524) " cx="9.83050986" cy="2.36352392" r="1"></circle>
                                                    <path d="M0.535714286,10.620155 L0.857142857,4.92248062 C0.857142857,4.92248062 0.535714286,2.20930233 0.535714286,2.20930233 C0.535714286,2.20930233 0.214285714,4.92248062 0.214285714,4.92248062 L0.535714286,10.620155 Z" id="Path"></path>
                                                </g>
                                            </g>
                                        </g>
                                        <g id="b-link" transform="translate(13.405670, 13.216394) rotate(30.000000) translate(-13.405670, -13.216394) translate(3.405670, 4.049727)">
                                            <g id="b" transform="translate(-0.021989, -0.000328)">
                                                <g id="a" transform="translate(6.011905, 0.542636)">
                                                    <circle id="Oval" transform="translate(9.830510, 2.363524) rotate(7.500000) translate(-9.830510, -2.363524) " cx="9.83050986" cy="2.36352392" r="1"></circle>
                                                    <path d="M0.535714286,10.620155 L0.857142857,4.92248062 C0.857142857,4.92248062 0.535714286,2.20930233 0.535714286,2.20930233 C0.535714286,2.20930233 0.214285714,4.92248062 0.214285714,4.92248062 L0.535714286,10.620155 Z" id="Path"></path>
                                                </g>
                                                <g id="a-link" transform="translate(9.447255, 8.199735) rotate(15.000000) translate(-9.447255, -8.199735) translate(2.780588, 1.533068)">
                                                    <g id="a" transform="translate(1.659848, -0.006174)">
                                                        <circle id="Oval" transform="translate(9.830510, 2.363524) rotate(7.500000) translate(-9.830510, -2.363524) " cx="9.83050986" cy="2.36352392" r="1"></circle>
                                                        <path d="M0.535714286,10.620155 L0.857142857,4.92248062 C0.857142857,4.92248062 0.535714286,2.20930233 0.535714286,2.20930233 C0.535714286,2.20930233 0.214285714,4.92248062 0.214285714,4.92248062 L0.535714286,10.620155 Z" id="Path"></path>
                                                    </g>
                                                </g>
                                            </g>
                                        </g>
                                    </g>
                                    <g id="c-link" transform="translate(20.898040, 20.584217) rotate(60.000000) translate(-20.898040, -20.584217) translate(6.731373, 6.417550)">
                                        <g id="c" transform="translate(-0.032880, -0.008024)">
                                            <g id="b" transform="translate(7.559524, 3.294574)">
                                                <g id="a" transform="translate(6.011905, 0.542636)">
                                                    <circle id="Oval" transform="translate(9.830510, 2.363524) rotate(7.500000) translate(-9.830510, -2.363524) " cx="9.83050986" cy="2.36352392" r="1"></circle>
                                                    <path d="M0.535714286,10.620155 L0.857142857,4.92248062 C0.857142857,4.92248062 0.535714286,2.20930233 0.535714286,2.20930233 C0.535714286,2.20930233 0.214285714,4.92248062 0.214285714,4.92248062 L0.535714286,10.620155 Z" id="Path"></path>
                                                </g>
                                                <g id="a-link" transform="translate(9.447255, 8.199735) rotate(15.000000) translate(-9.447255, -8.199735) translate(2.780588, 1.533068)">
                                                    <g id="a" transform="translate(1.659848, -0.006174)">
                                                        <circle id="Oval" transform="translate(9.830510, 2.363524) rotate(7.500000) translate(-9.830510, -2.363524) " cx="9.83050986" cy="2.36352392" r="1"></circle>
                                                        <path d="M0.535714286,10.620155 L0.857142857,4.92248062 C0.857142857,4.92248062 0.535714286,2.20930233 0.535714286,2.20930233 C0.535714286,2.20930233 0.214285714,4.92248062 0.214285714,4.92248062 L0.535714286,10.620155 Z" id="Path"></path>
                                                    </g>
                                                </g>
                                            </g>
                                            <g id="b-link" transform="translate(13.405670, 13.216394) rotate(30.000000) translate(-13.405670, -13.216394) translate(3.405670, 4.049727)">
                                                <g id="b" transform="translate(-0.021989, -0.000328)">
                                                    <g id="a" transform="translate(6.011905, 0.542636)">
                                                        <circle id="Oval" transform="translate(9.830510, 2.363524) rotate(7.500000) translate(-9.830510, -2.363524) " cx="9.83050986" cy="2.36352392" r="1"></circle>
                                                        <path d="M0.535714286,10.620155 L0.857142857,4.92248062 C0.857142857,4.92248062 0.535714286,2.20930233 0.535714286,2.20930233 C0.535714286,2.20930233 0.214285714,4.92248062 0.214285714,4.92248062 L0.535714286,10.620155 Z" id="Path"></path>
                                                    </g>
                                                    <g id="a-link" transform="translate(9.447255, 8.199735) rotate(15.000000) translate(-9.447255, -8.199735) translate(2.780588, 1.533068)">
                                                        <g id="a" transform="translate(1.659848, -0.006174)">
                                                            <circle id="Oval" transform="translate(9.830510, 2.363524) rotate(7.500000) translate(-9.830510, -2.363524) " cx="9.83050986" cy="2.36352392" r="1"></circle>
                                                            <path d="M0.535714286,10.620155 L0.857142857,4.92248062 C0.857142857,4.92248062 0.535714286,2.20930233 0.535714286,2.20930233 C0.535714286,2.20930233 0.214285714,4.92248062 0.214285714,4.92248062 L0.535714286,10.620155 Z" id="Path"></path>
                                                        </g>
                                                    </g>
                                                </g>
                                            </g>
                                        </g>
                                    </g>
                                </g>
                            </g>
                        </g>
                    </g>
                </g>
            </g>
        </g>
    </g>
</svg>