<?xml version="1.0" encoding="UTF-8"?>
<svg width="40px" height="40px" viewBox="0 0 40 40" version="1.1" xmlns="http://www.w3.org/2000/svg" xmlns:xlink="http://www.w3.org/1999/xlink">
    <!-- Generator: Sketch 54.1 (76490) - https://sketchapp.com -->
    <title>Artboard</title>
    <desc>Created with Sketch.</desc>
    <g id="Artboard" stroke="none" stroke-width="1" fill="none" fill-rule="evenodd">
        <g id="gobble-gobble" transform="translate(9.000000, 0.000000)" fill="#FFFFFF" fill-rule="nonzero">
            <path d="M22.8635753,13.7186719 C22.7533801,13.4839844 22.5160548,13.3333594 22.2546267,13.3333594 L14.2896952,13.3333594 L22.1504178,1.02335937 C22.2814863,0.818046875 22.2895205,0.558046875 22.1712911,0.345390625 C22.0529829,0.13203125 21.8270788,0 21.5824281,0 L10.8281164,0 C10.5733836,0 10.3407842,0.14265625 10.2265719,0.368671875 L0.144380137,20.3686719 C0.0401712329,20.5746875 0.0515924658,20.82 0.173917808,21.0166406 C0.296952055,21.2132812 0.512695205,21.3332812 0.745924658,21.3332812 L7.65758219,21.3332812 L0.126184932,39.0746094 C-0.00220547945,39.3779688 0.112085616,39.7299219 0.395017123,39.9019531 C0.503873288,39.9679688 0.624859589,39.9999219 0.745215753,39.9999219 C0.938116438,39.9999219 1.12833904,39.9178906 1.26011644,39.7632812 L22.7688185,14.4299219 C22.9374589,14.2313281 22.9737705,13.9539844 22.8635753,13.7186719 Z" id="Path"></path>
        </g>
    </g>
</svg>