<?xml version="1.0" encoding="UTF-8"?>
<svg width="40px" height="40px" viewBox="0 0 40 40" version="1.1" xmlns="http://www.w3.org/2000/svg" xmlns:xlink="http://www.w3.org/1999/xlink">
    <!-- Generator: Sketch 54.1 (76490) - https://sketchapp.com -->
    <title>logo_googleg_48dp</title>
    <desc>Created with Sketch.</desc>
    <g id="Page-1" stroke="none" stroke-width="1" fill="none" fill-rule="evenodd">
        <g id="Home-Copy-4" transform="translate(-844.000000, -441.000000)">
            <g id="Group-40" transform="translate(680.000000, 313.000000)">
                <g id="Group-19" transform="translate(24.000000, 108.000000)">
                    <g id="Group-17" transform="translate(140.000000, 20.000000)">
                        <g id="logo_googleg_48dp">
                            <path d="M39.2,20.4545455 C39.2,19.0363636 39.0727273,17.6727273 38.8363636,16.3636364 L20,16.3636364 L20,24.1 L30.7636364,24.1 C30.3,26.6 28.8909091,28.7181818 26.7727273,30.1363636 L26.7727273,35.1545455 L33.2363636,35.1545455 C37.0181818,31.6727273 39.2,26.5454545 39.2,20.4545455 L39.2,20.4545455 Z" id="Shape" fill="#4285F4"></path>
                            <path d="M20,40 C25.4,40 29.9272727,38.2090909 33.2363636,35.1545455 L26.7727273,30.1363636 C24.9818182,31.3363636 22.6909091,32.0454545 20,32.0454545 C14.7909091,32.0454545 10.3818182,28.5272727 8.80909091,23.8 L2.12727273,23.8 L2.12727273,28.9818182 C5.41818182,35.5181818 12.1818182,40 20,40 L20,40 Z" id="Shape" fill="#34A853"></path>
                            <path d="M8.80909091,23.8 C8.40909091,22.6 8.18181818,21.3181818 8.18181818,20 C8.18181818,18.6818182 8.40909091,17.4 8.80909091,16.2 L8.80909091,11.0181818 L2.12727273,11.0181818 C0.772727273,13.7181818 0,16.7727273 0,20 C0,23.2272727 0.772727273,26.2818182 2.12727273,28.9818182 L8.80909091,23.8 L8.80909091,23.8 Z" id="Shape" fill="#FBBC05"></path>
                            <path d="M20,7.95454545 C22.9363636,7.95454545 25.5727273,8.96363636 27.6454545,10.9454545 L33.3818182,5.20909091 C29.9181818,1.98181818 25.3909091,0 20,0 C12.1818182,0 5.41818182,4.48181818 2.12727273,11.0181818 L8.80909091,16.2 C10.3818182,11.4727273 14.7909091,7.95454545 20,7.95454545 L20,7.95454545 Z" id="Shape" fill="#EA4335"></path>
                        </g>
                    </g>
                </g>
            </g>
        </g>
    </g>
</svg>