<?xml version="1.0" encoding="UTF-8"?>
<svg width="32px" height="32px" viewBox="0 0 32 32" version="1.1" xmlns="http://www.w3.org/2000/svg" xmlns:xlink="http://www.w3.org/1999/xlink">
    <!-- Generator: Sketch 53.2 (72643) - https://sketchapp.com -->
    <title>Artboard Copy 2</title>
    <desc>Created with Sketch.</desc>
    <g id="Artboard-Copy-2" stroke="none" stroke-width="1" fill="none" fill-rule="evenodd">
        <g id="Group-14-Copy-7">
            <rect id="Rectangle" fill="#D8D8D8" fill-rule="nonzero" opacity="0" x="0" y="0" width="32" height="32"></rect>
            <g id="instagram-brands" transform="translate(2.000000, 2.000000)" fill="#FFFFFF">
                <path d="M14.0062222,6.8596882 C10.0488889,6.8596882 6.85688889,10.0587973 6.85688889,14.0249443 C6.85688889,17.9910913 10.0488889,21.1902004 14.0062222,21.1902004 C17.9635556,21.1902004 21.1555556,17.9910913 21.1555556,14.0249443 C21.1555556,10.0587973 17.9635556,6.8596882 14.0062222,6.8596882 Z M14.0062222,18.6832962 C11.4488889,18.6832962 9.35822222,16.5942094 9.35822222,14.0249443 C9.35822222,11.4556793 11.4426667,9.36659243 14.0062222,9.36659243 C16.5697778,9.36659243 18.6542222,11.4556793 18.6542222,14.0249443 C18.6542222,16.5942094 16.5635556,18.6832962 14.0062222,18.6832962 L14.0062222,18.6832962 Z M23.1155556,6.56659243 C23.1155556,7.49576837 22.3688889,8.23786192 21.448,8.23786192 C20.5208889,8.23786192 19.7804444,7.48953229 19.7804444,6.56659243 C19.7804444,5.64365256 20.5271111,4.89532294 21.448,4.89532294 C22.3688889,4.89532294 23.1155556,5.64365256 23.1155556,6.56659243 Z M27.8506667,8.26280624 C27.7448889,6.02405345 27.2346667,4.04097996 25.5982222,2.40712695 C23.968,0.773273942 21.9893333,0.261915367 19.7555556,0.149665924 C17.4533333,0.0187082405 10.5528889,0.0187082405 8.25066667,0.149665924 C6.02311111,0.255679287 4.04444444,0.767037862 2.408,2.40089087 C0.771555556,4.03474388 0.267555556,6.01781737 0.155555556,8.25657016 C0.0248888889,10.5639198 0.0248888889,17.4797327 0.155555556,19.7870824 C0.261333333,22.0258352 0.771555556,24.0089087 2.408,25.6427617 C4.04444444,27.2766147 6.01688889,27.7879733 8.25066667,27.9002227 C10.5528889,28.0311804 17.4533333,28.0311804 19.7555556,27.9002227 C21.9893333,27.7942094 23.968,27.2828508 25.5982222,25.6427617 C27.2284444,24.0089087 27.7386667,22.0258352 27.8506667,19.7870824 C27.9813333,17.4797327 27.9813333,10.5701559 27.8506667,8.26280624 Z M24.8764444,22.2628062 C24.3911111,23.485078 23.4515556,24.4267261 22.2257778,24.9193764 C20.3902222,25.6489978 16.0346667,25.4806236 14.0062222,25.4806236 C11.9777778,25.4806236 7.616,25.6427617 5.78666667,24.9193764 C4.56711111,24.4329621 3.62755556,23.491314 3.136,22.2628062 C2.408,20.4231626 2.576,16.0579065 2.576,14.0249443 C2.576,11.9919822 2.41422222,7.62048998 3.136,5.78708241 C3.62133333,4.56481069 4.56088889,3.62316258 5.78666667,3.13051225 C7.62222222,2.40089087 11.9777778,2.56926503 14.0062222,2.56926503 C16.0346667,2.56926503 20.3964444,2.40712695 22.2257778,3.13051225 C23.4453333,3.6169265 24.3848889,4.55857461 24.8764444,5.78708241 C25.6044444,7.62672606 25.4364444,11.9919822 25.4364444,14.0249443 C25.4364444,16.0579065 25.6044444,20.4293987 24.8764444,22.2628062 Z" id="Shape"></path>
            </g>
        </g>
    </g>
</svg>