<?xml version="1.0" encoding="UTF-8"?>
<svg width="32px" height="30px" viewBox="0 0 32 30" version="1.1" xmlns="http://www.w3.org/2000/svg" xmlns:xlink="http://www.w3.org/1999/xlink">
    <!-- Generator: Sketch 55.2 (78181) - https://sketchapp.com -->
    <title>Group 4 Copy</title>
    <desc>Created with Sketch.</desc>
    <g id="Home-+-Cricket" stroke="none" stroke-width="1" fill="none" fill-rule="evenodd">
        <g id="Language" transform="translate(-1728.000000, -138.000000)">
            <g id="Group-40" transform="translate(-0.699665, 127.000000)">
                <g id="Header-Copy" transform="translate(0.699665, 0.000000)">
                    <g id="Group-4-Copy" transform="translate(1728.000000, 10.000000)">
                        <rect id="Rectangle" fill="#ECECEC" opacity="0" x="0" y="0" width="32" height="32"></rect>
                        <path d="M17.2409872,19.9912511 L16.1371234,22.9470298 L11.6198809,18.4297872 L4.35744681,25.6922213 L2.3021617,23.6369362 L9.68803404,16.3382128 C7.8724766,14.3192851 6.41994894,12.082417 5.35965957,9.71489362 L8.26457872,9.71489362 C9.15057021,11.4433702 10.2690043,13.0774128 11.6198128,14.5807319 C13.7113872,12.2567149 15.2437787,9.59867234 16.2242043,6.79540426 L-3.30402372e-13,6.79540426 L-3.30402372e-13,3.90498723 L10.1673532,3.90498723 L10.1673532,1 L13.0723404,1 L13.0723404,3.90498723 L23.2397617,3.90498723 L23.2397617,6.81719149 L18.983966,6.81719149 C17.9236085,10.2450723 16.1225532,13.4840851 13.595234,16.3019234 L13.5516596,16.3454979 L17.2409872,19.9912511 Z M25.418417,12.6198809 L31.9545872,30.0496681 L29.0496,30.0496681 L27.4155574,25.6922213 L20.5162894,25.6922213 L18.8822468,30.0496681 L15.9772596,30.0496681 L22.5134298,12.6198809 L25.418417,12.6198809 Z M21.6056511,22.787234 L26.3262638,22.787234 L23.9659574,16.4907234 L21.6056511,22.787234 Z" id="Combined-Shape" fill="#FFFFFF" fill-rule="nonzero"></path>
                    </g>
                </g>
            </g>
        </g>
    </g>
</svg>