<?xml version="1.0" encoding="UTF-8"?>
<svg width="32px" height="32px" viewBox="0 0 32 32" version="1.1" xmlns="http://www.w3.org/2000/svg" xmlns:xlink="http://www.w3.org/1999/xlink">
    <!-- Generator: Sketch 53.2 (72643) - https://sketchapp.com -->
    <title>Artboard</title>
    <desc>Created with Sketch.</desc>
    <g id="Artboard" stroke="none" stroke-width="1" fill="none" fill-rule="evenodd">
        <g id="Group-14-Copy-6">
            <rect id="Rectangle" fill="#D8D8D8" fill-rule="nonzero" opacity="0" x="0" y="0" width="32" height="32"></rect>
            <g id="linkedin-in-brands" transform="translate(2.000000, 2.000000)" fill="#FFFFFF">
                <path d="M6.25478842,28 L0.461469933,28 L0.461469933,9.30625 L6.25478842,9.30625 L6.25478842,28 Z M3.35501114,6.75625 C1.50289532,6.75625 0,5.21875 0,3.3625 C0,1.50625 1.50289532,0 3.35501114,0 C5.20712695,0 6.71002227,1.50625 6.71002227,3.3625 C6.71002227,5.21875 5.20712695,6.75625 3.35501114,6.75625 Z M27.9376392,28 L22.1567929,28 L22.1567929,18.9 C22.1567929,16.73125 22.1131403,13.95 19.1447661,13.95 C16.1327394,13.95 15.6712695,16.30625 15.6712695,18.74375 L15.6712695,28 L9.88418708,28 L9.88418708,9.30625 L15.4405345,9.30625 L15.4405345,11.85625 L15.5216036,11.85625 C16.2948775,10.3875 18.1844098,8.8375 21.003118,8.8375 C26.8650334,8.8375 27.9438753,12.70625 27.9438753,17.73125 L27.9438753,28 L27.9376392,28 Z" id="Shape"></path>
            </g>
        </g>
    </g>
</svg>