<?xml version="1.0" encoding="UTF-8"?>
<svg width="191px" height="39px" viewBox="0 0 191 39" version="1.1" xmlns="http://www.w3.org/2000/svg" xmlns:xlink="http://www.w3.org/1999/xlink">
    <!-- Generator: Sketch 53.2 (72643) - https://sketchapp.com -->
    <title>Logo</title>
    <desc>Created with Sketch.</desc>
    <g id="Page-1" stroke="none" stroke-width="1" fill="none" fill-rule="evenodd">
        <g id="Home" transform="translate(-48.000000, -178.000000)" fill="#FBFCFE" fill-rule="nonzero">
            <g id="Header-Copy" transform="translate(0.000000, 171.000000)">
                <g id="Logo" transform="translate(48.000000, 7.000000)">
                    <path d="M13.2796017,9.64168191 C14.7030446,9.64168191 15.9276368,9.83396494 16.9559664,10.2163802 C17.9834334,10.5983653 18.7792673,11.1364996 19.3426056,11.8320738 C19.9050813,12.527648 20.2216895,13.3711984 20.2911362,14.3635853 C20.3601516,15.3559722 20.1470665,16.4627826 19.653175,17.6840164 L14.3769467,17.6840164 C14.0008128,17.6840164 13.6893807,17.6052965 13.443082,17.4478567 C13.1950578,17.2899867 13.1212976,17.0043583 13.2205072,16.5905411 C13.2403492,16.5126815 13.2597598,16.4425649 13.2796017,16.3840627 C13.2994436,16.3234096 13.3188542,16.2545835 13.3386961,16.1767239 C13.3977906,16.0984342 13.4284162,16.0089602 13.4284162,15.9104528 C13.5466051,15.4768481 13.5858576,15.1172315 13.5466051,14.8320332 C13.5064899,14.5455444 13.2895227,14.4023 12.8944094,14.4023 C12.4000865,14.4023 12.0049733,14.5502762 11.708207,14.8475191 C11.4118721,15.1430413 11.1245955,15.6360086 10.8485338,16.3277113 C10.6902297,16.7423888 10.7695974,17.1278151 11.086637,17.4818396 C11.4015198,17.8380149 11.8268273,18.2187095 12.3604027,18.623063 C12.8944094,19.0274166 13.4620612,19.4730659 14.0655147,19.9561393 C14.6676742,20.4400731 15.1809763,21.0108999 15.6071465,21.6724912 C16.0320226,22.3340825 16.2929871,23.098913 16.3930595,23.967843 C16.4909751,24.836773 16.3037708,25.8536792 15.8288585,27.0181315 C15.4535872,27.9666417 15.0192214,28.7611535 14.5248985,29.4029572 C14.031007,30.0443308 13.4322983,30.5626777 12.7309292,30.9567073 C12.02956,31.3520275 11.2147468,31.6329242 10.2851955,31.8015482 C9.35607552,31.9688818 8.26951413,32.0523335 7.02421729,32.0523335 C5.60120576,32.0523335 4.37575085,31.8647822 3.3482839,31.4909703 C2.32081696,31.1158678 1.52541433,30.5794541 0.961644686,29.8800084 C0.398737732,29.1805628 0.0825608757,28.3318504 0.012682771,27.3377429 C-0.0563326411,26.3414845 0.156321097,25.2234899 0.650643986,23.9820384 L5.89754069,23.9820384 C6.33233778,23.9820384 6.67784619,24.0947412 6.9349286,24.3210071 C7.19201101,24.5477032 7.19201101,24.9477551 6.9349286,25.5194423 C6.89567608,25.597732 6.870658,25.666128 6.86116838,25.7263509 C6.85124741,25.7848531 6.84607125,25.834752 6.84607125,25.8738969 C6.74772429,26.2679266 6.72313755,26.603454 6.77231103,26.8796189 C6.82148451,27.1549234 7.03413825,27.2925757 7.4098409,27.2925757 C7.90416379,27.2925757 8.29927702,27.1450297 8.59561195,26.8495074 C8.89194688,26.5539852 9.17792949,26.0605878 9.45528518,25.3710359 C9.61315793,24.9778666 9.53379021,24.5984625 9.2180447,24.2323935 C8.90186784,23.8680451 8.47656036,23.4839092 7.94341631,23.0791254 C7.4098409,22.6760624 6.84132645,22.2282623 6.23830428,21.7352951 C5.63571347,21.2418977 5.12154865,20.6710709 4.69667252,20.0206638 C4.27222773,19.3689663 4.00996917,18.6062867 3.9116222,17.7291835 C3.81241255,16.8516503 4.00047955,15.8321631 4.47496051,14.6690013 C4.84980046,13.7235022 5.2850289,12.9294206 5.77935179,12.2893375 C6.27281199,11.6488242 6.870658,11.1304774 7.57288981,10.7364477 C8.27425894,10.342418 9.08950349,10.0615214 10.0190548,9.89461797 C10.9473121,9.72728442 12.0343049,9.64168191 13.2796017,9.64168191" id="Path"></path>
                    <path d="M31.74942,16.3234096 C31.9064301,15.9693852 31.9116062,15.6631088 31.7636544,15.4075918 C31.6157026,15.1520748 31.363365,15.0234559 31.0079357,15.0234559 L29.8514962,15.0234559 L27.7167632,20.2262819 L28.9029656,20.2262819 C29.258395,20.2262819 29.6090795,20.0989536 29.9550193,19.842146 C30.3013904,19.5857687 30.5528653,19.2803527 30.7111694,18.9254679 L31.74942,16.3234096 Z M35.1285871,9.99742702 C35.9589288,9.99742702 36.6749637,10.1402413 37.2779858,10.4254396 C37.8805767,10.7119284 38.3546263,11.105958 38.700566,11.608819 C39.0469371,12.1099594 39.2393176,12.6979927 39.2785701,13.3673269 C39.318254,14.0375214 39.1802231,14.7571848 38.8636149,15.5263169 L37.2037943,19.8133251 C36.7297447,20.9764869 35.9283032,22.0992133 34.8024893,23.1823647 C34.2093881,23.7553423 33.6059346,24.2083043 32.9947168,24.5429714 C32.380911,24.8784988 31.738205,25.1348762 31.0670301,25.3116734 C30.3949925,25.4889007 29.7078578,25.6024638 29.0064887,25.6510723 C28.3046882,25.7009712 27.5688114,25.7263509 26.7979955,25.7263509 L25.5229358,25.7263509 L23.0327735,31.7275601 L16.510817,31.7275601 L25.2567951,9.99742702 L35.1285871,9.99742702 Z" id="Shape"></path>
                    <path d="M50.8705712,16.3234096 C51.028444,15.9693852 51.0331888,15.6631088 50.885237,15.4075918 C50.7368539,15.1520748 50.485379,15.0234559 50.1290869,15.0234559 C49.634764,15.0234559 49.279766,15.1168014 49.0627988,15.3034923 C48.8445376,15.4919038 48.6366286,15.8407663 48.4395034,16.3535211 L44.7338071,25.5190121 C44.4370408,26.2674964 44.3533596,26.751 44.4814695,26.9678024 C44.6095793,27.1850349 44.8619169,27.2925757 45.2380509,27.2925757 C45.6724167,27.2925757 46.0274147,27.1983699 46.3047704,27.011679 C46.5816947,26.824558 46.8185039,26.4847289 47.0160605,25.9917617 L50.8705712,16.3234096 Z M51.7306758,9.64168191 C53.0544777,9.64168191 54.1807229,9.83869673 55.1094116,10.2335867 C56.0385316,10.6276164 56.7407634,11.2091972 57.2143816,11.9783294 C57.689294,12.7470313 57.9209269,13.6882288 57.911006,14.8006313 C57.901085,15.9156147 57.6194158,17.1811554 57.0668612,18.6002644 C56.5518337,19.9806586 56.0432764,21.2672773 55.5398952,22.4588299 C55.0365141,23.6516729 54.5361523,24.8187061 54.0426921,25.9620804 C53.4888434,27.3020393 52.9401709,28.3765874 52.3975372,29.1844342 C51.8536095,29.9927112 51.2609397,30.6095655 50.618665,31.0324161 C49.9763903,31.4569874 49.2543166,31.7310014 48.4541691,31.8604806 C47.654453,31.9882391 46.7296465,32.0519033 45.6823376,32.0519033 L42.6883628,32.0519033 C41.8377478,32.0519033 41.0285421,31.9297369 40.2572949,31.6828231 C39.4860477,31.4367697 38.8636149,31.0173604 38.3895653,30.4263159 C37.9150844,29.8357016 37.648081,29.0519439 37.5889865,28.0763334 C37.5298921,27.0998625 37.7869745,25.8833605 38.3593711,24.4242463 L39.4860477,21.6161398 C39.8220665,20.7876451 40.1878482,19.8812909 40.5833927,18.8953565 C40.9776433,17.9107125 41.3736192,16.9351019 41.7687324,15.9693852 C42.1440037,15.0234559 42.6089951,14.1609783 43.1624124,13.3819525 C43.7158297,12.6033568 44.3581044,11.9383242 45.0892364,11.3868547 C45.8203685,10.8349551 46.6308682,10.4069426 47.5203043,10.1006662 C48.4097405,9.79525023 49.3776816,9.64168191 50.4254218,9.64168191 L51.7306758,9.64168191 Z" id="Shape"></path>
                    <path d="M69.9330594,16.3234096 C70.0710902,15.9693852 70.0667768,15.6631088 69.9183936,15.4075918 C69.7695791,15.1520748 69.5280252,15.0234559 69.1924378,15.0234559 L68.0062354,15.0234559 L66.6125554,18.4226069 L67.828952,18.4226069 C68.1641081,18.4226069 68.5048717,18.2957087 68.8508115,18.038471 C69.1963199,17.782954 69.4486575,17.4766776 69.6069616,17.1226532 L69.9330594,16.3234096 Z M72.719988,10.026248 C73.8466646,10.1260459 74.7460217,10.3914567 75.4180593,10.8250614 C76.0892341,11.2595264 76.583557,11.7963703 76.9001652,12.4360232 C77.2159107,13.0765365 77.3548043,13.7768424 77.3151204,14.5352205 C77.2750052,15.2940287 77.1072115,16.0481051 76.8108765,16.7970195 C76.4946997,17.585509 76.1194284,18.2604353 75.6841999,18.8222287 C75.2494029,19.384022 74.7904504,19.8713972 74.3056171,20.2860746 C73.8212152,20.6990315 73.3221475,21.040151 72.808414,21.3055618 C72.2951119,21.5714028 71.800789,21.803691 71.326308,22.001136 C72.2351547,22.2966583 72.7989244,22.9268476 73.0163229,23.8929946 C73.2332901,24.8587113 73.0853383,25.9818679 72.5711735,27.2637548 L70.7625384,31.7275601 L65.2193068,31.7275601 C64.9626557,31.7275601 64.7103181,31.6243209 64.4631566,31.4174123 C64.2159952,31.2100736 64.1715665,30.8986353 64.3298706,30.4856785 L66.3162205,25.6076258 C66.4542513,25.252741 66.4348407,24.947325 66.2566947,24.6918079 C66.0785486,24.4345702 65.8214662,24.307672 65.4863101,24.307672 L64.210819,24.307672 L61.2172755,31.7275601 L54.6655562,31.7275601 L63.411103,9.99742702 L72.719988,9.99742702 L72.719988,10.026248 Z" id="Shape"></path>
                    <polygon id="Path" points="95.1905435 15.0234559 89.884121 15.0234559 83.0658296 31.7275601 76.7220192 31.7275601 83.5398792 15.0234559 78.3814085 15.0234559 80.4272841 9.99742702 97.2364191 9.99742702"></polygon>
                    <path d="M105.833151,9.64168191 C107.256594,9.64168191 108.481186,9.83396494 109.509516,10.2163802 C110.536983,10.5983653 111.332817,11.1364996 111.896155,11.8320738 C112.458631,12.527648 112.775239,13.3711984 112.844686,14.3635853 C112.913701,15.3559722 112.700185,16.4627826 112.206725,17.6840164 L106.930496,17.6840164 C106.554362,17.6840164 106.24293,17.6052965 105.996632,17.4478567 C105.748607,17.2899867 105.674847,17.0043583 105.774057,16.5905411 C105.793899,16.5126815 105.813309,16.4425649 105.833151,16.3840627 C105.852993,16.3234096 105.872404,16.2545835 105.892246,16.1767239 C105.95134,16.0984342 105.981534,16.0089602 105.981534,15.9104528 C106.100155,15.4768481 106.139407,15.1172315 106.100155,14.8320332 C106.06004,14.5455444 105.843072,14.4023 105.447959,14.4023 C104.953636,14.4023 104.558523,14.5502762 104.261757,14.8475191 C103.965422,15.1430413 103.679008,15.6360086 103.402083,16.3277113 C103.243779,16.7423888 103.323147,17.1278151 103.640187,17.4818396 C103.955069,17.8380149 104.380377,18.2187095 104.913952,18.623063 C105.447959,19.0274166 106.015611,19.4730659 106.619064,19.9561393 C107.221224,20.4400731 107.734526,21.0108999 108.160696,21.6724912 C108.585572,22.3340825 108.846537,23.098913 108.946609,23.967843 C109.044525,24.836773 108.85732,25.8536792 108.382408,27.0181315 C108.007137,27.9666417 107.572771,28.7611535 107.078448,29.4029572 C106.584557,30.0443308 105.985848,30.5626777 105.284479,30.9567073 C104.58311,31.3520275 103.768296,31.6329242 102.838745,31.8015482 C101.909625,31.9688818 100.823064,32.0523335 99.5777669,32.0523335 C98.1547554,32.0523335 96.9293005,31.8647822 95.9018336,31.4909703 C94.8743666,31.1158678 94.078964,30.5794541 93.514763,29.8800084 C92.9522874,29.1805628 92.6361105,28.3318504 92.5662324,27.3377429 C92.497217,26.3414845 92.7098707,25.2234899 93.2041936,23.9820384 L98.4510903,23.9820384 C98.8854561,23.9820384 99.2313958,24.0947412 99.4884783,24.3210071 C99.7455607,24.5477032 99.7455607,24.9477551 99.4884783,25.5194423 C99.4487944,25.597732 99.4242076,25.666128 99.414718,25.7263509 C99.4047971,25.7848531 99.3996209,25.834752 99.3996209,25.8738969 C99.3012739,26.2679266 99.2766872,26.603454 99.3258607,26.8796189 C99.3750342,27.1549234 99.5876879,27.2925757 99.9629592,27.2925757 C100.457713,27.2925757 100.852395,27.1450297 101.149162,26.8495074 C101.445497,26.5539852 101.731479,26.0605878 102.008835,25.3710359 C102.166708,24.9778666 102.08734,24.5984625 101.771594,24.2323935 C101.455417,23.8680451 101.03011,23.4839092 100.496966,23.0791254 C99.9629592,22.6760624 99.3948761,22.2282623 98.7918539,21.7352951 C98.1892631,21.2418977 97.6755296,20.6710709 97.2502222,20.0206638 C96.8257774,19.3689663 96.5635188,18.6062867 96.4651719,17.7291835 C96.3659622,16.8516503 96.5540292,15.8321631 97.0285102,14.6690013 C97.4033501,13.7235022 97.8381472,12.9294206 98.3329014,12.2893375 C98.8263616,11.6488242 99.4242076,11.1304774 100.126439,10.7364477 C100.827809,10.342418 101.642622,10.0615214 102.572604,9.89461797 C103.50043,9.72728442 104.587855,9.64168191 105.833151,9.64168191" id="Path"></path>
                    <path d="M117.147797,28.0027754 L115.665259,31.7279903 L111.603702,31.7279903 C111.387167,31.7279903 111.193923,31.6638959 111.025698,31.5361374 C110.857905,31.4070884 110.843239,31.1765208 110.98127,30.8409934 L112.077752,28.0027754 L117.147797,28.0027754 Z" id="Path"></path>
                    <path d="M155.823602,9.99785718 L146.959867,31.7279903 L142.305209,31.7279903 C141.810886,31.7279903 141.380833,31.5606567 141.015052,31.2251293 C140.649701,30.8908924 140.417206,30.4663211 140.31929,29.9531362 L138.836753,21.0552068 L134.478861,31.7279903 L128.134188,31.7279903 L136.997923,9.99785718 L141.653013,9.99785718 C142.146904,9.99785718 142.576525,10.1600288 142.942738,10.4860926 C143.308089,10.8104358 143.540584,11.2397388 143.639363,11.7714208 L145.1219,20.6710709 L149.479792,9.99785718 L155.823602,9.99785718 Z" id="Path"></path>
                    <polygon id="Path" points="174.50133 9.99785718 172.307071 15.3783407 162.70142 15.3783407 161.16065 19.0149419 169.401953 19.0149419 167.296983 24.2186282 159.114775 24.2186282 156.060843 31.7279903 149.657075 31.7279903 158.521674 9.99785718"></polygon>
                    <path d="M183.928404,16.3234096 C184.086276,15.9693852 184.091021,15.6631088 183.942638,15.4075918 C183.794686,15.1520748 183.542349,15.0234559 183.186919,15.0234559 C182.692596,15.0234559 182.336736,15.1168014 182.119768,15.3034923 C181.90237,15.4919038 181.694461,15.8407663 181.497336,16.3535211 L177.791639,25.5190121 C177.494442,26.2674964 177.410329,26.751 177.539302,26.9678024 C177.667412,27.1850349 177.919749,27.2925757 178.295883,27.2925757 C178.729386,27.2925757 179.085247,27.1983699 179.362171,27.011679 C179.638664,26.824558 179.876336,26.4847289 180.073893,25.9917617 L183.928404,16.3234096 Z M184.787645,9.64168191 C186.111447,9.64168191 187.238555,9.83869673 188.167244,10.2335867 C189.096364,10.6276164 189.797733,11.2091972 190.272214,11.9783294 C190.746264,12.7470313 190.978759,13.6882288 190.968838,14.8006313 C190.958486,15.9156147 190.677248,17.1811554 190.123831,18.6002644 C189.609666,19.9806586 189.101109,21.2672773 188.597727,22.4588299 C188.093484,23.6516729 187.593553,24.8187061 187.099662,25.9620804 C186.546676,27.3020393 185.998435,28.3765874 185.45537,29.1844342 C184.911442,29.9927112 184.317909,30.6095655 183.676497,31.0324161 C183.03336,31.4569874 182.312149,31.7310014 181.51157,31.8604806 C180.711423,31.9882391 179.787479,32.0519033 178.739307,32.0519033 L175.745764,32.0519033 C174.89558,32.0519033 174.085512,31.9297369 173.314696,31.6828231 C172.54388,31.4367697 171.921447,31.0173604 171.446966,30.4263159 C170.972917,29.8357016 170.705051,29.0519439 170.646819,28.0763334 C170.587724,27.0998625 170.844807,25.8833605 171.417203,24.4242463 L172.54388,21.6161398 C172.879899,20.7876451 173.24568,19.8812909 173.640794,18.8953565 C174.035476,17.9107125 174.430589,16.9351019 174.826565,15.9693852 C175.201836,15.0234559 175.665965,14.1609783 176.220245,13.3819525 C176.773231,12.6033568 177.415505,11.9383242 178.147069,11.3868547 C178.878201,10.8349551 179.687838,10.4069426 180.578137,10.1006662 C181.467141,9.79525023 182.435514,9.64168191 183.483254,9.64168191 L184.787645,9.64168191 Z" id="Shape"></path>
                    <path d="M130.900843,6.75015599e-14 C128.935198,6.75015599e-14 127.340942,1.58988384 127.340942,3.55013834 C127.340942,5.51125317 128.935198,7.10113701 130.900843,7.10113701 C132.86692,7.10113701 134.461607,5.51125317 134.461607,3.55013834 C134.461607,1.58988384 132.86692,6.75015599e-14 130.900843,6.75015599e-14 L130.900843,6.75015599e-14 Z M116.765624,38.8514958 L123.339773,22.8644739 L119.943784,22.8644739 L125.133743,9.99570637 L131.477122,9.99570637 L128.324843,17.8165067 L131.76483,17.8165067 L116.765624,38.8514958 Z" id="Shape"></path>
                </g>
            </g>
        </g>
    </g>
</svg>