<?xml version="1.0" encoding="UTF-8"?>
<svg width="48px" height="48px" viewBox="0 0 48 48" version="1.1" xmlns="http://www.w3.org/2000/svg" xmlns:xlink="http://www.w3.org/1999/xlink">
    <!-- Generator: Sketch 54.1 (76490) - https://sketchapp.com -->
    <title>message-red</title>
    <desc>Created with Sketch.</desc>
    <g id="message-red" stroke="none" stroke-width="1" fill="none" fill-rule="evenodd">
        <g id="black-back-closed-envelope-shape" transform="translate(4.000000, 9.000000)" fill="#ED1A33" fill-rule="nonzero">
            <path d="M36.4147368,30.9843926 C37.313539,30.9843926 38.0923412,30.6917182 38.7544102,30.1138152 L27.4259891,18.9412864 C27.1541924,19.1332286 26.8907441,19.319873 26.6418875,19.4973533 C25.7941198,20.1133441 25.1060617,20.5940231 24.5777132,20.9384596 C24.0494374,21.2836836 23.3465699,21.6355658 22.4691833,21.9948222 C21.591216,22.3545081 20.7732849,22.5337783 20.0145191,22.5337783 L19.9923049,22.5337783 L19.9700907,22.5337783 C19.2112523,22.5337783 18.3933212,22.3545797 17.5154265,21.9948222 C16.6375318,21.6355658 15.9346642,21.2836836 15.4068966,20.9384596 C14.8786207,20.5940231 14.1909256,20.1134157 13.3427223,19.4973533 C13.1063521,19.3264596 12.8442105,19.1389561 12.5607985,18.9382794 L1.23019964,30.1138152 C1.89219601,30.6917182 2.67150635,30.9843926 3.57023593,30.9843926 L36.4147368,30.9843926 L36.4147368,30.9843926 Z" id="Path"></path>
            <path d="M2.2538657,11.905933 C1.4061706,11.3485774 0.654446461,10.7102494 0,9.99123557 L0,26.9893303 L9.98482759,17.1422841 C7.98729583,15.7669723 5.41357532,14.0235266 2.2538657,11.905933 Z" id="Path"></path>
            <path d="M37.7538294,11.905933 C34.7146279,13.9346074 32.1315426,15.68106 30.0042831,17.1462217 L39.985118,26.9897598 L39.985118,9.99123557 C39.3451906,10.6957875 38.6015245,11.3336859 37.7538294,11.905933 Z" id="Path"></path>
            <path d="M36.4147368,0.000930715935 L3.57030853,0.000930715935 C2.42446461,0.000930715935 1.54352087,0.382524249 0.926388385,1.14492379 C0.308747731,1.90768129 0.000435571688,2.86159353 0.000435571688,4.00558661 C0.000435571688,4.92964434 0.409582577,5.93087991 1.22751361,7.00957968 C2.04544465,8.08784988 2.91578947,8.93480139 3.83811252,9.55086374 C4.34373866,9.90317552 5.86852995,10.9485843 8.41248639,12.6867321 C9.78577132,13.6252517 10.9800363,14.4432794 12.0063158,15.1491917 C12.8810889,15.750291 13.6354991,16.2708476 14.2583666,16.702843 C14.329873,16.7523141 14.442323,16.8316397 14.5915789,16.9368822 C14.7523775,17.0507875 14.9558621,17.1953349 15.2068966,17.3741039 C15.6903085,17.7188984 16.0919056,17.997612 16.4117604,18.2105312 C16.7311797,18.4235219 17.1181851,18.6614273 17.572196,18.9256074 C18.0258439,19.1894296 18.4537205,19.3878152 18.8553176,19.5197621 C19.2569873,19.6516374 19.6288203,19.7177898 19.9708893,19.7177898 L19.9931034,19.7177898 L20.0153176,19.7177898 C20.357314,19.7177898 20.7292196,19.6516374 21.1309619,19.5197621 C21.5324864,19.3878152 21.96,19.1898591 22.4140109,18.9256074 C22.8675862,18.6614273 23.2540835,18.4230208 23.5745191,18.2105312 C23.8943739,17.997612 24.295971,17.71897 24.7794555,17.3741039 C25.0299819,17.1953349 25.2334664,17.0507159 25.394265,16.9372402 C25.5435935,16.8315681 25.655971,16.7527436 25.7279129,16.702843 C26.2131397,16.3698614 26.9692922,15.8514527 27.9859165,15.1552771 C29.8357895,13.8877136 32.5601452,12.0220577 36.1704537,9.55086374 C37.2562613,8.8029261 38.163412,7.90034642 38.8924864,6.84441339 C39.6202541,5.78848037 39.985118,4.68085681 39.985118,3.52190069 C39.985118,2.55359815 39.6313612,1.72504619 38.9253721,1.03495612 C38.2185844,0.345725173 37.3816334,0.000930715935 36.4147368,0.000930715935 Z" id="Path"></path>
        </g>
    </g>
</svg>