<?xml version="1.0" encoding="UTF-8"?>
<svg width="200px" height="200px" viewBox="0 0 200 200" version="1.1" xmlns="http://www.w3.org/2000/svg" xmlns:xlink="http://www.w3.org/1999/xlink">
    <!-- Generator: Sketch 58 (84663) - https://sketch.com -->
    <title>cookies</title>
    <desc>Created with Sketch.</desc>
    <g id="Static" stroke="none" stroke-width="1" fill="none" fill-rule="evenodd">
        <g id="error3" transform="translate(-861.000000, -381.000000)" fill-rule="nonzero">
            <g id="cookies" transform="translate(861.000000, 381.000000)">
                <path d="M196.55,97.3586207 C191.190948,99.3267241 185.320259,100 179.310345,100 C176.494397,100 173.746983,99.7331897 171.036638,99.3491379 C170.780603,99.6491379 170.546983,99.9672414 170.221552,100.2125 L164.382759,104.620259 C162.488793,106.05 159.892241,106.107328 157.936638,104.7625 L149.913793,99.2448276 C147.653017,97.6900862 147.056034,95.5612069 148.275862,93.1034483 L148.275862,93.1034483 C148.561638,92.5275862 148.803448,91.3590517 147.646552,90.6418103 C131.272845,80.4926724 120.689655,62.074569 120.689655,41.3793103 C120.689655,29.5077586 124.254741,18.4896552 130.32931,9.26551724 C131.598276,7.3387931 130.578448,4.76034483 128.366379,4.10560345 C117.898276,1.00689655 106.722414,-0.440517241 95.124569,0.117672414 C44.4724138,2.55387931 3.00215517,43.6047414 0.162068966,94.2362069 C-3.08318966,152.07931 42.8625,200 100,200 C155.228448,200 200,155.228448 200,100 C200,98.7280172 199.137931,96.4081897 196.55,97.3586207 Z" id="Path" fill="#DFDFE2"></path>
                <path d="M41.3793103,100 C41.3793103,51.8663793 75.3909483,11.6866379 120.689655,2.15517241 C114.0125,0.750431034 107.094828,0 100,0 C44.7715517,0 0,44.7711207 0,100 C0,155.228448 44.7715517,200 100,200 C107.094828,200 114.0125,199.249569 120.689655,197.844828 C75.3909483,188.312931 41.3793103,148.133621 41.3793103,100 Z" id="Path" fill="#DADADD"></path>
                <path d="M82.9741379,96.6560345 L79.5409483,106.955603 C78.4556034,110.211638 79.9297414,113.770259 82.999569,115.304741 L93.8935345,120.751724 C96.5487069,122.07931 99.7551724,121.559052 101.85431,119.459914 L108.325,112.989224 C110.5625,110.751724 110.990517,107.278017 109.362069,104.564224 L103.796552,95.2883621 C102.55,93.2112069 100.305172,91.9400862 97.8827586,91.9400862 L89.5168103,91.9400862 C86.5482759,91.9400862 83.912931,93.8396552 82.9741379,96.6560345 Z" id="Path" fill="#B4B4BB"></path>
                <path d="M44.8353448,51.8086207 L48.0982759,62.1633621 C49.1297414,65.4366379 52.4112069,67.4534483 55.7974138,66.8956897 L67.8150862,64.9150862 C70.7439655,64.4323276 73.0353448,62.1293103 73.5038793,59.1982759 L74.9474138,50.162069 C75.4465517,47.037069 73.7547414,43.9732759 70.8443966,42.7310345 L60.8952586,38.4849138 C58.6672414,37.5340517 56.1034483,37.8219828 54.1418103,39.2431034 L47.3672414,44.1512931 C44.962931,45.8931034 43.9431034,48.9775862 44.8353448,51.8086207 Z" id="Path" fill="#B4B4BB"></path>
                <path d="M118.421121,41.5676724 L109.692672,48.0237069 C106.93319,50.0646552 106.094397,53.8237069 107.724569,56.8439655 L113.509483,67.562069 C114.919397,70.1741379 117.842672,71.5913793 120.76681,71.0797414 L129.781034,69.5030172 C132.898276,68.9577586 135.244397,66.3607759 135.471552,63.2043103 L136.247414,52.4150862 C136.421121,49.9987069 135.314655,47.6685345 133.331897,46.2762931 L126.485345,41.4685345 C124.056466,39.7625 120.807759,39.8025862 118.421121,41.5676724 Z" id="Path" fill="#B4B4BB"></path>
                <path d="M27.1900862,109.510776 L29.4650862,117.886638 C30.1844828,120.534483 32.7409483,122.250431 35.4637931,121.912931 L45.1271552,120.715086 C47.4823276,120.423276 49.3866379,118.656897 49.8543103,116.330172 L51.2965517,109.157759 C51.7952586,106.677586 50.5418103,104.175862 48.2568966,103.090517 L40.4452586,99.3801724 C38.6956897,98.5491379 36.6387931,98.6969828 35.0262931,99.7698276 L29.4577586,103.474138 C27.4814655,104.789655 26.5681034,107.22069 27.1900862,109.510776 Z" id="Path" fill="#B4B4BB"></path>
                <path d="M148.426293,130.155172 L137.847845,127.713362 C134.503879,126.941379 131.100862,128.74569 129.863793,131.947414 L125.473276,143.30819 C124.403017,146.077155 125.225,149.220259 127.513362,151.110776 L134.568103,156.939224 C137.007759,158.954741 140.506034,159.051293 143.053448,157.173707 L151.760345,150.754741 C153.710345,149.317241 154.762931,146.962069 154.53319,144.550431 L153.740517,136.221983 C153.459483,133.26681 151.318534,130.823276 148.426293,130.155172 Z" id="Path" fill="#B4B4BB"></path>
                <path d="M84.8336207,158.931897 L79.1064655,152.428017 C77.2961207,150.371983 74.2491379,149.959914 71.9577586,151.461638 L63.8258621,156.790086 C61.8439655,158.088793 60.9155172,160.509914 61.5206897,162.800862 L63.3866379,169.862931 C64.0318966,172.305172 66.2564655,173.994828 68.7823276,173.961207 L77.4159483,173.846121 C79.349569,173.820259 81.1275862,172.781897 82.100431,171.110776 L85.4594828,165.339224 C86.6517241,163.291379 86.3991379,160.710345 84.8336207,158.931897 Z" id="Path" fill="#B4B4BB"></path>
                <path d="M55.5840517,62.1633621 L52.3211207,51.8086207 C51.4288793,48.9775862 52.4487069,45.8926724 54.8525862,44.1508621 L61.6271552,39.2426724 C61.7706897,39.1383621 61.937069,39.0853448 62.0866379,38.9931034 L60.8943966,38.4840517 C58.6663793,37.5336207 56.1025862,37.8215517 54.1409483,39.2426724 L47.3663793,44.1508621 C44.9625,45.8926724 43.9426724,48.9771552 44.8349138,51.8086207 L48.0978448,62.1633621 C49.1293103,65.4366379 52.4107759,67.4534483 55.7969828,66.8956897 L59.2650862,66.3241379 C57.5607759,65.5310345 56.1849138,64.0711207 55.5840517,62.1633621 Z" id="Path" fill="#ACACB4"></path>
                <path d="M120.995259,67.5625 L115.210345,56.8443966 C113.580172,53.8241379 114.418966,50.0646552 117.178017,48.0237069 L125.906466,41.5681034 C126.023707,41.4810345 126.164224,41.449569 126.285345,41.3711207 C123.878448,39.7961207 120.746121,39.8482759 118.420259,41.5681034 L109.69181,48.0237069 C106.932759,50.0646552 106.093534,53.8241379 107.724138,56.8443966 L113.509052,67.5625 C114.918966,70.175 117.842241,71.5918103 120.766379,71.0801724 L124.080603,70.500431 C122.798707,69.8840517 121.704741,68.8762931 120.995259,67.5625 Z" id="Path" fill="#ACACB4"></path>
                <path d="M142.053879,156.939224 L134.999138,151.110776 C132.710776,149.219828 131.888793,146.077155 132.959052,143.30819 L137.349569,131.947414 C137.968966,130.345259 139.130603,129.093534 140.555603,128.338362 L137.847845,127.713793 C134.503448,126.94181 131.100862,128.746121 129.863793,131.947414 L125.473276,143.30819 C124.403017,146.077155 125.225,149.219828 127.513362,151.110776 L134.568103,156.939224 C136.913793,158.877586 140.220259,158.993103 142.737069,157.33319 C142.514224,157.188793 142.2625,157.111207 142.053879,156.939224 Z" id="Path" fill="#ACACB4"></path>
                <path d="M90.4853448,115.30431 C87.4155172,113.769397 85.9413793,110.211207 87.0267241,106.955603 L90.4599138,96.6556034 C91.3987069,93.8392241 94.0340517,91.9400862 97.0025862,91.9400862 L89.5168103,91.9400862 C86.5482759,91.9400862 83.912931,93.8392241 82.9741379,96.6556034 L79.5409483,106.955603 C78.4556034,110.211207 79.9293103,113.769828 82.9991379,115.30431 L93.8926724,120.751724 C96.0758621,121.843103 98.5987069,121.623276 100.605603,120.365517 L90.4853448,115.30431 Z" id="Path" fill="#ACACB4"></path>
                <path d="M36.9508621,117.886638 L34.6758621,109.510345 C34.0538793,107.220259 34.9668103,104.789224 36.9431034,103.474569 L41.9926724,100.115948 L40.4452586,99.3810345 C38.6956897,98.55 36.6387931,98.6982759 35.0262931,99.7706897 L29.4577586,103.474569 C27.4818966,104.789224 26.5685345,107.220259 27.1905172,109.510345 L29.4655172,117.886638 C30.1844828,120.534914 32.7413793,122.250431 35.4642241,121.913362 L39.9616379,121.355603 C38.5413793,120.687069 37.387931,119.496552 36.9508621,117.886638 Z" id="Path" fill="#ACACB4"></path>
                <path d="M70.8724138,169.8625 L69.0064655,162.800431 C68.4012931,160.509483 69.3297414,158.088362 71.3116379,156.789655 L78.5900862,152.02069 C76.7543103,150.386207 74.0594828,150.084483 71.9577586,151.461638 L63.8258621,156.789655 C61.8439655,158.088793 60.9155172,160.509483 61.5206897,162.800431 L63.3866379,169.8625 C64.0318966,172.304741 66.2564655,173.994828 68.7823276,173.961207 L75.6767241,173.868966 C73.4094828,173.648276 71.4650862,172.106466 70.8724138,169.8625 Z" id="Path" fill="#ACACB4"></path>
                <path d="M93.1034483,75.862069 L93.1034483,75.862069 C91.1991379,75.862069 89.6551724,74.3181034 89.6551724,72.4137931 L89.6551724,65.5172414 C89.6551724,63.612931 91.1991379,62.0689655 93.1034483,62.0689655 L93.1034483,62.0689655 C95.0077586,62.0689655 96.5517241,63.612931 96.5517241,65.5172414 L96.5517241,72.4137931 C96.5517241,74.3181034 95.0077586,75.862069 93.1034483,75.862069 Z" id="Path" fill="#B4B4BB"></path>
                <path d="M63.4974138,91.0836207 L63.4974138,91.0836207 C62.1508621,92.4301724 59.9672414,92.4301724 58.6206897,91.0836207 L53.7439655,86.2068966 C52.3974138,84.8603448 52.3974138,82.6771552 53.7439655,81.3301724 L53.7439655,81.3301724 C55.0905172,79.9836207 57.2741379,79.9836207 58.6206897,81.3301724 L63.4974138,86.2068966 C64.8439655,87.5534483 64.8439655,89.737069 63.4974138,91.0836207 Z" id="Path" fill="#B4B4BB"></path>
                <path d="M62.9831897,137.448707 L62.9831897,137.448707 C61.212069,136.749138 60.3435345,134.74569 61.0431034,132.974569 L63.5771552,126.560345 C64.2767241,124.789224 66.2801724,123.92069 68.0512931,124.620259 L68.0512931,124.620259 C69.8224138,125.319828 70.6909483,127.323276 69.9913793,129.094397 L67.4573276,135.508621 C66.7577586,137.279741 64.7543103,138.148276 62.9831897,137.448707 Z" id="Path" fill="#B4B4BB"></path>
                <path d="M103.671121,147.400431 L103.671121,147.400431 C101.818966,147.844397 99.9581897,146.702586 99.5142241,144.850431 L97.9073276,138.143534 C97.4633621,136.291379 98.6051724,134.430603 100.457328,133.986638 L100.457328,133.986638 C102.309483,133.542672 104.170259,134.684483 104.614224,136.536638 L106.221121,143.243534 C106.665086,145.095259 105.523276,146.956466 103.671121,147.400431 Z" id="Path" fill="#B4B4BB"></path>
                <path d="M114.05,177.164655 L114.05,177.164655 C113.330172,175.401293 114.175862,173.388793 115.939224,172.668966 L122.324138,170.062069 C124.0875,169.342241 126.1,170.187931 126.819828,171.951293 L126.819828,171.951293 C127.539655,173.714655 126.693966,175.727155 124.930603,176.446983 L118.54569,179.053879 C116.782328,179.773276 114.769828,178.927586 114.05,177.164655 Z" id="Path" fill="#B4B4BB"></path>
                <path d="M93.9125,27.6823276 L93.9125,27.6823276 C94.3594828,25.8310345 96.2224138,24.6926724 98.0737069,25.1392241 L104.777586,26.7573276 C106.628879,27.2043103 107.767241,29.0672414 107.32069,30.9185345 L107.32069,30.9185345 C106.873707,32.7698276 105.010776,33.9081897 103.159483,33.4616379 L96.4556034,31.8435345 C94.6043103,31.3965517 93.4655172,29.5336207 93.9125,27.6823276 Z" id="Path" fill="#B4B4BB"></path>
                <path d="M31.0051724,151.123276 L31.0051724,151.123276 C29.2116379,150.48319 28.2762931,148.510345 28.9163793,146.71681 L31.2340517,140.221552 C31.8741379,138.428017 33.8469828,137.492672 35.6405172,138.132759 L35.6405172,138.132759 C37.4340517,138.772845 38.3693966,140.74569 37.7293103,142.539224 L35.4116379,149.034483 C34.7715517,150.828017 32.7987069,151.763362 31.0051724,151.123276 Z" id="Path" fill="#B4B4BB"></path>
                <path d="M26.0538793,69.9702586 L26.0538793,69.9702586 C27.9043103,69.5206897 29.7689655,70.6564655 30.2185345,72.5073276 L31.8461207,79.2090517 C32.2956897,81.0594828 31.1599138,82.9241379 29.3090517,83.3737069 L29.3090517,83.3737069 C27.4586207,83.8232759 25.5939655,82.6875 25.1443966,80.8366379 L23.5168103,74.1349138 C23.0676724,72.2844828 24.2034483,70.4198276 26.0538793,69.9702586 Z" id="Path" fill="#B4B4BB"></path>
                <path d="M122.709483,101.428448 L122.709483,101.428448 C121.362931,100.081897 121.362931,97.8982759 122.709483,96.5517241 L127.586207,91.675 C128.932759,90.3284483 131.116379,90.3284483 132.462931,91.675 L132.462931,91.675 C133.809483,93.0215517 133.809483,95.2047414 132.462931,96.5517241 L127.586207,101.428448 C126.239655,102.775 124.056034,102.775 122.709483,101.428448 Z" id="Path" fill="#B4B4BB"></path>
                <path d="M168.546983,114.803017 L168.546983,114.803017 C169.893534,113.456466 172.077155,113.456466 173.423707,114.803017 L178.300431,119.679741 C179.646983,121.026293 179.646983,123.209914 178.300431,124.556466 L178.300431,124.556466 C176.953879,125.903017 174.770259,125.903017 173.423707,124.556466 L168.546983,119.679741 C167.200431,118.33319 167.200431,116.149569 168.546983,114.803017 Z" id="Path" fill="#B4B4BB"></path>
                <path d="M169.450431,142.155172 L169.450431,142.155172 C171.212069,142.87931 172.053017,144.893966 171.328879,146.655603 L168.707328,153.034483 C167.98319,154.796121 165.968534,155.637069 164.207328,154.912931 L164.207328,154.912931 C162.44569,154.188793 161.604741,152.174138 162.328879,150.4125 L164.950431,144.033621 C165.674138,142.271983 167.689224,141.431034 169.450431,142.155172 Z" id="Path" fill="#B4B4BB"></path>
                <path d="M165.584483,57.9383621 L167.925,69.6413793 C168.290086,71.4663793 170.0375,72.6724138 171.873276,72.3663793 L186.00431,70.0112069 C187.828879,69.7068966 189.088362,68.0176724 188.859052,66.1823276 L186.513362,47.4172414 C186.195259,44.8737069 183.311638,43.5538793 181.178879,44.9758621 L167.053017,54.3931034 C165.890086,55.1681034 165.310345,56.5681034 165.584483,57.9383621 Z" id="Path" fill="#DFDFE2"></path>
                <path d="M154.996552,43.3732759 L179.789655,32.3538793 C181.457328,31.612931 182.258621,29.7008621 181.618103,27.9922414 L173.581034,6.55948276 C172.929741,4.82284483 171.021552,3.9125 169.262069,4.49913793 L153.241379,9.83922414 C152.27931,10.1599138 151.506897,10.887931 151.130172,11.8297414 L145.339655,26.3056034 C145.010776,27.1275862 145.010776,28.0448276 145.339655,28.8668103 L150.393966,41.5025862 C151.120259,43.3185345 153.209483,44.1672414 154.996552,43.3732759 Z" id="Path" fill="#DFDFE2"></path>
                <path d="M150.761207,58.6206897 L154.414224,58.6206897 C156.590086,58.6206897 158.222414,60.6116379 157.79569,62.7452586 L156.182328,70.812931 C155.700862,73.2198276 152.930603,74.3672414 150.888362,73.0056034 L147.019397,70.4262931 C145.725431,69.5637931 145.168966,67.9418103 145.660776,66.4668103 L147.490086,60.9784483 C147.959483,59.5702586 149.277155,58.6206897 150.761207,58.6206897 Z" id="Path" fill="#B4B4BB"></path>
                <path d="M162.068966,86.2068966 L162.068966,86.8284483 C162.068966,88.4719828 163.22931,89.8875 164.840948,90.2099138 L175.185776,92.2788793 C177.319397,92.7056034 179.310345,91.0737069 179.310345,88.8974138 L179.310345,86.2068966 C179.310345,84.3025862 177.766379,82.7586207 175.862069,82.7586207 L165.517241,82.7586207 C163.612931,82.7586207 162.068966,84.3025862 162.068966,86.2068966 Z" id="Path" fill="#B4B4BB"></path>
                <path d="M157.025,39.2107759 L151.97069,26.575 C151.64181,25.7530172 151.64181,24.8357759 151.97069,24.0137931 L157.761207,9.53793103 C158.092241,8.71034483 158.760776,8.09827586 159.563362,7.73232759 L153.241379,9.83965517 C152.27931,10.1603448 151.506897,10.8887931 151.130172,11.8306034 L145.339655,26.3064655 C145.010776,27.1280172 145.010776,28.0452586 145.339655,28.8672414 L150.393966,41.5034483 C151.120259,43.3185345 153.209052,44.1681034 154.996121,43.3737069 L159.715948,41.2762931 C158.553879,41.0956897 157.496121,40.3875 157.025,39.2107759 Z" id="Path" fill="#DADADD"></path>
                <path d="M173.880172,68.9586207 L170.963362,54.375431 C170.757328,53.3461207 170.976724,52.325 171.470259,51.4478448 L167.052586,54.3926724 C165.889655,55.1681034 165.309914,56.5681034 165.584052,57.9383621 L167.924569,69.6413793 C168.289655,71.4659483 170.037069,72.6719828 171.872845,72.3663793 L175.790517,71.712931 C174.840517,71.1051724 174.118534,70.1491379 173.880172,68.9586207 Z" id="Path" fill="#DADADD"></path>
            </g>
        </g>
    </g>
</svg>