<?xml version="1.0" encoding="UTF-8"?>
<svg width="201px" height="200px" viewBox="0 0 201 200" version="1.1" xmlns="http://www.w3.org/2000/svg" xmlns:xlink="http://www.w3.org/1999/xlink">
    <!-- Generator: Sketch 58 (84663) - https://sketch.com -->
    <title>Unofficial_JavaScript_logo_2</title>
    <desc>Created with Sketch.</desc>
    <g id="Static" stroke="none" stroke-width="1" fill="none" fill-rule="evenodd">
        <g id="error2" transform="translate(-860.000000, -381.000000)" fill-rule="nonzero">
            <g id="Group" transform="translate(545.000000, 381.000000)">
                <g id="Unofficial_JavaScript_logo_2" transform="translate(315.500000, 0.000000)">
                    <rect id="Rectangle" fill="#DFDFE2" x="0" y="0" width="200" height="200"></rect>
                    <path d="M134.349206,156.250794 C138.377778,162.828571 143.619048,167.663492 152.888889,167.663492 C160.67619,167.663492 165.650794,163.771429 165.650794,158.393651 C165.650794,151.949206 160.539683,149.666667 151.968254,145.91746 L147.269841,143.901587 C133.707937,138.12381 124.698413,130.885714 124.698413,115.584127 C124.698413,101.488889 135.438095,90.7587302 152.222222,90.7587302 C164.171429,90.7587302 172.761905,94.9174603 178.952381,105.806349 L164.31746,115.203175 C161.095238,109.425397 157.619048,107.149206 152.222222,107.149206 C146.71746,107.149206 143.228571,110.64127 143.228571,115.203175 C143.228571,120.84127 146.720635,123.12381 154.784127,126.615873 L159.48254,128.628571 C175.450794,135.47619 184.466667,142.457143 184.466667,158.152381 C184.466667,175.073016 171.174603,184.342857 153.32381,184.342857 C135.869841,184.342857 124.593651,176.025397 119.07619,165.12381 L134.349206,156.250794 Z M67.9587302,157.879365 C70.9111111,163.11746 73.5968254,167.546032 80.0539683,167.546032 C86.2285714,167.546032 90.1238095,165.130159 90.1238095,155.736508 L90.1238095,91.831746 L108.91746,91.831746 L108.91746,155.990476 C108.91746,175.450794 97.5079365,184.307937 80.8539683,184.307937 C65.8063492,184.307937 57.0920635,176.520635 52.6603175,167.14127 L67.9587302,157.879365 Z" id="Shape" fill="#B4B4BB"></path>
                </g>
            </g>
        </g>
    </g>
</svg>