<?xml version="1.0" encoding="UTF-8" standalone="no"?>
<!DOCTYPE svg PUBLIC "-//W3C//DTD SVG 1.1//EN" "http://www.w3.org/Graphics/SVG/1.1/DTD/svg11.dtd">
<svg width="100%" height="100%" viewBox="0 0 1080 1080" version="1.1" xmlns="http://www.w3.org/2000/svg" xmlns:xlink="http://www.w3.org/1999/xlink" xml:space="preserve" xmlns:serif="http://www.serif.com/" style="fill-rule:evenodd;clip-rule:evenodd;stroke-linecap:round;stroke-linejoin:round;stroke-miterlimit:1.5;">
    <g transform="matrix(1,0,0,1,-1136,0)">
        <g id="no_data_2" transform="matrix(1,0,0,1,1136,0)">
            <rect x="0" y="0" width="1080" height="1080" style="fill:none;"/>
            <g transform="matrix(1,0,0,1,0.294474,0)">
                <path d="M47.242,868.205L1032.17,868.205" style="fill:none;stroke:rgb(224,224,224);stroke-width:7.5px;"/>
            </g>
            <g transform="matrix(0.995679,-0.092866,0.092866,0.995679,-1502.49,175.776)">
                <path d="M1889.82,426.272C1889.82,415.937 1881.44,407.558 1871.11,407.558C1871.11,407.558 1871.11,407.558 1871.11,407.558C1860.77,407.558 1852.39,415.937 1852.39,426.272C1852.39,512.602 1852.39,868.205 1852.39,868.205L1889.82,868.205C1889.82,868.205 1889.82,512.602 1889.82,426.272Z" style="fill:none;stroke:rgb(223,223,223);stroke-width:10px;"/>
            </g>
            <g transform="matrix(-0.995679,-0.092866,-0.092866,0.995679,2526.96,175.776)">
                <path d="M1889.82,426.272C1889.82,415.937 1881.44,407.558 1871.11,407.558C1871.11,407.558 1871.11,407.558 1871.11,407.558C1860.77,407.558 1852.39,415.937 1852.39,426.272C1852.39,512.602 1852.39,868.205 1852.39,868.205L1889.82,868.205C1889.82,868.205 1889.82,512.602 1889.82,426.272Z" style="fill:none;stroke:rgb(223,223,223);stroke-width:10px;"/>
            </g>
            <g transform="matrix(1,0,0,1,-1349.82,-1.48531)">
                <path d="M1889.82,426.272C1889.82,415.937 1881.44,407.558 1871.11,407.558C1871.11,407.558 1871.11,407.558 1871.11,407.558C1860.77,407.558 1852.39,415.937 1852.39,426.272C1852.39,512.602 1852.39,868.205 1852.39,868.205L1889.82,868.205C1889.82,868.205 1889.82,512.602 1889.82,426.272Z" style="fill:none;stroke:rgb(223,223,223);stroke-width:10px;"/>
            </g>
            <g transform="matrix(0.396955,-0.106364,0.106364,0.396955,-472.117,447.268)">
                <path d="M2185.35,194.195C2185.35,185.555 2192.35,178.551 2200.99,178.551C2200.99,178.551 2200.99,178.551 2200.99,178.551C2209.63,178.551 2216.64,185.555 2216.64,194.195L2216.64,206.71L2236.83,206.71L2236.83,234.461L2216.64,234.461L2216.64,246.977C2216.64,255.617 2209.63,262.621 2200.99,262.621C2200.99,262.621 2200.99,262.621 2200.99,262.621C2192.35,262.621 2185.35,255.617 2185.35,246.977C2185.35,255.617 2178.34,262.621 2169.7,262.621C2169.7,262.621 2169.7,262.621 2169.7,262.621C2161.06,262.621 2154.05,255.617 2154.05,246.977C2154.05,255.617 2147.05,262.621 2138.41,262.621C2138.41,262.621 2138.41,262.621 2138.41,262.621C2129.77,262.621 2122.76,255.617 2122.76,246.977C2122.76,255.617 2115.76,262.621 2107.12,262.621C2107.12,262.621 2107.12,262.621 2107.12,262.621C2098.48,262.621 2091.47,255.617 2091.47,246.977L2091.47,234.461L2052.01,234.461L2052.01,206.71L2091.47,206.71L2091.47,194.195C2091.47,185.555 2098.48,178.551 2107.12,178.551C2107.12,178.551 2107.12,178.551 2107.12,178.551C2115.76,178.551 2122.76,185.555 2122.76,194.195C2122.76,185.555 2129.77,178.551 2138.41,178.551C2138.41,178.551 2138.41,178.551 2138.41,178.551C2147.05,178.551 2154.05,185.555 2154.05,194.195C2154.05,185.555 2161.06,178.551 2169.7,178.551C2169.7,178.551 2169.7,178.551 2169.7,178.551C2178.34,178.551 2185.35,185.555 2185.35,194.195Z" style="fill:none;stroke:rgb(223,223,223);stroke-width:19.47px;"/>
            </g>
            <g transform="matrix(-0.3559,-0.205479,-0.205479,0.3559,1457.28,669.604)">
                <path d="M2185.35,194.195C2185.35,185.555 2192.35,178.551 2200.99,178.551C2200.99,178.551 2200.99,178.551 2200.99,178.551C2209.63,178.551 2216.64,185.555 2216.64,194.195L2216.64,206.71L2236.83,206.71L2236.83,234.461L2216.64,234.461L2216.64,246.977C2216.64,255.617 2209.63,262.621 2200.99,262.621C2200.99,262.621 2200.99,262.621 2200.99,262.621C2192.35,262.621 2185.35,255.617 2185.35,246.977C2185.35,255.617 2178.34,262.621 2169.7,262.621C2169.7,262.621 2169.7,262.621 2169.7,262.621C2161.06,262.621 2154.05,255.617 2154.05,246.977C2154.05,255.617 2147.05,262.621 2138.41,262.621C2138.41,262.621 2138.41,262.621 2138.41,262.621C2129.77,262.621 2122.76,255.617 2122.76,246.977C2122.76,255.617 2115.76,262.621 2107.12,262.621C2107.12,262.621 2107.12,262.621 2107.12,262.621C2098.48,262.621 2091.47,255.617 2091.47,246.977L2091.47,234.461L2052.01,234.461L2052.01,206.71L2091.47,206.71L2091.47,194.195C2091.47,185.555 2098.48,178.551 2107.12,178.551C2107.12,178.551 2107.12,178.551 2107.12,178.551C2115.76,178.551 2122.76,185.555 2122.76,194.195C2122.76,185.555 2129.77,178.551 2138.41,178.551C2138.41,178.551 2138.41,178.551 2138.41,178.551C2147.05,178.551 2154.05,185.555 2154.05,194.195C2154.05,185.555 2161.06,178.551 2169.7,178.551C2169.7,178.551 2169.7,178.551 2169.7,178.551C2178.34,178.551 2185.35,185.555 2185.35,194.195Z" style="fill:none;stroke:rgb(223,223,223);stroke-width:19.47px;"/>
            </g>
        </g>
    </g>
</svg>
