<svg clip-rule="evenodd" fill-rule="evenodd" stroke-linejoin="round" stroke-miterlimit="1.41421" viewBox="0 0 1080 1080" xmlns="http://www.w3.org/2000/svg"><path d="m0 0h1080v1080h-1080z" fill="none"/><path d="m221.986 86.491c-.643.128-1.349-.45-1.991-1.093-.643-.644-1.158-.9-1.864-.836-.707.064-2.313-.257-3.149-.515-.514-.157-4.026-1.194-7.13-2.085-1.325-1.189-3.076-1.914-4.998-1.914-.422 0-.835.035-1.238.103-2.541-.875-6.477-2.241-9.7-1.435-4.113 1.029-10.795.578-11.696.514-.899-.064-.835.193-1.22.579-.152.15-.936.272-1.957.325.198-.646.574-1.382.929-1.44.514-.085 1.927-.471 1.756-.772-.171-.299-3.084-.299-3.342-.299-.257 0-.085.942.043.942s.6-.171.6.044c0 .13-.521.938-.929 1.553-1.416.011-3.025-.101-4.04-.417-.551-.173-1.281-.401-2.086-.64.078-.278.159-.637.159-.926 0-.556-.129-.855-.129-.855l-.128-.257s0-.771-.386-.944c-.171-.384-1.071-1.07-2.1-1.114-1.027-.042-1.541.258-1.841.172-.299-.085-.514.172-.428.471.076.269-.637.779-.786 2.116-.188-.017-.356-.021-.5-.018.451-.835-.192-1.669-.706-1.541-.515.128-.386-2.12-.386-3.019 0-.9 0-2.636-.963-2.636-.258-.257-.45-.835-.45-.835s.707-.899-.194-1.028c-.898-.128-3.341.579-3.919.579s-.064.32.322.32c.385 0 1.348.9 1.22 1.414-1.799-.064-7.774-.129-9.573 1.351-1.8 1.477-9.125 4.753-10.538 5.139-1.414.385-4.178.578-4.178-.065 0-.641.323-2.44-.642-2.44h-10.537s-.451.128-.451.899-.609.61-.609.61h-2.475c-.192 0 .257 3.247.257 3.247s.515.255.45.449c-.064.192.386 3.983.386 3.983s-.643.577-.9.577-.642.579.321.644c.965.064 1.543.387 1.543.387s.128.899-.578 1.156c0 0 .192 3.018-.386 3.404-.579.386.129.771.643.9.248.061.769.049 1.239.02 1.308 2.534 3.952 4.268 7.001 4.268 3.082 0 5.751-1.772 7.043-4.353h.651l-.063 1.093s16.256-.321 18.311-.321c2.057 0 22.747.9 23.776.836 1.028-.064 9.959-.644 10.795-.515.835.129 1.734 1.158 1.734 1.158s2.764.385 2.764.128-1.029-1.415-1.029-1.415 1.99-.067 3.162-.104c1.367 1.811 3.536 2.98 5.978 2.98 2.472 0 4.662-1.198 6.025-3.043 2.18-.02 3.933-.049 4.369-.09 1.349-.129 5.846.45 6.361.386.515-.065.386-.515.386-.515s2.377.194 2.441-.064c.064-.257-.257-.193-.257-.193s.128-.385 0-.578c-.129-.192.449-2.827.514-3.468.064-.643-.065-1.092-.707-.964zm-92.254 5.192c-2.219 0-4.019-1.8-4.019-4.02s1.8-4.019 4.019-4.019c2.22 0 4.02 1.799 4.02 4.019s-1.8 4.02-4.02 4.02zm73.122-.326c-2.11 0-3.821-1.711-3.821-3.823 0-2.11 1.711-3.822 3.821-3.822 2.111 0 3.822 1.712 3.822 3.822 0 2.112-1.711 3.823-3.822 3.823z" fill="#bababa" fill-rule="nonzero" transform="matrix(8.44535 0 0 8.44535 -905.673 -153.4)"/></svg>