<svg clip-rule="evenodd" fill-rule="evenodd" stroke-linejoin="round" stroke-miterlimit="1.41421" viewBox="0 0 1080 1080" xmlns="http://www.w3.org/2000/svg"><path d="m0 0h1080v1080h-1080z" fill="none"/><g fill="#bababa" fill-rule="nonzero"><path d="m-9.279-9.279c-5.125 0-9.279 4.154-9.279 9.279s4.154 9.279 9.279 9.279 9.279-4.154 9.279-9.279-4.154-9.279-9.279-9.279" transform="matrix(0 -1.4375102112 -1.4375102112 0 633.97433046 86.823566934)"/><path d="m0-262.044c-.685 0-.685-4.108-.914-5.933-.227-1.826-2.167-16.885-1.026-18.482 0 0 3.309 4.221 10.725 5.704 0 0 1.368 0 0 1.825-1.37 1.826-5.134 6.16-6.275 10.269-1.141 4.106-1.825 6.617-2.51 6.617m-11.522-66.247c0-23.691 8.92-42.896 19.927-42.896 11.005 0 19.927 19.205 19.927 42.896s-8.922 42.896-19.927 42.896c-11.007 0-19.927-19.205-19.927-42.896m248.11 302.512c-.555-2.962-1.666-20.185-1.666-24.628 0-4.445-1.482-21.296-1.667-23.333-.185-2.034 0-5.185-2.036-8.518-2.038-3.333-6.112-7.962-7.222-10.739-1.111-2.779-5.371-9.445-7.222-12.592-1.851-3.149-10.184-12.778-10.184-12.778s.185-1.48 0-2.778c-.185-1.296-5.371-6.296-6.296-8.333-.926-2.037 3.148-9.074 2.778-10.925-.371-1.853-1.667-2.222-4.631-4.815-2.962-2.592-12.776-13.332-15.924-18.332-3.148-5.001-7.221-12.777-9.258-17.592-2.037-4.813-10.186-19.813-11.851-25.183-1.668-5.37-5.186-12.594-7.037-16.481-1.851-3.888-5.37-9.815-7.222-12.037-1.851-2.222-5.925-7.407-6.851-9.258-.925-1.852-3.148-4.809-3.148-4.809s-.556-5.745-.186-9.264c.371-3.519 1.112-11.481.556-14.444s-.556-10.37-.185-12.962c.371-2.593 2.037-4.074 1.851-5.926-.185-1.851-3.333-5.926-3.333-5.926-.556-1.111 4.259-12.406 5-15.369.74-2.963 4.443-12.407 4.814-14.814.371-2.408 4.445-20.555 5.926-28.517 1.483-7.962 6.111-35.924 6.759-39.997.647-4.075 3.241-3.889 4.907-7.593 1.667-3.703.001-10.554.001-10.554s-.74-1.296-.925-1.851c-.185-.556-.553-3.147-1.109-4.628-.555-1.482-1.849-3.144-1.478-4.819.371-1.674.564-3.505-1.843-3.874-2.408-.371-3.503 6.307-3.503 6.307-1.111.37-1.634 1.506-1.634 1.506s-1.888-.748-2.645-2.135c-.756-1.386-2.52-5.168-3.025-6.555-.504-1.386-2.268-5.042-3.277-6.68-1.008-1.639-2.143-2.395-2.773-.756-.631 1.638 1.134 4.789 1.26 6.302.127 1.513 1.387 4.286 1.135 5.168-.253.883-.378 4.664-.378 5.421 0 .756.504 3.025.252 4.411-.252 1.387 1.008 4.034 1.008 4.034s0 1.891.379 4.159c.377 2.27 1.512 9.58 1.512 11.975 0 2.396-2.269 10.841-3.277 13.614-1.009 2.773-5.043 13.74-9.58 23.32-4.539 9.58-8.824 24.581-9.58 28.235-.756 3.656-3.026 9.58-4.034 14.119-1.008 4.537-4.789 11.218-5.293 11.722-.505.504-5.295 6.807-6.555 8.32s-1.009 6.554-1.639 7.185c-.63.63-2.269 4.538-2.773 5.798-.505 1.261-2.143 2.899-2.143 2.899-.379-.378-2.648-1.512-3.152-2.017-.504-.504-.378-1.638-.126-2.647.252-1.008 1.312-2.243.756-3.539-.555-1.296-9.444-2.037-10.739-2.964-1.298-.925-1.298-3.148-1.853-4.074s-4.815-2.407-4.815-2.407c-.185-.926.372-1.296-.925-2.778-1.297-1.481-7.407-2.592-10.555-3.703s-5.741 1.296-5.741 1.296c-7.592.926-14.998 5.926-20.925 14.259-5.925 8.333-4.074 14.443-3.889 16.85.186 2.408 1.852 5 2.038 5.741.186.74.741 4.445.741 4.445-.37 1.296.554 2.221 1.11 3.331.556 1.112 4.074 4.446 7.037 6.112 2.964 1.666 4.63 2.037 4.63 2.037s2.406.37 4.073 2.227 4.814 5.365 4.814 5.365c-5.184 4.444-5.184 7.963-5.184 10.556 0 2.592 2.037 2.591 2.592 3.517.556.926.556 4.259.741 5.74.185 1.482 1.297 2.964 1.297 2.964-2.223 1.297-2.964 6.666-3.891 7.963-.926 1.296-1.109 2.777-2.591 3.701-1.481.927-7.778 4.632-8.517 5.558-.742.925-.927 1.667-1.853 2.406-.926.741-1.111 1.297-1.852 3.334-.74 2.036.185 3.147.185 3.147s-1.111 3.52-2.222 5.37c-1.11 1.851-3.518 7.593-5 11.111-1.481 3.518-2.222 7.407-2.592 7.963-.37.555-.556.925-2.592 3.147-2.037 2.222-1.851 5.556-2.593 6.111-.742.556-2.037 2.222-3.333 3.889-1.296 1.668 0 3.148-.37 4.074-.371.926-2.593 1.48-2.593 1.48-1.296-.739-8.147-11.665-8.147-11.665.37-2.222 0-5.369-.556-7.036-.554-1.667-4.259-15.555-4.815-17.962s-1.851-1.666-1.851-1.666c-.185-.555-.741-5.37-.926-7.222-.184-1.853-.74-6.851-1.295-8.333-.556-1.482-1.853-3.148-3.15-6.111-1.297-2.964-2.221-2.408-2.221-2.408s2.592-25.738 2.777-28.145-.556-3.704-.556-3.704c-.185-1.481 4.26-20.922 7.778-27.958 3.518-7.038 8.333-10.922 15.184-23.7 6.852-12.777 10-31.842 7.037-47.767-2.963-15.926-9.851-32.273-30.66-28.402-19.623 3.651-20.392 38.475-19.281 49.771 1.112 11.295 6.979 30.17 8.461 42.759 1.482 12.594 2.721 32.4 2.721 32.4h-.87l-3.518 30.426c-.556-.557-.185-2.737-.185-2.737s.37-1.842-1.851-2.028c-2.222-.185-3.889 2.413-5.37 4.636-1.482 2.223 2.406 5.557 2.406 5.557-.925 1.482-1.11 7.038-1.11 7.038-1.482 1.483-1.482 5.927-1.482 5.927-1.11 1.296-1.851 5.37-2.036 6.667-.186 1.297 3.518 4.259 4.444 5.924.925 1.667 6.666 5.187 6.666 5.187-.556.925.926 5.37 1.296 7.221.37 1.852 2.778 11.111 2.964 12.778.185 1.665.74 2.776.926 4.072.183 1.298 2.777 11.852 4.257 15.555 1.483 3.705 9.26 20.741 10.371 23.333 1.111 2.591 6.296 6.667 7.408 7.036 1.109.37 5.74-.369 7.59-.925 1.853-.557 7.778-4.816 9.815-7.222 2.037-2.408 8.147-11.851 8.147-11.851s1.668-.186 2.779-1.113c1.11-.925 5.184-7.036 5.184-7.036 1.666.371 6.111-.185 8.334-.739 2.222-.556 4.628-.926 6.11-.741s5 2.777 6.481 3.516c1.482.742 8.519 7.224 10.37 8.704 1.852 1.483 5.741 1.483 7.221 3.158 1.483 1.674 6.852 8.88 9.26 11.471 2.407 2.594 10.555 11.666 13.333 13.888 2.776 2.224 7.406 3.335 7.962 3.705.556.369 0 4.073.184 5.369.186 1.297 1.853 2.222 2.778 3.888.927 1.668 1.667 5.927 1.667 5.927s.37 2.221 1.111 3.888 2.777 5.185 2.777 5.185c0 1.852 2.594 5 2.594 5.556 0 .555.739 2.221 2.036 4.074 1.295 1.851 6.481 11.849 7.222 12.962.741 1.11 2.592 2.222 3.889 2.778 1.295.554 1.851 3.702 2.407 4.814.555 1.111 4.444 7.778 5.741 9.63 1.296 1.85 4.443 3.702 5.369 4.258.927.556 1.297 1.112 2.594 3.518 1.295 2.407.924 8.887 1.295 10.37.371 1.482 4.63 6.109 8.519 8.889 3.889 2.777 5.924 7.407 7.407 8.334 1.48.924 4.998.555 4.998.555s4.075 6.111 4.816 7.961c.74 1.852 1.111 1.297.555 2.778-.555 1.481-18.703 15.37-26.666 22.591-7.961 7.222-7.592 14.258-9.443 18.148-1.852 3.888-10.555 15.74-10.555 15.74s-2.407 3.333-3.518 3.889c-1.112.555-7.778 11.295-10.555 14.444-2.777 3.147-9.629 8.887-9.629 8.887-3.334-.556-4.259 2.407-4.259 2.407-8.519 3.705-12.037 9.815-12.037 9.815-2.036.37-5.185 1.852-6.666 4.444-1.482 2.592 2.777 9.444 4.814 14.073 2.036 4.629 8.703 9.999 10.925 12.222 2.223 2.223 4.444 5.554 5.556 9.814 1.11 4.259 6.111 10.555 10.926 16.482 4.814 5.924 7.961 8.516 11.85 9.627 3.889 1.112 11.481 1.295 15.369-1.296 3.889-2.592 2.222-5.554 2.222-5.554 0-1.667-1.109-2.963-2.592-3.89-1.48-.926-2.777-.74-2.592-2.221.185-1.482 1.112-3.703 1.112-3.703 4.074-.556 8.517.555 10.923-2.779 2.409-3.332.742-5.926.742-5.926-.742-2.962-5.926-4.073-7.408-5-1.48-.924-3.147-1.665-3.703-2.591s-1.851-2.408-2.777-3.705c-.926-1.295-.926-1.481-1.853-2.777-.926-1.296-2.036-3.332-2.036-4.629 0-1.295-2.223-2.777-2.223-2.777s.37-3.704.926-5.001c.556-1.295.925-4.999.925-5.739 0-.742.926-3.334 2.223-4.816 1.297-1.48 1.112-2.222 1.112-2.776 0-.557 1.111-2.964 1.111-2.964s1.295-1.296 1.481-2.222c.185-.926 5.925-7.406 7.407-9.259 1.482-1.851 2.962-3.704 2.962-3.704.926-1.666 13.703-12.405 17.406-15.74 3.704-3.333 16.112-14.073 17.963-16.665 1.852-2.592 14.999-14.999 17.778-17.962 2.777-2.963 12.405-14.999 12.405-14.999s1.668-2.407 2.593-5.001c.924-2.593-.371-8.516-.741-9.999-.371-1.482-.371-9.813-.556-12.777-.185-2.962-1.11-17.222-1.11-17.222s1.666.371 2.777 0c1.111-.37 5-1.295 5.184-2.221.186-.926.556-2.963 0-5.925" transform="matrix(1.26702 0 0 1.26702 402.64752045 769.12815426)"/></g></svg>