<svg clip-rule="evenodd" fill-rule="evenodd" stroke-linejoin="round" stroke-miterlimit="1.41421" viewBox="0 0 1080 1080" xmlns="http://www.w3.org/2000/svg"><path d="m0 0h1080v1080h-1080z" fill="none"/><path d="m315.204 55.016c-1.092-.971-3.154-4.245-3.154-4.245l.244-4.608s2.789-1.577 2.789-12.005c0-10.43-6.054-14.24-6.549-14.31-1.698-.243-4.973-.122-7.155.242-2.184.365-4.971 1.941-5.336 7.398-.026.401-.046.812-.058 1.227-2.017-1.03-5.229-2.677-5.641-2.925-.607-.363-1.214-1.333-.849-1.333.364 0 3.274-1.214 4.122-3.032.849-1.82 1.576-4.972.729-5.579-.849-.607-1.448-.274-1.448-.274s-.545-4.786-1.958-5.222c-1.414-.435-4.351-.326-5.222.108-.869.436-1.631 2.285-1.631 3.916-1.196-.109-1.848-1.413-1.848-2.066 0-.652-2.611-.652-2.611-.652 0-1.741-.762-4.134-1.849-4.569-.544-2.175-.653-2.829-1.088-4.351-.335-1.169-.979-1.849-1.849-1.849s-1.513.68-1.848 1.849c-.435 1.522-.544 2.176-1.087 4.351-1.089.435-1.85 2.828-1.85 4.569 0 0-2.61 0-2.61.652 0 .653-.653 1.957-1.85 2.066 0-1.631-.761-3.48-1.631-3.916-.87-.434-3.807-.543-5.221-.108-1.414.436-1.958 5.222-1.958 5.222s-.599-.333-1.449.274c-.847.607-.12 3.759.729 5.579.85 1.818 3.759 3.032 4.123 3.032.363 0-.242.97-.85 1.333-.411.248-3.624 1.895-5.64 2.925-.013-.415-.032-.826-.058-1.227-.364-5.457-3.153-7.033-5.337-7.398-2.181-.364-5.457-.485-7.154-.242-.495.07-6.549 3.88-6.549 14.31 0 10.428 2.79 12.005 2.79 12.005l.242 4.608s-2.062 3.274-3.153 4.245.121.85.971.85c.847 0 1.576.968 2.061 1.212.484.242 4.244.242 4.244.242s2.183-4.244 2.546-4.851c1.05-.21 16.102 2.608 19.889 4.095 3.395 1.335 8.831 1.455 10.65 1.455s7.255-.12 10.651-1.455c3.395-1.335 18.069-4.459 19.888-4.095.363.607 2.547 4.851 2.547 4.851s3.758 0 4.243-.242c.485-.244 1.214-1.212 2.061-1.212.851 0 2.064.121.972-.85zm-57.173-33.898c-.925-1.523-.98-2.937.163-2.991 1.141-.053 5.221.328 5.928.491s.87.163.87.489c0 .225-.217 4.132-.163 4.622l-.218.218s-.381-.979-1.196-.979c-.816 0-1.413.654-1.413.654s-3.047-.981-3.971-2.504zm-4.326 10.285c.638.124 1.439.296 2.271.484h-2.286c.005-.161.01-.323.015-.484zm-.031.919h2.414l-2.523 1.941c.046-.633.082-1.283.109-1.941zm-.175 2.816 3.66-2.816h.695c1.667.396 3.064.744 3.064.744s-.122 1.335 0 2.668c.125.022.252.051.38.082l-8.089 2.146c.105-.845.206-1.802.29-2.824zm5.841 9.327c-2.181-.485-2.909-3.031-2.909-3.031s-2.668-.243-3.76-.243c.097-.322.237-1.057.382-2.063l10.034-2.661c2.287 1.055 4.5 2.783 4.5 2.783s.435 4.61.799 6.064c-1.213 0-6.862-.363-9.046-.849zm13.721-38.219s.765-3.14.913-3.725c.146-.586.433-.709.868-.709s.723.123.869.709c.147.585.913 3.725.913 3.725s.108.414-.109.295c-.435-.414-1.673-.447-1.673-.447s-1.237.033-1.672.447c-.218.119-.109-.295-.109-.295zm3.194 7.857c-.326.325-.76.325-1.413.325s-1.087 0-1.413-.325c-.327-.326-1.959-1.469-1.959-1.686s.219-1.088.545-1.306c.325-.217 2.827-.109 2.827-.109s2.502-.108 2.828.109c.327.218.543 1.089.543 1.306s-1.63 1.36-1.958 1.686zm19.726 17.3c.004.161.009.323.015.484h-2.288c.835-.188 1.633-.36 2.273-.484zm.029.919c.027.658.065 1.308.11 1.941l-2.524-1.941zm-4.178 0h.694l3.661 2.816c.083 1.022.185 1.979.289 2.824l-8.091-2.146c.128-.031.256-.06.382-.082.121-1.333 0-2.668 0-2.668s1.397-.348 3.065-.744zm-6.268-13.704c.706-.163 4.784-.544 5.928-.491 1.142.054 1.087 1.468.162 2.991-.924 1.523-3.97 2.504-3.97 2.504s-.598-.654-1.414-.654c-.815 0-1.196.979-1.196.979l-.217-.218c.054-.49-.164-4.397-.164-4.622 0-.326.164-.326.871-.489zm7.689 22.816s-.726 2.546-2.909 3.031c-2.183.486-7.834.849-9.046.849.366-1.454.799-6.064.799-6.064s2.215-1.728 4.501-2.783l10.034 2.661c.145 1.006.285 1.741.381 2.063-1.091 0-3.76.243-3.76.243z" fill="#bababa" fill-rule="nonzero" transform="matrix(8.83883 0 0 8.83883 -1889.29 279.67)"/></svg>