<?xml version="1.0" encoding="UTF-8" standalone="no"?>
<!DOCTYPE svg PUBLIC "-//W3C//DTD SVG 1.1//EN" "http://www.w3.org/Graphics/SVG/1.1/DTD/svg11.dtd">
<svg width="100%" height="100%" viewBox="0 0 1080 1080" version="1.1" xmlns="http://www.w3.org/2000/svg" xmlns:xlink="http://www.w3.org/1999/xlink" xml:space="preserve" xmlns:serif="http://www.serif.com/" style="fill-rule:evenodd;clip-rule:evenodd;stroke-linejoin:round;stroke-miterlimit:1.41421;">
    <g transform="matrix(1,0,0,1,-2,-6398.31)">
        <g id="no_data--common-area-" serif:id="no_data (common area)" transform="matrix(1,0,0,1,2,6398.31)">
            <rect x="0" y="0" width="1080" height="1080" style="fill:none;"/>
            <g transform="matrix(0.977209,0,0,0.977209,16.2078,-55.487)">
                <g transform="matrix(0.652191,0,0,0.652191,137.841,341.417)">
                    <g transform="matrix(0,-1.13456,-1.13456,0,226.973,28.1517)">
                        <path d="M-9.279,-9.279C-14.404,-9.279 -18.558,-5.125 -18.558,0C-18.558,5.125 -14.404,9.279 -9.279,9.279C-4.154,9.279 0,5.125 0,0C0,-5.125 -4.154,-9.279 -9.279,-9.279" style="fill:rgb(186,186,186);fill-rule:nonzero;"/>
                    </g>
                    <g transform="matrix(1,0,0,1,44.3975,566.663)">
                        <path d="M0,-262.044C-0.685,-262.044 -0.685,-266.152 -0.914,-267.977C-1.141,-269.803 -3.081,-284.862 -1.94,-286.459C-1.94,-286.459 1.369,-282.238 8.785,-280.755C8.785,-280.755 10.153,-280.755 8.785,-278.93C7.415,-277.104 3.651,-272.77 2.51,-268.661C1.369,-264.555 0.685,-262.044 0,-262.044M-11.522,-328.291C-11.522,-351.982 -2.602,-371.187 8.405,-371.187C19.41,-371.187 28.332,-351.982 28.332,-328.291C28.332,-304.6 19.41,-285.395 8.405,-285.395C-2.602,-285.395 -11.522,-304.6 -11.522,-328.291M236.588,-25.779C236.033,-28.741 234.922,-45.964 234.922,-50.407C234.922,-54.852 233.44,-71.703 233.255,-73.74C233.07,-75.774 233.255,-78.925 231.219,-82.258C229.181,-85.591 225.107,-90.22 223.997,-92.997C222.886,-95.776 218.626,-102.442 216.775,-105.589C214.924,-108.738 206.591,-118.367 206.591,-118.367C206.591,-118.367 206.776,-119.847 206.591,-121.145C206.406,-122.441 201.22,-127.441 200.295,-129.478C199.369,-131.515 203.443,-138.552 203.073,-140.403C202.702,-142.256 201.406,-142.625 198.442,-145.218C195.48,-147.81 185.666,-158.55 182.518,-163.55C179.37,-168.551 175.297,-176.327 173.26,-181.142C171.223,-185.955 163.074,-200.955 161.409,-206.325C159.741,-211.695 156.223,-218.919 154.372,-222.806C152.521,-226.694 149.002,-232.621 147.15,-234.843C145.299,-237.065 141.225,-242.25 140.299,-244.101C139.374,-245.953 137.151,-248.91 137.151,-248.91C137.151,-248.91 136.595,-254.655 136.965,-258.174C137.336,-261.693 138.077,-269.655 137.521,-272.618C136.965,-275.581 136.965,-282.988 137.336,-285.58C137.707,-288.173 139.373,-289.654 139.187,-291.506C139.002,-293.357 135.854,-297.432 135.854,-297.432C135.298,-298.543 140.113,-309.838 140.854,-312.801C141.594,-315.764 145.297,-325.208 145.668,-327.615C146.039,-330.023 150.113,-348.17 151.594,-356.132C153.077,-364.094 157.705,-392.056 158.353,-396.129C159,-400.204 161.594,-400.018 163.26,-403.722C164.927,-407.425 163.261,-414.276 163.261,-414.276C163.261,-414.276 162.521,-415.572 162.336,-416.127C162.151,-416.683 161.783,-419.274 161.227,-420.755C160.672,-422.237 159.378,-423.899 159.749,-425.574C160.12,-427.248 160.313,-429.079 157.906,-429.448C155.498,-429.819 154.403,-423.141 154.403,-423.141C153.292,-422.771 152.769,-421.635 152.769,-421.635C152.769,-421.635 150.881,-422.383 150.124,-423.77C149.368,-425.156 147.604,-428.938 147.099,-430.325C146.595,-431.711 144.831,-435.367 143.822,-437.005C142.814,-438.644 141.679,-439.4 141.049,-437.761C140.418,-436.123 142.183,-432.972 142.309,-431.459C142.436,-429.946 143.696,-427.173 143.444,-426.291C143.191,-425.408 143.066,-421.627 143.066,-420.87C143.066,-420.114 143.57,-417.845 143.318,-416.459C143.066,-415.072 144.326,-412.425 144.326,-412.425C144.326,-412.425 144.326,-410.534 144.705,-408.266C145.082,-405.996 146.217,-398.686 146.217,-396.291C146.217,-393.895 143.948,-385.45 142.94,-382.677C141.931,-379.904 137.897,-368.937 133.36,-359.357C128.821,-349.777 124.536,-334.776 123.78,-331.122C123.024,-327.466 120.754,-321.542 119.746,-317.003C118.738,-312.466 114.957,-305.785 114.453,-305.281C113.948,-304.777 109.158,-298.474 107.898,-296.961C106.638,-295.448 106.889,-290.407 106.259,-289.776C105.629,-289.146 103.99,-285.238 103.486,-283.978C102.981,-282.717 101.343,-281.079 101.343,-281.079C100.964,-281.457 98.695,-282.591 98.191,-283.096C97.687,-283.6 97.813,-284.734 98.065,-285.743C98.317,-286.751 99.377,-287.986 98.821,-289.282C98.266,-290.578 89.377,-291.319 88.082,-292.246C86.784,-293.171 86.784,-295.394 86.229,-296.32C85.674,-297.246 81.414,-298.727 81.414,-298.727C81.229,-299.653 81.786,-300.023 80.489,-301.505C79.192,-302.986 73.082,-304.097 69.934,-305.208C66.786,-306.319 64.193,-303.912 64.193,-303.912C56.601,-302.986 49.195,-297.986 43.268,-289.653C37.343,-281.32 39.194,-275.21 39.379,-272.803C39.565,-270.395 41.231,-267.803 41.417,-267.062C41.603,-266.322 42.158,-262.617 42.158,-262.617C41.788,-261.321 42.712,-260.396 43.268,-259.286C43.824,-258.174 47.342,-254.84 50.305,-253.174C53.269,-251.508 54.935,-251.137 54.935,-251.137C54.935,-251.137 57.341,-250.767 59.008,-248.91C60.675,-247.053 63.822,-243.545 63.822,-243.545C58.638,-239.101 58.638,-235.582 58.638,-232.989C58.638,-230.397 60.675,-230.398 61.23,-229.472C61.786,-228.546 61.786,-225.213 61.971,-223.732C62.156,-222.25 63.268,-220.768 63.268,-220.768C61.045,-219.471 60.304,-214.102 59.377,-212.805C58.451,-211.509 58.268,-210.028 56.786,-209.104C55.305,-208.177 49.008,-204.472 48.269,-203.546C47.527,-202.621 47.342,-201.879 46.416,-201.14C45.49,-200.399 45.305,-199.843 44.564,-197.806C43.824,-195.77 44.749,-194.659 44.749,-194.659C44.749,-194.659 43.638,-191.139 42.527,-189.289C41.417,-187.438 39.009,-181.696 37.527,-178.178C36.046,-174.66 35.305,-170.771 34.935,-170.215C34.565,-169.66 34.379,-169.29 32.343,-167.068C30.306,-164.846 30.492,-161.512 29.75,-160.957C29.008,-160.401 27.713,-158.735 26.417,-157.068C25.121,-155.4 26.417,-153.92 26.047,-152.994C25.676,-152.068 23.454,-151.514 23.454,-151.514C22.158,-152.253 15.307,-163.179 15.307,-163.179C15.677,-165.401 15.307,-168.548 14.751,-170.215C14.197,-171.882 10.492,-185.77 9.936,-188.177C9.38,-190.584 8.085,-189.843 8.085,-189.843C7.9,-190.398 7.344,-195.213 7.159,-197.065C6.975,-198.918 6.419,-203.916 5.864,-205.398C5.308,-206.88 4.011,-208.546 2.714,-211.509C1.417,-214.473 0.493,-213.917 0.493,-213.917C0.493,-213.917 3.085,-239.655 3.27,-242.062C3.455,-244.469 2.714,-245.766 2.714,-245.766C2.529,-247.247 6.974,-266.688 10.492,-273.724C14.01,-280.762 18.825,-284.646 25.676,-297.424C32.528,-310.201 35.676,-329.266 32.713,-345.191C29.75,-361.117 22.862,-377.464 2.053,-373.593C-17.57,-369.942 -18.339,-335.118 -17.228,-323.822C-16.116,-312.527 -10.249,-293.652 -8.767,-281.063C-7.285,-268.469 -6.046,-248.663 -6.046,-248.663L-6.916,-248.663L-10.434,-218.237C-10.99,-218.794 -10.619,-220.974 -10.619,-220.974C-10.619,-220.974 -10.249,-222.816 -12.47,-223.002C-14.692,-223.187 -16.359,-220.589 -17.84,-218.366C-19.322,-216.143 -15.434,-212.809 -15.434,-212.809C-16.359,-211.327 -16.544,-205.771 -16.544,-205.771C-18.026,-204.288 -18.026,-199.844 -18.026,-199.844C-19.136,-198.548 -19.877,-194.474 -20.062,-193.177C-20.248,-191.88 -16.544,-188.918 -15.618,-187.253C-14.693,-185.586 -8.952,-182.066 -8.952,-182.066C-9.508,-181.141 -8.026,-176.696 -7.656,-174.845C-7.286,-172.993 -4.878,-163.734 -4.692,-162.067C-4.507,-160.402 -3.952,-159.291 -3.766,-157.995C-3.583,-156.697 -0.989,-146.143 0.491,-142.44C1.974,-138.735 9.751,-121.699 10.862,-119.107C11.973,-116.516 17.158,-112.44 18.27,-112.071C19.379,-111.701 24.01,-112.44 25.86,-112.996C27.713,-113.553 33.638,-117.812 35.675,-120.218C37.712,-122.626 43.822,-132.069 43.822,-132.069C43.822,-132.069 45.49,-132.255 46.601,-133.182C47.711,-134.107 51.785,-140.218 51.785,-140.218C53.451,-139.847 57.896,-140.403 60.119,-140.957C62.341,-141.513 64.747,-141.883 66.229,-141.698C67.711,-141.513 71.229,-138.921 72.71,-138.182C74.192,-137.44 81.229,-130.958 83.08,-129.478C84.932,-127.995 88.821,-127.995 90.301,-126.32C91.784,-124.646 97.153,-117.44 99.561,-114.849C101.968,-112.255 110.116,-103.183 112.894,-100.961C115.67,-98.737 120.3,-97.626 120.856,-97.256C121.412,-96.887 120.856,-93.183 121.04,-91.887C121.226,-90.59 122.893,-89.665 123.818,-87.999C124.745,-86.331 125.485,-82.072 125.485,-82.072C125.485,-82.072 125.855,-79.851 126.596,-78.184C127.337,-76.517 129.373,-72.999 129.373,-72.999C129.373,-71.147 131.967,-67.999 131.967,-67.443C131.967,-66.888 132.706,-65.222 134.003,-63.369C135.298,-61.518 140.484,-51.52 141.225,-50.407C141.966,-49.297 143.817,-48.185 145.114,-47.629C146.409,-47.075 146.965,-43.927 147.521,-42.815C148.076,-41.704 151.965,-35.037 153.262,-33.185C154.558,-31.335 157.705,-29.483 158.631,-28.927C159.558,-28.371 159.928,-27.815 161.225,-25.409C162.52,-23.002 162.149,-16.522 162.52,-15.039C162.891,-13.557 167.15,-8.93 171.039,-6.15C174.928,-3.373 176.963,1.257 178.446,2.184C179.926,3.108 183.444,2.739 183.444,2.739C183.444,2.739 187.519,8.85 188.26,10.7C189,12.552 189.371,11.997 188.815,13.478C188.26,14.959 170.112,28.848 162.149,36.069C154.188,43.291 154.557,50.327 152.706,54.217C150.854,58.105 142.151,69.957 142.151,69.957C142.151,69.957 139.744,73.29 138.633,73.846C137.521,74.401 130.855,85.141 128.078,88.29C125.301,91.437 118.449,97.177 118.449,97.177C115.115,96.621 114.19,99.584 114.19,99.584C105.671,103.289 102.153,109.399 102.153,109.399C100.117,109.769 96.968,111.251 95.487,113.843C94.005,116.435 98.264,123.287 100.301,127.916C102.337,132.545 109.004,137.915 111.226,140.138C113.449,142.361 115.67,145.692 116.782,149.952C117.892,154.211 122.893,160.507 127.708,166.434C132.522,172.358 135.669,174.95 139.558,176.061C143.447,177.173 151.039,177.356 154.927,174.765C158.816,172.173 157.149,169.211 157.149,169.211C157.149,167.544 156.04,166.248 154.557,165.321C153.077,164.395 151.78,164.581 151.965,163.1C152.15,161.618 153.077,159.397 153.077,159.397C157.151,158.841 161.594,159.952 164,156.618C166.409,153.286 164.742,150.692 164.742,150.692C164,147.73 158.816,146.619 157.334,145.692C155.854,144.768 154.187,144.027 153.631,143.101C153.075,142.175 151.78,140.693 150.854,139.396C149.928,138.101 149.928,137.915 149.001,136.619C148.075,135.323 146.965,133.287 146.965,131.99C146.965,130.695 144.742,129.213 144.742,129.213C144.742,129.213 145.112,125.509 145.668,124.212C146.224,122.917 146.593,119.213 146.593,118.473C146.593,117.731 147.519,115.139 148.816,113.657C150.113,112.177 149.928,111.435 149.928,110.881C149.928,110.324 151.039,107.917 151.039,107.917C151.039,107.917 152.334,106.621 152.52,105.695C152.705,104.769 158.445,98.289 159.927,96.436C161.409,94.585 162.889,92.732 162.889,92.732C163.815,91.066 176.592,80.327 180.295,76.992C183.999,73.659 196.407,62.919 198.258,60.327C200.11,57.735 213.257,45.328 216.036,42.365C218.813,39.402 228.441,27.366 228.441,27.366C228.441,27.366 230.109,24.959 231.034,22.365C231.958,19.772 230.663,13.849 230.293,12.366C229.922,10.884 229.922,2.553 229.737,-0.411C229.552,-3.373 228.627,-17.633 228.627,-17.633C228.627,-17.633 230.293,-17.262 231.404,-17.633C232.515,-18.003 236.404,-18.928 236.588,-19.854C236.774,-20.78 237.144,-22.817 236.588,-25.779" style="fill:rgb(186,186,186);fill-rule:nonzero;"/>
                    </g>
                </g>
                <g transform="matrix(0.946068,0,0,0.946068,-222.14,542.218)">
                    <path d="M683.427,60.054C683.498,60.071 683.548,60.071 683.598,60.09C683.598,60.071 683.598,60.071 683.617,60.054L683.632,60.054L683.632,60.037C683.582,59.829 683.531,59.622 683.478,59.415C683.392,59.121 683.841,58.914 683.963,59.208C684.256,59.883 684.497,60.572 684.738,61.263L684.738,61.212C684.738,61.004 684.775,60.815 684.825,60.641C684.775,60.331 684.723,60.02 684.67,59.708C684.582,59.243 685.275,59.036 685.396,59.52C685.43,59.692 685.463,59.847 685.517,60.02C685.637,60.002 685.775,60.002 685.93,60.02L685.93,59.968C685.896,59.744 686.276,59.708 686.329,59.916C686.499,60.555 686.641,61.212 686.777,61.868C686.777,61.886 686.777,61.903 686.795,61.92C686.795,61.936 686.795,61.955 686.813,61.972C686.931,61.798 687.107,61.696 687.364,61.679C687.329,61.316 687.313,60.934 687.295,60.555C687.295,60.331 687.622,60.348 687.641,60.555C687.676,60.934 687.727,61.316 687.796,61.712C687.815,61.712 687.833,61.712 687.848,61.729C687.866,61.454 687.882,61.178 687.9,60.917C687.915,60.677 688.212,60.641 688.296,60.866C688.607,61.626 688.679,62.456 688.78,63.284C688.834,63.163 688.885,63.044 688.973,62.922C689.266,62.559 689.714,62.593 690.162,62.731C690.18,62.473 690.525,62.283 690.716,62.507C690.921,62.731 691.113,62.957 691.303,63.163C691.372,63.198 691.425,63.215 691.473,63.267C691.702,63.561 691.873,63.854 692.012,64.165C692.029,64.079 692.012,63.976 692.029,63.889C692.151,63.059 692.632,62.628 693.411,62.576C693.531,62.421 693.79,62.388 693.894,62.593C694.293,63.337 694.585,64.217 694.723,65.116C694.791,64.959 694.998,64.909 695.157,64.995C695.207,64.926 695.275,64.874 695.377,64.874C695.671,64.89 695.844,64.995 696.02,65.133C695.964,64.959 695.915,64.804 695.81,64.649C695.605,64.303 696.121,64.01 696.347,64.339C696.813,65.048 696.916,65.806 696.949,66.653C696.949,66.808 696.968,66.964 696.968,67.118C697.055,66.946 697.295,66.911 697.452,67.068C697.574,66.636 697.796,66.238 698.213,65.928L698.213,65.892C698.229,65.495 698.8,65.495 698.832,65.892C698.886,66.739 699.024,67.586 699.164,68.432C699.199,68.621 699.232,68.812 699.265,69.002C699.3,68.674 699.319,68.328 699.265,68.001C699.199,67.655 699.665,67.516 699.785,67.844C699.871,68.104 699.923,68.38 699.94,68.674L700.007,68.674C700.007,68.483 700.303,68.294 700.457,68.483C700.544,68.604 700.613,68.707 700.683,68.829C700.77,68.846 700.838,68.914 700.853,69.036C700.853,69.053 700.871,69.106 700.871,69.139C701.097,69.607 701.183,70.141 701.237,70.678C701.27,70.315 701.285,69.933 701.252,69.537C701.237,69.227 701.735,69.158 701.789,69.469C701.789,69.485 701.789,69.52 701.805,69.555C701.891,69.555 701.978,69.59 701.996,69.709C702.082,70.348 702.098,71.057 702.045,71.783C702.082,71.799 702.098,71.799 702.117,71.834C702.497,72.336 702.304,73.252 702.253,73.82C702.253,73.873 702.253,73.941 702.238,73.993C702.304,73.838 702.375,73.664 702.443,73.493C702.824,72.284 702.894,71.004 702.253,70.141C702.151,70.022 702.358,69.883 702.462,69.987C702.929,70.47 703.083,71.178 703.118,71.888C703.757,70.229 704.188,68.553 703.55,66.739C703.343,66.117 704.291,65.737 704.603,66.29C705.294,67.481 705.52,68.726 705.499,69.952C705.569,69.831 705.656,69.744 705.779,69.727C705.794,69.33 705.779,68.934 705.656,68.483C705.485,67.879 706.416,67.448 706.693,68.034C707.332,69.347 707.382,70.522 707.055,71.627C707.091,72.336 706.971,72.992 706.728,73.578C706.416,74.91 705.847,76.153 705.088,77.344C705.208,77.275 705.328,77.224 705.449,77.155C706.054,76.411 706.485,75.582 706.502,74.616C706.502,74.08 707.247,74.115 707.314,74.616C707.367,75.029 707.332,75.428 707.281,75.807C707.332,75.738 707.402,75.652 707.453,75.582C707.471,75.496 707.471,75.41 707.487,75.324C707.521,74.996 707.746,74.874 707.973,74.891C708.938,73.493 709.594,71.905 709.819,70.072C709.853,69.779 710.285,69.762 710.285,70.072C710.27,71.558 709.939,73.009 709.353,74.356C709.853,73.838 710.249,73.321 710.425,72.785C710.529,72.439 711.133,72.474 711.079,72.87C710.89,74.356 709.819,75.547 708.592,76.568C708.664,76.671 708.699,76.757 708.731,76.862C708.782,76.775 708.834,76.671 708.87,76.584C709.007,76.015 709.853,76.153 709.853,76.723C709.853,77.742 709.389,78.658 708.713,79.486C708.316,80.333 707.642,81.094 706.952,81.783C709.612,81.387 711.892,80.402 712.479,78.019C712.583,77.603 713.221,77.689 713.205,78.105C713.17,81.697 709.733,83.665 705.987,84.288C706.035,85.653 705.88,87.001 705.137,88.174C704.207,89.642 703.223,90.696 702.132,92.094C701.27,93.218 701.008,95.584 700.355,96.983C699.575,98.64 698.784,100.318 697.815,101.682C700.079,103.219 702.339,105.05 703.343,105.671C707.091,107.985 709.939,116.777 710.249,120.716C710.631,125.293 711.531,129.421 712.982,133.756C713.896,136.469 715.848,139.716 715.848,142.617C715.848,144.051 714.723,145.105 713.17,145.83C713.569,147.039 713.963,148.3 714.31,149.595L714.517,149.595C719.303,149.526 724.088,148.473 728.906,148.524C734.985,148.576 741.395,147.713 747.421,146.971C747.8,146.918 748.112,147.056 748.32,147.281C748.906,147.005 749.53,146.763 750.117,146.591C750.565,145.813 750.944,145.105 751.1,144.864C751.612,144.059 752.127,143.302 752.669,142.568C746.124,109.19 734.265,50.227 731.593,47.3C727.856,43.207 727.498,48.366 723.049,43.919C718.602,39.471 724.651,31.108 731.593,37.691C736.485,42.333 750.758,101.657 758.69,137.743C759.719,137.535 760.749,137.672 761.584,138.506C764.262,141.219 763.915,144.657 765.853,147.748C766.541,148.87 767.01,150.563 766.783,151.876C766.334,154.466 766.854,156.903 766.889,159.493C766.905,159.942 766.646,160.409 766.248,160.633C765.42,161.089 764.564,161.475 763.681,161.805C764.007,163.604 764.178,164.763 764.162,165.12C763.983,169.391 757.813,169.126 757.043,165.12C757.043,165.12 756.91,164.412 756.658,163.112C752.86,163.165 749.056,162.22 745.815,160.183C745.522,160.011 745.574,159.596 745.851,159.477L745.796,159.388C745.037,159.82 744.19,160.235 743.223,160.789C737.921,163.811 733.449,168.146 728.284,171.393C723.275,174.538 716.848,176.766 710.924,176.782C703.929,176.799 702.685,174.175 699.143,167.974C697.415,164.986 696.036,161.86 694.741,158.699C693.391,158.837 692.168,158.871 691.527,158.888C690.405,158.906 689.247,158.837 688.089,158.663C686.967,161.807 684.877,164.623 682.098,165.953C684.775,172.775 684.362,181.377 682.13,189.047C682.338,189.842 682.496,190.67 682.614,191.619C683.598,199.636 683.116,210.602 688.729,216.665C688.989,216.941 688.973,217.304 688.729,217.581C687.657,218.807 687.866,218.41 685.81,219.066C685.672,219.101 685.55,219.153 685.43,219.186C689.818,219.964 693.688,220.845 696.02,225.112C697.315,227.479 698.108,229.395 698.247,232.14C698.297,233.489 698.593,235.216 698.438,236.753C698.488,236.89 698.558,237.029 698.627,237.168C700.749,242.108 703.204,247.168 701.32,252.696C699.507,258.016 695.761,265.823 690.457,268.07C687.19,269.468 681.458,264.51 680.68,261.677C679.988,259.156 680.732,255.926 681.337,253.438C681.837,251.417 682.165,249.294 682.39,247.152C676.725,245.924 673.012,243.645 668.762,237.876C666.05,234.162 664.203,229.638 663.165,224.974C658.916,225.129 654.011,224.006 651.991,222.521C649.849,220.932 648.899,214.818 648.036,212.934C645.79,208.047 639.657,206.993 634.097,206.717C633.199,209.601 631.747,212.191 629.864,215.456C628.223,218.289 625.943,220.274 625.113,223.593C624.647,225.456 625.269,228.445 624.286,230.12C623.439,231.554 621.728,231.676 619.881,231.313C619.639,231.933 619.362,232.539 619.016,233.092C618.656,233.696 618.291,234.543 617.843,235.388C622.404,241.21 621.608,249.621 621.66,257.066C621.728,268.637 623.319,281.506 621.883,293.235C623.698,294.615 625.269,296.137 625.892,298.297C627.482,303.875 626.876,310.628 626.271,316.311C626.237,316.674 626.065,316.898 625.718,317.019C622.732,318.108 619.776,317.209 616.719,318.678C613.645,320.162 611.349,322.874 607.963,324.17C604.8,325.38 599.207,324.205 595.837,324.205C594.058,324.205 591.848,323.704 590.878,321.994C589.032,318.833 590.43,312.494 594.248,311.043C598.481,309.436 600.934,307.243 601.002,302.527C601.053,299.937 602.088,297.001 603.386,294.287C602.747,281.42 600.122,269.019 596.959,256.41C595.561,250.762 594.127,244.595 593.799,238.773C593.609,235.509 593.747,232.229 594.146,228.999C594.213,228.41 594.801,227.374 595.508,226.234C593.92,225.802 590.396,225.733 589.81,223.593C589.272,221.622 592.866,217.614 593.782,216.147C595.597,213.246 596.77,210.638 597.478,207.701C596.496,201.62 596.665,195.904 598.117,188.943C599.05,184.433 600.035,180.359 601.435,176.005C602.281,173.397 603.852,171.152 605.304,168.838C603.281,166.557 602.054,167.767 599.983,165.815C597.531,163.5 594.317,162.655 592.072,160.116C591.588,159.545 591.901,158.613 592.694,158.613C598.652,158.613 603.817,152.532 607.806,148.767C609.207,147.455 610.779,146.953 612.382,146.538C612.195,144.864 612.367,143.154 613.058,141.564C614.457,138.403 616.944,136.798 619.657,135.414C618.429,132.479 617.859,129.388 618.723,126.105C619.329,123.843 621.833,122.253 623.439,120.837C627.621,117.192 630.037,111.753 633.18,107.277C636.497,102.563 641.367,99.316 646.584,97.121C650.264,95.567 653.734,95.377 657.656,95.394C658.675,95.41 662.286,96.155 665.29,96.138C665.256,94.703 665.325,93.201 665.635,91.784C665.653,91.543 665.671,91.284 665.705,91.042C665.723,90.887 665.809,90.799 665.912,90.765C665.93,90.696 665.947,90.643 665.963,90.575C666.034,90.403 666.102,90.212 666.17,90.023C666.17,89.193 666.257,88.365 666.396,87.552C666.449,87.311 666.483,86.931 666.587,86.638C666.569,86.619 666.569,86.619 666.569,86.603C666.569,86.569 666.534,86.55 666.553,86.499C666.587,86.206 666.671,86.015 666.828,85.878C667.036,85.532 667.243,85.186 667.433,84.842C667.347,84.788 667.243,84.703 667.139,84.565C667.069,84.46 667.087,84.357 667.139,84.253L667.139,84.236C667.156,84.219 667.156,84.15 667.19,84.047C667.243,83.873 667.347,83.701 667.399,83.511C667.57,82.941 667.57,82.301 667.605,81.697C667.64,81.075 667.708,80.454 667.777,79.814C667.742,79.624 667.742,79.433 667.708,79.262C667.433,77.863 667.036,76.447 666.361,75.185C666.17,74.822 666.483,74.529 666.791,74.564C666.516,73.684 666.257,72.801 666.034,71.921C665.947,71.575 666.276,71.403 666.516,71.506L666.516,71.437C666.483,71.403 666.483,71.35 666.449,71.299C666.379,71.161 666.414,71.057 666.464,70.954C666.449,70.504 666.43,70.055 666.43,69.727C666.43,69.59 666.516,69.52 666.622,69.469C666.603,69.382 666.603,69.26 666.671,69.139C666.708,69.089 666.741,69.053 666.776,69.002C666.776,68.674 666.791,68.328 666.812,67.982C666.844,67.724 667.103,67.655 667.258,67.793C667.207,67.378 667.19,66.964 667.207,66.583C667.207,66.325 667.622,66.254 667.657,66.514C667.761,67.049 667.915,67.551 668.107,68.052C668.175,68.052 668.261,68.07 668.314,68.121C668.366,68.139 668.399,68.139 668.452,68.139C668.416,67.896 668.468,67.672 668.555,67.464C668.502,67.309 668.486,67.138 668.486,66.981C668.486,66.67 668.746,66.514 669.005,66.532C668.968,66.429 668.935,66.307 668.901,66.204C668.709,65.704 669.555,65.341 669.764,65.841C669.833,65.997 669.883,66.152 669.902,66.307C670.058,66.238 670.229,66.169 670.404,66.117C670.525,65.961 670.784,65.98 670.818,66.238C670.835,66.462 670.871,66.686 670.886,66.911C670.955,66.911 671.007,66.911 671.075,66.93C671.094,66.825 671.111,66.722 671.164,66.636C671.386,66.186 671.889,66.29 672.39,66.514C672.32,66.376 672.269,66.221 672.217,66.066C672.097,65.737 672.614,65.598 672.735,65.928C672.702,65.565 672.702,65.202 672.718,64.84C672.718,64.821 672.735,64.821 672.735,64.804C672.665,64.632 672.614,64.458 672.564,64.269C672.442,63.664 673.252,63.456 673.478,64.01C673.599,64.321 673.804,64.579 674.031,64.804C674.325,64.821 674.652,64.821 674.979,64.84C674.979,64.752 674.997,64.666 675.12,64.666C675.155,64.666 675.204,64.685 675.223,64.685C675.275,64.615 675.325,64.563 675.394,64.546C675.757,64.425 676.172,64.442 676.551,64.597C676.43,64.494 676.312,64.408 676.189,64.321C675.929,64.132 675.964,63.821 676.121,63.63C675.914,63.613 675.742,63.613 675.603,63.682C675.448,63.752 675.257,63.7 675.204,63.509C674.997,62.714 675.776,62.473 676.43,62.438C676.516,62.404 676.605,62.404 676.689,62.456L676.708,62.456C677.193,62.507 677.64,62.731 678.089,62.939C677.829,62.698 677.588,62.456 677.312,62.231C677.295,62.265 677.242,62.265 677.208,62.231C677.175,62.197 677.141,62.161 677.087,62.11C677.069,62.094 677.087,62.058 677.087,62.041C677.069,62.007 677.037,61.989 677.021,61.972C676.897,61.868 676.964,61.729 677.069,61.662C677.037,61.609 677.002,61.575 676.964,61.54C676.882,61.419 677.037,61.28 677.141,61.35C677.608,61.626 678.055,61.886 678.521,62.144C678.176,61.747 677.829,61.333 677.553,60.884C677.26,60.452 677.986,60.037 678.261,60.47C678.574,60.97 678.92,61.454 679.262,61.936C679.28,61.056 679.627,60.4 680.575,60.47C680.611,60.452 680.646,60.434 680.68,60.452C680.664,59.951 681.337,59.692 681.683,60.107C681.595,59.605 682.338,59.398 682.478,59.899L682.478,59.935L682.614,59.935C682.563,59.692 682.512,59.468 682.459,59.226C682.373,58.812 683.011,58.62 683.116,59.052C683.203,59.381 683.287,59.708 683.41,60.054L683.427,60.054ZM756.956,320.064C751.471,320.064 747.023,315.619 747.023,310.133C747.023,304.647 751.471,300.201 756.956,300.201C762.441,300.201 766.889,304.647 766.889,310.133C766.889,315.619 762.441,320.064 756.956,320.064Z" style="fill:rgb(186,186,186);fill-rule:nonzero;"/>
                </g>
                <g transform="matrix(1.17502,6.93889e-18,-6.93889e-18,1.17502,265.72,352.096)">
                    <g transform="matrix(1,0,0,1,341.986,121.009)">
                        <path d="M0,5.039C-0.021,4.997 -0.042,4.956 -0.065,4.914C0.325,4.676 0.604,4.506 0.604,4.506L1.025,4.41C1.025,4.41 0.576,4.685 0,5.039M-1.235,5.797C-1.259,5.758 -1.284,5.718 -1.309,5.678C-0.953,5.458 -0.569,5.223 -0.239,5.021C-0.216,5.062 -0.194,5.104 -0.173,5.145C-0.516,5.356 -0.89,5.585 -1.235,5.797M-2.368,6.491C-2.456,6.545 -2.548,6.466 -2.412,6.374C-2.26,6.271 -1.903,6.046 -1.486,5.788C-1.46,5.827 -1.436,5.866 -1.412,5.905C-1.834,6.164 -2.194,6.385 -2.368,6.491M-1.711,5.121C-1.383,4.856 -1.016,4.563 -0.704,4.317C-0.614,4.434 -0.531,4.55 -0.454,4.666C-0.783,4.879 -1.167,5.13 -1.521,5.368C-1.582,5.286 -1.645,5.203 -1.711,5.121M-2.422,5.991C-2.702,6.199 -2.979,6.198 -2.586,5.841C-2.502,5.765 -2.223,5.535 -1.876,5.254C-1.814,5.331 -1.754,5.408 -1.697,5.485C-1.987,5.681 -2.246,5.86 -2.422,5.991M-2.167,4.611C-1.866,4.307 -1.531,3.971 -1.25,3.689C-1.115,3.827 -0.988,3.967 -0.871,4.108C-1.18,4.355 -1.548,4.649 -1.884,4.916C-1.974,4.814 -2.069,4.712 -2.167,4.611M-2.866,5.689C-2.97,5.759 -3.442,5.923 -2.888,5.344C-2.766,5.217 -2.559,5.007 -2.318,4.763C-2.225,4.857 -2.136,4.953 -2.051,5.049C-2.483,5.393 -2.829,5.665 -2.866,5.689M-0.623,3.062L0.067,2.913L-0.161,3.541C-0.161,3.541 -0.385,3.721 -0.705,3.976C-0.826,3.828 -0.958,3.682 -1.099,3.538C-0.819,3.258 -0.623,3.062 -0.623,3.062M0.031,3.76C0.081,3.766 0.69,3.697 0.69,3.697L0.36,4.142C0.36,4.142 0.094,4.311 -0.279,4.553C-0.358,4.431 -0.445,4.309 -0.538,4.186C-0.216,3.935 0.016,3.758 0.031,3.76M-3.504,5.076C-3.481,5.038 -3.222,4.683 -2.896,4.237C-2.796,4.318 -2.697,4.403 -2.599,4.493C-2.833,4.743 -3.036,4.958 -3.158,5.084C-3.714,5.662 -3.569,5.183 -3.504,5.076M-2.001,3.02C-1.855,3.133 -1.71,3.254 -1.568,3.383C-1.838,3.675 -2.161,4.023 -2.454,4.336C-2.558,4.241 -2.663,4.151 -2.769,4.065C-2.516,3.719 -2.236,3.34 -2.001,3.02M-3.822,4.644C-3.699,4.464 -3.529,4.198 -3.345,3.9C-3.266,3.954 -3.187,4.011 -3.107,4.071C-3.375,4.428 -3.593,4.716 -3.666,4.803C-4.007,5.208 -4.02,4.932 -3.822,4.644M-2.575,2.626C-2.456,2.699 -2.336,2.777 -2.216,2.862C-2.45,3.184 -2.729,3.562 -2.981,3.9C-3.065,3.837 -3.15,3.777 -3.234,3.72C-3.011,3.356 -2.775,2.963 -2.575,2.626M-4.324,4.61C-4.225,4.432 -4.019,4.064 -3.776,3.631C-3.736,3.654 -3.696,3.677 -3.656,3.701C-3.898,4.128 -4.108,4.493 -4.206,4.649C-4.292,4.789 -4.374,4.699 -4.324,4.61M-3.065,2.364C-3.022,2.383 -2.98,2.404 -2.938,2.425C-3.126,2.763 -3.347,3.155 -3.553,3.52C-3.594,3.496 -3.634,3.473 -3.675,3.451C-3.477,3.098 -3.262,2.715 -3.065,2.364M-2.965,2.187C-2.635,1.598 -2.377,1.139 -2.377,1.139L-2.457,1.562C-2.457,1.562 -2.615,1.848 -2.838,2.247C-2.881,2.226 -2.923,2.206 -2.965,2.187M-1.651,1.445C-1.651,1.445 -1.696,2.057 -1.688,2.106C-1.687,2.121 -1.854,2.36 -2.092,2.691C-2.218,2.603 -2.344,2.521 -2.469,2.447C-2.242,2.064 -2.083,1.792 -2.083,1.792L-1.651,1.445ZM-0.843,2.038L-0.966,2.733C-0.966,2.733 -1.154,2.936 -1.422,3.227C-1.572,3.091 -1.723,2.966 -1.875,2.85C-1.633,2.521 -1.462,2.289 -1.462,2.289L-0.843,2.038ZM5.725,2.53C5.84,2.393 5.039,2.524 5.039,2.524C5.039,2.524 5.071,1.665 4.942,1.518C4.708,1.251 4.18,1.505 4.001,1.312C3.879,1.181 4.113,0.751 3.82,0.449C3.641,0.263 2.88,0.279 2.88,0.279C2.88,0.279 2.853,-0.561 2.642,-0.67C2.641,-0.67 2.637,-0.674 2.636,-0.676C2.519,-0.882 1.679,-0.877 1.679,-0.877C1.679,-0.877 1.665,-1.638 1.473,-1.809C1.159,-2.09 0.739,-1.839 0.603,-1.956C0.403,-2.127 0.636,-2.665 0.36,-2.889C0.208,-3.012 -0.648,-2.946 -0.648,-2.946C-0.648,-2.946 -0.548,-3.752 -0.681,-3.631C-0.681,-3.631 -1.767,-2.932 -2.211,-1.449C-2.656,0.035 -2.82,0.75 -3.061,1.202C-3.128,1.329 -4.487,4.007 -4.541,4.062C-4.744,4.272 -5.592,4.923 -5.971,5.438C-6.408,6.033 -6.524,7.215 -5.8,7.892C-5.764,7.925 -5.625,8.06 -5.59,8.094C-4.885,8.791 -3.709,8.629 -3.131,8.169C-2.632,7.77 -2.014,6.898 -1.812,6.686C-1.759,6.631 0.853,5.175 0.988,5.096C1.431,4.838 2.139,4.646 3.604,4.144C5.068,3.642 5.725,2.53 5.725,2.53" style="fill:rgb(186,186,186);fill-rule:nonzero;"/>
                    </g>
                    <g transform="matrix(1,0,0,1,234.097,180.01)">
                        <path d="M0,-7.83C-4.919,-11.788 -4.002,-17.335 0.033,-22.35C4.067,-27.365 10.705,-29.134 14.61,-25.992C18.516,-22.85 18.21,-15.988 14.176,-10.973C10.142,-5.957 4.858,-3.922 0,-7.83M14.621,-10.588C18.917,-15.928 19.242,-23.235 15.083,-26.58C10.925,-29.926 3.857,-28.043 -0.439,-22.703C-4.644,-17.475 -5.665,-11.705 -0.792,-7.511L-13.016,7.685L-15.666,10.06L-23.232,19.466C-23.232,19.466 -23.971,19.935 -24.024,20.526C-24.024,20.526 -23.998,21.013 -23.513,21.4C-23.031,21.791 -22.55,21.712 -22.55,21.712C-21.984,21.534 -21.684,20.712 -21.684,20.712L-14.118,11.306L-12.366,8.208L-0.142,-6.988C4.939,-3.178 10.417,-5.361 14.621,-10.588M-22.817,22.054C-22.817,22.054 -22.735,22.096 -22.794,22.025L-22.817,22.054ZM-24.301,20.86L-24.277,20.832C-24.36,20.789 -24.301,20.86 -24.301,20.86" style="fill:rgb(186,186,186);fill-rule:nonzero;"/>
                    </g>
                    <g transform="matrix(1,0,0,1,265.251,184.193)">
                        <path d="M0,150.803C-2.44,150.629 -6.598,153.878 -6.274,153.069C-5.926,152.198 -5.926,145.574 -5.926,145.574L-4.532,145.226L-1.395,130.411C-1.395,130.411 -1.395,131.98 0.523,138.778C2.44,145.574 3.137,150.454 3.137,150.454C3.137,150.454 2.44,150.978 0,150.803M82.563,-29.771C84.184,-30.658 86.184,-30.776 86.631,-30.814C87.101,-30.853 87.502,-31.926 86.631,-32.013C85.759,-32.1 82.744,-31.721 81.742,-31.242C80.739,-30.762 78.86,-29.509 78.86,-29.509C78.86,-29.509 78.232,-29.491 78.755,-29.927C79.278,-30.363 80.966,-32.342 83.188,-33.213C85.411,-34.084 85.882,-34.107 86.579,-34.412C87.276,-34.718 86.945,-35.603 86.422,-35.56C85.899,-35.516 84.01,-35.484 82.354,-34.569C80.698,-33.654 78.082,-31.416 77.951,-31.416C77.82,-31.416 77.834,-31.622 77.921,-31.752C78.008,-31.883 83.746,-36.47 84.269,-37.037C84.792,-37.603 84.399,-38.344 83.92,-38.301C83.441,-38.257 78.524,-34.589 77.347,-33.63C77.013,-33.358 76.284,-32.223 75.941,-32.683C75.497,-33.28 76.287,-35.094 76.313,-35.797C76.323,-36.076 76.299,-36.368 76.157,-36.609C76.016,-36.85 75.731,-37.025 75.458,-36.964C75.034,-36.868 74.909,-36.339 74.834,-35.911C74.708,-35.197 74.489,-34.491 74.114,-33.871C73.904,-33.525 73.647,-33.206 73.477,-32.84C72.386,-30.493 69.748,-28.748 69.149,-26.057C68.801,-24.488 65.925,-21.482 65.228,-20.697C64.53,-19.913 59.258,-10.414 54.378,-6.405C49.498,-2.397 46.187,0.217 44.27,3.877C42.352,7.537 42.178,8.06 39.738,9.977C37.298,11.895 34.858,14.509 31.721,16.077C28.583,17.646 26.666,20.261 25.098,21.655C23.529,23.049 20.566,23.746 18.823,25.315C17.08,26.884 13.595,29.324 13.595,29.324L9.586,31.763L10.109,28.278C10.632,28.104 12.723,25.838 14.117,22.526C15.512,19.215 15.512,13.115 15.686,11.372C15.86,9.629 17.254,6.491 17.952,5.62C18.649,4.749 17.254,-0.305 13.072,-1.7C8.889,-3.094 6.607,-2.606 5.229,-1.526C3.079,0.159 5.054,1.263 4.009,1.263C2.963,1.263 1.917,-2.746 1.917,-2.746C1.917,-2.746 1.394,1.263 1.917,1.786C2.44,2.309 -0.872,-0.305 -0.872,-0.305L0.697,2.309C0.697,2.309 -1.569,1.263 -3.312,5.097C-5.055,8.932 -5.055,13.289 -5.055,13.289C-5.055,13.289 -7.32,13.289 -6.972,14.509C-6.623,15.729 -4.009,22.003 -3.486,22.526C-2.963,23.049 -3.834,34.204 -3.834,34.204C-3.834,34.204 -11.329,35.772 -21.612,39.781C-31.895,43.79 -42.352,47.449 -42.352,47.449C-42.352,47.449 -42.526,45.184 -44.444,40.653C-46.361,36.121 -45.489,19.563 -45.489,19.563L-43.921,14.683L-45.315,8.758C-45.315,8.758 -50.37,7.014 -50.893,7.537C-51.416,8.06 -51.416,9.106 -51.416,9.106C-51.416,9.106 -52.81,9.106 -52.984,9.977C-53.158,10.849 -53.158,11.546 -53.158,11.546C-53.158,11.546 -54.553,12.94 -54.553,13.637L-54.553,16.077L-52.112,18.169C-52.112,18.169 -53.681,33.855 -54.553,43.267C-55.424,52.678 -54.553,57.384 -53.855,58.43C-53.158,59.475 -39.738,58.779 -39.738,58.779L-38.867,60.521L-23.006,58.256C-23.006,58.256 -18.3,72.722 -19.521,77.95C-20.741,83.179 -27.538,98.517 -27.538,98.517L-24.749,102.176C-24.749,102.176 -24.052,103.048 -24.4,116.991C-24.749,130.934 -25.098,142.263 -25.098,142.263L-25.795,145.574L-23.006,145.401L-23.704,149.583C-23.704,149.583 -27.886,150.454 -29.978,152.895C-32.069,155.334 -33.115,156.206 -33.115,156.206C-33.115,156.206 -33.463,154.115 -35.904,153.766C-38.344,153.417 -41.307,154.463 -43.049,157.775C-44.792,161.086 -45.489,165.792 -45.489,165.792C-45.489,165.792 -52.635,171.195 -52.635,177.992C-52.635,184.789 -46.535,189.147 -44.792,186.881C-43.049,184.616 -36.949,174.506 -36.949,174.506C-36.949,174.506 -31.546,171.892 -31.372,170.846C-31.198,169.801 -30.675,165.966 -30.675,165.966L-21.089,165.966C-21.089,165.966 -19.695,181.304 -14.814,180.781C-9.935,180.258 -9.412,177.644 -9.76,173.113C-10.109,168.58 -9.76,162.132 -9.76,162.132C-9.76,162.132 3.312,165.792 9.237,167.012C15.163,168.232 18.475,170.15 19.869,164.572C21.263,158.994 22.309,147.666 22.309,147.666L24.052,147.666C24.052,147.666 24.749,131.631 24.052,117.339C23.354,103.048 21.089,97.993 21.089,97.993C21.089,97.993 17.952,85.271 20.392,77.602C22.832,69.933 23.703,56.687 24.749,51.807C25.795,46.927 35.903,32.112 39.041,28.626C42.178,25.141 43.921,20.086 49.498,13.637C55.075,7.189 62.047,-1.351 65.01,-6.928C67.973,-12.506 71.662,-18.609 71.662,-18.609C71.662,-18.609 78.256,-21.395 79.476,-23.835C80.696,-26.275 85.402,-26.275 85.402,-26.275C85.402,-26.275 85.824,-27.092 85.17,-27.528C84.517,-27.964 79.389,-26.754 79.432,-26.928C79.476,-27.102 80.996,-28.912 82.563,-29.771" style="fill:rgb(186,186,186);fill-rule:nonzero;"/>
                    </g>
                </g>
                <g transform="matrix(1.93492,0,0,1.93492,338.202,674.281)">
                    <path d="M221.986,86.491C221.343,86.619 220.637,86.041 219.995,85.398C219.352,84.754 218.837,84.498 218.131,84.562C217.424,84.626 215.818,84.305 214.982,84.047C214.468,83.89 210.956,82.853 207.852,81.962C206.527,80.773 204.776,80.048 202.854,80.048C202.432,80.048 202.019,80.083 201.616,80.151C199.075,79.276 195.139,77.91 191.916,78.716C187.803,79.745 181.121,79.294 180.22,79.23C179.321,79.166 179.385,79.423 179,79.809C178.848,79.959 178.064,80.081 177.043,80.134C177.241,79.488 177.617,78.752 177.972,78.694C178.486,78.609 179.899,78.223 179.728,77.922C179.557,77.623 176.644,77.623 176.386,77.623C176.129,77.623 176.301,78.565 176.429,78.565C176.557,78.565 177.029,78.394 177.029,78.609C177.029,78.739 176.508,79.547 176.1,80.162C174.684,80.173 173.075,80.061 172.06,79.745C171.509,79.572 170.779,79.344 169.974,79.105C170.052,78.827 170.133,78.468 170.133,78.179C170.133,77.623 170.004,77.324 170.004,77.324L169.876,77.067C169.876,77.067 169.876,76.296 169.49,76.123C169.319,75.739 168.419,75.053 167.39,75.009C166.363,74.967 165.849,75.267 165.549,75.181C165.25,75.096 165.035,75.353 165.121,75.652C165.197,75.921 164.484,76.431 164.335,77.768C164.147,77.751 163.979,77.747 163.835,77.75C164.286,76.915 163.643,76.081 163.129,76.209C162.614,76.337 162.743,74.089 162.743,73.19C162.743,72.29 162.743,70.554 161.78,70.554C161.522,70.297 161.33,69.719 161.33,69.719C161.33,69.719 162.037,68.82 161.136,68.691C160.238,68.563 157.795,69.27 157.217,69.27C156.639,69.27 157.153,69.59 157.539,69.59C157.924,69.59 158.887,70.49 158.759,71.004C156.96,70.94 150.985,70.875 149.186,72.355C147.386,73.832 140.061,77.108 138.648,77.494C137.234,77.879 134.47,78.072 134.47,77.429C134.47,76.788 134.793,74.989 133.828,74.989L123.291,74.989C123.291,74.989 122.84,75.117 122.84,75.888C122.84,76.659 122.231,76.498 122.231,76.498L119.756,76.498C119.564,76.498 120.013,79.745 120.013,79.745C120.013,79.745 120.528,80 120.463,80.194C120.399,80.386 120.849,84.177 120.849,84.177C120.849,84.177 120.206,84.754 119.949,84.754C119.692,84.754 119.307,85.333 120.27,85.398C121.235,85.462 121.813,85.785 121.813,85.785C121.813,85.785 121.941,86.684 121.235,86.941C121.235,86.941 121.427,89.959 120.849,90.345C120.27,90.731 120.978,91.116 121.492,91.245C121.74,91.306 122.261,91.294 122.731,91.265C124.039,93.799 126.683,95.533 129.732,95.533C132.814,95.533 135.483,93.761 136.775,91.18L137.426,91.18L137.363,92.273C137.363,92.273 153.619,91.952 155.674,91.952C157.731,91.952 178.421,92.852 179.45,92.788C180.478,92.724 189.409,92.144 190.245,92.273C191.08,92.402 191.979,93.431 191.979,93.431C191.979,93.431 194.743,93.816 194.743,93.559C194.743,93.302 193.714,92.144 193.714,92.144C193.714,92.144 195.704,92.077 196.876,92.04C198.243,93.851 200.412,95.02 202.854,95.02C205.326,95.02 207.516,93.822 208.879,91.977C211.059,91.957 212.812,91.928 213.248,91.887C214.597,91.758 219.094,92.337 219.609,92.273C220.124,92.208 219.995,91.758 219.995,91.758C219.995,91.758 222.372,91.952 222.436,91.694C222.5,91.437 222.179,91.501 222.179,91.501C222.179,91.501 222.307,91.116 222.179,90.923C222.05,90.731 222.628,88.096 222.693,87.455C222.757,86.812 222.628,86.363 221.986,86.491ZM129.732,91.683C127.513,91.683 125.713,89.883 125.713,87.663C125.713,85.443 127.513,83.644 129.732,83.644C131.952,83.644 133.752,85.443 133.752,87.663C133.752,89.883 131.952,91.683 129.732,91.683ZM202.854,91.357C200.744,91.357 199.033,89.646 199.033,87.534C199.033,85.424 200.744,83.712 202.854,83.712C204.965,83.712 206.676,85.424 206.676,87.534C206.676,89.646 204.965,91.357 202.854,91.357Z" style="fill:rgb(186,186,186);fill-rule:nonzero;"/>
                </g>
                <g transform="matrix(0.280223,0,0,0.280223,-316.574,-110.22)">
                    <path d="M1840.24,3024.03C1828.53,3027.11 1817.54,3029.26 1816.03,3031.66L1815.49,3031.12C1815.49,3031.12 1812.88,3030.99 1811.93,3029.89C1810.97,3028.79 1810.42,3027.97 1810.42,3027.97L1810.83,3026.05C1810.83,3026.05 1783.02,3014.55 1765.49,3009.48C1747.95,3004.41 1694.93,2984 1690.41,2981.12C1690.41,2981.12 1687.4,2988.11 1684.39,2994.68C1681.37,3001.26 1687,3011.92 1686.03,3015.23C1686.03,3015.23 1701.92,3031.81 1706.31,3046.06C1710.69,3060.3 1733.02,3112.09 1734.94,3122.36C1736.86,3132.64 1749.73,3172.23 1750.42,3181.4C1751.1,3190.58 1749.32,3200.45 1749.32,3200.45C1749.32,3200.45 1782.75,3233.19 1786.86,3238.67C1790.97,3244.15 1796.45,3260.99 1799.05,3264.01C1801.65,3267.03 1828.37,3282.37 1846.04,3303.19C1863.71,3324.01 1897.68,3355.66 1898.92,3356.62C1898.92,3356.62 1904.26,3354.29 1907.14,3358.4C1907.14,3358.4 1914.95,3356.89 1918.23,3360.73C1921.52,3364.57 1935.31,3376.4 1941.11,3384.02C1947.69,3392.65 1950.98,3394.84 1953.03,3398.13C1955.08,3401.41 1955.77,3407.72 1957.69,3410.46C1959.61,3413.2 1967.96,3419.5 1973.3,3426.89C1978.65,3434.29 1979.74,3438.81 1978.51,3441.14C1977.28,3443.47 1963.44,3453.75 1960.02,3455.53C1956.59,3457.31 1936.86,3460.46 1930.29,3457.72C1923.71,3454.98 1915.77,3434.98 1911.66,3429.09C1907.55,3423.2 1902.07,3412.38 1896.86,3408.68C1891.66,3404.98 1876.18,3391.41 1874.94,3389.09C1873.71,3386.76 1874.81,3383.33 1874.81,3383.33C1874.81,3383.33 1855.35,3365.8 1838.91,3357.85C1822.48,3349.9 1784.12,3324.43 1774.12,3313.74C1764.12,3303.05 1759.6,3286.61 1756.45,3283.33C1753.3,3280.04 1743.29,3269.76 1740.69,3267.85C1738.09,3265.93 1708.22,3264.01 1696.31,3264.83C1684.39,3265.65 1666.03,3270.31 1648.63,3271.55C1631.23,3272.78 1615.75,3278.81 1615.62,3279.22C1615.48,3279.63 1614.66,3285.38 1613.01,3285.24C1613.01,3285.24 1613.01,3291.14 1603.01,3293.47C1597.69,3294.71 1593.01,3295.52 1590.96,3300.31C1588.9,3305.11 1587.94,3319.08 1590,3329.91C1592.05,3340.73 1591.78,3363.6 1588.08,3368.54C1584.38,3373.47 1571.77,3373.76 1569.04,3372.92C1564.11,3371.41 1547.12,3349.77 1544.1,3342.37C1541.09,3334.97 1541.36,3320.32 1542.74,3310.59C1544.1,3300.86 1537.12,3293.33 1531.91,3287.85C1526.71,3282.37 1518.62,3269.9 1518.35,3262.09C1518.08,3254.28 1525.61,3239.76 1528.08,3236.89C1530.54,3234.01 1532.19,3236.48 1532.19,3236.48C1532.19,3236.48 1549.17,3234.42 1557.12,3239.35C1565.07,3244.28 1573.28,3242.91 1576.43,3242.64C1579.59,3242.37 1583.15,3243.74 1583.15,3243.74C1583.15,3243.74 1591.78,3241.54 1593.7,3242.78C1593.7,3242.78 1623.56,3234.83 1630.96,3231.68C1638.36,3228.53 1653.15,3221.95 1653.15,3221.95C1653.15,3221.95 1636.99,3224.01 1630.69,3222.23C1624.38,3220.45 1614.38,3207.57 1607.94,3200.72C1601.51,3193.87 1590.55,3190.03 1589.18,3186.06C1587.81,3182.09 1589.45,3177.3 1586.16,3175.79C1582.88,3174.28 1556.44,3160.31 1555.89,3153.73C1555.34,3147.15 1554.79,3144.69 1550,3142.91C1545.2,3141.13 1524.38,3124.83 1523.01,3115.78C1521.64,3106.74 1520.54,3087.43 1523.69,3084.41C1526.84,3081.4 1529.45,3076.6 1530.4,3072.22C1531.37,3067.84 1533.97,3049.75 1533.01,3043.32C1532.05,3036.88 1525.34,3024.27 1525.88,3017.01C1526.43,3009.75 1525.61,2992.35 1525.61,2992.35C1525.61,2992.35 1501.77,3009.62 1488.62,3015.37C1475.47,3021.12 1469.31,3051.12 1458.62,3070.44C1447.94,3089.76 1431.5,3129.62 1430.26,3136.61C1429.03,3143.6 1431.5,3153.05 1433.35,3158.6C1435.2,3164.14 1437.66,3174.62 1436.43,3177.3C1435.2,3179.97 1430.26,3192.09 1430.26,3195.17C1430.26,3198.26 1431.03,3207.29 1429.58,3207.98C1426.98,3209.21 1424.24,3205.79 1424.24,3205.79C1424.24,3205.79 1423.83,3215.24 1422.45,3216.06C1421.09,3216.89 1417.39,3216.47 1416.02,3214.01C1416.02,3214.01 1414.92,3218.53 1413,3219.21C1411.09,3219.9 1408.21,3218.25 1407.66,3216.47C1407.11,3214.69 1406.15,3205.93 1404.78,3202.77C1403.41,3199.62 1402.45,3187.16 1400.95,3186.47C1399.44,3185.79 1398.34,3193.18 1398.34,3195.24C1398.34,3197.29 1405.06,3208.8 1405.33,3210.99C1405.61,3213.19 1401.9,3213.32 1400.13,3212.91C1398.34,3212.5 1394.51,3208.94 1392.59,3206.75C1389.99,3205.38 1388.21,3204.97 1385.88,3202.64C1383.55,3200.31 1380.81,3192.09 1380.94,3189.76C1381.08,3187.43 1382.18,3180.31 1382.04,3175.65C1381.91,3170.99 1386.7,3163.87 1387.25,3161.26C1387.8,3158.66 1391.36,3148.25 1394.24,3144.83C1397.11,3141.4 1398.48,3136.33 1398.62,3133.05C1398.75,3129.76 1403.55,3123.73 1405.06,3118.66C1406.56,3113.59 1421.77,3056.47 1423.69,3049.21C1425.61,3041.94 1445.33,3002.9 1449.17,2996.19C1453.01,2989.48 1479.72,2957.83 1487.25,2945.78C1494.79,2933.72 1527.39,2900.29 1528.49,2899.61C1529.58,2898.93 1529.58,2889.2 1541.5,2875.91C1553.42,2862.62 1572.6,2845.91 1579.45,2840.29C1586.3,2834.68 1614.11,2816.45 1614.66,2816.04C1614.66,2816.04 1614.79,2806.73 1614.38,2805.36C1614.38,2805.36 1609.45,2803.17 1606.71,2799.47C1603.97,2795.77 1599.31,2786.04 1601.51,2776.59C1601.51,2776.59 1595.55,2761.04 1596.85,2749.33C1598.22,2737 1604.38,2717.41 1623.29,2709.87C1642.19,2702.34 1661.51,2705.49 1667.95,2709.05C1674.39,2712.61 1686.03,2724.67 1687.95,2728.23C1689.87,2731.79 1693.98,2741.52 1693.84,2745.91C1693.7,2750.29 1693.02,2765.9 1692.88,2770.97C1692.74,2776.04 1692.88,2790.7 1693.02,2795.36C1693.15,2800.01 1689.18,2816.87 1689.18,2816.87C1689.18,2816.87 1697.81,2823.99 1698.63,2829.74C1698.63,2829.74 1714.94,2830.98 1719.87,2836.59C1724.8,2842.21 1730.96,2854.95 1730.55,2865.63C1730.14,2876.32 1720.96,2891.25 1719.87,2894.95C1718.77,2898.65 1724.8,2909.75 1722.88,2923.04C1720.96,2936.33 1718.63,2938.65 1718.63,2938.65C1718.63,2938.65 1746.58,2951.67 1761.93,2964.55C1777.27,2977.42 1821.79,2994.27 1821.79,2994.27C1821.79,2994.27 1823.71,2992.63 1824.81,2992.63C1825.9,2992.63 1828.09,2993.45 1828.5,2994C1828.91,2994.54 1829.19,2996.33 1829.19,2996.33C1829.19,2996.33 1841.79,2996.33 1846.18,2994.96C1849.42,2993.94 1866.89,2994.18 1876.95,2994.8C1877.59,2994.84 1877.77,2996.45 1876.95,2999C1876.96,3001.17 1876.75,3003.17 1875.88,3004.33C1874.76,3005.81 1872.71,3007.97 1869.99,3010.31L1869.76,3010.14C1868.78,3011.17 1867.68,3012.21 1866.46,3013.26C1864.96,3014.54 1863.11,3015.72 1861,3016.81C1856.55,3019.48 1851.47,3021.77 1846.15,3022.88C1844.21,3023.28 1842.21,3023.66 1840.24,3024.03ZM1892.99,3042.1C1903.12,3059.7 1907.14,3083.42 1907.53,3100.18C1897.5,3108.07 1884.85,3112.78 1871.1,3112.78C1870.46,3112.78 1869.83,3112.75 1869.2,3112.73C1873.64,3102.99 1877.44,3087.71 1881.41,3070.63C1882.76,3064.85 1883.92,3059.85 1884.84,3056.73C1886.94,3049.61 1889.06,3045.02 1892.99,3042.1ZM1881.89,3027.9C1882.79,3028.78 1883.67,3029.67 1884.55,3030.59C1886.45,3032.59 1888.21,3034.78 1889.84,3037.12C1884.41,3040.96 1881.6,3046.87 1879.18,3055.06C1878.21,3058.35 1877.03,3063.42 1875.66,3069.3C1872.82,3081.53 1868.04,3102.09 1862.95,3112.21C1848.99,3110.28 1836.59,3103.49 1827.52,3093.57C1830.24,3069.97 1860.1,3042.73 1881.89,3027.9ZM1930.06,3056.15C1929.47,3071.3 1923.15,3084.98 1913.22,3095.1C1912.26,3079.08 1908.35,3056.97 1898.32,3039.46C1900.42,3038.8 1902.87,3038.32 1905.78,3037.99C1914.14,3037.04 1923.22,3047.74 1930.06,3056.15ZM1870.12,3017.76C1872.53,3019.59 1874.99,3021.58 1877.43,3023.74C1870.09,3028.79 1862.07,3035.07 1854.47,3042.07C1841.79,3053.74 1826.98,3070.4 1822.66,3087.48C1816,3077.93 1812.08,3066.32 1812.08,3053.79C1812.08,3048.19 1812.88,3042.78 1814.33,3037.64C1821.83,3033.46 1830.74,3031.8 1840.02,3030.07C1842.43,3029.62 1844.92,3029.16 1847.35,3028.66C1856.04,3026.85 1864.03,3022.34 1870.12,3017.76ZM1915.08,3014.46C1922.89,3023.18 1928.14,3034.24 1929.65,3046.47C1922.59,3038.41 1914.37,3031.08 1905.12,3032.13C1901.19,3032.57 1897.91,3033.32 1895.12,3034.37C1893.21,3031.58 1891.12,3028.94 1888.83,3026.53C1888.2,3025.87 1887.58,3025.23 1886.95,3024.6C1892.96,3020.82 1898.03,3018.24 1901.21,3017.29C1906.06,3015.84 1910.81,3014.97 1915.08,3014.46ZM1882.74,2995.95C1892.96,2997.99 1902.21,3002.68 1909.78,3009.26C1906.51,3009.82 1903.05,3010.58 1899.52,3011.64C1895.59,3012.81 1889.54,3015.9 1882.52,3020.38C1879.94,3018.03 1877.36,3015.88 1874.82,3013.9C1877.42,3011.58 1879.41,3009.44 1880.59,3007.88C1883.07,3004.59 1882.97,3000.07 1882.74,2995.95Z" style="fill:rgb(186,186,186);fill-rule:nonzero;"/>
                </g>
                <g transform="matrix(0.854635,0,0.137917,0.86542,186.841,318.243)">
                    <g transform="matrix(0.20191,0,0,0.20191,423.819,97.1761)">
                        <path d="M276.69,1602.01C272.557,1604.53 269.128,1607.66 266.891,1611.85C266.891,1611.85 234.084,1610.76 222.518,1610.38C219.878,1610.29 217.183,1610.54 214.499,1611.13C212.403,1611.59 210.275,1612.06 210.275,1612.06C199.537,1605.82 187.525,1599.67 173.949,1593.61C182.236,1561.95 194.743,1531.6 208.519,1501.66L219.494,1489.97C238.489,1489.05 253.984,1478.43 267.159,1461.39C267.865,1458.56 267.078,1456.65 264.65,1455.76C264.65,1455.76 267.46,1451.4 268.724,1449.44C269.414,1448.38 269.62,1447.14 269.285,1446.07C268.152,1442.68 265.621,1441.87 261.821,1443.12C261.073,1443.35 260.376,1443.78 259.815,1444.36C257.478,1446.61 249.246,1455.07 245.287,1459.14C244.723,1459.72 243.975,1460.08 243.215,1460.15C242.455,1460.22 241.749,1459.98 241.26,1459.49C241.259,1459.49 241.257,1459.49 241.256,1459.49C240.169,1458.4 240.112,1456.61 241.118,1455.14C243.763,1451.29 248.866,1443.86 252.06,1439.21C252.774,1438.17 253.038,1436.95 252.786,1435.86C252.533,1434.77 251.789,1433.91 250.742,1433.51C250.738,1433.51 250.735,1433.51 250.732,1433.51C248.125,1432.5 244.909,1433.16 242.479,1435.21C240.918,1436.53 239.15,1438.02 237.666,1439.27C235.68,1440.94 233.036,1441.43 230.959,1440.51C230.958,1440.51 230.957,1440.51 230.957,1440.51C228.864,1439.59 226.171,1440.24 224.339,1442.1C222.794,1443.67 221.249,1445.24 221.249,1445.24C221.249,1445.24 219.966,1445.08 218.311,1444.88C211.638,1444.08 204.478,1446.06 198.497,1450.37C190.053,1456.38 184.988,1464.62 183.704,1475.37C177.383,1479.91 172.838,1486.15 171.884,1496.17C153.875,1520.56 139.199,1543.44 126.826,1566.89C112.369,1594.68 118.512,1625.58 141.546,1640.91C166.195,1657.68 192.994,1668.74 220.303,1676.71C305.046,1726.56 340.675,1830.53 426.049,1878.84C431.102,1868.96 437.811,1860.47 447.41,1854.38C456.32,1857.59 464.796,1862.27 471.593,1872.56C501.707,1900.52 506.663,1987.9 554.477,2042.55C557.639,2062.88 572.414,2076.48 592.893,2086.77C629.46,2128.66 695.348,2151.36 722.932,2192.06C733.136,2207.12 684.035,2218.89 659.563,2219.84C635.841,2220.76 652.103,2246.98 669.546,2245.58L782.987,2238.77C782.987,2238.77 782.988,2238.77 782.992,2238.77C788.181,2237.57 792.965,2234.38 796.207,2229.96C799.449,2225.54 800.862,2220.28 800.109,2215.43C799.688,2212.72 799.393,2210.82 799.393,2210.82C779.968,2181.17 761.397,2161.57 743.577,2150.81C720.496,2124.42 684.746,2072.1 624.645,2041.97C601.109,1976 623.448,1889.36 613.219,1810.76C653.112,1751.87 711.712,1693.84 763.86,1642.09C824.366,1582.04 878.041,1531.36 913.032,1511.96L923.858,1509.33C944.928,1491.1 968.592,1445.54 969.284,1424.69C969.916,1405.64 958.302,1391.16 940.019,1384.97C933.747,1382.84 925.402,1398.46 918.16,1416.68C907.487,1443.36 890.359,1468.01 868.394,1488.27C868.492,1488.38 868.492,1488.38 868.492,1488.38L857.504,1497.46C817.309,1515.23 784.107,1538.32 757.2,1566.2C739.646,1584.29 720.26,1600.6 699.446,1614.79C699.723,1615.24 699.722,1615.24 699.722,1615.24C646.668,1633.68 599.539,1661.07 554.782,1692.04L529.897,1696.11L492.104,1651.69L492.436,1644.82C492.436,1644.82 491.221,1643.71 489.165,1641.84C457.767,1613.25 418.037,1594.2 373.734,1586.5C373.734,1586.5 373.733,1586.5 373.733,1586.5L373.865,1576.6C373.409,1569.6 368.79,1560.67 362.274,1550.86C362.112,1542.13 358.912,1534.13 352.945,1526.79C352.945,1526.79 352.945,1526.79 352.945,1526.79C352.221,1517.58 346.899,1509.96 338.632,1506.32C317.91,1497.12 295.522,1496.35 270.524,1508.44C259.548,1519.33 254.235,1530.54 254.079,1542.03C253.774,1564.45 263.146,1582.86 276.69,1602.01Z" style="fill:rgb(186,186,186);"/>
                    </g>
                    <g transform="matrix(1,0,-0.159364,1,254.235,-1268.48)">
                        <path d="M666.298,1752.41L666.31,1752.79L666.321,1753.17L666.33,1753.55L666.338,1753.92L666.345,1754.3L666.351,1754.67L666.356,1755.05L666.359,1755.42L666.361,1755.8L666.362,1756.17L666.362,1756.54L666.36,1756.9L666.358,1757.27L666.354,1757.64L666.348,1758.01L666.342,1758.37L666.335,1758.74L666.326,1759.1L666.316,1759.46L666.305,1759.82L666.292,1760.18L666.278,1760.54L666.264,1760.9L666.248,1761.25L666.23,1761.61L666.212,1761.96L666.192,1762.32L666.171,1762.67L666.149,1763.02L666.126,1763.37L666.101,1763.72L666.075,1764.07L666.048,1764.42L666.02,1764.76L665.991,1765.11L665.96,1765.45L665.928,1765.8L665.895,1766.14L665.861,1766.48L665.825,1766.82L665.788,1767.16L665.751,1767.5L665.711,1767.83L665.671,1768.17L665.629,1768.51L665.587,1768.84L665.543,1769.17L665.497,1769.5L665.451,1769.84L665.403,1770.16L665.354,1770.49L665.304,1770.82L665.253,1771.15L665.2,1771.48L665.147,1771.8L665.092,1772.12L665.035,1772.45L664.978,1772.77L664.919,1773.09L664.859,1773.41L664.798,1773.73L664.736,1774.05L664.672,1774.36L664.608,1774.68L664.542,1774.99L664.474,1775.31L664.406,1775.62L664.336,1775.93L664.266,1776.24L664.193,1776.55L664.12,1776.86L664.046,1777.17L663.97,1777.47L663.893,1777.78L663.815,1778.08L663.735,1778.39L663.654,1778.69L663.573,1778.99L663.489,1779.29L663.405,1779.59L663.319,1779.89L663.233,1780.19L663.145,1780.49L663.055,1780.78L662.965,1781.08L662.873,1781.37L662.78,1781.66L662.686,1781.95L662.59,1782.24L662.494,1782.53L662.396,1782.82L662.297,1783.11L662.196,1783.39L662.095,1783.68L661.992,1783.97L661.888,1784.25L661.783,1784.53L661.676,1784.81L661.568,1785.09L661.459,1785.37L661.349,1785.65L661.238,1785.93L661.125,1786.2L661.011,1786.48L660.896,1786.75L660.779,1787.03L660.662,1787.3L660.543,1787.57L660.422,1787.84L660.301,1788.11L660.178,1788.38L660.055,1788.64L659.929,1788.91L659.803,1789.18L659.675,1789.44L659.547,1789.7L659.417,1789.97L659.285,1790.23L659.153,1790.49L659.019,1790.75L658.884,1791.01L658.747,1791.26L658.61,1791.52L658.471,1791.77L658.331,1792.03L658.19,1792.28L658.047,1792.53L657.904,1792.78L657.758,1793.03L657.612,1793.28L657.465,1793.53L657.316,1793.78L657.166,1794.02L657.015,1794.27L656.862,1794.51L656.708,1794.76L656.553,1795L656.397,1795.24L656.24,1795.48L656.081,1795.72L655.921,1795.95L655.76,1796.19L655.597,1796.43L655.434,1796.66L655.269,1796.89L655.102,1797.13L654.935,1797.36L654.766,1797.59L654.596,1797.82L654.425,1798.05L654.253,1798.28L654.079,1798.5L653.904,1798.73L653.728,1798.95L653.55,1799.17L653.372,1799.4L653.192,1799.62L653.011,1799.84L652.828,1800.06L652.645,1800.28L652.46,1800.49L652.274,1800.71L652.086,1800.92L651.898,1801.14L651.708,1801.35L651.517,1801.56L651.324,1801.77L651.131,1801.98L650.936,1802.19L650.74,1802.4L650.543,1802.61L650.344,1802.81L650.144,1803.02L649.943,1803.22L649.741,1803.42L649.538,1803.62L649.333,1803.83L649.127,1804.03L648.92,1804.22L648.711,1804.42L648.502,1804.62L648.291,1804.81L648.079,1805.01L647.866,1805.2L647.651,1805.39L647.435,1805.58L647.218,1805.77L647,1805.96L646.781,1806.15L646.56,1806.33L646.338,1806.52L646.115,1806.7L645.89,1806.89L645.665,1807.07L645.438,1807.25L645.21,1807.43L644.981,1807.61L644.75,1807.79L644.519,1807.97L644.286,1808.14L644.052,1808.32L643.817,1808.49L643.58,1808.66L643.342,1808.84L643.103,1809.01L642.863,1809.18L642.622,1809.34L642.379,1809.51L642.136,1809.68L641.891,1809.84L641.645,1810.01L641.397,1810.17L641.149,1810.33L640.899,1810.49L640.648,1810.65L640.396,1810.81L640.142,1810.97L639.888,1811.13L639.632,1811.28L639.375,1811.44L639.117,1811.59L638.858,1811.74L638.597,1811.89L638.335,1812.05L638.072,1812.19L637.808,1812.34L637.543,1812.49L637.277,1812.64L637.009,1812.78L636.74,1812.92L636.47,1813.07L636.199,1813.21L635.927,1813.35L635.653,1813.49L635.378,1813.63L635.103,1813.77L634.825,1813.9L634.547,1814.04L634.268,1814.17L633.987,1814.3L633.705,1814.44L633.422,1814.57L633.138,1814.7L632.853,1814.83L632.567,1814.95L632.279,1815.08L631.99,1815.21L631.7,1815.33L631.409,1815.45L631.117,1815.58L630.824,1815.7L630.529,1815.82L630.233,1815.94L629.936,1816.06L629.643,1816.17L629.632,1816.17L627.814,1816.09L626.58,1814.77L626.572,1814.75L626.662,1812.95L628.001,1811.73L628.013,1811.73L628.302,1811.63L628.585,1811.54L628.868,1811.44L629.149,1811.35L629.429,1811.25L629.708,1811.16L629.986,1811.06L630.263,1810.96L630.538,1810.86L630.813,1810.76L631.087,1810.65L631.359,1810.55L631.631,1810.44L631.901,1810.34L632.171,1810.23L632.439,1810.12L632.706,1810.01L632.972,1809.9L633.237,1809.79L633.502,1809.68L633.764,1809.57L634.026,1809.45L634.287,1809.34L634.547,1809.22L634.806,1809.1L635.064,1808.99L635.32,1808.87L635.576,1808.75L635.83,1808.62L636.084,1808.5L636.336,1808.38L636.587,1808.25L636.838,1808.13L637.087,1808L637.335,1807.87L637.582,1807.74L637.828,1807.61L638.073,1807.48L638.317,1807.35L638.56,1807.22L638.802,1807.08L639.043,1806.95L639.282,1806.81L639.521,1806.67L639.759,1806.53L639.995,1806.39L640.231,1806.25L640.465,1806.11L640.699,1805.97L640.931,1805.83L641.162,1805.68L641.393,1805.54L641.622,1805.39L641.85,1805.24L642.077,1805.09L642.303,1804.94L642.529,1804.79L642.753,1804.64L642.976,1804.48L643.198,1804.33L643.418,1804.17L643.638,1804.02L643.857,1803.86L644.075,1803.7L644.292,1803.54L644.507,1803.38L644.722,1803.22L644.936,1803.05L645.148,1802.89L645.36,1802.72L645.57,1802.56L645.78,1802.39L645.988,1802.22L646.196,1802.05L646.402,1801.88L646.607,1801.71L646.812,1801.54L647.015,1801.36L647.217,1801.19L647.418,1801.01L647.619,1800.83L647.818,1800.65L648.016,1800.47L648.213,1800.29L648.409,1800.11L648.604,1799.93L648.798,1799.75L648.991,1799.56L649.183,1799.37L649.373,1799.19L649.563,1799L649.752,1798.81L649.94,1798.62L650.127,1798.43L650.312,1798.23L650.497,1798.04L650.68,1797.84L650.863,1797.65L651.045,1797.45L651.225,1797.25L651.405,1797.05L651.583,1796.85L651.76,1796.65L651.937,1796.45L652.112,1796.24L652.286,1796.04L652.46,1795.83L652.632,1795.62L652.803,1795.41L652.973,1795.2L653.142,1794.99L653.31,1794.78L653.477,1794.57L653.643,1794.36L653.808,1794.14L653.972,1793.92L654.135,1793.7L654.297,1793.49L654.458,1793.27L654.617,1793.05L654.776,1792.82L654.934,1792.6L655.09,1792.38L655.246,1792.15L655.4,1791.92L655.554,1791.69L655.706,1791.47L655.858,1791.23L656.008,1791L656.157,1790.77L656.305,1790.54L656.453,1790.3L656.599,1790.07L656.744,1789.83L656.888,1789.59L657.031,1789.35L657.173,1789.11L657.313,1788.87L657.453,1788.62L657.592,1788.38L657.73,1788.13L657.866,1787.89L658.002,1787.64L658.136,1787.39L658.27,1787.14L658.402,1786.89L658.534,1786.64L658.664,1786.38L658.793,1786.13L658.921,1785.87L659.048,1785.62L659.174,1785.36L659.299,1785.1L659.423,1784.84L659.546,1784.58L659.667,1784.31L659.788,1784.05L659.908,1783.78L660.026,1783.52L660.144,1783.25L660.26,1782.98L660.375,1782.71L660.489,1782.44L660.603,1782.17L660.715,1781.89L660.826,1781.62L660.935,1781.34L661.044,1781.06L661.152,1780.79L661.259,1780.51L661.364,1780.23L661.469,1779.94L661.572,1779.66L661.674,1779.38L661.775,1779.09L661.876,1778.8L661.975,1778.52L662.073,1778.23L662.169,1777.94L662.265,1777.65L662.36,1777.35L662.453,1777.06L662.546,1776.77L662.637,1776.47L662.727,1776.17L662.817,1775.87L662.905,1775.57L662.992,1775.27L663.078,1774.97L663.162,1774.67L663.246,1774.36L663.329,1774.06L663.41,1773.75L663.49,1773.44L663.57,1773.13L663.648,1772.82L663.725,1772.51L663.801,1772.2L663.876,1771.88L663.949,1771.57L664.022,1771.25L664.093,1770.94L664.164,1770.62L664.233,1770.3L664.301,1769.98L664.368,1769.65L664.434,1769.33L664.499,1769.01L664.563,1768.68L664.625,1768.35L664.687,1768.03L664.747,1767.69L664.806,1767.37L664.864,1767.03L664.921,1766.7L664.977,1766.37L665.032,1766.03L665.086,1765.69L665.138,1765.36L665.19,1765.02L665.24,1764.68L665.289,1764.34L665.337,1763.99L665.384,1763.65L665.43,1763.31L665.474,1762.96L665.518,1762.61L665.56,1762.26L665.601,1761.91L665.641,1761.56L665.68,1761.21L665.718,1760.86L665.755,1760.5L665.79,1760.15L665.825,1759.79L665.858,1759.43L665.89,1759.07L665.921,1758.71L665.951,1758.35L665.98,1757.99L666.008,1757.63L666.034,1757.26L666.06,1756.89L666.084,1756.53L666.107,1756.16L666.129,1755.79L666.15,1755.42L666.169,1755.05L666.188,1754.67L666.205,1754.3L666.221,1753.92L666.236,1753.55L666.25,1753.17L666.263,1752.79L666.275,1752.41L666.285,1752.03L666.298,1752.41Z" style="fill:rgb(186,186,186);"/>
                    </g>
                    <g transform="matrix(0.924679,0.258819,-0.412753,0.965926,711.119,-1347.05)">
                        <path d="M510.619,1667.21L510.619,1669.6L508.266,1669.6L508.266,1667.21L510.619,1667.21ZM511.619,1652.07L510.619,1666.06L508.266,1666.06L507.266,1652.07L511.619,1652.07Z" style="fill:rgb(186,186,186);"/>
                    </g>
                    <g transform="matrix(1,0,-0.159364,1,255.22,-1270.9)">
                        <path d="M623.672,1640.6L623.791,1640.6L623.994,1640.62L624.197,1640.63L624.4,1640.65L624.602,1640.67L624.805,1640.69L625.008,1640.72L625.21,1640.75L625.389,1640.78L625.412,1640.79L625.612,1640.83L625.812,1640.88L626.011,1640.93L626.21,1640.98L626.408,1641.04L626.606,1641.1L626.803,1641.16L626.999,1641.22L627.112,1641.26L627.193,1641.3L627.385,1641.37L627.576,1641.45L627.766,1641.54L627.955,1641.62L628.143,1641.71L628.33,1641.8L628.516,1641.89L628.701,1641.99L628.737,1642.01L628.882,1642.1L629.061,1642.2L629.239,1642.31L629.415,1642.42L629.485,1642.47L629.588,1642.54L629.759,1642.66L629.928,1642.79L630.096,1642.91L630.176,1642.97L630.26,1643.04L630.421,1643.18L630.579,1643.32L630.736,1643.45L630.858,1643.57L630.891,1643.6L631.04,1643.74L631.188,1643.89L631.334,1644.04L631.478,1644.2L631.56,1644.29L631.619,1644.35L631.755,1644.51L631.889,1644.67L632.022,1644.84L632.152,1645L632.28,1645.17L632.406,1645.34L632.53,1645.51L632.651,1645.68L632.771,1645.85L632.888,1646.02L632.909,1646.05L633.001,1646.2L633.11,1646.38L633.217,1646.56L633.322,1646.74L633.425,1646.92L633.525,1647.11L633.623,1647.29L633.719,1647.48L633.812,1647.66L633.903,1647.85L633.992,1648.04L634.031,1648.12L634.077,1648.23L634.158,1648.42L634.237,1648.61L634.314,1648.8L634.388,1649L634.46,1649.19L634.529,1649.38L634.596,1649.58L634.66,1649.77L634.722,1649.97L634.781,1650.17L634.815,1650.28L634.837,1650.36L634.888,1650.56L634.937,1650.76L634.984,1650.96L635.028,1651.16L635.069,1651.36L635.107,1651.56L635.143,1651.76L635.177,1651.95L635.207,1652.15L635.236,1652.35L635.261,1652.55L635.284,1652.75L635.304,1652.95L635.321,1653.15L635.336,1653.35L635.348,1653.55L635.357,1653.75L635.363,1653.94L635.364,1653.98L635.365,1654.14L635.364,1654.34L635.36,1654.53L635.353,1654.73L635.343,1654.92L635.331,1655.12L635.315,1655.31L635.304,1655.44L635.297,1655.51L635.283,1655.44L635.259,1655.32L635.219,1655.13L635.177,1654.94L635.132,1654.75L635.084,1654.57L635.033,1654.38L634.98,1654.19L634.935,1654.04L634.925,1654.01L634.869,1653.83L634.811,1653.64L634.751,1653.46L634.687,1653.28L634.622,1653.1L634.554,1652.92L634.484,1652.75L634.412,1652.57L634.337,1652.39L634.26,1652.22L634.181,1652.05L634.1,1651.88L634.017,1651.7L633.931,1651.54L633.844,1651.37L633.754,1651.2L633.663,1651.03L633.569,1650.87L633.529,1650.8L633.475,1650.7L633.38,1650.54L633.284,1650.38L633.185,1650.22L633.085,1650.06L632.983,1649.9L632.879,1649.75L632.773,1649.59L632.666,1649.44L632.556,1649.29L632.446,1649.13L632.384,1649.05L632.334,1648.99L632.223,1648.84L632.11,1648.69L631.995,1648.54L631.879,1648.4L631.761,1648.26L631.642,1648.12L631.521,1647.98L631.399,1647.84L631.276,1647.7L631.151,1647.57L631.047,1647.46L631.025,1647.43L630.901,1647.3L630.776,1647.17L630.649,1647.04L630.521,1646.91L630.392,1646.79L630.262,1646.66L630.13,1646.54L629.997,1646.42L629.863,1646.3L629.728,1646.18L629.67,1646.13L629.594,1646.06L629.461,1645.95L629.326,1645.83L629.191,1645.72L629.054,1645.61L629.024,1645.58L628.919,1645.5L628.784,1645.38L628.648,1645.28L628.51,1645.17L628.438,1645.11L628.374,1645.06L628.238,1644.95L628.102,1644.85L627.964,1644.74L627.88,1644.68L627.826,1644.64L627.689,1644.54L627.55,1644.43L627.411,1644.34L627.298,1644.26L627.271,1644.24L627.132,1644.14L626.993,1644.04L626.852,1643.94L626.71,1643.85L626.566,1643.76L626.422,1643.67L626.276,1643.58L626.13,1643.49L626.067,1643.46L625.983,1643.41L625.837,1643.32L625.689,1643.24L625.54,1643.15L625.39,1643.08L625.239,1643L625.086,1642.92L624.932,1642.85L624.777,1642.78L624.759,1642.77L624.622,1642.71L624.466,1642.64L624.308,1642.57L624.149,1642.51L623.989,1642.45L623.827,1642.39L623.664,1642.33L623.5,1642.28L623.403,1642.25L623.334,1642.22L623.168,1642.17L623,1642.12L622.83,1642.07L622.659,1642.03L622.487,1641.98L622.313,1641.94L622.137,1641.91L621.96,1641.88L621.781,1641.85L621.601,1641.82L621.419,1641.8L621.235,1641.78L621.051,1641.76L620.863,1641.74L620.77,1641.74L620.764,1641.74L620.676,1641.73L620.581,1641.73L620.486,1641.72L620.39,1641.72L620.294,1641.71L620.197,1641.71L620.1,1641.71L620.003,1641.71L619.905,1641.71L619.807,1641.71L619.709,1641.71L619.61,1641.72L619.51,1641.72L619.41,1641.73L619.31,1641.73L619.21,1641.74L619.109,1641.75L619.007,1641.76L618.905,1641.77L618.803,1641.78L618.757,1641.78L618.701,1641.79L618.75,1641.76L618.792,1641.74L618.884,1641.69L618.976,1641.65L619.068,1641.6L619.161,1641.56L619.254,1641.52L619.347,1641.47L619.441,1641.43L619.535,1641.39L619.629,1641.35L619.723,1641.31L619.818,1641.28L619.913,1641.24L620.009,1641.2L620.104,1641.17L620.2,1641.13L620.297,1641.1L620.393,1641.07L620.49,1641.04L620.587,1641.01L620.678,1640.98L620.684,1640.98L620.783,1640.95L620.978,1640.9L621.175,1640.86L621.373,1640.82L621.572,1640.78L621.771,1640.74L621.971,1640.71L622.171,1640.68L622.372,1640.66L622.574,1640.64L622.776,1640.63L622.978,1640.61L623.181,1640.61L623.384,1640.6L623.588,1640.6L623.672,1640.6Z" style="fill:rgb(186,186,186);"/>
                    </g>
                    <g transform="matrix(0.988202,0.0619706,-0.221029,0.998078,372.212,-1313.45)">
                        <path d="M622.979,1640.61L623.182,1640.61L623.385,1640.6L623.589,1640.6L623.675,1640.6L623.792,1640.6L623.995,1640.62L624.198,1640.63L624.401,1640.65L624.604,1640.67L624.806,1640.69L625.009,1640.72L625.211,1640.75L625.392,1640.79L625.413,1640.79L625.613,1640.83L625.813,1640.88L626.013,1640.93L626.211,1640.98L626.409,1641.04L626.607,1641.1L626.804,1641.16L627,1641.22L627.115,1641.26L627.195,1641.29L627.386,1641.37L627.577,1641.45L627.767,1641.54L627.956,1641.62L628.144,1641.71L628.331,1641.8L628.517,1641.89L628.702,1641.99L628.739,1642.01L628.883,1642.1L629.062,1642.2L629.24,1642.31L629.416,1642.42L629.486,1642.47L629.589,1642.54L629.76,1642.66L629.929,1642.79L630.097,1642.91L630.177,1642.97L630.261,1643.04L630.421,1643.18L630.58,1643.31L630.737,1643.45L630.858,1643.56L630.891,1643.6L631.041,1643.74L631.189,1643.89L631.335,1644.04L631.479,1644.19L631.56,1644.28L631.619,1644.35L631.756,1644.51L631.89,1644.67L632.022,1644.84L632.152,1645L632.28,1645.17L632.406,1645.34L632.53,1645.51L632.651,1645.68L632.771,1645.85L632.889,1646.02L632.909,1646.05L633.001,1646.2L633.11,1646.38L633.217,1646.56L633.322,1646.74L633.425,1646.92L633.525,1647.1L633.623,1647.29L633.719,1647.47L633.812,1647.66L633.903,1647.85L633.992,1648.04L634.03,1648.12L634.077,1648.23L634.158,1648.42L634.237,1648.61L634.314,1648.8L634.388,1648.99L634.46,1649.19L634.529,1649.38L634.596,1649.58L634.66,1649.77L634.722,1649.97L634.781,1650.16L634.814,1650.28L634.837,1650.36L634.888,1650.56L634.937,1650.76L634.984,1650.96L635.027,1651.16L635.069,1651.36L635.107,1651.56L635.143,1651.76L635.177,1651.95L635.207,1652.15L635.235,1652.35L635.261,1652.55L635.283,1652.75L635.304,1652.95L635.321,1653.15L635.336,1653.35L635.347,1653.55L635.357,1653.74L635.363,1653.94L635.364,1653.98L635.365,1654.14L635.364,1654.34L635.36,1654.53L635.353,1654.73L635.343,1654.92L635.331,1655.12L635.315,1655.31L635.304,1655.44L635.297,1655.51L635.283,1655.44L635.259,1655.32L635.219,1655.13L635.177,1654.94L635.132,1654.75L635.084,1654.57L635.033,1654.38L634.98,1654.19L634.935,1654.04L634.925,1654.01L634.87,1653.83L634.811,1653.64L634.751,1653.46L634.688,1653.28L634.622,1653.1L634.554,1652.92L634.484,1652.75L634.412,1652.57L634.337,1652.39L634.26,1652.22L634.181,1652.05L634.1,1651.88L634.017,1651.7L633.931,1651.54L633.844,1651.37L633.754,1651.2L633.663,1651.03L633.569,1650.87L633.529,1650.8L633.475,1650.71L633.381,1650.54L633.284,1650.38L633.186,1650.22L633.085,1650.06L632.983,1649.9L632.879,1649.75L632.773,1649.59L632.666,1649.44L632.557,1649.29L632.446,1649.14L632.383,1649.05L632.334,1648.99L632.223,1648.84L632.11,1648.69L631.995,1648.55L631.879,1648.4L631.761,1648.26L631.642,1648.12L631.521,1647.98L631.399,1647.84L631.275,1647.7L631.151,1647.57L631.047,1647.46L631.025,1647.44L630.901,1647.3L630.776,1647.17L630.649,1647.04L630.521,1646.91L630.392,1646.79L630.262,1646.66L630.13,1646.54L629.997,1646.42L629.863,1646.3L629.728,1646.18L629.67,1646.13L629.594,1646.07L629.461,1645.95L629.326,1645.83L629.19,1645.72L629.054,1645.61L629.024,1645.59L628.919,1645.5L628.783,1645.39L628.647,1645.28L628.51,1645.17L628.438,1645.12L628.373,1645.06L628.238,1644.95L628.101,1644.85L627.963,1644.75L627.88,1644.68L627.825,1644.64L627.688,1644.54L627.55,1644.44L627.41,1644.34L627.298,1644.26L627.27,1644.24L627.131,1644.14L626.992,1644.04L626.851,1643.94L626.709,1643.85L626.565,1643.76L626.421,1643.67L626.275,1643.58L626.128,1643.49L626.067,1643.46L625.982,1643.41L625.836,1643.32L625.688,1643.24L625.539,1643.16L625.389,1643.08L625.237,1643L625.085,1642.92L624.931,1642.85L624.776,1642.78L624.759,1642.78L624.621,1642.71L624.465,1642.64L624.307,1642.57L624.148,1642.51L623.988,1642.45L623.826,1642.39L623.663,1642.33L623.498,1642.28L623.403,1642.25L623.333,1642.22L623.167,1642.17L622.999,1642.12L622.829,1642.07L622.658,1642.03L622.486,1641.98L622.312,1641.94L622.136,1641.91L621.959,1641.88L621.78,1641.85L621.6,1641.82L621.418,1641.8L621.235,1641.77L621.05,1641.76L620.863,1641.74L620.77,1641.74L620.764,1641.74L620.675,1641.73L620.58,1641.73L620.485,1641.72L620.39,1641.72L620.293,1641.71L620.197,1641.71L620.1,1641.71L620.003,1641.71L619.905,1641.71L619.807,1641.71L619.708,1641.71L619.609,1641.72L619.51,1641.72L619.41,1641.73L619.31,1641.73L619.209,1641.74L619.108,1641.75L619.007,1641.76L618.905,1641.77L618.803,1641.78L618.757,1641.78L618.701,1641.79L618.75,1641.76L618.792,1641.74L618.884,1641.69L618.976,1641.65L619.068,1641.6L619.161,1641.56L619.254,1641.52L619.347,1641.47L619.441,1641.43L619.535,1641.39L619.629,1641.35L619.724,1641.31L619.819,1641.28L619.914,1641.24L620.009,1641.2L620.105,1641.17L620.201,1641.13L620.297,1641.1L620.394,1641.07L620.49,1641.04L620.588,1641.01L620.679,1640.98L620.685,1640.98L620.784,1640.95L620.979,1640.9L621.176,1640.86L621.374,1640.82L621.572,1640.78L621.772,1640.74L621.971,1640.71L622.172,1640.68L622.373,1640.66L622.575,1640.64L622.777,1640.63L622.979,1640.61Z" style="fill:rgb(186,186,186);"/>
                    </g>
                </g>
                <g transform="matrix(1.46857,0,0,1.46857,755.748,180.838)">
                    <path d="M122.048,256.944C121.524,256.198 120.637,255.999 119.921,255.539C120.301,255.462 124.26,255.522 123.978,255.089C123.67,254.615 122.399,254.672 121.913,254.581C121.428,254.492 120.544,253.877 120.225,253.877C121.549,253.877 121.631,253.38 121.631,253.38C121.631,252.386 111.441,253.464 111.441,253.464C111.026,252.386 108.706,251.141 108.706,251.141C105.475,248.077 98.263,241.782 98.263,241.782C94.867,239.628 93.875,239.541 93.875,239.541C92.879,239.459 90.806,237.968 90.806,237.968L90.891,237.057C91.294,235.78 88.802,235.303 88.025,235.122C86.335,234.726 85.121,234.694 83.864,233.395C82.869,232.371 81.554,231.705 80.375,230.928C78.644,229.788 76.924,228.52 74.756,228.58C71.407,228.673 68.076,230.097 64.704,230.097C64.371,230.097 63.959,228.77 63.959,228.77C64.704,227.114 63.875,223.963 63.875,223.963C64.62,222.391 63.378,221.395 63.378,221.395C64.126,220.483 63.462,219.238 63.462,219.238C61.139,214.02 56.748,214.93 56.748,214.93C49.54,216.423 51.195,222.391 51.195,222.391C48.792,223.3 51.446,226.283 51.446,226.283L52.604,228.19C54.512,231.171 55.01,234.156 55.01,234.156C52.937,234.075 50.947,235.649 50.947,235.649C48.792,235.978 45.646,240.038 45.646,240.038C43.489,242.028 39.346,241.367 39.346,241.367C37.191,240.952 36.779,243.104 36.779,243.104C36.528,241.531 39.429,233.577 39.429,233.577C40.839,230.262 42.329,229.185 42.329,229.185C43.445,228.574 44.348,227.585 45.142,226.612C45.811,225.789 45.862,224.631 46.558,223.881C47.549,222.804 46.722,221.973 46.722,221.973C46.144,221.727 45.562,220.565 45.562,220.565C46.472,218.496 46.144,215.843 46.144,215.843C46.012,214.93 45.266,216.208 44.585,217.629C44.995,216.494 45.249,215.336 44.822,214.814C44.155,213.993 43.095,216.329 42.829,216.927C42.397,217.9 42.008,218.895 41.668,219.906C41.935,219.097 43.628,215.314 43.046,214.618C42.197,213.607 41.338,216.347 41.253,216.343C39.346,216.175 37.606,221.727 37.606,221.727C36.528,224.046 36.528,227.94 36.528,227.94C36.033,230.097 31.807,239.212 31.807,239.212C30.232,242.36 29.153,248.41 29.153,248.41C28.572,254.458 38.684,251.477 38.684,251.477C38.105,252.636 39.346,252.551 39.346,252.551C44.816,251.392 48.792,253.712 48.792,253.712C54.758,255.949 52.686,261.088 52.686,261.088C52.027,266.805 54.015,267.799 54.015,267.799L53.185,269.456C50.616,270.286 47.468,277.33 47.468,277.33C46.472,279.896 43.905,282.962 43.905,282.962C41.169,284.954 34.457,294.814 34.457,294.814C32.8,297.466 34.706,297.88 34.706,297.88C33.877,298.873 32.883,301.029 32.883,301.029C32.135,302.852 31.061,304.013 31.061,304.013C29.404,305.501 30.147,311.304 30.147,311.304C29.073,314.867 30.065,320.502 30.065,320.502C30.314,323.485 30.728,332.187 30.728,332.187L30.314,332.517C28.823,333.514 29.073,336.081 29.073,336.081C26.253,338.816 22.856,346.109 22.856,346.109C20.782,350.831 25.674,350.335 25.674,350.335C29.818,350.749 31.889,343.458 31.889,343.458C32.221,342.049 34.127,340.887 34.127,340.887C36.779,339.729 37.275,336.497 37.275,336.497C37.44,334.589 36.033,332.435 36.033,332.435C35.969,330.534 36.245,328.611 36.531,326.737C36.802,324.952 37.03,322.141 38.105,320.669C40.342,317.603 39.514,313.045 39.514,313.045C39.429,310.308 40.505,309.316 40.505,309.316C41.668,306.831 48.958,301.276 48.958,301.276L49.207,301.608C52.027,303.598 52.522,302.519 52.522,302.519L58.902,294.317C63.462,298.626 64.207,304.427 64.207,304.427C64.371,308.075 69.512,306.745 69.512,306.745C70.255,311.885 72.494,318.43 72.494,318.43C72.291,319.987 73.552,321.834 74.307,323.094C74.646,323.652 75.095,324.188 75.393,324.763C75.825,325.614 75.715,326.553 75.938,327.46C76.682,330.504 77.596,333.509 78.542,336.497C79.62,340.805 80.532,350.416 80.532,350.416C78.624,353.399 81.607,356.219 81.607,356.219C83.928,358.124 83.347,361.023 83.347,361.023C84.011,365.499 89.482,366.411 89.482,366.411C92.792,365.083 91.966,361.772 91.966,361.772C92.464,358.952 86.993,351.577 86.993,350.749C86.993,348.923 86.413,349.008 86.413,349.008C86.001,346.189 85.584,330.281 85.584,330.281C85.584,321.413 83.184,318.845 83.184,318.845C81.939,317.85 81.772,315.366 81.772,315.366C81.278,312.464 80.78,307.161 80.78,307.161L81.692,307.078L81.262,276.086C81.011,271.53 78.263,270.534 78.263,270.534L78.263,268.794L78.859,266.805C80.766,263.16 80.027,246.503 80.027,246.503C79.779,244.017 81.067,243.27 81.067,243.27C81.398,241.696 87.427,244.017 87.427,244.017C89.337,244.93 89.408,244.184 89.408,244.184C91.23,246.087 94.788,247.496 94.788,247.496C95.893,248 96.956,248.59 98.016,249.184C100.219,250.414 102.381,251.718 104.531,253.039C105.284,253.501 106.064,253.946 106.798,254.444C108.115,255.347 109.115,256.635 110.445,257.525C112.02,260.423 115.832,261.254 115.832,261.254C117.656,262.828 118.982,263.16 118.982,263.16C121.221,262.662 116.829,260.343 116.829,260.343C114.754,258.851 115.832,258.435 115.832,258.435L119.561,258.271C122.627,258.022 124.119,258.106 124.119,258.106C125.61,257.275 122.048,256.944 122.048,256.944Z" style="fill:rgb(186,186,186);fill-rule:nonzero;"/>
                    <g transform="matrix(0.0411844,0,0,0.0411844,77.979,204.136)">
                        <path d="M15.731,336.798L17.074,338.442C53.225,430.672 142.963,496.013 248.008,496.013C384.984,496.013 496.014,384.984 496.014,248.006C496.013,111.036 384.983,0 248.007,0C111.036,0 0,111.043 0,248.006C0,278.674 5.604,308.032 15.785,335.151L15.731,336.798ZM12.93,248.006C12.93,216.686 19.139,186.802 30.31,159.442L88.977,86.653L104.183,62.27C143.975,31.387 193.863,12.931 248.016,12.931C249.318,12.931 250.599,13.011 251.909,13.025L278.145,22.689L335.972,30.068C373.001,45.07 405.389,69.218 430.284,99.739L420.654,141.671L458.648,248.819L482.92,254.967C479.193,381.385 375.301,483.073 248.015,483.073C184.64,483.073 127.089,457.826 84.766,416.914L130.392,377.722L86.849,265.485L18.721,242.02L17.146,292.067C14.42,277.797 12.93,263.077 12.93,248.006ZM228.868,402.407L289.71,465.777L395.984,420.409L413.34,326.511L307.844,313.522L228.868,402.407ZM271.942,209.614L338.425,114.466L257.523,39.026L144.542,79.657L148.303,186.135L271.942,209.614Z" style="fill:rgb(186,186,186);fill-rule:nonzero;"/>
                    </g>
                </g>
                <g transform="matrix(1.46335,0,0,1.46335,750.502,553.846)">
                    <path d="M115.351,148.864C114.159,148.272 113.078,147.502 112.057,146.648C113.071,146.379 114.017,145.805 114.801,145.096C115.927,144.078 116.773,142.795 117.606,141.527C116.911,143.845 116.216,146.164 115.521,148.482C115.574,148.492 115.627,148.502 115.68,148.512C115.63,148.662 115.59,148.813 115.561,148.966C115.49,148.933 115.42,148.899 115.351,148.864ZM37.762,204.329C37.916,205.392 38.304,206.669 39.356,206.885C40.195,207.057 41.019,206.375 41.31,205.569C41.346,205.468 41.377,205.366 41.401,205.263C41.456,205.15 41.505,205.038 41.548,204.927C42.248,203.141 42.761,201.274 43.654,199.576C44.547,197.877 45.9,196.316 47.715,195.694C48.298,195.494 48.906,195.399 49.519,195.324C49.454,195.776 49.415,196.232 49.407,196.689C56.218,194.824 63.029,192.958 69.84,191.093C70.299,191.362 70.821,191.507 71.345,191.439C71.984,191.356 72.575,190.88 72.773,190.289C72.955,190.238 73.138,190.188 73.32,190.136C74.008,190.597 74.876,190.821 75.647,190.546C76.078,190.393 76.436,190.048 76.641,189.641C77.42,189.923 78.294,189.963 79.003,189.558C79.446,189.304 79.764,188.839 79.882,188.345C80.528,188.461 81.205,188.363 81.708,187.957C82.297,187.48 82.539,186.671 82.496,185.915C82.485,185.729 82.459,185.545 82.422,185.363C84.347,184.385 86.198,183.27 87.942,181.99C87.336,181.453 86.731,180.917 86.127,180.381C88.418,178.245 90.171,175.538 91.196,172.577C91.867,173.359 92.58,174.101 93.364,174.771C94,175.313 94.691,175.806 95.422,176.223C93.222,177.55 91.266,179.282 89.687,181.31C87.72,183.836 86.343,186.796 84.244,189.213C81.694,192.15 78.237,194.113 75.156,196.487C74.259,197.178 73.347,197.97 73.02,199.054C72.703,200.105 73.014,201.283 73.678,202.156C74.343,203.03 75.325,203.622 76.361,203.983C77.399,204.346 78.523,204.503 79.469,205.065C80.414,205.628 81.144,206.795 80.736,207.816C83.944,208.592 87.287,208.801 90.566,208.433C91.287,208.352 92.031,208.233 92.633,207.831C93.236,207.429 93.657,206.666 93.446,205.972C93.266,205.38 92.686,204.993 92.094,204.813C91.502,204.634 90.874,204.615 90.269,204.485C88.61,204.129 87.221,202.843 86.612,201.27C90.754,198.004 94.896,194.738 99.038,191.472C102.572,188.686 106.131,185.875 109.054,182.453C111.74,179.307 113.881,175.575 114.621,171.521C114.699,171.37 114.753,171.207 114.774,171.038C114.791,170.899 114.785,170.759 114.761,170.621C114.769,170.563 114.777,170.503 114.784,170.444C114.783,170.455 114.763,170.463 114.728,170.471C114.64,170.154 114.449,169.864 114.184,169.668C113.676,169.292 112.996,169.279 112.364,169.281C111.081,169.286 109.784,169.292 108.535,169.588C108.373,169.627 108.211,169.671 108.05,169.721C108.002,169.264 107.927,168.807 107.842,168.357C106.81,162.856 104.544,157.594 101.277,153.052C101.275,152.766 101.293,152.479 101.338,152.193C101.61,150.431 102.75,149.057 103.957,147.692C105.03,149.546 106.709,151.055 108.702,151.85C110.699,152.646 113,152.791 114.715,154.089C116.142,155.169 116.925,156.877 118.062,158.259C118.416,158.69 118.813,159.09 119.242,159.449C117.417,160.622 115.592,161.794 113.767,162.968C114.415,163.967 115.062,164.966 115.71,165.965C117.677,164.246 119.645,162.526 121.612,160.807C121.979,160.932 122.355,161.027 122.741,161.083C123.096,161.135 123.458,161.15 123.819,161.132C124.493,161.945 125.321,162.629 126.259,163.114C126.871,163.431 127.559,163.671 128.239,163.565C128.919,163.459 129.567,162.916 129.597,162.228C130.046,162.583 130.733,162.199 131,161.691C131.264,161.184 131.297,160.58 131.564,160.072C131.875,159.479 132.479,159.071 132.753,158.46C133.251,157.348 132.489,156.093 131.681,155.182C131.48,154.957 131.273,154.737 131.063,154.521C131.508,154.173 131.925,153.792 132.314,153.382C132.865,153.587 133.446,153.692 134.032,153.653C135.164,153.577 136.188,152.984 137.165,152.407C146.773,146.726 156.382,141.044 165.99,135.363C167.003,134.764 168.077,134.1 168.555,133.024C169.101,131.799 168.707,130.319 167.908,129.242C167.209,128.3 165.63,126.627 164.386,126.46C162.941,126.266 160.825,127.474 159.5,127.985C153.497,130.3 147.782,133.357 142.515,137.051C139.881,138.898 137.359,140.904 134.969,143.057C134.346,143.619 128.024,149.422 128.326,149.814C128.58,150.147 128.837,150.481 129.102,150.807C128.679,151.129 128.294,151.497 127.955,151.905C127.219,151.358 126.156,150.564 125.283,150.356C125.484,149.986 125.679,149.625 125.562,149.239C125.417,148.757 124.822,148.541 124.324,148.619C123.826,148.697 123.392,148.986 122.943,149.216C122.84,149.269 122.736,149.317 122.631,149.364C123.028,149.07 123.281,148.574 123.497,148.112C124.886,145.13 126.276,142.149 127.666,139.167C128.343,137.711 129.035,136.199 129.052,134.593C129.076,132.418 127.883,130.502 126.876,128.659C126.345,127.686 125.82,126.524 125.146,125.505C126.81,124.952 128.188,123.679 129.142,122.193C129.585,122.146 130.014,121.922 130.352,121.623C130.798,121.225 131.117,120.705 131.427,120.192C131.758,119.646 132.099,119.069 132.118,118.431C132.13,118.03 131.963,117.605 131.679,117.335C131.957,116.941 132.152,116.477 132.291,116.013C132.884,114.032 132.619,111.826 131.642,110.009C130.429,106.673 125.736,104.888 122.79,107.049C121.651,107.574 120.743,108.635 120.249,109.813C119.769,110.958 119.614,112.2 119.579,113.448C119.575,113.462 119.572,113.478 119.569,113.492C119.354,113.466 119.114,113.53 118.954,113.678C118.637,113.971 118.556,114.433 118.498,114.86C118.399,115.579 118.318,116.308 118.383,117.029C117.753,117.672 117.083,118.279 116.414,118.882C116.028,119.23 115.63,119.583 115.199,119.87C114.119,119.671 113.044,119.409 111.957,119.259C110.102,119.003 108.049,119.136 106.609,120.333C106.345,120.553 106.112,120.804 105.911,121.077C103.344,122.038 101.126,123.939 99.286,126.02C96.98,128.626 95.084,131.592 92.614,134.044C89.061,137.573 84.303,140.082 81.971,144.513C80.513,147.284 80.214,150.5 80.69,153.622C80.221,154.261 79.846,154.982 79.576,155.721C78.871,157.652 78.745,159.736 78.476,161.773C77.684,167.79 75.587,173.632 72.372,178.778C72.335,178.837 72.298,178.896 72.261,178.954C71.808,179.003 71.355,179.05 70.901,179.098C69.189,178.18 66.977,178.121 65.054,178.646C62.496,179.344 60.262,180.878 57.923,182.128C55.584,183.379 52.927,184.381 50.322,183.88C49.623,183.745 48.762,183.555 48.307,184.104C48.047,184.419 48.038,184.868 48.077,185.274C48.121,185.741 48.219,186.199 48.36,186.643C48.271,186.623 48.181,186.604 48.092,186.581C47.418,186.407 46.744,186.23 46.07,186.055C45.48,185.633 44.857,185.268 44.18,185.008C43.165,184.618 41.993,184.514 40.964,184.81C40.547,184.789 40.147,184.857 39.823,185.113C39.598,185.291 39.449,185.532 39.339,185.797C38.479,186.731 38.165,188.075 37.949,189.344C37.11,194.289 37.047,199.365 37.762,204.329Z" style="fill:rgb(186,186,186);fill-rule:nonzero;"/>
                </g>
            </g>
        </g>
    </g>
</svg>
