<?xml version="1.0" encoding="UTF-8" standalone="no"?>
<!DOCTYPE svg PUBLIC "-//W3C//DTD SVG 1.1//EN" "http://www.w3.org/Graphics/SVG/1.1/DTD/svg11.dtd">
<svg width="100%" height="100%" viewBox="0 0 1080 1080" version="1.1" xmlns="http://www.w3.org/2000/svg" xmlns:xlink="http://www.w3.org/1999/xlink" xml:space="preserve" xmlns:serif="http://www.serif.com/" style="fill-rule:evenodd;clip-rule:evenodd;stroke-linecap:round;stroke-linejoin:round;stroke-miterlimit:1.5;">
    <rect id="no_data_1" x="0" y="0" width="1080" height="1080" style="fill:none;"/>
    <clipPath id="_clip1">
        <rect id="no_data_11" serif:id="no_data_1" x="0" y="0" width="1080" height="1080"/>
    </clipPath>
    <g clip-path="url(#_clip1)">
        <g transform="matrix(1,0,0,1,-139.395,-119.048)">
            <circle cx="679.395" cy="693.662" r="293.591" style="fill:none;"/>
            <clipPath id="_clip2">
                <circle cx="679.395" cy="693.662" r="293.591"/>
            </clipPath>
            <g clip-path="url(#_clip2)">
                <g transform="matrix(1.93923,0,0,1.93923,-497.496,-40.6385)">
                    <path d="M622.35,227.26L627.896,229.364L614.41,228.726L615.993,231.252L602.876,229.515L604.915,231.954L594.96,231.441L598.783,234.314L590.822,234.311L594.259,236.815L587.359,236.457L589.224,240.075L581.698,239.187L584.086,246.409L577.97,246.409L578.953,253.691L572.468,251.3L573.397,257.097L567.43,258.315L569.504,264.794L563.224,267.905L566.587,275.521L560.27,278.506L563.414,284.48L558.348,289.002L562.017,297.021L556.522,301.079L560.583,310.752L555.428,315.255L560.775,323.064L556.613,328.736L562.978,334.96L558.719,340.317L565.955,350.786L561.599,353.13L569.696,361.63L565.895,365.756L575.722,376.596L571.162,379.268L581.632,389.54L576.78,392.009L586.778,401.134L581.387,402.694L593.277,414.478L587.018,415.899L599.662,421.489L594.208,427.206L608.209,435.811L603.446,439.07L615.16,445.448L609.506,449.148L624.84,453.032L618.277,458.967L630.194,464.366L627.979,469.265L639.421,472.231L635.785,475.906L648.019,477.782L647.298,484.223L659.57,485.938L656.793,490.211L670.843,491.788L666.181,495.054L678.919,495.256L675.625,500.692L688.608,498.481L685.538,502.911L700.03,500.358L699.918,503.586L713.523,497.64L714.327,501.339L722.446,493.441L725.505,495.657L733.464,488.762" style="fill:none;stroke:rgb(224,224,224);stroke-width:3.87px;"/>
                </g>
                <g transform="matrix(1.77797,0,0,2.13239,-521.995,-75.9823)">
                    <path d="M622.35,227.26L627.896,229.364L614.41,228.726L615.993,231.252L602.876,229.515L604.915,231.954L594.96,231.441L598.783,234.314L590.822,234.311L594.259,236.815L587.359,236.457L589.224,240.075L581.698,239.187L584.086,246.409L577.97,246.409L578.953,253.691L572.468,251.3L573.397,257.097L567.43,258.315L569.504,264.794L563.224,267.905L566.587,275.521L560.27,278.506L563.414,284.48L558.348,289.002L562.017,297.021L556.522,301.079L560.583,310.752L555.428,315.255L560.775,323.064L556.613,328.736L562.978,334.96L558.719,340.317L565.955,350.786L561.599,353.13L569.696,361.63L565.895,365.756L575.722,376.596L571.162,379.268L581.632,389.54L576.78,392.009L586.778,401.134L581.387,402.694L593.277,414.478L587.018,415.899L599.662,421.489L594.208,427.206L608.209,435.811L603.446,439.07L615.16,445.448L609.506,449.148L624.84,453.032L618.277,458.967L630.194,464.366L627.979,469.265L639.421,472.231L635.785,475.906L648.019,477.782L647.298,484.223L661.919,484.346L659.142,488.619L673.192,490.196L668.531,493.462L681.269,493.664L677.975,499.099L690.957,496.889L687.888,501.319L702.38,498.766L702.267,501.994L715.873,496.048L716.677,499.747L724.795,491.849L727.854,494.065L735.814,487.17" style="fill:none;stroke:rgb(224,224,224);stroke-width:3.82px;"/>
                </g>
                <g transform="matrix(1.93923,0,0,1.93923,-526.706,-40.6385)">
                    <path d="M622.35,227.26L627.896,229.364L614.41,228.726L615.993,231.252L602.876,229.515L604.915,231.954L594.96,231.441L598.783,234.314L590.822,234.311L594.259,236.815L587.359,236.457L589.224,240.075L581.698,239.187L584.086,246.409L577.97,246.409L578.953,253.691L572.468,251.3L573.397,257.097L567.43,258.315L569.504,264.794L563.224,267.905L566.587,275.521L560.27,278.506L563.414,284.48L558.348,289.002L562.017,297.021L556.522,301.079L560.583,310.752L555.428,315.255L560.775,323.064L556.613,328.736L562.978,334.96L558.719,340.317L565.955,350.786L561.599,353.13L569.696,361.63L565.895,365.756L573.113,379.371L568.553,382.043L579.024,392.314L574.171,394.784L584.169,403.909L578.778,405.469L590.668,417.253L584.41,418.674L597.054,424.264L591.599,429.981L605.6,438.586L600.837,441.845L612.551,448.223L606.897,451.923L622.231,455.806L615.669,461.742L627.585,467.141L625.37,472.039L636.812,475.006L633.176,478.681L642.334,482.361L641.613,488.802L653.885,490.518L651.108,494.79L663.407,497.506L658.746,500.772L671.483,500.974L668.19,506.41L681.172,504.199L678.103,508.629L687.169,509.167L687.056,512.394L694.836,512.464L695.64,516.163L701.561,515.066L704.62,517.282L716.491,514.016" style="fill:none;stroke:rgb(224,224,224);stroke-width:3.87px;"/>
                </g>
                <g transform="matrix(1.77797,0,0,2.13239,-548.776,-75.9823)">
                    <path d="M622.35,227.26L627.896,229.364L614.41,228.726L615.993,231.252L602.876,229.515L604.915,231.954L594.96,231.441L598.783,234.314L590.822,234.311L594.259,236.815L587.359,236.457L589.224,240.075L581.698,239.187L584.086,246.409L577.97,246.409L578.953,253.691L572.468,251.3L573.397,257.097L567.43,258.315L569.504,264.794L563.224,267.905L566.587,275.521L560.27,278.506L563.414,284.48L558.348,289.002L562.017,297.021L556.522,301.079L560.583,310.752L555.428,315.255L560.775,323.064L556.613,328.736L562.978,334.96L558.719,340.317L565.955,350.786L561.599,353.13L569.696,361.63L565.895,365.756L573.113,379.371L568.553,382.043L579.024,392.314L574.171,394.784L584.169,403.909L578.778,405.469L590.668,417.253L584.41,418.674L597.054,424.264L591.599,429.981L605.6,438.586L600.837,441.845L612.551,448.223L606.897,451.923L622.231,455.806L615.669,461.742L627.585,467.141L625.37,472.039L636.812,475.006L633.176,478.681L642.334,482.361L643.047,486.364L655.319,488.08L652.542,492.352L664.841,495.068L660.18,498.334L672.917,498.536L669.624,503.972L682.606,501.761L679.537,506.191L688.603,506.729L688.49,509.956L696.27,510.026L697.074,513.725L702.995,512.628L706.054,514.844L717.925,511.578" style="fill:none;stroke:rgb(224,224,224);stroke-width:3.82px;"/>
                </g>
                <g transform="matrix(1.23191,0,0,1.23191,144.12,30.6614)">
                    <circle cx="661.511" cy="446.681" r="362.148" style="fill:none;stroke:rgb(224,224,224);stroke-width:4.87px;"/>
                </g>
            </g>
            <circle cx="679.395" cy="693.662" r="293.591" style="fill:none;stroke:rgb(224,224,224);stroke-width:10px;stroke-linecap:butt;stroke-linejoin:miter;"/>
        </g>
        <g transform="matrix(1,0,0,1,0.294474,0)">
            <path d="M47.242,868.205L1032.17,868.205" style="fill:none;stroke:rgb(240,240,240);stroke-width:7.5px;"/>
        </g>
        <g transform="matrix(0.922618,-0.385714,0.385714,0.922618,-49.4728,178.281)">
            <g transform="matrix(0.33159,0,0,0.435978,187.489,74.6271)">
                <path d="M339.028,175.807C337.914,175.807 336.806,175.807 335.705,175.807C312.465,175.807 293.626,190.135 293.626,207.81C293.626,207.91 293.626,208.011 293.626,208.111C293.626,225.786 312.465,240.115 335.705,240.115C344.109,240.115 352.937,240.115 361.341,240.115C371.057,240.115 380.004,237.61 387.127,233.403" style="fill:none;stroke:rgb(224,224,224);stroke-width:11.62px;"/>
            </g>
            <g transform="matrix(0.600598,-0.346756,0.313993,0.543852,55.2933,243.09)">
                <path d="M392.603,84.705C393.983,76.349 396.273,62.487 398.166,51.025C398.959,46.229 397.782,41.292 394.954,37.548C392.126,33.803 387.939,31.639 383.524,31.639C383.523,31.639 383.522,31.639 383.521,31.639C379.106,31.639 374.919,33.803 372.091,37.548C369.263,41.292 368.086,46.229 368.879,51.025C371.804,68.735 375.676,92.179 375.676,92.179" style="fill:none;stroke:rgb(224,224,224);stroke-width:6.8px;"/>
            </g>
            <g transform="matrix(0.687957,-0.0875995,0.0793229,0.622957,48.9764,132.72)">
                <path d="M392.557,84.986C393.931,76.663 396.252,62.616 398.166,51.025C398.959,46.229 397.782,41.292 394.954,37.548C392.126,33.803 387.939,31.639 383.524,31.639C383.523,31.639 383.522,31.639 383.521,31.639C379.106,31.639 374.919,33.803 372.091,37.548C370.766,39.303 369.803,41.32 369.236,43.462" style="fill:none;stroke:rgb(224,224,224);stroke-width:6.8px;"/>
            </g>
            <g transform="matrix(0.255484,0,0,0.435978,235.473,74.6271)">
                <path d="M403.419,207.81C403.419,190.135 378.968,175.807 348.806,175.807C348.617,175.807 348.428,175.807 348.24,175.807C318.077,175.807 293.626,190.135 293.626,207.81C293.626,207.91 293.626,208.011 293.626,208.111C293.626,225.786 318.077,240.115 348.24,240.115C348.428,240.115 348.617,240.115 348.806,240.115C378.968,240.115 403.419,225.786 403.419,208.111C403.419,208.011 403.419,207.91 403.419,207.81Z" style="fill:none;stroke:rgb(224,224,224);stroke-width:12.59px;"/>
            </g>
        </g>
        <g transform="matrix(-0.922618,-0.385714,-0.385714,0.922618,1068.01,105.017)">
            <g transform="matrix(0.33159,0,0,0.435978,187.489,74.6271)">
                <path d="M339.028,175.807C337.914,175.807 336.806,175.807 335.705,175.807C312.465,175.807 293.626,190.135 293.626,207.81C293.626,207.91 293.626,208.011 293.626,208.111C293.626,225.786 312.465,240.115 335.705,240.115C344.109,240.115 352.937,240.115 361.341,240.115C371.057,240.115 380.004,237.61 387.127,233.403" style="fill:none;stroke:rgb(224,224,224);stroke-width:11.62px;"/>
            </g>
            <g transform="matrix(0.600598,-0.346756,0.313993,0.543852,55.2933,243.09)">
                <path d="M392.603,84.705C393.983,76.349 396.273,62.487 398.166,51.025C398.959,46.229 397.782,41.292 394.954,37.548C392.126,33.803 387.939,31.639 383.524,31.639C383.523,31.639 383.522,31.639 383.521,31.639C379.106,31.639 374.919,33.803 372.091,37.548C369.263,41.292 368.086,46.229 368.879,51.025C371.804,68.735 375.676,92.179 375.676,92.179" style="fill:none;stroke:rgb(224,224,224);stroke-width:6.8px;"/>
            </g>
            <g transform="matrix(0.687957,-0.0875995,0.0793229,0.622957,48.9764,132.72)">
                <path d="M392.557,84.986C393.931,76.663 396.252,62.616 398.166,51.025C398.959,46.229 397.782,41.292 394.954,37.548C392.126,33.803 387.939,31.639 383.524,31.639C383.523,31.639 383.522,31.639 383.521,31.639C379.106,31.639 374.919,33.803 372.091,37.548C370.766,39.303 369.803,41.32 369.236,43.462" style="fill:none;stroke:rgb(224,224,224);stroke-width:6.8px;"/>
            </g>
            <g transform="matrix(0.255484,0,0,0.435978,235.473,74.6271)">
                <path d="M403.419,207.81C403.419,190.135 378.968,175.807 348.806,175.807C348.617,175.807 348.428,175.807 348.24,175.807C318.077,175.807 293.626,190.135 293.626,207.81C293.626,207.91 293.626,208.011 293.626,208.111C293.626,225.786 318.077,240.115 348.24,240.115C348.428,240.115 348.617,240.115 348.806,240.115C378.968,240.115 403.419,225.786 403.419,208.111C403.419,208.011 403.419,207.91 403.419,207.81Z" style="fill:none;stroke:rgb(224,224,224);stroke-width:12.59px;"/>
            </g>
        </g>
        <path d="M267.513,230.519C175.158,295.412 48.793,438.39 162.437,540C184.769,559.966 213.13,565.393 245.489,561.084C412.578,538.84 686.275,257.066 786.926,377.415C936.213,555.919 630.332,752.519 540,794.021" style="fill:none;stroke:rgb(224,224,224);stroke-width:8px;stroke-dasharray:32,32,0,0;"/>
        <g transform="matrix(1,0,0,1,-8.59763,17.6148)">
            <path d="M764.699,137.002C829.235,187.365 912.472,278.951 923.159,361.778C928.58,403.8 910.026,483.894 843.115,557.316" style="fill:none;stroke:rgb(224,224,224);stroke-width:8px;stroke-dasharray:32,32,0,0;"/>
        </g>
    </g>
</svg>
