<svg clip-rule="evenodd" fill-rule="evenodd" stroke-linejoin="round" stroke-miterlimit="1.41421" viewBox="0 0 1080 1080" xmlns="http://www.w3.org/2000/svg"><path d="m0 0h1080v1080h-1080z" fill="none"/><path d="m347.814 154.422c1.621-.887 3.621-1.005 4.068-1.043.47-.039.871-1.112 0-1.199-.872-.087-3.887.292-4.889.771-1.003.48-2.882 1.733-2.882 1.733s-.628.018-.105-.418 2.211-2.415 4.433-3.286c2.223-.871 2.694-.894 3.391-1.199.697-.306.366-1.191-.157-1.148-.523.044-2.412.076-4.068.991s-4.272 3.153-4.403 3.153-.117-.206-.03-.336c.087-.131 5.825-4.718 6.348-5.285.523-.566.13-1.307-.349-1.264-.479.044-5.396 3.712-6.573 4.671-.334.272-1.063 1.407-1.406.947-.444-.597.346-2.411.372-3.114.01-.279-.014-.571-.156-.812-.141-.241-.426-.416-.699-.355-.424.096-.549.625-.624 1.053-.126.714-.345 1.42-.72 2.04-.21.346-.467.665-.637 1.031-1.091 2.347-3.729 4.092-4.328 6.783-.348 1.569-3.224 4.575-3.921 5.36-.698.784-5.97 10.283-10.85 14.292-4.88 4.008-8.191 6.622-10.108 10.282-1.918 3.66-2.092 4.183-4.532 6.1-2.44 1.918-4.88 4.532-8.017 6.1-3.138 1.569-5.055 4.184-6.623 5.578-1.569 1.394-4.532 2.091-6.275 3.66s-5.228 4.009-5.228 4.009l-4.009 2.439.523-3.485c.523-.174 2.614-2.44 4.008-5.752 1.395-3.311 1.395-9.411 1.569-11.154s1.568-4.881 2.266-5.752c.697-.871-.698-5.925-4.88-7.32-4.183-1.394-6.465-.906-7.843.174-2.15 1.685-.175 2.789-1.22 2.789-1.046 0-2.092-4.009-2.092-4.009s-.523 4.009 0 4.532-2.789-2.091-2.789-2.091l1.569 2.614s-2.266-1.046-4.009 2.788c-1.743 3.835-1.743 8.192-1.743 8.192s-2.265 0-1.917 1.22c.349 1.22 2.963 7.494 3.486 8.017s-.348 11.678-.348 11.678-7.495 1.568-17.778 5.577-20.74 7.668-20.74 7.668-.174-2.265-2.092-6.796c-1.917-4.532-1.045-21.09-1.045-21.09l1.568-4.88-1.394-5.925s-5.055-1.744-5.578-1.221-.523 1.569-.523 1.569-1.394 0-1.568.871c-.174.872-.174 1.569-.174 1.569s-1.395 1.394-1.395 2.091v2.44l2.441 2.092s-1.569 15.686-2.441 25.098c-.871 9.411 0 14.117.698 15.163.697 1.045 14.117.349 14.117.349l.871 1.742 15.861-2.265s4.706 14.466 3.485 19.694c-1.22 5.229-8.017 20.567-8.017 20.567l2.789 3.659s.697.872.349 14.815c-.349 13.943-.698 25.272-.698 25.272l-.697 3.311 2.789-.173-.698 4.182s-4.182.871-6.274 3.312c-2.091 2.439-3.137 3.311-3.137 3.311s-.348-2.091-2.789-2.44c-2.44-.349-5.403.697-7.145 4.009-1.743 3.311-2.44 8.017-2.44 8.017s-7.146 5.403-7.146 12.2 6.1 11.155 7.843 8.889c1.743-2.265 7.843-12.375 7.843-12.375s5.403-2.614 5.577-3.66c.174-1.045.697-4.88.697-4.88h9.586s1.394 15.338 6.275 14.815c4.879-.523 5.402-3.137 5.054-7.668-.349-4.533 0-10.981 0-10.981s13.072 3.66 18.997 4.88c5.926 1.22 9.238 3.138 10.632-2.44s2.44-16.906 2.44-16.906h1.743s.697-16.035 0-30.327c-.698-14.291-2.963-19.346-2.963-19.346s-3.137-12.722-.697-20.391 3.311-20.915 4.357-25.795 11.154-19.695 14.292-23.181c3.137-3.485 4.88-8.54 10.457-14.989 5.577-6.448 12.549-14.988 15.512-20.565 2.963-5.578 6.652-11.681 6.652-11.681s6.594-2.786 7.814-5.226 5.926-2.44 5.926-2.44.422-.817-.232-1.253c-.653-.436-5.781.774-5.738.6.044-.174 1.564-1.984 3.131-2.843zm-82.563 180.574c-2.44-.174-6.598 3.075-6.274 2.266.348-.871.348-7.495.348-7.495l1.394-.348 3.137-14.815s0 1.569 1.918 8.367c1.917 6.796 2.614 11.676 2.614 11.676s-.697.524-3.137.349zm82.46-211.457c.115-.137-.686-.006-.686-.006s.032-.859-.097-1.006c-.234-.267-.762-.013-.941-.206-.122-.131.112-.561-.181-.863-.179-.186-.94-.17-.94-.17s-.027-.84-.238-.949c-.001 0-.005-.004-.006-.006-.117-.206-.957-.201-.957-.201s-.014-.761-.206-.932c-.314-.281-.734-.03-.87-.147-.2-.171.033-.709-.243-.933-.152-.123-1.008-.057-1.008-.057s.1-.806-.033-.685c0 0-1.086.699-1.53 2.182-.445 1.484-.609 2.199-.85 2.651-.067.127-1.426 2.805-1.48 2.86-.203.21-1.051.861-1.43 1.376-.437.595-.553 1.777.171 2.454.036.033.175.168.21.202.705.697 1.881.535 2.459.075.499-.399 1.117-1.271 1.319-1.483.053-.055 2.665-1.511 2.8-1.59.443-.258 1.151-.45 2.616-.952 1.464-.502 2.121-1.614 2.121-1.614zm-8.093 3.961c-.088.054-.18-.025-.044-.117.152-.103.509-.328.926-.586.026.039.05.078.074.117-.422.259-.782.48-.956.586zm-.054-.5c-.28.208-.557.207-.164-.15.084-.076.363-.306.71-.587.062.077.122.154.179.231-.29.196-.549.375-.725.506zm1.187-.194c-.024-.039-.049-.079-.074-.119.356-.22.74-.455 1.07-.657.023.041.045.083.066.124-.343.211-.717.44-1.062.652zm-1.631-.108c-.104.07-.576.234-.022-.345.122-.127.329-.337.57-.581.093.094.182.19.267.286-.432.344-.778.616-.815.64zm1.155-.568c.328-.265.695-.558 1.007-.804.09.117.173.233.25.349-.329.213-.713.464-1.067.702-.061-.082-.124-.165-.19-.247zm-1.793-.045c.023-.038.282-.393.608-.839.1.081.199.166.297.256-.234.25-.437.465-.559.591-.556.578-.411.099-.346-.008zm3.504-.037c-.021-.042-.042-.083-.065-.125.39-.238.669-.408.669-.408l.421-.096s-.449.275-1.025.629zm-3.822-.395c.123-.18.293-.446.477-.744.079.054.158.111.238.171-.268.357-.486.645-.559.732-.341.405-.354.129-.156-.159zm1.655-.033c.301-.304.636-.64.917-.922.135.138.262.278.379.419-.309.247-.677.541-1.013.808-.09-.102-.185-.204-.283-.305zm-2.157-.001c.099-.178.305-.546.548-.979.04.023.08.046.12.07-.242.427-.452.792-.55.948-.086.14-.168.05-.118-.039zm4.355-.85c.05.006.659-.063.659-.063l-.33.445s-.266.169-.639.411c-.079-.122-.166-.244-.259-.367.322-.251.554-.428.569-.426zm-2.032-.74c.146.113.291.234.433.363-.27.292-.593.64-.886.953-.104-.095-.209-.185-.315-.271.253-.346.533-.725.768-1.045zm1.378.042.69-.149-.228.628s-.224.18-.544.435c-.121-.148-.253-.294-.394-.438.28-.28.476-.476.476-.476zm-1.952-.436c.119.073.239.151.359.236-.234.322-.513.7-.765 1.038-.084-.063-.169-.123-.253-.18.223-.364.459-.757.659-1.094zm-.49-.262c.043.019.085.04.127.061-.188.338-.409.73-.615 1.095-.041-.024-.081-.047-.122-.069.198-.353.413-.736.61-1.087zm2.222-.326-.123.695s-.188.203-.456.494c-.15-.136-.301-.261-.453-.377.242-.329.413-.561.413-.561zm-.808-.593s-.045.612-.037.661c.001.015-.166.254-.404.585-.126-.088-.252-.17-.377-.244.227-.383.386-.655.386-.655zm-1.314.742c.33-.589.588-1.048.588-1.048l-.08.423s-.158.286-.381.685c-.043-.021-.085-.041-.127-.06z" fill="#bababa" fill-rule="nonzero" transform="matrix(3.39684 0 0 3.39684 -415.748 -290.601)"/></svg>