<?xml version="1.0" encoding="UTF-8"?>
<svg width="190px" height="190px" viewBox="0 0 190 190" version="1.1" xmlns="http://www.w3.org/2000/svg" xmlns:xlink="http://www.w3.org/1999/xlink">
    <!-- Generator: Sketch 53.2 (72643) - https://sketchapp.com -->
    <title>Group 22</title>
    <desc>Created with Sketch.</desc>
    <defs>
        <filter x="-35.0%" y="-35.0%" width="170.0%" height="170.0%" filterUnits="objectBoundingBox" id="filter-1">
            <feGaussianBlur stdDeviation="14" in="SourceGraphic"></feGaussianBlur>
        </filter>
    </defs>
    <g id="Page-1" stroke="none" stroke-width="1" fill="none" fill-rule="evenodd">
        <g id="Home" transform="translate(-693.000000, -2537.000000)">
            <g id="Group-27" transform="translate(-0.102591, 2247.437994)">
                <g id="Group-24" transform="translate(300.102591, 109.562006)">
                    <g id="Group-25">
                        <g id="Rectangle-2">
                            <g id="Group-22" transform="translate(428.000000, 215.000000)">
                                <circle id="Oval-Copy-4" fill="#ED1A33" filter="url(#filter-1)" cx="60" cy="60" r="60"></circle>
                                <circle id="Oval" fill="#ED1A33" opacity="0.400000006" cx="60" cy="60" r="60"></circle>
                                <path d="M49.4437521,34.1914786 L84.3181981,56.3843079 C86.3150897,57.6550571 86.9037445,60.3040034 85.6329953,62.300895 C85.2962294,62.8300984 84.8474016,63.2789263 84.3181981,63.6156921 L49.4437521,85.8085214 C47.4468605,87.0792706 44.7979143,86.4906159 43.5271651,84.4937243 C43.0895716,83.8060774 42.8571429,83.0079037 42.8571429,82.1928293 L42.8571429,37.8071707 C42.8571429,35.4402361 44.7759225,33.5214564 47.1428571,33.5214564 C47.9579315,33.5214564 48.7561052,33.7538852 49.4437521,34.1914786 Z" id="Rectangle" fill="#FFFFFF"></path>
                            </g>
                        </g>
                    </g>
                </g>
            </g>
        </g>
    </g>
</svg>