<?xml version="1.0" encoding="UTF-8"?>
<svg width="24px" height="36px" viewBox="0 0 24 36" version="1.1" xmlns="http://www.w3.org/2000/svg" xmlns:xlink="http://www.w3.org/1999/xlink">
    <!-- Generator: Sketch 54.1 (76490) - https://sketchapp.com -->
    <title>Group</title>
    <desc>Created with Sketch.</desc>
    <defs>
        <filter x="-85.1%" y="-38.7%" width="270.3%" height="177.3%" filterUnits="objectBoundingBox" id="filter-1">
            <feGaussianBlur stdDeviation="3.15" in="SourceGraphic"></feGaussianBlur>
        </filter>
    </defs>
    <g id="Assets" stroke="none" stroke-width="1" fill="none" fill-rule="evenodd">
        <g id="Artboard" transform="translate(-12.000000, -5.000000)" fill="#ED1A33" fill-rule="nonzero">
            <g id="Group" transform="translate(18.450000, 11.850000)">
                <path d="M8.86647166,1.36779477e-13 C7.63349909,1.36779477e-13 6.63348446,1.00054474 6.63348446,2.23417093 C6.63348446,3.46833854 7.63349909,4.46888328 8.86647166,4.46888328 C10.0997148,4.46888328 11.1,3.46833854 11.1,2.23417093 C11.1,1.00054474 10.0997148,1.36779477e-13 8.86647166,1.36779477e-13 L8.86647166,1.36779477e-13 Z M1.15463195e-14,24.45 L4.1237075,14.389057 L1.99353565,14.389057 L5.24899452,6.29049193 L9.22794881,6.29049193 L7.25064717,11.2122733 L9.40841682,11.2122733 L1.15463195e-14,24.45 Z" id="Shape-Copy" opacity="0.518159412" filter="url(#filter-1)"></path>
                <path d="M8.86647166,1.36779477e-13 C7.63349909,1.36779477e-13 6.63348446,1.00054474 6.63348446,2.23417093 C6.63348446,3.46833854 7.63349909,4.46888328 8.86647166,4.46888328 C10.0997148,4.46888328 11.1,3.46833854 11.1,2.23417093 C11.1,1.00054474 10.0997148,1.36779477e-13 8.86647166,1.36779477e-13 L8.86647166,1.36779477e-13 Z M1.15463195e-14,24.45 L4.1237075,14.389057 L1.99353565,14.389057 L5.24899452,6.29049193 L9.22794881,6.29049193 L7.25064717,11.2122733 L9.40841682,11.2122733 L1.15463195e-14,24.45 Z" id="Shape"></path>
            </g>
        </g>
    </g>
</svg>