<?xml version="1.0" encoding="UTF-8"?>
<svg width="32px" height="32px" viewBox="0 0 32 32" version="1.1" xmlns="http://www.w3.org/2000/svg" xmlns:xlink="http://www.w3.org/1999/xlink">
    <!-- Generator: Sketch 53.2 (72643) - https://sketchapp.com -->
    <title>Artboard Copy</title>
    <desc>Created with Sketch.</desc>
    <g id="Artboard-Copy" stroke="none" stroke-width="1" fill="none" fill-rule="evenodd">
        <g id="Group-14-Copy-5">
            <rect id="Rectangle" fill="#D8D8D8" fill-rule="nonzero" opacity="0" x="0" y="0" width="32" height="32"></rect>
            <g id="twitter-brands" transform="translate(2.000000, 5.000000)" fill="#FFFFFF">
                <path d="M25.1217969,5.73429808 C25.1395703,5.98575 25.1395703,6.23725721 25.1395703,6.48870913 C25.1395703,14.1583245 19.3655,22.9955216 8.81217969,22.9955216 C5.56089844,22.9955216 2.54061719,22.0435096 0,20.3911034 C0.461945312,20.4449543 0.9060625,20.4629231 1.38578125,20.4629231 C4.06847656,20.4629231 6.53805469,19.5469038 8.51014062,17.9842308 C5.98729687,17.9303245 3.87307812,16.2598942 3.14464063,13.9607788 C3.5,14.0146298 3.85530469,14.0505673 4.2284375,14.0505673 C4.74364844,14.0505673 5.25891406,13.9786923 5.73857813,13.8530216 C3.10914844,13.314125 1.13700781,10.9791274 1.13700781,8.15913942 L1.13700781,8.08731971 C1.9009375,8.51840385 2.78933594,8.78782452 3.73089062,8.82370673 C2.18520313,7.78190625 1.17255469,6.00371875 1.17255469,3.99199279 C1.17255469,2.9143101 1.45676563,1.92641587 1.95425781,1.0642476 C4.77914063,4.58474038 9.02535156,6.88380048 13.7867187,7.13530769 C13.6979063,6.70422356 13.6445859,6.25522596 13.6445859,5.80617308 C13.6445859,2.60895192 16.2029766,0.00453365385 19.3831641,0.00453365385 C21.0354375,0.00453365385 22.5278047,0.705038462 23.5760547,1.8366274 C24.8729688,1.58517548 26.1166172,1.1001851 27.2181875,0.435617788 C26.7917344,1.78277644 25.8856719,2.91436538 24.6953437,3.63278365 C25.8501797,3.50711298 26.9694687,3.18373077 27.9998906,2.73473317 C27.2182969,3.88423558 26.2410859,4.90801202 25.1217969,5.73429808 Z" id="Path"></path>
            </g>
        </g>
    </g>
</svg>