<?xml version="1.0" encoding="UTF-8"?>
<svg width="1653px" height="1208px" viewBox="0 0 1653 1208" version="1.1" xmlns="http://www.w3.org/2000/svg" xmlns:xlink="http://www.w3.org/1999/xlink">
    <!-- Generator: Sketch 53.2 (72643) - https://sketchapp.com -->
    <title>Combined Shape</title>
    <desc>Created with Sketch.</desc>
    <defs>
        <linearGradient x1="32.8804344%" y1="-5.63087816%" x2="56.3042899%" y2="56.070911%" id="linearGradient-1">
            <stop stop-color="#ED1A33" offset="0.0422297297%"></stop>
            <stop stop-color="#22336F" stop-opacity="0" offset="100%"></stop>
        </linearGradient>
    </defs>
    <g id="Page-1" stroke="none" stroke-width="1" fill="none" fill-rule="evenodd">
        <path d="M367.845387,-299.000494 L477.108824,-397.560914 L477.108824,865.439086 L340.108824,865.439086 L340.108824,-236.627217 C340.108824,-260.407071 350.187918,-283.072681 367.845387,-299.000494 Z M1146.84005,135.741176 L1256.10348,37.1807558 L1256.10348,1300.18076 L1119.10348,1300.18076 L1119.10348,198.114453 C1119.10348,174.334599 1129.18258,151.668989 1146.84005,135.741176 Z M565.844697,-223.945358 L675.108133,-322.505778 L675.108133,940.494222 L538.108133,940.494222 L538.108133,-161.572081 C538.108133,-185.351934 548.187227,-208.017545 565.844697,-223.945358 Z M1342.10731,211.528363 L1451.37074,112.967943 L1451.37074,1375.96794 L1314.37074,1375.96794 L1314.37074,273.90164 C1314.37074,250.121786 1324.44984,227.456176 1342.10731,211.528363 Z M758.76259,-94.0889514 L868.026027,-192.649371 L868.026027,1070.35063 L731.026027,1070.35063 L731.026027,-31.7156741 C731.026027,-55.4955279 741.105121,-78.1611384 758.76259,-94.0889514 Z M1536.39123,341.018744 L1645.65466,242.458324 L1645.65466,1505.45832 L1508.65466,1505.45832 L1508.65466,403.392021 C1508.65466,379.612167 1518.73376,356.946557 1536.39123,341.018744 Z M953.27856,38.9995059 L1062.542,-59.5609139 L1062.542,1203.43909 L925.541997,1203.43909 L925.541997,101.372783 C925.541997,77.5929294 935.621091,54.9273189 953.27856,38.9995059 Z M1730.77322,476.339252 L1840.03666,377.778832 L1840.03666,1640.77883 L1703.03666,1640.77883 L1703.03666,538.712529 C1703.03666,514.932675 1713.11575,492.267065 1730.77322,476.339252 Z" id="Combined-Shape" fill="url(#linearGradient-1)" transform="translate(1090.072740, 621.608959) rotate(330.000000) translate(-1090.072740, -621.608959) "></path>
    </g>
</svg>