<?xml version="1.0" encoding="UTF-8"?>
<svg width="2249px" height="1208px" viewBox="0 0 2249 1208" version="1.1" xmlns="http://www.w3.org/2000/svg" xmlns:xlink="http://www.w3.org/1999/xlink">
    <!-- Generator: Sketch 53.2 (72643) - https://sketchapp.com -->
    <title>Shape</title>
    <desc>Created with Sketch.</desc>
    <defs>
        <linearGradient x1="12.3994197%" y1="34.2690011%" x2="45.8500843%" y2="49.2020114%" id="linearGradient-1">
            <stop stop-color="#00C2FF" offset="0%"></stop>
            <stop stop-color="#510EDC" stop-opacity="0.107899913" offset="100%"></stop>
        </linearGradient>
    </defs>
    <g id="Page-1" stroke="none" stroke-width="1" fill="none" fill-rule="evenodd">
        <path d="M4.08799377,184.987546 L49.4326955,45 L680.932695,1138.79008 L562.287215,1207.29008 L11.2540637,252.87267 C-0.635863196,232.278713 -3.23991668,207.610171 4.08799377,184.987546 L4.08799377,184.987546 Z M896.087994,171.987546 L941.432695,32 L1572.9327,1125.79008 L1454.28722,1194.29008 L903.254064,239.87267 C891.364137,219.278713 888.760083,194.610171 896.087994,171.987546 L896.087994,171.987546 Z M213.087994,150.987546 L258.432695,11 L889.932695,1104.79008 L771.287215,1173.29008 L220.254064,218.87267 C208.364137,198.278713 205.760083,173.610171 213.087994,150.987546 L213.087994,150.987546 Z M1103.08799,139.987546 L1148.4327,0 L1779.9327,1093.79008 L1661.28722,1162.29008 L1110.25406,207.87267 C1098.36414,187.278713 1095.76008,162.610171 1103.08799,139.987546 L1103.08799,139.987546 Z M445.087994,166.987546 L490.432695,27 L1121.9327,1120.79008 L1003.28722,1189.29008 L452.254064,234.87267 C440.364137,214.278713 437.760083,189.610171 445.087994,166.987546 L445.087994,166.987546 Z M1336.08799,154.987546 L1381.4327,15 L2012.9327,1108.79008 L1894.28722,1177.29008 L1343.25406,222.87267 C1331.36414,202.278713 1328.76008,177.610171 1336.08799,154.987546 L1336.08799,154.987546 Z M680.087994,184.987546 L725.432695,45 L1356.9327,1138.79008 L1238.28722,1207.29008 L687.254064,252.87267 C675.364137,232.278713 672.760083,207.610171 680.087994,184.987546 L680.087994,184.987546 Z M1572.08799,174.987546 L1617.4327,35 L2248.9327,1128.79008 L2130.28722,1197.29008 L1579.25406,242.87267 C1567.36414,222.278713 1564.76008,197.610171 1572.08799,174.987546 L1572.08799,174.987546 Z" id="Shape" fill="url(#linearGradient-1)"></path>
    </g>
</svg>