<?xml version="1.0" encoding="UTF-8"?>
<svg width="892px" height="1014px" viewBox="0 0 892 1014" version="1.1" xmlns="http://www.w3.org/2000/svg" xmlns:xlink="http://www.w3.org/1999/xlink">
    <!-- Generator: Sketch 54.1 (76490) - https://sketchapp.com -->
    <title>Shape Copy</title>
    <desc>Created with Sketch.</desc>
    <defs>
        <linearGradient x1="14.2790023%" y1="76.3103469%" x2="57.2618563%" y2="43.0445996%" id="linearGradient-1">
            <stop stop-color="#FFD200" offset="0%"></stop>
            <stop stop-color="#FF0056" stop-opacity="0.732135052" offset="50%"></stop>
            <stop stop-color="#D431FF" stop-opacity="0.00595498252" offset="100%"></stop>
        </linearGradient>
    </defs>
    <g id="Page-1" stroke="none" stroke-width="1" fill="none" fill-rule="evenodd">
        <path d="M454.446506,431.572974 L427.426928,203.06671 L392.916162,225.708528 L370.131114,42.4516532 L434.593875,0.158934565 L448.459852,111.518277 L483.417728,88.5831196 L454.446506,431.572974 Z M498.887855,460.459771 L621.971058,277.17039 L583.4793,265.450123 L681.400156,117.559464 L753.299023,139.451786 L693.809957,229.336467 L732.800401,241.208578 L498.887855,460.459771 Z M512.337711,516.595799 L713.423222,485.891733 L693.498423,446.674954 L854.764473,420.782854 L891.982065,494.035991 L793.985843,509.792783 L814.168782,549.517642 L512.337711,516.595799 Z M486.917329,567.097332 L648.211984,706.964608 L658.52582,663.223974 L788.669599,774.497674 L769.404356,856.200932 L690.305837,788.59972 L679.858379,832.907043 L486.917329,567.097332 Z M437.517625,582.381259 L464.537203,810.887522 L499.047968,788.245704 L521.833016,971.50258 L457.370255,1013.7953 L443.504278,902.435955 L408.546403,925.371113 L437.517625,582.381259 Z M393.076275,553.494461 L269.993073,736.783843 L308.48483,748.50411 L210.563975,896.394769 L138.665107,874.502447 L198.154174,784.617766 L159.16373,772.745655 L393.076275,553.494461 Z M379.62642,497.358434 L178.540908,528.0625 L198.465708,567.279279 L37.1996576,593.171379 L-0.0179348339,519.918241 L97.9782868,504.161449 L77.795348,464.436591 L379.62642,497.358434 Z M405.046801,446.8569 L243.752146,306.989625 L233.438311,350.730258 L103.294531,239.456559 L122.559774,157.7533 L201.658294,225.354512 L212.105752,181.04719 L405.046801,446.8569 Z" id="Shape-Copy" fill="url(#linearGradient-1)"></path>
    </g>
</svg>