<?xml version="1.0" encoding="UTF-8"?>
<svg width="20px" height="20px" viewBox="0 0 20 20" version="1.1" xmlns="http://www.w3.org/2000/svg" xmlns:xlink="http://www.w3.org/1999/xlink">
    <!-- Generator: Sketch 53.2 (72643) - https://sketchapp.com -->
    <title>Combined Shape</title>
    <desc>Created with Sketch.</desc>
    <g id="Page-1" stroke="none" stroke-width="1" fill="none" fill-rule="evenodd">
        <g id="00-00-00-Home" transform="translate(-1218.000000, -908.000000)" fill="#FFFFFF">
            <g id="Banner" transform="translate(0.000000, 61.000000)">
                <g id="Group-11" transform="translate(300.000000, 473.000000)">
                    <g id="Group-10" transform="translate(0.000000, 285.000000)">
                        <g id="Group-2" transform="translate(900.000000, 0.000000)">
                            <g id="Group-7" transform="translate(16.000000, 86.000000)">
                                <g id="Group-6" transform="translate(0.000000, 1.000000)">
                                    <path d="M12,22 C6.4771525,22 2,17.5228475 2,12 C2,6.4771525 6.4771525,2 12,2 C17.5228475,2 22,6.4771525 22,12 C22,17.5228475 17.5228475,22 12,22 Z M11.3320503,7.5547002 C11.085649,7.39043268 10.7961375,7.30277564 10.5,7.30277564 C9.67157288,7.30277564 9,7.97434851 9,8.80277564 L9,15.1972244 C9,15.4933618 9.08765704,15.7828734 9.25192456,16.0292747 C9.71145325,16.7185677 10.6427573,16.9048285 11.3320503,16.4452998 L16.1278868,13.2480754 C16.2926653,13.1382232 16.4340597,12.9968287 16.543912,12.8320503 C17.0034407,12.1427573 16.8171799,11.2114532 16.1278868,10.7519246 L11.3320503,7.5547002 Z" id="Combined-Shape"></path>
                                </g>
                            </g>
                        </g>
                    </g>
                </g>
            </g>
        </g>
    </g>
</svg>