<?xml version="1.0" encoding="UTF-8"?>
<svg width="20px" height="20px" viewBox="0 0 20 20" version="1.1" xmlns="http://www.w3.org/2000/svg" xmlns:xlink="http://www.w3.org/1999/xlink">
    <!-- Generator: Sketch 53.2 (72643) - https://sketchapp.com -->
    <title>Artboard</title>
    <desc>Created with Sketch.</desc>
    <g id="Artboard" stroke="none" stroke-width="1" fill="none" fill-rule="evenodd">
        <g id="Group-19" transform="translate(-0.000000, -0.000000)">
            <rect id="Rectangle" fill="#ECECEC" opacity="0" x="0" y="0" width="20" height="20"></rect>
            <path d="M10,15.7142857 C7.14285714,15.7142857 4.28571429,13.8095238 1.42857143,10 C4.28571429,6.19047619 7.14285714,4.28571429 10,4.28571429 C12.8571429,4.28571429 15.7142857,6.19047619 18.5714286,10 C15.7142857,13.8095238 12.8571429,15.7142857 10,15.7142857 Z M10,14.2857143 C12.3669346,14.2857143 14.2857143,12.3669346 14.2857143,10 C14.2857143,7.63306536 12.3669346,5.71428571 10,5.71428571 C7.63306536,5.71428571 5.71428571,7.63306536 5.71428571,10 C5.71428571,12.3669346 7.63306536,14.2857143 10,14.2857143 Z M10,12.8571429 C8.42204357,12.8571429 7.14285714,11.5779564 7.14285714,10 C7.14285714,8.42204357 8.42204357,7.14285714 10,7.14285714 C11.5779564,7.14285714 12.8571429,8.42204357 12.8571429,10 C12.8571429,11.5779564 11.5779564,12.8571429 10,12.8571429 Z" id="Combined-Shape" fill="#FFFFFF"></path>
        </g>
    </g>
</svg>