<?xml version="1.0" encoding="UTF-8"?>
<svg width="12px" height="12px" viewBox="0 0 12 12" version="1.1" xmlns="http://www.w3.org/2000/svg" xmlns:xlink="http://www.w3.org/1999/xlink">
    <!-- Generator: Sketch 53.2 (72643) - https://sketchapp.com -->
    <title>Shape</title>
    <desc>Created with Sketch.</desc>
    <g id="Page-1" stroke="none" stroke-width="1" fill="none" fill-rule="evenodd">
        <g id="Home" transform="translate(-1378.000000, -1218.000000)" fill="#FFBD00" fill-rule="nonzero">
            <g id="Group-10" transform="translate(1300.000000, 1048.000000)">
                <g id="Group-33">
                    <g id="Group-30" transform="translate(0.000000, 92.000000)">
                        <g id="Group-6">
                            <g id="Group-5-Copy" transform="translate(8.000000, 72.000000)">
                                <g id="trophy-(1)" transform="translate(70.000000, 6.000000)">
                                    <path d="M11.6484375,0.866088867 L10.1085205,0.866088867 C10.1141052,0.695526117 10.117218,0.523956305 10.117218,0.3515625 C10.117218,0.157379156 9.95974732,0 9.76565552,0 L2.23443605,0 C2.04025268,0 1.88287355,0.157379156 1.88287355,0.3515625 C1.88287355,0.523956305 1.88589478,0.695526117 1.89147949,0.866088867 L0.3515625,0.866088867 C0.157379156,0.866088867 0,1.02346802 0,1.21765137 C0,2.7929077 0.411712641,4.27908326 1.15924073,5.40252684 C1.89816284,6.51315307 2.88244629,7.15017701 3.94564819,7.2121582 C4.18670653,7.47445678 4.44158934,7.68832397 4.70700073,7.85147095 L4.70700073,9.41400145 L4.11721802,9.41400145 C3.40420533,9.41400145 2.82421875,9.99407958 2.82421875,10.7070007 L2.82421875,11.2967835 L2.79922486,11.2967835 C2.60504152,11.2967835 2.44766236,11.4542542 2.44766236,11.648346 C2.44766236,11.8425293 2.60504152,11.9999085 2.79922486,11.9999085 L9.20077514,11.9999085 C9.39495848,11.9999085 9.55233764,11.8425293 9.55233764,11.648346 C9.55233764,11.4542542 9.39495848,11.2967835 9.20077514,11.2967835 L9.17578125,11.2967835 L9.17578125,10.7070007 C9.17578125,9.99407958 8.59570312,9.41400145 7.88278198,9.41400145 L7.29299927,9.41400145 L7.29299927,7.85147095 C7.55841066,7.68832397 7.8132019,7.47445678 8.05426027,7.2121582 C9.11755371,7.15017701 10.1017456,6.51315307 10.8407593,5.40252684 C11.5882874,4.27908326 12,2.7929077 12,1.21765137 C12,1.02346802 11.8425293,0.866088867 11.6484375,0.866088867 Z M1.74462891,5.01306152 C1.12802123,4.08636473 0.76574707,2.8744812 0.710540766,1.56921387 L1.93075561,1.56921387 C2.05755614,3.17376708 2.4342041,4.65682983 3.02288817,5.83419799 C3.11663817,6.02169799 3.21469116,6.19876099 3.31640625,6.36566161 C2.73165893,6.14483644 2.19049073,5.68322754 1.74462891,5.01306152 Z M10.2553711,5.01306152 C9.80950927,5.68322754 9.26834107,6.14483644 8.68359375,6.36566161 C8.78540039,6.19876099 8.88336183,6.02169799 8.97711183,5.83419799 C9.5657959,4.65682983 9.94235229,3.17376708 10.0692444,1.56921387 L11.2894592,1.56921387 C11.2342529,2.8744812 10.8719788,4.08636473 10.2553711,5.01306152 Z" id="Shape"></path>
                                </g>
                            </g>
                        </g>
                    </g>
                </g>
            </g>
        </g>
    </g>
</svg>