<svg clip-rule="evenodd" fill-rule="evenodd" stroke-linejoin="round" stroke-miterlimit="1.41421" viewBox="0 0 1080 1080" xmlns="http://www.w3.org/2000/svg"><path d="m0 0h1080v1080h-1080z" fill="none"/><path d="m683.427 60.054c.071.017.121.017.171.036 0-.019 0-.019.019-.036h.015v-.017c-.05-.208-.101-.415-.154-.622-.086-.294.363-.501.485-.207.293.675.534 1.364.775 2.055v-.051c0-.208.037-.397.087-.571-.05-.31-.102-.621-.155-.933-.088-.465.605-.672.726-.188.034.172.067.327.121.5.12-.018.258-.018.413 0v-.052c-.034-.224.346-.26.399-.052.17.639.312 1.296.448 1.952 0 .018 0 .035.018.052 0 .016 0 .035.018.052.118-.174.294-.276.551-.293-.035-.363-.051-.745-.069-1.124 0-.224.327-.207.346 0 .035.379.086.761.155 1.157.019 0 .037 0 .052.017.018-.275.034-.551.052-.812.015-.24.312-.276.396-.051.311.76.383 1.59.484 2.418.054-.121.105-.24.193-.362.293-.363.741-.329 1.189-.191.018-.258.363-.448.554-.224.205.224.397.45.587.656.069.035.122.052.17.104.229.294.4.587.539.898.017-.086 0-.189.017-.276.122-.83.603-1.261 1.382-1.313.12-.155.379-.188.483.017.399.744.691 1.624.829 2.523.068-.157.275-.207.434-.121.05-.069.118-.121.22-.121.294.016.467.121.643.259-.056-.174-.105-.329-.21-.484-.205-.346.311-.639.537-.31.466.709.569 1.467.602 2.314 0 .155.019.311.019.465.087-.172.327-.207.484-.05.122-.432.344-.83.761-1.14v-.036c.016-.397.587-.397.619 0 .054.847.192 1.694.332 2.54.035.189.068.38.101.57.035-.328.054-.674 0-1.001-.066-.346.4-.485.52-.157.086.26.138.536.155.83h.067c0-.191.296-.38.45-.191.087.121.156.224.226.346.087.017.155.085.17.207 0 .017.018.07.018.103.226.468.312 1.002.366 1.539.033-.363.048-.745.015-1.141-.015-.31.483-.379.537-.068 0 .016 0 .051.016.086.086 0 .173.035.191.154.086.639.102 1.348.049 2.074.037.016.053.016.072.051.38.502.187 1.418.136 1.986 0 .053 0 .121-.015.173.066-.155.137-.329.205-.5.381-1.209.451-2.489-.19-3.352-.102-.119.105-.258.209-.154.467.483.621 1.191.656 1.901.639-1.659 1.07-3.335.432-5.149-.207-.622.741-1.002 1.053-.449.691 1.191.917 2.436.896 3.662.07-.121.157-.208.28-.225.015-.397 0-.793-.123-1.244-.171-.604.76-1.035 1.037-.449.639 1.313.689 2.488.362 3.593.036.709-.084 1.365-.327 1.951-.312 1.332-.881 2.575-1.64 3.766.12-.069.24-.12.361-.189.605-.744 1.036-1.573 1.053-2.539 0-.536.745-.501.812 0 .053.413.018.812-.033 1.191.051-.069.121-.155.172-.225.018-.086.018-.172.034-.258.034-.328.259-.45.486-.433.965-1.398 1.621-2.986 1.846-4.819.034-.293.466-.31.466 0-.015 1.486-.346 2.937-.932 4.284.5-.518.896-1.035 1.072-1.571.104-.346.708-.311.654.085-.189 1.486-1.26 2.677-2.487 3.698.072.103.107.189.139.294.051-.087.103-.191.139-.278.137-.569.983-.431.983.139 0 1.019-.464 1.935-1.14 2.763-.397.847-1.071 1.608-1.761 2.297 2.66-.396 4.94-1.381 5.527-3.764.104-.416.742-.33.726.086-.035 3.592-3.472 5.56-7.218 6.183.048 1.365-.107 2.713-.85 3.886-.93 1.468-1.914 2.522-3.005 3.92-.862 1.124-1.124 3.49-1.777 4.889-.78 1.657-1.571 3.335-2.54 4.699 2.264 1.537 4.524 3.368 5.528 3.989 3.748 2.314 6.596 11.106 6.906 15.045.382 4.577 1.282 8.705 2.733 13.04.914 2.713 2.866 5.96 2.866 8.861 0 1.434-1.125 2.488-2.678 3.213.399 1.209.793 2.47 1.14 3.765h.207c4.786-.069 9.571-1.122 14.389-1.071 6.079.052 12.489-.811 18.515-1.553.379-.053.691.085.899.31.586-.276 1.21-.518 1.797-.69.448-.778.827-1.486.983-1.727.512-.805 1.027-1.562 1.569-2.296-6.545-33.378-18.404-92.341-21.076-95.268-3.737-4.093-4.095 1.066-8.544-3.381-4.447-4.448 1.602-12.811 8.544-6.228 4.892 4.642 19.165 63.966 27.097 100.052 1.029-.208 2.059-.071 2.894.763 2.678 2.713 2.331 6.151 4.269 9.242.688 1.122 1.157 2.815.93 4.128-.449 2.59.071 5.027.106 7.617.016.449-.243.916-.641 1.14-.828.456-1.684.842-2.567 1.172.326 1.799.497 2.958.481 3.315-.179 4.271-6.349 4.006-7.119 0 0 0-.133-.708-.385-2.008-3.798.053-7.602-.892-10.843-2.929-.293-.172-.241-.587.036-.706l-.055-.089c-.759.432-1.606.847-2.573 1.401-5.302 3.022-9.774 7.357-14.939 10.604-5.009 3.145-11.436 5.373-17.36 5.389-6.995.017-8.239-2.607-11.781-8.808-1.728-2.988-3.107-6.114-4.402-9.275-1.35.138-2.573.172-3.214.189-1.122.018-2.28-.051-3.438-.225-1.122 3.144-3.212 5.96-5.991 7.29 2.677 6.822 2.264 15.424.032 23.094.208.795.366 1.623.484 2.572.984 8.017.502 18.983 6.115 25.046.26.276.244.639 0 .916-1.072 1.226-.863.829-2.919 1.485-.138.035-.26.087-.38.12 4.388.778 8.258 1.659 10.59 5.926 1.295 2.367 2.088 4.283 2.227 7.028.05 1.349.346 3.076.191 4.613.05.137.12.276.189.415 2.122 4.94 4.577 10 2.693 15.528-1.813 5.32-5.559 13.127-10.863 15.374-3.267 1.398-8.999-3.56-9.777-6.393-.692-2.521.052-5.751.657-8.239.5-2.021.828-4.144 1.053-6.286-5.665-1.228-9.378-3.507-13.628-9.276-2.712-3.714-4.559-8.238-5.597-12.902-4.249.155-9.154-.968-11.174-2.453-2.142-1.589-3.092-7.703-3.955-9.587-2.246-4.887-8.379-5.941-13.939-6.217-.898 2.884-2.35 5.474-4.233 8.739-1.641 2.833-3.921 4.818-4.751 8.137-.466 1.863.156 4.852-.827 6.527-.847 1.434-2.558 1.556-4.405 1.193-.242.62-.519 1.226-.865 1.779-.36.604-.725 1.451-1.173 2.296 4.561 5.822 3.765 14.233 3.817 21.678.068 11.571 1.659 24.44.223 36.169 1.815 1.38 3.386 2.902 4.009 5.062 1.59 5.578.984 12.331.379 18.014-.034.363-.206.587-.553.708-2.986 1.089-5.942.19-8.999 1.659-3.074 1.484-5.37 4.196-8.756 5.492-3.163 1.21-8.756.035-12.126.035-1.779 0-3.989-.501-4.959-2.211-1.846-3.161-.448-9.5 3.37-10.951 4.233-1.607 6.686-3.8 6.754-8.516.051-2.59 1.086-5.526 2.384-8.24-.639-12.867-3.264-25.268-6.427-37.877-1.398-5.648-2.832-11.815-3.16-17.637-.19-3.264-.052-6.544.347-9.774.067-.589.655-1.625 1.362-2.765-1.588-.432-5.112-.501-5.698-2.641-.538-1.971 3.056-5.979 3.972-7.446 1.815-2.901 2.988-5.509 3.696-8.446-.982-6.081-.813-11.797.639-18.758.933-4.51 1.918-8.584 3.318-12.938.846-2.608 2.417-4.853 3.869-7.167-2.023-2.281-3.25-1.071-5.321-3.023-2.452-2.315-5.666-3.16-7.911-5.699-.484-.571-.171-1.503.622-1.503 5.958 0 11.123-6.081 15.112-9.846 1.401-1.312 2.973-1.814 4.576-2.229-.187-1.674-.015-3.384.676-4.974 1.399-3.161 3.886-4.766 6.599-6.15-1.228-2.935-1.798-6.026-.934-9.309.606-2.262 3.11-3.852 4.716-5.268 4.182-3.645 6.598-9.084 9.741-13.56 3.317-4.714 8.187-7.961 13.404-10.156 3.68-1.554 7.15-1.744 11.072-1.727 1.019.016 4.63.761 7.634.744-.034-1.435.035-2.937.345-4.354.018-.241.036-.5.07-.742.018-.155.104-.243.207-.277.018-.069.035-.122.051-.19.071-.172.139-.363.207-.552 0-.83.087-1.658.226-2.471.053-.241.087-.621.191-.914-.018-.019-.018-.019-.018-.035 0-.034-.035-.053-.016-.104.034-.293.118-.484.275-.621.208-.346.415-.692.605-1.036-.086-.054-.19-.139-.294-.277-.07-.105-.052-.208 0-.312v-.017c.017-.017.017-.086.051-.189.053-.174.157-.346.209-.536.171-.57.171-1.21.206-1.814.035-.622.103-1.243.172-1.883-.035-.19-.035-.381-.069-.552-.275-1.399-.672-2.815-1.347-4.077-.191-.363.122-.656.43-.621-.275-.88-.534-1.763-.757-2.643-.087-.346.242-.518.482-.415v-.069c-.033-.034-.033-.087-.067-.138-.07-.138-.035-.242.015-.345-.015-.45-.034-.899-.034-1.227 0-.137.086-.207.192-.258-.019-.087-.019-.209.049-.33.037-.05.07-.086.105-.137 0-.328.015-.674.036-1.02.032-.258.291-.327.446-.189-.051-.415-.068-.829-.051-1.21 0-.258.415-.329.45-.069.104.535.258 1.037.45 1.538.068 0 .154.018.207.069.052.018.085.018.138.018-.036-.243.016-.467.103-.675-.053-.155-.069-.326-.069-.483 0-.311.26-.467.519-.449-.037-.103-.07-.225-.104-.328-.192-.5.654-.863.863-.363.069.156.119.311.138.466.156-.069.327-.138.502-.19.121-.156.38-.137.414.121.017.224.053.448.068.673.069 0 .121 0 .189.019.019-.105.036-.208.089-.294.222-.45.725-.346 1.226-.122-.07-.138-.121-.293-.173-.448-.12-.329.397-.468.518-.138-.033-.363-.033-.726-.017-1.088 0-.019.017-.019.017-.036-.07-.172-.121-.346-.171-.535-.122-.605.688-.813.914-.259.121.311.326.569.553.794.294.017.621.017.948.036 0-.088.018-.174.141-.174.035 0 .084.019.103.019.052-.07.102-.122.171-.139.363-.121.778-.104 1.157.051-.121-.103-.239-.189-.362-.276-.26-.189-.225-.5-.068-.691-.207-.017-.379-.017-.518.052-.155.07-.346.018-.399-.173-.207-.795.572-1.036 1.226-1.071.086-.034.175-.034.259.018h.019c.485.051.932.275 1.381.483-.26-.241-.501-.483-.777-.708-.017.034-.07.034-.104 0-.033-.034-.067-.07-.121-.121-.018-.016 0-.052 0-.069-.018-.034-.05-.052-.066-.069-.124-.104-.057-.243.048-.31-.032-.053-.067-.087-.105-.122-.082-.121.073-.26.177-.19.467.276.914.536 1.38.794-.345-.397-.692-.811-.968-1.26-.293-.432.433-.847.708-.414.313.5.659.984 1.001 1.466.018-.88.365-1.536 1.313-1.466.036-.018.071-.036.105-.018-.016-.501.657-.76 1.003-.345-.088-.502.655-.709.795-.208v.036h.136c-.051-.243-.102-.467-.155-.709-.086-.414.552-.606.657-.174.087.329.171.656.294 1.002zm73.529 260.01c-5.485 0-9.933-4.445-9.933-9.931s4.448-9.932 9.933-9.932 9.933 4.446 9.933 9.932-4.448 9.931-9.933 9.931z" fill="#bababa" fill-rule="nonzero" transform="matrix(2.78381 0 0 2.78381 -1348.32 40.9299)"/></svg>