<?xml version="1.0" encoding="UTF-8"?>
<svg width="48px" height="32px" viewBox="0 0 48 32" version="1.1" xmlns="http://www.w3.org/2000/svg" xmlns:xlink="http://www.w3.org/1999/xlink">
    <!-- Generator: Sketch 55.2 (78181) - https://sketchapp.com -->
    <title>elements/flags/India</title>
    <desc>Created with Sketch.</desc>
    <defs>
        <rect id="path-1" x="0" y="0" width="48" height="32" rx="2"></rect>
    </defs>
    <g id="elements/flags/India" stroke="none" stroke-width="1" fill="none" fill-rule="evenodd">
        <g id="Group-2">
            <mask id="mask-2" fill="white">
                <use xlink:href="#path-1"></use>
            </mask>
            <use id="Rectangle" fill="#ECECEC" xlink:href="#path-1"></use>
            <g id="Flag_of_India" mask="url(#mask-2)" fill-rule="nonzero">
                <rect id="Rectangle" fill="#FF9933" x="0" y="0" width="48" height="32"></rect>
                <rect id="Rectangle" fill="#FFFFFF" x="0" y="10.6666667" width="48" height="10.6666667"></rect>
                <rect id="Rectangle" fill="#128807" x="0" y="21.3333333" width="48" height="10.6666667"></rect>
                <g id="Group" transform="translate(12.000000, 0.666667)">
                    <ellipse id="Oval" fill="#000088" cx="12.1428571" cy="15.5348837" rx="4.28571429" ry="4.34108527"></ellipse>
                    <ellipse id="Oval" fill="#FFFFFF" cx="12.1428571" cy="15.5348837" rx="3.75" ry="3.79844961"></ellipse>
                    <ellipse id="Oval" fill="#000088" cx="12.1428571" cy="15.5348837" rx="1" ry="1"></ellipse>
                    <g id="d" transform="translate(0.642857, 9.178295)" fill="#000088">
                        <g id="c" transform="translate(5.857143, 4.372093)">
                            <g id="b" transform="translate(3.023810, 1.317829)">
                                <g id="a" transform="translate(2.404762, 0.217054)">
                                    <circle id="Oval" transform="translate(3.932204, 0.945410) rotate(7.500000) translate(-3.932204, -0.945410) " cx="3.93220394" cy="0.945409567" r="1"></circle>
                                    <path d="M0.214285714,4.24806202 L0.342857143,1.96899225 C0.342857143,1.96899225 0.214285714,0.88372093 0.214285714,0.88372093 C0.214285714,0.88372093 0.0857142857,1.96899225 0.0857142857,1.96899225 L0.214285714,4.24806202 Z" id="Path"></path>
                                </g>
                                <g id="a-link" transform="translate(3.778902, 3.279894) rotate(15.000000) translate(-3.778902, -3.279894) translate(1.112235, 0.613227)">
                                    <g id="a" transform="translate(0.663939, -0.002470)">
                                        <circle id="Oval" transform="translate(3.932204, 0.945410) rotate(7.500000) translate(-3.932204, -0.945410) " cx="3.93220394" cy="0.945409567" r="1"></circle>
                                        <path d="M0.214285714,4.24806202 L0.342857143,1.96899225 C0.342857143,1.96899225 0.214285714,0.88372093 0.214285714,0.88372093 C0.214285714,0.88372093 0.0857142857,1.96899225 0.0857142857,1.96899225 L0.214285714,4.24806202 Z" id="Path"></path>
                                    </g>
                                </g>
                            </g>
                            <g id="b-link" transform="translate(5.362268, 5.286558) rotate(30.000000) translate(-5.362268, -5.286558) translate(1.362268, 1.619891)">
                                <g id="b" transform="translate(-0.008796, -0.000131)">
                                    <g id="a" transform="translate(2.404762, 0.217054)">
                                        <circle id="Oval" transform="translate(3.932204, 0.945410) rotate(7.500000) translate(-3.932204, -0.945410) " cx="3.93220394" cy="0.945409567" r="1"></circle>
                                        <path d="M0.214285714,4.24806202 L0.342857143,1.96899225 C0.342857143,1.96899225 0.214285714,0.88372093 0.214285714,0.88372093 C0.214285714,0.88372093 0.0857142857,1.96899225 0.0857142857,1.96899225 L0.214285714,4.24806202 Z" id="Path"></path>
                                    </g>
                                    <g id="a-link" transform="translate(3.778902, 3.279894) rotate(15.000000) translate(-3.778902, -3.279894) translate(1.112235, 0.613227)">
                                        <g id="a" transform="translate(0.663939, -0.002470)">
                                            <circle id="Oval" transform="translate(3.932204, 0.945410) rotate(7.500000) translate(-3.932204, -0.945410) " cx="3.93220394" cy="0.945409567" r="1"></circle>
                                            <path d="M0.214285714,4.24806202 L0.342857143,1.96899225 C0.342857143,1.96899225 0.214285714,0.88372093 0.214285714,0.88372093 C0.214285714,0.88372093 0.0857142857,1.96899225 0.0857142857,1.96899225 L0.214285714,4.24806202 Z" id="Path"></path>
                                        </g>
                                    </g>
                                </g>
                            </g>
                        </g>
                        <g id="c-link" transform="translate(8.359216, 8.233687) rotate(60.000000) translate(-8.359216, -8.233687) translate(2.692549, 2.567020)">
                            <g id="c" transform="translate(-0.013152, -0.003210)">
                                <g id="b" transform="translate(3.023810, 1.317829)">
                                    <g id="a" transform="translate(2.404762, 0.217054)">
                                        <circle id="Oval" transform="translate(3.932204, 0.945410) rotate(7.500000) translate(-3.932204, -0.945410) " cx="3.93220394" cy="0.945409567" r="1"></circle>
                                        <path d="M0.214285714,4.24806202 L0.342857143,1.96899225 C0.342857143,1.96899225 0.214285714,0.88372093 0.214285714,0.88372093 C0.214285714,0.88372093 0.0857142857,1.96899225 0.0857142857,1.96899225 L0.214285714,4.24806202 Z" id="Path"></path>
                                    </g>
                                    <g id="a-link" transform="translate(3.778902, 3.279894) rotate(15.000000) translate(-3.778902, -3.279894) translate(1.112235, 0.613227)">
                                        <g id="a" transform="translate(0.663939, -0.002470)">
                                            <circle id="Oval" transform="translate(3.932204, 0.945410) rotate(7.500000) translate(-3.932204, -0.945410) " cx="3.93220394" cy="0.945409567" r="1"></circle>
                                            <path d="M0.214285714,4.24806202 L0.342857143,1.96899225 C0.342857143,1.96899225 0.214285714,0.88372093 0.214285714,0.88372093 C0.214285714,0.88372093 0.0857142857,1.96899225 0.0857142857,1.96899225 L0.214285714,4.24806202 Z" id="Path"></path>
                                        </g>
                                    </g>
                                </g>
                                <g id="b-link" transform="translate(5.362268, 5.286558) rotate(30.000000) translate(-5.362268, -5.286558) translate(1.362268, 1.619891)">
                                    <g id="b" transform="translate(-0.008796, -0.000131)">
                                        <g id="a" transform="translate(2.404762, 0.217054)">
                                            <circle id="Oval" transform="translate(3.932204, 0.945410) rotate(7.500000) translate(-3.932204, -0.945410) " cx="3.93220394" cy="0.945409567" r="1"></circle>
                                            <path d="M0.214285714,4.24806202 L0.342857143,1.96899225 C0.342857143,1.96899225 0.214285714,0.88372093 0.214285714,0.88372093 C0.214285714,0.88372093 0.0857142857,1.96899225 0.0857142857,1.96899225 L0.214285714,4.24806202 Z" id="Path"></path>
                                        </g>
                                        <g id="a-link" transform="translate(3.778902, 3.279894) rotate(15.000000) translate(-3.778902, -3.279894) translate(1.112235, 0.613227)">
                                            <g id="a" transform="translate(0.663939, -0.002470)">
                                                <circle id="Oval" transform="translate(3.932204, 0.945410) rotate(7.500000) translate(-3.932204, -0.945410) " cx="3.93220394" cy="0.945409567" r="1"></circle>
                                                <path d="M0.214285714,4.24806202 L0.342857143,1.96899225 C0.342857143,1.96899225 0.214285714,0.88372093 0.214285714,0.88372093 C0.214285714,0.88372093 0.0857142857,1.96899225 0.0857142857,1.96899225 L0.214285714,4.24806202 Z" id="Path"></path>
                                            </g>
                                        </g>
                                    </g>
                                </g>
                            </g>
                        </g>
                    </g>
                    <g id="d-link" transform="translate(11.845599, 12.069273) rotate(120.000000) translate(-11.845599, -12.069273) translate(3.178932, 3.735940)" fill="#000088">
                        <g id="d" transform="translate(-0.006258, -0.019477)">
                            <g id="c" transform="translate(5.857143, 4.372093)">
                                <g id="b" transform="translate(3.023810, 1.317829)">
                                    <g id="a" transform="translate(2.404762, 0.217054)">
                                        <circle id="Oval" transform="translate(3.932204, 0.945410) rotate(7.500000) translate(-3.932204, -0.945410) " cx="3.93220394" cy="0.945409567" r="1"></circle>
                                        <path d="M0.214285714,4.24806202 L0.342857143,1.96899225 C0.342857143,1.96899225 0.214285714,0.88372093 0.214285714,0.88372093 C0.214285714,0.88372093 0.0857142857,1.96899225 0.0857142857,1.96899225 L0.214285714,4.24806202 Z" id="Path"></path>
                                    </g>
                                    <g id="a-link" transform="translate(3.778902, 3.279894) rotate(15.000000) translate(-3.778902, -3.279894) translate(1.112235, 0.613227)">
                                        <g id="a" transform="translate(0.663939, -0.002470)">
                                            <circle id="Oval" transform="translate(3.932204, 0.945410) rotate(7.500000) translate(-3.932204, -0.945410) " cx="3.93220394" cy="0.945409567" r="1"></circle>
                                            <path d="M0.214285714,4.24806202 L0.342857143,1.96899225 C0.342857143,1.96899225 0.214285714,0.88372093 0.214285714,0.88372093 C0.214285714,0.88372093 0.0857142857,1.96899225 0.0857142857,1.96899225 L0.214285714,4.24806202 Z" id="Path"></path>
                                        </g>
                                    </g>
                                </g>
                                <g id="b-link" transform="translate(5.362268, 5.286558) rotate(30.000000) translate(-5.362268, -5.286558) translate(1.362268, 1.619891)">
                                    <g id="b" transform="translate(-0.008796, -0.000131)">
                                        <g id="a" transform="translate(2.404762, 0.217054)">
                                            <circle id="Oval" transform="translate(3.932204, 0.945410) rotate(7.500000) translate(-3.932204, -0.945410) " cx="3.93220394" cy="0.945409567" r="1"></circle>
                                            <path d="M0.214285714,4.24806202 L0.342857143,1.96899225 C0.342857143,1.96899225 0.214285714,0.88372093 0.214285714,0.88372093 C0.214285714,0.88372093 0.0857142857,1.96899225 0.0857142857,1.96899225 L0.214285714,4.24806202 Z" id="Path"></path>
                                        </g>
                                        <g id="a-link" transform="translate(3.778902, 3.279894) rotate(15.000000) translate(-3.778902, -3.279894) translate(1.112235, 0.613227)">
                                            <g id="a" transform="translate(0.663939, -0.002470)">
                                                <circle id="Oval" transform="translate(3.932204, 0.945410) rotate(7.500000) translate(-3.932204, -0.945410) " cx="3.93220394" cy="0.945409567" r="1"></circle>
                                                <path d="M0.214285714,4.24806202 L0.342857143,1.96899225 C0.342857143,1.96899225 0.214285714,0.88372093 0.214285714,0.88372093 C0.214285714,0.88372093 0.0857142857,1.96899225 0.0857142857,1.96899225 L0.214285714,4.24806202 Z" id="Path"></path>
                                            </g>
                                        </g>
                                    </g>
                                </g>
                            </g>
                            <g id="c-link" transform="translate(8.359216, 8.233687) rotate(60.000000) translate(-8.359216, -8.233687) translate(2.692549, 2.567020)">
                                <g id="c" transform="translate(-0.013152, -0.003210)">
                                    <g id="b" transform="translate(3.023810, 1.317829)">
                                        <g id="a" transform="translate(2.404762, 0.217054)">
                                            <circle id="Oval" transform="translate(3.932204, 0.945410) rotate(7.500000) translate(-3.932204, -0.945410) " cx="3.93220394" cy="0.945409567" r="1"></circle>
                                            <path d="M0.214285714,4.24806202 L0.342857143,1.96899225 C0.342857143,1.96899225 0.214285714,0.88372093 0.214285714,0.88372093 C0.214285714,0.88372093 0.0857142857,1.96899225 0.0857142857,1.96899225 L0.214285714,4.24806202 Z" id="Path"></path>
                                        </g>
                                        <g id="a-link" transform="translate(3.778902, 3.279894) rotate(15.000000) translate(-3.778902, -3.279894) translate(1.112235, 0.613227)">
                                            <g id="a" transform="translate(0.663939, -0.002470)">
                                                <circle id="Oval" transform="translate(3.932204, 0.945410) rotate(7.500000) translate(-3.932204, -0.945410) " cx="3.93220394" cy="0.945409567" r="1"></circle>
                                                <path d="M0.214285714,4.24806202 L0.342857143,1.96899225 C0.342857143,1.96899225 0.214285714,0.88372093 0.214285714,0.88372093 C0.214285714,0.88372093 0.0857142857,1.96899225 0.0857142857,1.96899225 L0.214285714,4.24806202 Z" id="Path"></path>
                                            </g>
                                        </g>
                                    </g>
                                    <g id="b-link" transform="translate(5.362268, 5.286558) rotate(30.000000) translate(-5.362268, -5.286558) translate(1.362268, 1.619891)">
                                        <g id="b" transform="translate(-0.008796, -0.000131)">
                                            <g id="a" transform="translate(2.404762, 0.217054)">
                                                <circle id="Oval" transform="translate(3.932204, 0.945410) rotate(7.500000) translate(-3.932204, -0.945410) " cx="3.93220394" cy="0.945409567" r="1"></circle>
                                                <path d="M0.214285714,4.24806202 L0.342857143,1.96899225 C0.342857143,1.96899225 0.214285714,0.88372093 0.214285714,0.88372093 C0.214285714,0.88372093 0.0857142857,1.96899225 0.0857142857,1.96899225 L0.214285714,4.24806202 Z" id="Path"></path>
                                            </g>
                                            <g id="a-link" transform="translate(3.778902, 3.279894) rotate(15.000000) translate(-3.778902, -3.279894) translate(1.112235, 0.613227)">
                                                <g id="a" transform="translate(0.663939, -0.002470)">
                                                    <circle id="Oval" transform="translate(3.932204, 0.945410) rotate(7.500000) translate(-3.932204, -0.945410) " cx="3.93220394" cy="0.945409567" r="1"></circle>
                                                    <path d="M0.214285714,4.24806202 L0.342857143,1.96899225 C0.342857143,1.96899225 0.214285714,0.88372093 0.214285714,0.88372093 C0.214285714,0.88372093 0.0857142857,1.96899225 0.0857142857,1.96899225 L0.214285714,4.24806202 Z" id="Path"></path>
                                                </g>
                                            </g>
                                        </g>
                                    </g>
                                </g>
                            </g>
                        </g>
                    </g>
                    <g id="d-link" transform="translate(14.656372, 17.357554) rotate(-120.000000) translate(-14.656372, -17.357554) translate(5.989705, 9.024221)" fill="#000088">
                        <g id="d" transform="translate(-0.005717, 0.686148)">
                            <g id="c" transform="translate(5.857143, 4.372093)">
                                <g id="b" transform="translate(3.023810, 1.317829)">
                                    <g id="a" transform="translate(2.404762, 0.217054)">
                                        <circle id="Oval" transform="translate(3.932204, 0.945410) rotate(7.500000) translate(-3.932204, -0.945410) " cx="3.93220394" cy="0.945409567" r="1"></circle>
                                        <path d="M0.214285714,4.24806202 L0.342857143,1.96899225 C0.342857143,1.96899225 0.214285714,0.88372093 0.214285714,0.88372093 C0.214285714,0.88372093 0.0857142857,1.96899225 0.0857142857,1.96899225 L0.214285714,4.24806202 Z" id="Path"></path>
                                    </g>
                                    <g id="a-link" transform="translate(3.778902, 3.279894) rotate(15.000000) translate(-3.778902, -3.279894) translate(1.112235, 0.613227)">
                                        <g id="a" transform="translate(0.663939, -0.002470)">
                                            <circle id="Oval" transform="translate(3.932204, 0.945410) rotate(7.500000) translate(-3.932204, -0.945410) " cx="3.93220394" cy="0.945409567" r="1"></circle>
                                            <path d="M0.214285714,4.24806202 L0.342857143,1.96899225 C0.342857143,1.96899225 0.214285714,0.88372093 0.214285714,0.88372093 C0.214285714,0.88372093 0.0857142857,1.96899225 0.0857142857,1.96899225 L0.214285714,4.24806202 Z" id="Path"></path>
                                        </g>
                                    </g>
                                </g>
                                <g id="b-link" transform="translate(5.362268, 5.286558) rotate(30.000000) translate(-5.362268, -5.286558) translate(1.362268, 1.619891)">
                                    <g id="b" transform="translate(-0.008796, -0.000131)">
                                        <g id="a" transform="translate(2.404762, 0.217054)">
                                            <circle id="Oval" transform="translate(3.932204, 0.945410) rotate(7.500000) translate(-3.932204, -0.945410) " cx="3.93220394" cy="0.945409567" r="1"></circle>
                                            <path d="M0.214285714,4.24806202 L0.342857143,1.96899225 C0.342857143,1.96899225 0.214285714,0.88372093 0.214285714,0.88372093 C0.214285714,0.88372093 0.0857142857,1.96899225 0.0857142857,1.96899225 L0.214285714,4.24806202 Z" id="Path"></path>
                                        </g>
                                        <g id="a-link" transform="translate(3.778902, 3.279894) rotate(15.000000) translate(-3.778902, -3.279894) translate(1.112235, 0.613227)">
                                            <g id="a" transform="translate(0.663939, -0.002470)">
                                                <circle id="Oval" transform="translate(3.932204, 0.945410) rotate(7.500000) translate(-3.932204, -0.945410) " cx="3.93220394" cy="0.945409567" r="1"></circle>
                                                <path d="M0.214285714,4.24806202 L0.342857143,1.96899225 C0.342857143,1.96899225 0.214285714,0.88372093 0.214285714,0.88372093 C0.214285714,0.88372093 0.0857142857,1.96899225 0.0857142857,1.96899225 L0.214285714,4.24806202 Z" id="Path"></path>
                                            </g>
                                        </g>
                                    </g>
                                </g>
                            </g>
                            <g id="c-link" transform="translate(8.359216, 8.233687) rotate(60.000000) translate(-8.359216, -8.233687) translate(2.692549, 2.567020)">
                                <g id="c" transform="translate(-0.013152, -0.003210)">
                                    <g id="b" transform="translate(3.023810, 1.317829)">
                                        <g id="a" transform="translate(2.404762, 0.217054)">
                                            <circle id="Oval" transform="translate(3.932204, 0.945410) rotate(7.500000) translate(-3.932204, -0.945410) " cx="3.93220394" cy="0.945409567" r="1"></circle>
                                            <path d="M0.214285714,4.24806202 L0.342857143,1.96899225 C0.342857143,1.96899225 0.214285714,0.88372093 0.214285714,0.88372093 C0.214285714,0.88372093 0.0857142857,1.96899225 0.0857142857,1.96899225 L0.214285714,4.24806202 Z" id="Path"></path>
                                        </g>
                                        <g id="a-link" transform="translate(3.778902, 3.279894) rotate(15.000000) translate(-3.778902, -3.279894) translate(1.112235, 0.613227)">
                                            <g id="a" transform="translate(0.663939, -0.002470)">
                                                <circle id="Oval" transform="translate(3.932204, 0.945410) rotate(7.500000) translate(-3.932204, -0.945410) " cx="3.93220394" cy="0.945409567" r="1"></circle>
                                                <path d="M0.214285714,4.24806202 L0.342857143,1.96899225 C0.342857143,1.96899225 0.214285714,0.88372093 0.214285714,0.88372093 C0.214285714,0.88372093 0.0857142857,1.96899225 0.0857142857,1.96899225 L0.214285714,4.24806202 Z" id="Path"></path>
                                            </g>
                                        </g>
                                    </g>
                                    <g id="b-link" transform="translate(5.362268, 5.286558) rotate(30.000000) translate(-5.362268, -5.286558) translate(1.362268, 1.619891)">
                                        <g id="b" transform="translate(-0.008796, -0.000131)">
                                            <g id="a" transform="translate(2.404762, 0.217054)">
                                                <circle id="Oval" transform="translate(3.932204, 0.945410) rotate(7.500000) translate(-3.932204, -0.945410) " cx="3.93220394" cy="0.945409567" r="1"></circle>
                                                <path d="M0.214285714,4.24806202 L0.342857143,1.96899225 C0.342857143,1.96899225 0.214285714,0.88372093 0.214285714,0.88372093 C0.214285714,0.88372093 0.0857142857,1.96899225 0.0857142857,1.96899225 L0.214285714,4.24806202 Z" id="Path"></path>
                                            </g>
                                            <g id="a-link" transform="translate(3.778902, 3.279894) rotate(15.000000) translate(-3.778902, -3.279894) translate(1.112235, 0.613227)">
                                                <g id="a" transform="translate(0.663939, -0.002470)">
                                                    <circle id="Oval" transform="translate(3.932204, 0.945410) rotate(7.500000) translate(-3.932204, -0.945410) " cx="3.93220394" cy="0.945409567" r="1"></circle>
                                                    <path d="M0.214285714,4.24806202 L0.342857143,1.96899225 C0.342857143,1.96899225 0.214285714,0.88372093 0.214285714,0.88372093 C0.214285714,0.88372093 0.0857142857,1.96899225 0.0857142857,1.96899225 L0.214285714,4.24806202 Z" id="Path"></path>
                                                </g>
                                            </g>
                                        </g>
                                    </g>
                                </g>
                            </g>
                        </g>
                    </g>
                </g>
            </g>
        </g>
    </g>
</svg>