<?xml version="1.0" encoding="UTF-8"?>
<svg width="32px" height="32px" viewBox="0 0 32 32" version="1.1" xmlns="http://www.w3.org/2000/svg" xmlns:xlink="http://www.w3.org/1999/xlink">
    <!-- Generator: Sketch 55.2 (78181) - https://sketchapp.com -->
    <title>jumpball-icon</title>
    <desc>Created with Sketch.</desc>
    <g id="jumpball-icon" stroke="none" stroke-width="1" fill="none" fill-rule="evenodd">
        <g id="Group-48">
            <rect id="Rectangle" fill="#EBEBEB" opacity="0" x="0" y="0" width="32" height="32"></rect>
            <g id="Group-22" transform="translate(5.000000, 3.000000)" stroke="#000000">
                <path d="M7.98266602,25.8524423 C8.42707915,23.538532 8.61327707,21.7973007 8.54125977,20.6287485 C8.47600843,19.5699807 7.93565354,17.4414223 6.92019511,14.2430733 C6.72894464,13.6407045 6.14637598,13.2507942 5.51658922,13.3036484 C5.0148365,13.3457574 4.64222168,13.7866445 4.68433073,14.2883972 C4.68852915,14.3384237 4.69685242,14.388018 4.70921567,14.4366742 L5.59118652,17.9077172 C4.46333822,17.2802097 3.56622314,16.5840707 2.89984131,15.8193002 C2.31427983,15.1472829 2.05748309,13.5796248 2.12945108,11.116326 C2.1465975,10.5295379 1.68480936,10.0399544 1.09802115,10.0228107 C1.09502102,10.022723 1.09202054,10.0226481 1.08901978,10.0225859 C0.499915249,10.0103681 0.0124471846,10.4780271 0.000229379338,11.0671317 C7.64638888e-05,11.0745048 -5.95746578e-13,11.0818793 -5.9596772e-13,11.089254 L-5.9596772e-13,15.6998544 L0.171644078,16.745276 C0.40730335,18.1805909 1.3443718,19.4033188 2.66906738,20.0040231 C3.82755755,20.529359 4.34083054,21.8943696 3.81549471,23.0528598 C3.81209584,23.0603551 3.80865682,23.0678321 3.80517781,23.0752906 L2.50976562,25.8524423 L7.98266602,25.8524423 Z" id="Path-10" stroke-linejoin="round"></path>
                <g id="Group-47" transform="translate(4.000000, 0.000000)">
                    <circle id="Oval" transform="translate(9.000000, 8.703109) rotate(-45.000000) translate(-9.000000, -8.703109) " cx="9" cy="8.70310936" r="6"></circle>
                    <path d="M12.2508428,2 C11.0569023,3.096695 10.3085726,4.67089078 10.3085726,6.41986834 C10.3085726,8.1744003 11.061663,9.75303857 12.2622314,10.8501709" id="Shape" transform="translate(11.285402, 6.425085) rotate(-45.000000) translate(-11.285402, -6.425085) "></path>
                    <path d="M5.78630005,15.3533486 C6.95962055,14.2581821 7.69318179,12.6978812 7.69318179,10.966248 C7.69318179,9.24192956 6.96580494,7.6874991 5.80114568,6.59305103" id="Path" transform="translate(6.739741, 10.973200) rotate(-45.000000) translate(-6.739741, -10.973200) "></path>
                    <path d="M9,14.7031094 L9,2.70310936" id="Path-7" transform="translate(9.000000, 8.703109) rotate(-45.000000) translate(-9.000000, -8.703109) "></path>
                    <path d="M3,8.70310936 L15,8.70310936" id="Path-8" transform="translate(9.000000, 8.703109) rotate(-45.000000) translate(-9.000000, -8.703109) "></path>
                </g>
            </g>
        </g>
    </g>
</svg>