<?xml version="1.0" encoding="UTF-8" standalone="no"?>
<!DOCTYPE svg PUBLIC "-//W3C//DTD SVG 1.1//EN" "http://www.w3.org/Graphics/SVG/1.1/DTD/svg11.dtd">
<svg width="100%" height="100%" viewBox="0 0 1080 1080" version="1.1" xmlns="http://www.w3.org/2000/svg" xmlns:xlink="http://www.w3.org/1999/xlink" xml:space="preserve" xmlns:serif="http://www.serif.com/" style="fill-rule:evenodd;clip-rule:evenodd;stroke-linejoin:round;stroke-miterlimit:1.41421;">
    <g transform="matrix(1,0,0,1,-1139.95,-2542.03)">
        <g id="no_data_basketball" transform="matrix(1,0,0,1,1139.95,2542.03)">
            <rect x="0" y="0" width="1080" height="1080" style="fill:none;"/>
            <g transform="matrix(1.07461,0,0,1.07461,-1265.3,-2771.99)">
                <path d="M1840.24,3024.03C1828.53,3027.11 1817.54,3029.26 1816.03,3031.66L1815.49,3031.12C1815.49,3031.12 1812.88,3030.99 1811.93,3029.89C1810.97,3028.79 1810.42,3027.97 1810.42,3027.97L1810.83,3026.05C1810.83,3026.05 1783.02,3014.55 1765.49,3009.48C1747.95,3004.41 1694.93,2984 1690.41,2981.12C1690.41,2981.12 1687.4,2988.11 1684.39,2994.68C1681.37,3001.26 1687,3011.92 1686.03,3015.23C1686.03,3015.23 1701.92,3031.81 1706.31,3046.06C1710.69,3060.3 1733.02,3112.09 1734.94,3122.36C1736.86,3132.64 1749.73,3172.23 1750.42,3181.4C1751.1,3190.58 1749.32,3200.45 1749.32,3200.45C1749.32,3200.45 1782.75,3233.19 1786.86,3238.67C1790.97,3244.15 1796.45,3260.99 1799.05,3264.01C1801.65,3267.03 1828.37,3282.37 1846.04,3303.19C1863.71,3324.01 1897.68,3355.66 1898.92,3356.62C1898.92,3356.62 1904.26,3354.29 1907.14,3358.4C1907.14,3358.4 1914.95,3356.89 1918.23,3360.73C1921.52,3364.57 1935.31,3376.4 1941.11,3384.02C1947.69,3392.65 1950.98,3394.84 1953.03,3398.13C1955.08,3401.41 1955.77,3407.72 1957.69,3410.46C1959.61,3413.2 1967.96,3419.5 1973.3,3426.89C1978.65,3434.29 1979.74,3438.81 1978.51,3441.14C1977.28,3443.47 1963.44,3453.75 1960.02,3455.53C1956.59,3457.31 1936.86,3460.46 1930.29,3457.72C1923.71,3454.98 1915.77,3434.98 1911.66,3429.09C1907.55,3423.2 1902.07,3412.38 1896.86,3408.68C1891.66,3404.98 1876.18,3391.41 1874.94,3389.09C1873.71,3386.76 1874.81,3383.33 1874.81,3383.33C1874.81,3383.33 1855.35,3365.8 1838.91,3357.85C1822.48,3349.9 1784.12,3324.43 1774.12,3313.74C1764.12,3303.05 1759.6,3286.61 1756.45,3283.33C1753.3,3280.04 1743.29,3269.76 1740.69,3267.85C1738.09,3265.93 1708.22,3264.01 1696.31,3264.83C1684.39,3265.65 1666.03,3270.31 1648.63,3271.55C1631.23,3272.78 1615.75,3278.81 1615.62,3279.22C1615.48,3279.63 1614.66,3285.38 1613.01,3285.24C1613.01,3285.24 1613.01,3291.14 1603.01,3293.47C1597.69,3294.71 1593.01,3295.52 1590.96,3300.31C1588.9,3305.11 1587.94,3319.08 1590,3329.91C1592.05,3340.73 1591.78,3363.6 1588.08,3368.54C1584.38,3373.47 1571.77,3373.76 1569.04,3372.92C1564.11,3371.41 1547.12,3349.77 1544.1,3342.37C1541.09,3334.97 1541.36,3320.32 1542.74,3310.59C1544.1,3300.86 1537.12,3293.33 1531.91,3287.85C1526.71,3282.37 1518.62,3269.9 1518.35,3262.09C1518.08,3254.28 1525.61,3239.76 1528.08,3236.89C1530.54,3234.01 1532.19,3236.48 1532.19,3236.48C1532.19,3236.48 1549.17,3234.42 1557.12,3239.35C1565.07,3244.28 1573.28,3242.91 1576.43,3242.64C1579.59,3242.37 1583.15,3243.74 1583.15,3243.74C1583.15,3243.74 1591.78,3241.54 1593.7,3242.78C1593.7,3242.78 1623.56,3234.83 1630.96,3231.68C1638.36,3228.53 1653.15,3221.95 1653.15,3221.95C1653.15,3221.95 1636.99,3224.01 1630.69,3222.23C1624.38,3220.45 1614.38,3207.57 1607.94,3200.72C1601.51,3193.87 1590.55,3190.03 1589.18,3186.06C1587.81,3182.09 1589.45,3177.3 1586.16,3175.79C1582.88,3174.28 1556.44,3160.31 1555.89,3153.73C1555.34,3147.15 1554.79,3144.69 1550,3142.91C1545.2,3141.13 1524.38,3124.83 1523.01,3115.78C1521.64,3106.74 1520.54,3087.43 1523.69,3084.41C1526.84,3081.4 1529.45,3076.6 1530.4,3072.22C1531.37,3067.84 1533.97,3049.75 1533.01,3043.32C1532.05,3036.88 1525.34,3024.27 1525.88,3017.01C1526.43,3009.75 1525.61,2992.35 1525.61,2992.35C1525.61,2992.35 1501.77,3009.62 1488.62,3015.37C1475.47,3021.12 1469.31,3051.12 1458.62,3070.44C1447.94,3089.76 1431.5,3129.62 1430.26,3136.61C1429.03,3143.6 1431.5,3153.05 1433.35,3158.6C1435.2,3164.14 1437.66,3174.62 1436.43,3177.3C1435.2,3179.97 1430.26,3192.09 1430.26,3195.17C1430.26,3198.26 1431.03,3207.29 1429.58,3207.98C1426.98,3209.21 1424.24,3205.79 1424.24,3205.79C1424.24,3205.79 1423.83,3215.24 1422.45,3216.06C1421.09,3216.89 1417.39,3216.47 1416.02,3214.01C1416.02,3214.01 1414.92,3218.53 1413,3219.21C1411.09,3219.9 1408.21,3218.25 1407.66,3216.47C1407.11,3214.69 1406.15,3205.93 1404.78,3202.77C1403.41,3199.62 1402.45,3187.16 1400.95,3186.47C1399.44,3185.79 1398.34,3193.18 1398.34,3195.24C1398.34,3197.29 1405.06,3208.8 1405.33,3210.99C1405.61,3213.19 1401.9,3213.32 1400.13,3212.91C1398.34,3212.5 1394.51,3208.94 1392.59,3206.75C1389.99,3205.38 1388.21,3204.97 1385.88,3202.64C1383.55,3200.31 1380.81,3192.09 1380.94,3189.76C1381.08,3187.43 1382.18,3180.31 1382.04,3175.65C1381.91,3170.99 1386.7,3163.87 1387.25,3161.26C1387.8,3158.66 1391.36,3148.25 1394.24,3144.83C1397.11,3141.4 1398.48,3136.33 1398.62,3133.05C1398.75,3129.76 1403.55,3123.73 1405.06,3118.66C1406.56,3113.59 1421.77,3056.47 1423.69,3049.21C1425.61,3041.94 1445.33,3002.9 1449.17,2996.19C1453.01,2989.48 1479.72,2957.83 1487.25,2945.78C1494.79,2933.72 1527.39,2900.29 1528.49,2899.61C1529.58,2898.93 1529.58,2889.2 1541.5,2875.91C1553.42,2862.62 1572.6,2845.91 1579.45,2840.29C1586.3,2834.68 1614.11,2816.45 1614.66,2816.04C1614.66,2816.04 1614.79,2806.73 1614.38,2805.36C1614.38,2805.36 1609.45,2803.17 1606.71,2799.47C1603.97,2795.77 1599.31,2786.04 1601.51,2776.59C1601.51,2776.59 1595.55,2761.04 1596.85,2749.33C1598.22,2737 1604.38,2717.41 1623.29,2709.87C1642.19,2702.34 1661.51,2705.49 1667.95,2709.05C1674.39,2712.61 1686.03,2724.67 1687.95,2728.23C1689.87,2731.79 1693.98,2741.52 1693.84,2745.91C1693.7,2750.29 1693.02,2765.9 1692.88,2770.97C1692.74,2776.04 1692.88,2790.7 1693.02,2795.36C1693.15,2800.01 1689.18,2816.87 1689.18,2816.87C1689.18,2816.87 1697.81,2823.99 1698.63,2829.74C1698.63,2829.74 1714.94,2830.98 1719.87,2836.59C1724.8,2842.21 1730.96,2854.95 1730.55,2865.63C1730.14,2876.32 1720.96,2891.25 1719.87,2894.95C1718.77,2898.65 1724.8,2909.75 1722.88,2923.04C1720.96,2936.33 1718.63,2938.65 1718.63,2938.65C1718.63,2938.65 1746.58,2951.67 1761.93,2964.55C1777.27,2977.42 1821.79,2994.27 1821.79,2994.27C1821.79,2994.27 1823.71,2992.63 1824.81,2992.63C1825.9,2992.63 1828.09,2993.45 1828.5,2994C1828.91,2994.54 1829.19,2996.33 1829.19,2996.33C1829.19,2996.33 1841.79,2996.33 1846.18,2994.96C1849.42,2993.94 1866.89,2994.18 1876.95,2994.8C1877.59,2994.84 1877.77,2996.45 1876.95,2999C1876.96,3001.17 1876.75,3003.17 1875.88,3004.33C1874.76,3005.81 1872.71,3007.97 1869.99,3010.31L1869.76,3010.14C1868.78,3011.17 1867.68,3012.21 1866.46,3013.26C1864.96,3014.54 1863.11,3015.72 1861,3016.81C1856.55,3019.48 1851.47,3021.77 1846.15,3022.88C1844.21,3023.28 1842.21,3023.66 1840.24,3024.03ZM1892.99,3042.1C1903.12,3059.7 1907.14,3083.42 1907.53,3100.18C1897.5,3108.07 1884.85,3112.78 1871.1,3112.78C1870.46,3112.78 1869.83,3112.75 1869.2,3112.73C1873.64,3102.99 1877.44,3087.71 1881.41,3070.63C1882.76,3064.85 1883.92,3059.85 1884.84,3056.73C1886.94,3049.61 1889.06,3045.02 1892.99,3042.1ZM1881.89,3027.9C1882.79,3028.78 1883.67,3029.67 1884.55,3030.59C1886.45,3032.59 1888.21,3034.78 1889.84,3037.12C1884.41,3040.96 1881.6,3046.87 1879.18,3055.06C1878.21,3058.35 1877.03,3063.42 1875.66,3069.3C1872.82,3081.53 1868.04,3102.09 1862.95,3112.21C1848.99,3110.28 1836.59,3103.49 1827.52,3093.57C1830.24,3069.97 1860.1,3042.73 1881.89,3027.9ZM1930.06,3056.15C1929.47,3071.3 1923.15,3084.98 1913.22,3095.1C1912.26,3079.08 1908.35,3056.97 1898.32,3039.46C1900.42,3038.8 1902.87,3038.32 1905.78,3037.99C1914.14,3037.04 1923.22,3047.74 1930.06,3056.15ZM1870.12,3017.76C1872.53,3019.59 1874.99,3021.58 1877.43,3023.74C1870.09,3028.79 1862.07,3035.07 1854.47,3042.07C1841.79,3053.74 1826.98,3070.4 1822.66,3087.48C1816,3077.93 1812.08,3066.32 1812.08,3053.79C1812.08,3048.19 1812.88,3042.78 1814.33,3037.64C1821.83,3033.46 1830.74,3031.8 1840.02,3030.07C1842.43,3029.62 1844.92,3029.16 1847.35,3028.66C1856.04,3026.85 1864.03,3022.34 1870.12,3017.76ZM1915.08,3014.46C1922.89,3023.18 1928.14,3034.24 1929.65,3046.47C1922.59,3038.41 1914.37,3031.08 1905.12,3032.13C1901.19,3032.57 1897.91,3033.32 1895.12,3034.37C1893.21,3031.58 1891.12,3028.94 1888.83,3026.53C1888.2,3025.87 1887.58,3025.23 1886.95,3024.6C1892.96,3020.82 1898.03,3018.24 1901.21,3017.29C1906.06,3015.84 1910.81,3014.97 1915.08,3014.46ZM1882.74,2995.95C1892.96,2997.99 1902.21,3002.68 1909.78,3009.26C1906.51,3009.82 1903.05,3010.58 1899.52,3011.64C1895.59,3012.81 1889.54,3015.9 1882.52,3020.38C1879.94,3018.03 1877.36,3015.88 1874.82,3013.9C1877.42,3011.58 1879.41,3009.44 1880.59,3007.88C1883.07,3004.59 1882.97,3000.07 1882.74,2995.95Z" style="fill:rgb(186,186,186);fill-rule:nonzero;"/>
            </g>
        </g>
    </g>
</svg>
