<?xml version="1.0" encoding="UTF-8"?>
<svg width="32px" height="32px" viewBox="0 0 32 32" version="1.1" xmlns="http://www.w3.org/2000/svg" xmlns:xlink="http://www.w3.org/1999/xlink">
    <!-- Generator: Sketch 55.2 (78181) - https://sketchapp.com -->
    <title>rebound-icon</title>
    <desc>Created with Sketch.</desc>
    <defs>
        <rect id="path-1" x="0" y="0" width="32" height="32"></rect>
    </defs>
    <g id="rebound-icon" stroke="none" stroke-width="1" fill="none" fill-rule="evenodd">
        <g id="Group-46">
            <mask id="mask-2" fill="white">
                <use xlink:href="#path-1"></use>
            </mask>
            <use id="Rectangle" fill="#EBEBEB" opacity="0" xlink:href="#path-1"></use>
            <g id="Group-45" mask="url(#mask-2)">
                <g transform="translate(1.000000, 0.000000)">
                    <rect id="Rectangle" stroke="#000000" stroke-linecap="round" stroke-linejoin="round" x="8" y="16.217828" width="14" height="2.8"></rect>
                    <polyline id="Path" stroke="#000000" stroke-linecap="round" stroke-linejoin="round" transform="translate(15.000000, 24.617828) scale(1, -1) translate(-15.000000, -24.617828) " points="18.5 19.017828 21.3 30.217828 8.7 30.217828 11.5 19.017828 11.5 19.017828"></polyline>
                    <polyline id="Path-6" stroke="#000000" stroke-linecap="round" stroke-linejoin="round" points="8.7 19.2277461 20.3017822 22.9500759 10.7870117 27.1202938 18.5418701 29.8001522"></polyline>
                    <polyline id="Path-6-Copy" stroke="#000000" stroke-linecap="round" stroke-linejoin="round" transform="translate(15.550891, 24.513949) scale(-1, 1) translate(-15.550891, -24.513949) " points="10.1 19.2277461 21.0017822 22.9500759 12.1870117 27.1202938 19.4867676 29.8001522"></polyline>
                    <g id="Group-47" stroke="none" fill-rule="evenodd">
                        <circle id="Oval" stroke="#000000" transform="translate(9.000000, 8.703109) rotate(-45.000000) translate(-9.000000, -8.703109) " cx="9" cy="8.70310936" r="6"></circle>
                        <path d="M12.2508428,2 C11.0569023,3.096695 10.3085726,4.67089078 10.3085726,6.41986834 C10.3085726,8.1744003 11.061663,9.75303857 12.2622314,10.8501709" id="Shape" stroke="#000000" transform="translate(11.285402, 6.425085) rotate(-45.000000) translate(-11.285402, -6.425085) "></path>
                        <path d="M5.78630005,15.3533486 C6.95962055,14.2581821 7.69318179,12.6978812 7.69318179,10.966248 C7.69318179,9.24192956 6.96580494,7.6874991 5.80114568,6.59305103" id="Path" stroke="#000000" transform="translate(6.739741, 10.973200) rotate(-45.000000) translate(-6.739741, -10.973200) "></path>
                        <path d="M9,14.7031094 L9,2.70310936" id="Path-7" stroke="#000000" transform="translate(9.000000, 8.703109) rotate(-45.000000) translate(-9.000000, -8.703109) "></path>
                        <path d="M3,8.70310936 L15,8.70310936" id="Path-8" stroke="#000000" transform="translate(9.000000, 8.703109) rotate(-45.000000) translate(-9.000000, -8.703109) "></path>
                    </g>
                    <path d="M22.1556396,19.017828 L25,19.017828" id="Path-9" stroke="#000000" stroke-linecap="round" stroke-linejoin="round"></path>
                    <rect id="Rectangle" stroke="#000000" stroke-linecap="round" stroke-linejoin="round" x="25" y="2.21782799" width="3" height="28"></rect>
                </g>
            </g>
        </g>
    </g>
</svg>