<?xml version="1.0" encoding="UTF-8"?>
<svg width="32px" height="32px" viewBox="0 0 32 32" version="1.1" xmlns="http://www.w3.org/2000/svg" xmlns:xlink="http://www.w3.org/1999/xlink">
    <!-- Generator: Sketch 55.2 (78181) - https://sketchapp.com -->
    <title>review-icon</title>
    <desc>Created with Sketch.</desc>
    <g id="review-icon" stroke="none" stroke-width="1" fill="none" fill-rule="evenodd">
        <g id="Group-48-Copy">
            <rect id="Rectangle" fill="#EBEBEB" opacity="0" x="0" y="0" width="32" height="32"></rect>
            <path d="M16,28 C9.372583,28 4,22.627417 4,16 C4,9.372583 9.372583,4 16,4 C22.627417,4 28,9.372583 28,16 C28,22.627417 22.627417,28 16,28 Z M13.5144958,10.9086975 C13.3590804,10.8154482 13.1812439,10.7661904 13,10.7661904 C12.4477153,10.7661904 12,11.2139056 12,11.7661904 L12,20.2338096 C12,20.4150536 12.0492578,20.59289 12.1425071,20.7483054 C12.4266552,21.2218856 13.0409155,21.3754507 13.5144958,21.0913025 L20.5708451,16.8574929 C20.7115947,16.7730432 20.8293925,16.6552454 20.9138423,16.5144958 C21.1979905,16.0409155 21.0444254,15.4266552 20.5708451,15.1425071 L13.5144958,10.9086975 Z" id="Combined-Shape" fill="#000000"></path>
        </g>
    </g>
</svg>