<?xml version="1.0" encoding="UTF-8"?>
<svg width="32px" height="32px" viewBox="0 0 32 32" version="1.1" xmlns="http://www.w3.org/2000/svg" xmlns:xlink="http://www.w3.org/1999/xlink">
    <!-- Generator: Sketch 55.2 (78181) - https://sketchapp.com -->
    <title>score-change-icon</title>
    <desc>Created with Sketch.</desc>
    <g id="score-change-icon" stroke="none" stroke-width="1" fill="none" fill-rule="evenodd">
        <g id="Group-47" transform="translate(0.000000, 1.000000)" stroke="#000000" stroke-width="1.77777778">
            <circle id="Oval" transform="translate(16.000000, 15.472194) rotate(-45.000000) translate(-16.000000, -15.472194) " cx="16" cy="15.4721944" r="10.6666667"></circle>
            <path d="M21.7792761,3.55555556 C19.6567153,5.50523556 18.3263513,8.30380583 18.3263513,11.4130993 C18.3263513,14.5322672 19.6651786,17.3387352 21.7995226,19.2891927" id="Shape" transform="translate(20.062937, 11.422374) rotate(-45.000000) translate(-20.062937, -11.422374) "></path>
            <path d="M10.2867556,27.2948419 C12.3726587,25.3478793 13.6767676,22.5740111 13.6767676,19.495552 C13.6767676,16.430097 12.3836532,13.6666651 10.3131479,11.7209796" id="Path" transform="translate(11.981762, 19.507911) rotate(-45.000000) translate(-11.981762, -19.507911) "></path>
            <path d="M16,26.1388611 L16,4.80552775" id="Path-7" transform="translate(16.000000, 15.472194) rotate(-45.000000) translate(-16.000000, -15.472194) "></path>
            <path d="M5.33333333,15.4721944 L26.6666667,15.4721944" id="Path-8" transform="translate(16.000000, 15.472194) rotate(-45.000000) translate(-16.000000, -15.472194) "></path>
        </g>
    </g>
</svg>