<?xml version="1.0" encoding="UTF-8"?>
<svg width="12px" height="12px" viewBox="0 0 12 12" version="1.1" xmlns="http://www.w3.org/2000/svg" xmlns:xlink="http://www.w3.org/1999/xlink">
    <!-- Generator: Sketch 59 (86127) - https://sketch.com -->
    <title>icons/livebar/basketball</title>
    <desc>Created with Sketch.</desc>
    <g id="icons/livebar/basketball" stroke="none" stroke-width="1" fill="none" fill-rule="evenodd">
        <path d="M8.22932789,4.81113989 C9.25951047,6.60149988 9.66848891,9.0133173 9.70879239,10.7184466 C8.68813921,11.5203564 7.4020381,12 6.00300864,12 C5.93843956,12 5.87438625,11.9971524 5.81030838,11.9951149 C6.2616288,11.0039891 6.64808542,9.44980546 7.05195531,7.71291103 C7.18873173,7.12466707 7.3069651,6.61659691 7.40068728,6.29924024 C7.61473046,5.57487757 7.82978061,5.10794987 8.22932789,4.81113989 Z M7.10070754,3.36722595 C7.1915316,3.45628613 7.2819627,3.54694193 7.37138682,3.64081352 C7.56470109,3.84367827 7.74315637,4.06699152 7.90898764,4.30493538 C7.35642958,4.69495416 7.07123516,5.29581579 6.82501796,6.12934346 C6.7262118,6.46366281 6.6062592,6.97958833 6.46727235,7.57711144 C6.17800091,8.82113093 5.69133819,10.9128423 5.17426979,11.9417721 C3.75419214,11.7456581 2.49272503,11.0543861 1.57097625,10.0463957 C1.84710792,7.64594406 4.88381946,4.87543112 7.10070754,3.36722595 Z M9.53038623,4.39298909 C10.381082,4.29653996 11.3036167,5.38443411 12,6.23998134 C11.9393115,7.78120359 11.2974766,9.17260933 10.2868195,10.2018583 C10.189487,8.57243504 9.79173259,6.32327274 8.77157061,4.54300198 C8.98497522,4.47493035 9.23450807,4.42639893 9.53038623,4.39298909 Z M5.90373583,2.33517853 C6.14879869,2.52122789 6.39842978,2.72409264 6.64729949,2.94416555 C5.90069035,3.4572435 5.08440358,4.09563905 4.31144122,4.80755588 C3.02219639,5.99496766 1.5158629,7.68909946 1.07669983,9.4270249 C0.398810462,8.45531649 -1.95399252e-14,7.27448357 -1.95399252e-14,6.00002455 C-1.95399252e-14,5.43031434 0.0811718547,4.87980067 0.229589863,4.35763995 C0.991696565,3.93264026 1.89792322,3.76293987 2.84197277,3.58771618 C3.08698651,3.54225326 3.34042444,3.49519473 3.58791878,3.44371755 C4.4716973,3.26000025 5.28361233,2.80109975 5.90373583,2.33517853 Z M10.4759585,1.99958268 C11.2708532,2.88696869 11.8043279,4.01217581 11.958272,5.25540977 C11.2402511,4.43530986 10.4036775,3.6904005 9.46284535,3.79676703 C9.06354369,3.84188627 8.72996543,3.91771507 8.44661303,4.0246462 C8.25204618,3.74072392 8.03986958,3.47236508 7.80603079,3.22700772 C7.74266516,3.16040897 7.67885745,3.09503762 7.61487782,3.03077093 C8.22687185,2.6463 8.74192631,2.38397997 9.06533659,2.28743265 C9.55836043,2.14039007 10.0420759,2.0518454 10.4759585,1.99958268 Z M3.15256256,0.718569342 C3.3384105,0.794741816 4.27268504,1.19492347 5.39283207,1.96602555 C4.85589437,2.34664245 4.18247498,2.70722816 3.46568207,2.85630822 C3.22445062,2.90645981 2.97430377,2.9528801 2.73231094,2.99780295 C1.9842773,3.13662195 1.22268637,3.2790986 0.51947531,3.55914229 C1.06049002,2.34693702 1.99044194,1.34648288 3.15256256,0.718569342 Z M7.18718443,0.117364035 C8.22628241,0.325138389 9.16755664,0.801811643 9.93759632,1.47062217 C9.60436191,1.52749991 9.25246166,1.60548893 8.89373364,1.71256735 C8.49426005,1.83174794 7.87855741,2.14640433 7.16439245,2.60147534 C6.90257945,2.36343328 6.6400542,2.14426865 6.38172876,1.9432941 C6.64550659,1.7071177 6.84822746,1.48942594 6.96805726,1.33069851 C7.22026718,0.996452813 7.210222,0.536398561 7.18718443,0.117364035 Z M6.00300864,-8.54871729e-15 C6.19801757,-8.54871729e-15 6.39069328,0.010040136 6.58103575,0.0282056632 C6.58184624,0.042615345 6.58265673,0.0568040946 6.58339354,0.0713119684 C6.60272251,0.40788973 6.62455664,0.789439446 6.48876263,0.969327262 C6.37499923,1.12022388 6.16658036,1.33965854 5.89022765,1.57735692 C5.08027745,1.00231979 4.35159734,0.61313564 3.88084971,0.387023922 C4.54076092,0.137591595 5.25576093,-8.54871729e-15 6.00300864,-8.54871729e-15 Z" id="Combined-Shape" fill="#000000" fill-rule="nonzero"></path>
    </g>
</svg>