<?xml version="1.0" encoding="UTF-8"?>
<svg width="12px" height="12px" viewBox="0 0 12 12" version="1.1" xmlns="http://www.w3.org/2000/svg" xmlns:xlink="http://www.w3.org/1999/xlink">
    <!-- Generator: Sketch 59 (86127) - https://sketch.com -->
    <title>icons/livebar/cricket</title>
    <desc>Created with Sketch.</desc>
    <g id="icons/livebar/cricket" stroke="none" stroke-width="1" fill="none" fill-rule="evenodd">
        <g id="Group-2" fill-rule="nonzero">
            <g id="cricket">
                <path d="M2.14308713,0.386151726 C2.13333333,0.273689516 2.0785985,0.169921887 1.99109847,0.0982862903 C1.90340909,0.0257056452 1.7903409,-0.00888358065 1.67698863,0.00198462581 L0.398768945,0.12181829 C0.285700752,0.131930444 0.181344703,0.186554952 0.108806812,0.273689516 C0.0361742545,0.360729581 0.00142045576,0.47309729 0.0120265212,0.585843 L0.0723484848,1.22375881 L2.2035985,1.02454006 L2.14308713,0.386151726 Z" id="Path" fill="#000000"></path>
                <path d="M3.16325758,11.9251512 C3.20407198,11.8808279 3.22405304,11.8211001 3.21799244,11.7611832 L3.00397726,9.49322707 C2.03825758,8.29214971 1.88191287,6.63233998 2.6066288,5.27268145 L2.24498107,1.44972278 L0.113731055,1.64903603 L1.07310606,11.8027659 C1.08361743,11.9127709 1.17642046,11.9965978 1.28702652,11.9961272 L3.00596592,11.9961272 C3.06609847,11.9959362 3.12329547,11.9701361 3.16325758,11.9251512 Z" id="Path" fill="#000000"></path>
                <path d="M4.91950759,3.39371221 C5.61789772,3.18929562 6.35994318,3.18693295 7.05956439,3.38709677 L7.0747159,1.53005294 L4.93475379,1.53005294 L4.91950759,3.39371221 Z" id="Path" fill="#000000"></path>
                <path d="M5.51770834,9.06209047 C4.2155303,7.7718939 3.7469697,5.86277722 4.30426136,4.11810106 C4.13948863,4.21118952 3.98285985,4.31788684 3.83579544,4.43696446 C3.80454545,4.54999369 3.77509469,4.66358998 3.75217804,4.77652471 C3.73181818,4.87594505 3.64431818,4.94729712 3.54261362,4.94739165 C3.5283144,4.94739165 3.51392046,4.94597405 3.49981062,4.94313885 C3.45738638,4.93387727 3.4188447,4.91147932 3.38986742,4.87906377 C2.53030303,5.8922631 2.33702652,7.3107989 2.89441287,8.51612903 C3.45179925,9.72155369 4.65871212,10.4952747 5.98892046,10.5 C5.98248107,10.4567162 5.98996213,10.4125819 6.01032196,10.3738344 C6.03768941,10.3242187 6.08371212,10.2874559 6.13825758,10.2716734 C6.19280303,10.2559854 6.25142046,10.2625063 6.30113636,10.289913 C6.40170453,10.3453881 6.50681818,10.3967049 6.61212121,10.4445249 C6.87035985,10.3986895 7.12244318,10.3229902 7.36325758,10.218939 C6.66875001,9.97672002 6.03787879,9.58121221 5.51770834,9.06209047 L5.51770834,9.06209047 Z M3.29204545,6.68989415 C3.24469697,6.39616935 3.22083333,6.09904234 3.22083333,5.8014428 C3.22083333,5.76364038 3.22083333,5.72612148 3.22083333,5.68869706 C3.22708335,5.57254914 3.32244318,5.48106728 3.43910984,5.47936619 C3.49583333,5.48050026 3.54990531,5.50412676 3.58920456,5.54504787 C3.6285985,5.58596901 3.65,5.64078252 3.64876895,5.69748615 L3.64876895,5.8014428 C3.64895833,6.07626639 3.67092802,6.35052293 3.71467804,6.6218498 C3.73342802,6.73818675 3.65416667,6.84781377 3.5375,6.86652595 C3.52613636,6.86841607 3.51458332,6.86936115 3.5030303,6.86936115 C3.39820075,6.86917212 3.30880681,6.79328376 3.29204545,6.68989415 Z M4.25501893,8.65174522 C4.22253789,8.6705519 4.18560606,8.68038053 4.14810606,8.68019421 C4.07149622,8.68038053 4.00056819,8.63964844 3.96231059,8.57339971 C3.79479166,8.2828881 3.65407198,7.97782258 3.54176136,7.66188885 C3.50397726,7.55122229 3.56240531,7.43072707 3.67282196,7.39160156 C3.78333333,7.35257056 3.90473484,7.40946319 3.94517045,7.51918473 C4.04886364,7.81064139 4.17888257,8.09198589 4.33361743,8.35981602 C4.36202652,8.40895916 4.36960228,8.46736391 4.35482955,8.52217742 C4.33996213,8.57689643 4.30397726,8.6235824 4.25464015,8.65174522 L4.25501893,8.65174522 Z M5.5591856,10.0682019 C5.48409091,10.1592112 5.34933712,10.1723475 5.25804924,10.0974042 C5.11770834,9.98229585 4.97992424,9.85820942 4.85037879,9.72835812 C4.74346592,9.62270035 4.64005682,9.50995464 4.54138257,9.39399571 C4.46486742,9.30402595 4.47585227,9.16916584 4.56600378,9.09280495 C4.6561553,9.01644406 4.79119319,9.02740674 4.86770834,9.1173765 C4.95890153,9.22416835 5.05482955,9.32859752 5.15284092,9.42622229 C5.27329547,9.54643398 5.40018938,9.66116431 5.52982955,9.76795616 C5.62083333,9.84289945 5.63371212,9.97728704 5.55880681,10.0682019 L5.5591856,10.0682019 Z" id="Shape" fill="#ED1A33"></path>
                <path d="M8.41420456,9.13656123 C8.50767045,9.15602949 8.60511365,9.16822077 8.70198863,9.18097909 C9.36420456,8.33382687 9.58825758,7.22498739 9.30672349,6.18797252 C9.02518938,5.15086316 8.27092802,4.30654611 7.27073864,3.90877016 L7.26950759,3.90877016 C7.22547348,3.90735256 7.18295455,3.8920426 7.14820075,3.86501385 C6.78058713,3.73393398 6.39318182,3.66645665 6.00284092,3.6657951 C5.92064393,3.6657951 5.83929925,3.67193802 5.75823864,3.67770288 C5.71543561,3.76464844 5.67263258,3.85159401 5.63579544,3.94042969 C5.60729166,4.01121472 5.54308713,4.06149194 5.46742424,4.07226561 C5.39166667,4.08294481 5.31600378,4.05260835 5.26875001,3.99259703 C5.22159091,3.93249119 5.21013258,3.85187753 5.23863636,3.78109248 C5.24270834,3.77088583 5.24763258,3.7610572 5.25189394,3.75075605 C5.11590909,3.78137601 4.98181818,3.8203125 4.85066288,3.8673765 C4.3469697,5.06977696 4.3936553,6.4314201 4.9783144,7.59667969 C5.56297348,8.76193926 6.62755682,9.61495086 7.89393939,9.93277471 C8.05871212,9.82220262 8.21354167,9.69754914 8.35681818,9.56032635 C8.34678032,9.55815271 8.33541668,9.55758569 8.32604167,9.55541204 C8.24943181,9.54151965 8.18645833,9.48736769 8.16145833,9.41374747 C8.13655302,9.34022177 8.15350378,9.25894657 8.20596592,9.2014869 C8.25833333,9.14402722 8.33787879,9.11955015 8.41354167,9.13741181 L8.41420456,9.13656123 Z M4.93276487,5.39979208 L4.93276487,5.37436996 C4.93267045,5.10625631 4.95748107,4.83880418 5.00681818,4.57541584 C5.02869319,4.45945691 5.1405303,4.38309602 5.25672349,4.4048324 C5.37291665,4.42656881 5.44943181,4.53827494 5.42755682,4.65413937 C5.38304924,4.89163306 5.36070075,5.132718 5.36079544,5.37436996 C5.36316288,5.49420363 5.26979166,5.59438004 5.14981062,5.60071195 L5.14678032,5.60071195 C5.09157198,5.6028856 5.0377841,5.58285029 4.99753789,5.54504787 C4.95729166,5.50724545 4.93399622,5.45488911 4.93276487,5.39979208 Z M5.53655302,7.12566155 C5.42736742,7.17064643 5.30227273,7.11895161 5.25700756,7.01008065 C5.15104167,6.75519784 5.07045455,6.4904864 5.01628788,6.21982108 C4.9933712,6.10433468 5.06846592,5.99215599 5.1841856,5.96909652 C5.29981062,5.94594254 5.41240531,6.02060231 5.43589016,6.13589971 C5.4846591,6.37944179 5.55710228,6.61769153 5.65227273,6.84715222 C5.69715908,6.95592869 5.64535985,7.08048765 5.53655302,7.12566155 Z M6.47357954,8.38098537 C6.38958332,8.46386719 6.25416667,8.46311115 6.17102274,8.37928427 C5.97651515,8.18327874 5.80123105,7.96912802 5.64753789,7.73985634 C5.60037879,7.6766318 5.59195076,7.59252143 5.62566288,7.52116935 C5.65937501,7.44991181 5.72973484,7.40284778 5.80861743,7.39897304 C5.88759469,7.39509827 5.9622159,7.43488534 6.00284092,7.50255167 C6.14100378,7.7093309 6.29867423,7.90240674 6.47357954,8.07922756 C6.55700756,8.16258191 6.55700756,8.29763105 6.47357954,8.38098537 Z M7.81392046,9.19250881 C7.79166667,9.24467615 7.74952652,9.28578629 7.69678032,9.30695565 C7.64412878,9.3280305 7.58513258,9.32736895 7.53295455,9.30506552 C7.27840909,9.19657258 7.03503787,9.06350806 6.80643939,8.9078566 C6.7188447,8.83801665 6.70018938,8.71251261 6.76354167,8.62027471 C6.82698863,8.52803681 6.95094696,8.50025202 7.04782196,8.55657762 C7.2533144,8.6967301 7.47215908,8.81637474 7.70113636,8.91381048 C7.8094697,8.96011844 7.85984848,9.08514994 7.81392046,9.19335939 L7.81392046,9.19250881 Z" id="Shape" fill="#ED1A33"></path>
                <path d="M9.3997159,5.2718309 C10.1250947,6.63196195 9.9686553,8.29262223 9.00208335,9.49407762 L8.78702652,11.7611832 C8.78124999,11.8211946 8.80123105,11.8809224 8.84204545,11.9254347 C8.88276514,11.9700416 8.9405303,11.9952747 9.00094696,11.994994 L10.7198864,11.994994 C10.8305871,11.9955582 10.9234848,11.9115423 10.9339015,11.8015373 L11.8923296,1.64922506 L9.76136364,1.45000631 L9.3997159,5.2718309 Z" id="Path" fill="#000000"></path>
                <path d="M11.6069129,0.12181829 L10.3286932,0.00217364032 C10.215625,-0.00907258065 10.1027462,0.0251385968 10.0150568,0.0973412419 C9.92746211,0.169543839 9.87244318,0.273689516 9.86212121,0.38662425 L9.80160984,1.02557964 L11.9325758,1.22489289 L11.9931818,0.586504548 C12.0143939,0.352507548 11.8422349,0.14535029 11.6079545,0.122857863 L11.6069129,0.12181829 Z" id="Path" fill="#000000"></path>
                <path d="M6.57935607,10.8800088 C6.02954545,10.9682775 5.46695076,10.9324597 4.93276514,10.7752961 L4.93276514,11.781502 C4.93276514,11.8994456 5.0285985,11.9949912 5.14678032,11.9949912 L6.85880681,11.9949912 C6.97698863,11.9949912 7.07282196,11.8994456 7.07282196,11.781502 L7.07282196,10.7752961 C6.93143939,10.8152722 6.78787879,10.8471207 6.64289772,10.8705582 C6.62272727,10.8768901 6.60170453,10.8801033 6.58058713,10.8801978 L6.57935607,10.8800088 Z" id="Path" fill="#000000"></path>
                <path d="M7.08315885,0.470923645 C7.08409091,0.357610887 7.03986742,0.248550919 6.96022727,0.167748242 C6.88058713,0.0870400645 6.77206439,0.0411101371 6.65852272,0.0401650645 L5.37452652,0.0301474355 L5.37083333,0.0301474355 C5.13589016,0.0301474355 4.94488635,0.219159532 4.94289772,0.453629032 L4.93797348,1.1028856 L7.07793561,1.1028856 L7.08315885,0.470923645 Z" id="Path" fill="#000000"></path>
            </g>
        </g>
    </g>
</svg>