<?xml version="1.0" encoding="UTF-8"?>
<svg width="12px" height="12px" viewBox="0 0 12 12" version="1.1" xmlns="http://www.w3.org/2000/svg" xmlns:xlink="http://www.w3.org/1999/xlink">
    <!-- Generator: Sketch 59 (86127) - https://sketch.com -->
    <title>icons/livebar/football</title>
    <desc>Created with Sketch.</desc>
    <g id="icons/livebar/football" stroke="none" stroke-width="1" fill="none" fill-rule="evenodd">
        <g id="Group-2">
            <g id="Group-7">
                <rect id="Rectangle" fill="#EBEBEB" opacity="0" x="0" y="0" width="12" height="12"></rect>
                <g id="football-ball" fill="#000000" fill-rule="nonzero">
                    <polygon id="Path" points="6.56600402 5.06110262 8.17122736 2.7637666 6.21785915 0.942277666 3.48994769 1.92330785 3.58075654 4.49420523"></polygon>
                    <polygon id="Path" points="5.52598793 9.71606439 6.99501006 11.2461247 9.56098189 10.1507203 9.98004024 7.88356539 7.43285312 7.56994769"></polygon>
                    <path d="M0.379822938,8.13194366 L0.412249497,8.17163783 C1.28511066,10.3985191 3.45182294,11.976169 5.98812072,11.976169 C9.29538833,11.976169 11.9761932,9.29538833 11.9761932,5.98807243 C11.9761932,2.6809497 9.29536419,0 5.98809658,0 C2.6809497,0 0,2.68111871 0,5.98807243 C0,6.72854728 0.135307847,7.43739235 0.381126761,8.09217706 L0.379822938,8.13194366 Z M0.312193159,5.98807243 C0.312193159,5.23185513 0.462108652,4.51030986 0.731830986,3.84970624 L2.14833803,2.09222535 L2.51548491,1.50350101 C3.47625755,0.75783501 4.68079678,0.312217304 5.98831388,0.312217304 C6.0197505,0.312217304 6.05068008,0.314148893 6.08230986,0.314486922 L6.71577465,0.547822938 L8.112,0.725987928 C9.00606036,1.08820926 9.78806439,1.67125956 10.3891509,2.40818511 L10.1566358,3.42062777 L11.073996,6.00770221 L11.6600402,6.15614487 C11.5700523,9.20849095 9.06159356,11.6637344 5.98828974,11.6637344 C4.45810865,11.6637344 3.06854728,11.0541489 2.04666398,10.066334 L3.14829779,9.12004829 L2.09695775,6.4101006 L0.452016097,5.84354125 L0.413987928,7.05191952 C0.348169014,6.70737223 0.312193159,6.35195976 0.312193159,5.98807243 Z" id="Shape"></path>
                </g>
            </g>
        </g>
    </g>
</svg>