<?xml version="1.0" encoding="UTF-8"?>
<svg width="12px" height="12px" viewBox="0 0 12 12" version="1.1" xmlns="http://www.w3.org/2000/svg" xmlns:xlink="http://www.w3.org/1999/xlink">
    <!-- Generator: Sketch 59 (86127) - https://sketch.com -->
    <title>icons/livebar/tennis</title>
    <desc>Created with Sketch.</desc>
    <g id="icons/livebar/tennis" stroke="none" stroke-width="1" fill="none" fill-rule="evenodd">
        <g id="tennis-ball" fill="#010002" fill-rule="nonzero">
            <path d="M5.42809756,0.0231219512 C4.08790244,0.148097561 2.77960976,0.72497561 1.75141463,1.75258537 C0.723219512,2.77990244 0.146926829,4.08819512 0.0222439024,5.43014634 C1.49385366,5.60078049 3.05853659,6.35297561 4.34312195,7.63756098 C5.62829268,8.92243902 6.38136585,10.4882927 6.55053659,11.9587317 C7.89453659,11.8340488 9.19960976,11.2574634 10.2286829,10.230439 C11.2565854,9.20341463 11.8322927,7.89453659 11.9563902,6.55287805 C10.4882927,6.38253659 8.92097561,5.63034146 7.63639024,4.34546341 C6.35268293,3.06087805 5.59960976,1.49473171 5.42809756,0.0231219512 Z" id="Path"></path>
            <path d="M11.9803902,5.8097561 C11.9367805,4.33609756 11.3537561,2.87619512 10.230439,1.75141463 C9.10653659,0.626634146 7.64487805,0.0456585366 6.17121951,0 C6.33687805,1.28692683 7.02029268,2.66985366 8.16585366,3.81570732 C9.31141463,4.96156098 10.6925854,5.64380488 11.9803902,5.8097561 Z" id="Path"></path>
            <path d="M0.000292682927,6.17268293 C0.0436097561,7.6457561 0.626926829,9.10595122 1.75141463,10.2301463 C2.87502439,11.3537561 4.33492683,11.9376585 5.80829268,11.9803902 C5.64263415,10.6952195 4.96009756,9.31317073 3.81395122,8.16731707 C2.66897561,7.02204878 1.28634146,6.3395122 0.000292682927,6.17268293 Z" id="Path"></path>
        </g>
    </g>
</svg>