<?xml version="1.0" encoding="UTF-8"?>
<svg width="50px" height="50px" viewBox="0 0 50 50" version="1.1" xmlns="http://www.w3.org/2000/svg" xmlns:xlink="http://www.w3.org/1999/xlink">
    <!-- Generator: Sketch 54.1 (76490) - https://sketchapp.com -->
    <title>Artboard</title>
    <desc>Created with Sketch.</desc>
    <g id="Artboard" stroke="none" stroke-width="1" fill="none" fill-rule="evenodd">
        <g id="whatsapp" transform="translate(1.000000, 1.000000)" fill-rule="nonzero">
            <path d="M24.006,0 L23.994,0 L23.994,0 C10.761,0 0,10.764 0,24 C0,29.25 1.692,34.116 4.569,38.067 L1.578,46.983 L10.803,44.034 C14.598,46.548 19.125,48 24.006,48 C37.239,48 48,37.233 48,24 C48,10.767 37.239,0 24.006,0 Z" id="Path" stroke="#FEFEFE" stroke-width="2" fill="#25D366"></path>
            <path d="M37.971,33.891 C37.392,35.526 35.094,36.882 33.261,37.278 C32.007,37.545 30.369,37.758 24.855,35.472 C17.802,32.55 13.26,25.383 12.906,24.918 C12.567,24.453 10.056,21.123 10.056,17.679 C10.056,14.235 11.805,12.558 12.51,11.838 C13.089,11.247 14.046,10.977 14.964,10.977 C15.261,10.977 15.528,10.992 15.768,11.004 C16.473,11.034 16.827,11.076 17.292,12.189 C17.871,13.584 19.281,17.028 19.449,17.382 C19.62,17.736 19.791,18.216 19.551,18.681 C19.326,19.161 19.128,19.374 18.774,19.782 C18.42,20.19 18.084,20.502 17.73,20.94 C17.406,21.321 17.04,21.729 17.448,22.434 C17.856,23.124 19.266,25.425 21.342,27.273 C24.021,29.658 26.193,30.42 26.97,30.744 C27.549,30.984 28.239,30.927 28.662,30.477 C29.199,29.898 29.862,28.938 30.537,27.993 C31.017,27.315 31.623,27.231 32.259,27.471 C32.907,27.696 36.336,29.391 37.041,29.742 C37.746,30.096 38.211,30.264 38.382,30.561 C38.55,30.858 38.55,32.253 37.971,33.891 Z" id="Path" fill="#FEFEFE"></path>
        </g>
    </g>
</svg>