<?xml version="1.0" encoding="UTF-8"?>
<svg width="32px" height="32px" viewBox="0 0 32 32" version="1.1" xmlns="http://www.w3.org/2000/svg" xmlns:xlink="http://www.w3.org/1999/xlink">
    <!-- Generator: Sketch 55.2 (78181) - https://sketchapp.com -->
    <title>card_green</title>
    <desc>Created with Sketch.</desc>
    <g id="card_green" stroke="none" stroke-width="1" fill="none" fill-rule="evenodd">
        <g id="amonestation" transform="translate(7.000000, 2.000000)">
            <path d="M1.41176471,0 L11.7647059,0 C12.5443474,0 13.1764706,0.625552249 13.1764706,1.3970894 L13.1764706,17.2307692 C13.1764706,18.0023064 12.5443474,18.6278586 11.7647059,18.6278586 L1.41176471,18.6278586 C0.632123176,18.6278586 0,18.0023064 0,17.2307692 L0,1.3970894 C0,0.625552249 0.632123176,0 1.41176471,0 Z" id="Path" stroke="#68B00C" fill="#6EC611"></path>
            <path d="M17.8777574,19.9317178 C17.5059742,16.9560811 14.1364889,14.7858628 13.1764706,14.2223882 L13.1764706,17.2307692 C13.1741728,18.0013968 12.5434283,18.6255847 11.7647059,18.6278586 L10.8235294,18.6278586 C10.0438879,18.6278586 9.41176471,18.0023064 9.41176471,17.2307692 L9.41176471,13.6052495 C9.43244482,12.3812045 8.51746324,11.3386175 7.28998165,11.1874026 C6.62867647,11.1228236 5.970818,11.3379353 5.47863053,11.7793009 C4.986443,12.220894 4.70565259,12.8478105 4.70588221,13.5051975 L4.70588221,18.1621622 C4.70588221,18.1999091 4.71070771,18.2374285 4.72012871,18.2740385 L7.07306988,27.5879678 C7.12477024,27.7955756 7.31318935,27.9415606 7.52941176,27.9418188 L16,27.9418188 C16.1778493,27.9438344 16.3409926,27.8440098 16.4188879,27.6857458 C16.4988511,27.5272544 18.3623621,23.7878119 17.8777574,19.9317178 Z" id="Path" fill="#000000" fill-rule="nonzero"></path>
        </g>
    </g>
</svg>