<?xml version="1.0" encoding="UTF-8" standalone="no"?>
<!DOCTYPE svg PUBLIC "-//W3C//DTD SVG 1.1//EN" "http://www.w3.org/Graphics/SVG/1.1/DTD/svg11.dtd">
<svg width="100%" height="100%" viewBox="0 0 1080 1080" version="1.1" xmlns="http://www.w3.org/2000/svg" xmlns:xlink="http://www.w3.org/1999/xlink" xml:space="preserve" xmlns:serif="http://www.serif.com/" style="fill-rule:evenodd;clip-rule:evenodd;stroke-linecap:round;stroke-linejoin:round;stroke-miterlimit:1.5;">
    <g transform="matrix(1,0,0,1,-1.02888,-1277.07)">
        <g id="no_data_kabaddi_1" transform="matrix(1,0,0,1,1.02888,1277.07)">
            <rect x="0" y="0" width="1080" height="1080" style="fill:none;"/>
            <g transform="matrix(1,0,0,1,-26.4929,-8.58315)">
                <g>
                    <g transform="matrix(-1,0,-0.159364,1,1311.17,-1277.07)">
                        <path d="M813.468,2181.22L689.829,2181.22L669.79,2098.37L593.713,2098.37L711.505,1452.91L813.468,2181.22Z" style="fill:none;stroke:rgb(186,186,186);stroke-width:6.93px;"/>
                    </g>
                    <g transform="matrix(-1,0,-0.159364,1,1311.17,-1277.07)">
                        <path d="M772.128,2114.08C772.341,2115.77 771.712,2117.59 770.43,2118.99C769.147,2120.4 767.358,2121.22 765.6,2121.22C751.548,2121.22 721.553,2121.22 711.086,2121.22C708.845,2121.22 707.031,2119.89 706.476,2117.83C703.184,2105.61 691.966,2063.98 688.674,2051.76C688.119,2049.7 686.305,2048.37 684.064,2048.37C670.568,2048.37 623.876,2048.37 607.451,2048.37C605.936,2048.37 604.584,2047.76 603.701,2046.67C602.819,2045.58 602.482,2044.12 602.767,2042.6C613.415,1986.06 698.756,1532.91 698.756,1532.91C698.756,1532.91 763.681,2047.17 772.128,2114.08Z" style="fill:rgb(186,186,186);"/>
                    </g>
                    <g transform="matrix(1,0,0.159364,1,-26.6201,0)">
                        <g transform="matrix(0.20191,0,0,0.20191,423.819,97.1761)">
                            <path d="M276.69,1602.01C272.557,1604.53 269.128,1607.66 266.891,1611.85C266.891,1611.85 232.698,1610.72 221.821,1610.36C219.644,1610.28 217.421,1610.49 215.208,1610.98C212.912,1611.48 210.275,1612.06 210.275,1612.06C199.537,1605.82 187.525,1599.67 173.949,1593.61C182.236,1561.95 194.743,1531.6 208.519,1501.66L219.494,1489.97C238.489,1489.05 253.984,1478.43 267.159,1461.39C267.865,1458.56 267.078,1456.65 264.65,1455.76C264.65,1455.76 267.522,1451.31 268.765,1449.38C269.307,1448.54 269.502,1447.58 269.304,1446.71C268.632,1443.96 267.199,1442.65 265.004,1442.57C262.813,1442.5 260.547,1443.45 258.883,1445.16C255.853,1448.28 248.805,1455.52 245.254,1459.17C244.696,1459.74 243.96,1460.11 243.214,1460.17C242.467,1460.24 241.773,1460 241.289,1459.52C241.288,1459.52 241.288,1459.52 241.287,1459.52C240.185,1458.42 240.129,1456.59 241.152,1455.1C243.797,1451.24 248.844,1443.89 252.026,1439.26C252.745,1438.21 253.014,1436.98 252.764,1435.88C252.514,1434.77 251.769,1433.9 250.721,1433.5C250.72,1433.5 250.719,1433.5 250.718,1433.5C248.115,1432.5 244.914,1433.16 242.48,1435.21C240.945,1436.5 239.208,1437.97 237.739,1439.2C235.705,1440.92 233.014,1441.42 230.891,1440.48C230.889,1440.48 230.887,1440.48 230.884,1440.48C228.83,1439.58 226.196,1440.21 224.391,1442.05C222.829,1443.63 221.249,1445.24 221.249,1445.24C221.249,1445.24 218.992,1444.97 216.603,1444.68C211.886,1444.11 206.853,1445.23 202.359,1447.83C191.599,1454.05 185.174,1463.07 183.704,1475.37C177.383,1479.91 172.838,1486.15 171.884,1496.17C151.8,1523.37 135.861,1548.69 122.64,1575.02C111.315,1597.94 116.199,1623.14 134.489,1636.17C161.132,1655.56 190.412,1667.99 220.303,1676.71C305.046,1726.56 340.675,1830.53 426.049,1878.84C431.102,1868.96 437.811,1860.47 447.41,1854.38C456.32,1857.59 464.796,1862.27 471.593,1872.56C501.707,1900.52 506.663,1987.9 554.477,2042.55C557.639,2062.88 572.414,2076.48 592.893,2086.77C629.46,2128.66 695.348,2151.36 722.932,2192.06C733.136,2207.12 684.035,2218.89 659.563,2219.84C635.841,2220.76 652.103,2246.98 669.546,2245.58L782.987,2238.77C782.987,2238.77 782.99,2238.77 782.995,2238.77C788.175,2237.57 792.953,2234.35 796.191,2229.89C799.429,2225.42 800.835,2220.11 800.075,2215.22C799.672,2212.62 799.393,2210.82 799.393,2210.82C779.968,2181.17 761.397,2161.57 743.577,2150.81C720.496,2124.42 684.746,2072.1 624.645,2041.97C601.109,1976 623.448,1889.36 613.219,1810.76C653.112,1751.87 711.712,1693.84 763.86,1642.09C824.366,1582.04 878.041,1531.36 913.032,1511.96L923.858,1509.33C944.928,1491.1 968.592,1445.54 969.284,1424.69C969.916,1405.64 958.302,1391.16 940.019,1384.97C933.763,1382.85 925.444,1398.38 918.215,1416.54C907.479,1443.33 890.327,1468.03 868.392,1488.27C868.492,1488.38 868.492,1488.38 868.492,1488.38L857.504,1497.46C816.814,1515.45 783.29,1538.89 756.208,1567.24C739.831,1584.3 721.706,1599.63 702.232,1612.91C700.763,1614.53 699.722,1615.24 699.722,1615.24C646.668,1633.68 599.539,1661.07 554.782,1692.04L529.897,1696.11L492.104,1651.69L492.436,1644.82C492.436,1644.82 491.319,1643.8 489.414,1642.07C457.845,1613.32 418.046,1594.2 373.734,1586.5C373.734,1586.5 373.733,1586.5 373.733,1586.5L373.865,1576.6C373.409,1569.6 368.79,1560.67 362.274,1550.86C362.112,1542.13 358.912,1534.13 352.945,1526.79C352.945,1526.79 352.945,1526.79 352.944,1526.79C352.224,1517.61 346.977,1510.03 338.837,1506.41C318.059,1497.13 295.605,1496.31 270.524,1508.44C259.548,1519.33 254.235,1530.54 254.079,1542.03C253.774,1564.45 263.146,1582.86 276.69,1602.01Z" style="fill:rgb(186,186,186);"/>
                        </g>
                        <g transform="matrix(1,0,-0.159364,1,254.235,-1268.48)">
                            <path d="M666.296,1752.41L666.306,1752.79L666.315,1753.17L666.322,1753.55L666.329,1753.92L666.334,1754.3L666.337,1754.67L666.34,1755.05L666.341,1755.42L666.342,1755.8L666.341,1756.17L666.338,1756.54L666.335,1756.9L666.33,1757.27L666.324,1757.64L666.317,1758.01L666.309,1758.37L666.3,1758.73L666.289,1759.1L666.277,1759.46L666.264,1759.82L666.25,1760.18L666.234,1760.54L666.218,1760.89L666.2,1761.25L666.181,1761.61L666.16,1761.96L666.139,1762.31L666.116,1762.67L666.092,1763.02L666.067,1763.37L666.041,1763.72L666.013,1764.06L665.984,1764.41L665.954,1764.76L665.923,1765.1L665.891,1765.45L665.857,1765.79L665.822,1766.13L665.786,1766.47L665.749,1766.81L665.711,1767.15L665.671,1767.49L665.63,1767.83L665.588,1768.16L665.545,1768.5L665.5,1768.83L665.455,1769.16L665.408,1769.49L665.36,1769.82L665.31,1770.15L665.26,1770.48L665.208,1770.81L665.155,1771.13L665.101,1771.46L665.045,1771.78L664.989,1772.11L664.931,1772.43L664.872,1772.75L664.812,1773.07L664.75,1773.39L664.688,1773.71L664.624,1774.03L664.559,1774.34L664.493,1774.66L664.425,1774.97L664.356,1775.28L664.287,1775.6L664.215,1775.91L664.143,1776.22L664.07,1776.52L663.995,1776.83L663.919,1777.14L663.842,1777.44L663.763,1777.75L663.684,1778.05L663.603,1778.36L663.521,1778.66L663.437,1778.96L663.353,1779.26L663.267,1779.56L663.18,1779.85L663.092,1780.15L663.003,1780.45L662.912,1780.74L662.82,1781.03L662.727,1781.33L662.633,1781.62L662.538,1781.91L662.441,1782.2L662.343,1782.49L662.244,1782.77L662.144,1783.06L662.042,1783.35L661.939,1783.63L661.835,1783.91L661.73,1784.19L661.624,1784.48L661.516,1784.76L661.407,1785.04L661.297,1785.31L661.186,1785.59L661.073,1785.87L660.959,1786.14L660.844,1786.42L660.728,1786.69L660.611,1786.96L660.492,1787.23L660.372,1787.5L660.251,1787.77L660.129,1788.04L660.005,1788.31L659.88,1788.57L659.754,1788.84L659.627,1789.1L659.499,1789.36L659.369,1789.62L659.238,1789.89L659.106,1790.15L658.972,1790.4L658.838,1790.66L658.702,1790.92L658.565,1791.17L658.426,1791.43L658.287,1791.68L658.146,1791.93L658.004,1792.19L657.861,1792.44L657.717,1792.69L657.571,1792.93L657.424,1793.18L657.276,1793.43L657.126,1793.67L656.976,1793.92L656.824,1794.16L656.671,1794.4L656.517,1794.64L656.361,1794.89L656.204,1795.12L656.046,1795.36L655.887,1795.6L655.727,1795.84L655.565,1796.07L655.402,1796.31L655.238,1796.54L655.073,1796.77L654.906,1797L654.738,1797.23L654.569,1797.46L654.399,1797.69L654.228,1797.91L654.055,1798.14L653.881,1798.36L653.706,1798.59L653.529,1798.81L653.352,1799.03L653.173,1799.25L652.993,1799.47L652.812,1799.69L652.629,1799.91L652.445,1800.12L652.26,1800.34L652.074,1800.55L651.887,1800.77L651.698,1800.98L651.508,1801.19L651.317,1801.4L651.125,1801.61L650.931,1801.82L650.736,1802.02L650.54,1802.23L650.343,1802.43L650.145,1802.64L649.945,1802.84L649.744,1803.04L649.542,1803.24L649.339,1803.44L649.134,1803.64L648.929,1803.84L648.722,1804.03L648.514,1804.23L648.304,1804.42L648.094,1804.62L647.882,1804.81L647.669,1805L647.455,1805.19L647.239,1805.38L647.023,1805.57L646.805,1805.75L646.586,1805.94L646.365,1806.12L646.144,1806.31L645.921,1806.49L645.697,1806.67L645.472,1806.85L645.246,1807.03L645.018,1807.21L644.79,1807.38L644.56,1807.56L644.329,1807.74L644.097,1807.91L643.863,1808.08L643.628,1808.26L643.392,1808.43L643.155,1808.6L642.917,1808.77L642.678,1808.93L642.437,1809.1L642.195,1809.26L641.952,1809.43L641.708,1809.59L641.462,1809.75L641.216,1809.91L640.968,1810.08L640.719,1810.23L640.469,1810.39L640.217,1810.55L639.965,1810.7L639.711,1810.86L639.456,1811.01L639.2,1811.17L638.943,1811.32L638.685,1811.47L638.425,1811.62L638.164,1811.77L637.902,1811.91L637.639,1812.06L637.375,1812.2L637.109,1812.35L636.843,1812.49L636.575,1812.63L636.306,1812.77L636.035,1812.91L635.764,1813.05L635.492,1813.19L635.218,1813.33L634.943,1813.46L634.667,1813.6L634.39,1813.73L634.112,1813.86L633.832,1813.99L633.551,1814.12L633.27,1814.25L632.987,1814.38L632.702,1814.51L632.417,1814.63L632.131,1814.76L631.843,1814.88L631.554,1815L631.264,1815.13L630.973,1815.25L630.681,1815.37L630.388,1815.48L630.093,1815.6L629.797,1815.72L629.505,1815.83L629.495,1815.84L627.977,1815.76L626.949,1814.63L626.943,1814.62L627.021,1813.1L628.142,1812.07L628.151,1812.07L628.441,1811.97L628.726,1811.88L629.009,1811.78L629.291,1811.68L629.573,1811.58L629.853,1811.48L630.132,1811.38L630.41,1811.28L630.687,1811.18L630.963,1811.08L631.237,1810.97L631.511,1810.87L631.784,1810.76L632.055,1810.65L632.326,1810.54L632.595,1810.43L632.863,1810.32L633.131,1810.21L633.397,1810.1L633.662,1809.98L633.926,1809.87L634.189,1809.75L634.451,1809.63L634.712,1809.52L634.971,1809.39L635.23,1809.28L635.488,1809.15L635.744,1809.03L636,1808.91L636.254,1808.78L636.507,1808.66L636.759,1808.53L637.011,1808.4L637.261,1808.27L637.51,1808.14L637.758,1808.01L638.005,1807.88L638.25,1807.75L638.495,1807.61L638.739,1807.48L638.982,1807.34L639.223,1807.2L639.464,1807.07L639.703,1806.93L639.941,1806.79L640.179,1806.64L640.415,1806.5L640.65,1806.36L640.884,1806.21L641.117,1806.07L641.349,1805.92L641.58,1805.77L641.81,1805.62L642.039,1805.47L642.267,1805.32L642.493,1805.17L642.719,1805.02L642.944,1804.86L643.167,1804.71L643.39,1804.55L643.611,1804.39L643.831,1804.23L644.051,1804.07L644.269,1803.91L644.486,1803.75L644.702,1803.59L644.917,1803.42L645.131,1803.26L645.344,1803.09L645.556,1802.92L645.767,1802.76L645.977,1802.59L646.186,1802.42L646.393,1802.24L646.6,1802.07L646.806,1801.9L647.01,1801.72L647.214,1801.55L647.416,1801.37L647.617,1801.19L647.818,1801.01L648.017,1800.83L648.215,1800.65L648.412,1800.47L648.608,1800.28L648.803,1800.1L648.997,1799.91L649.19,1799.73L649.382,1799.54L649.573,1799.35L649.763,1799.16L649.952,1798.97L650.139,1798.77L650.326,1798.58L650.512,1798.39L650.696,1798.19L650.88,1797.99L651.062,1797.8L651.243,1797.6L651.424,1797.39L651.603,1797.19L651.781,1796.99L651.958,1796.79L652.134,1796.58L652.31,1796.38L652.484,1796.17L652.656,1795.96L652.828,1795.75L652.999,1795.54L653.169,1795.33L653.338,1795.12L653.505,1794.9L653.672,1794.69L653.837,1794.47L654.002,1794.26L654.165,1794.04L654.328,1793.82L654.489,1793.6L654.649,1793.38L654.809,1793.15L654.967,1792.93L655.124,1792.7L655.28,1792.48L655.435,1792.25L655.589,1792.02L655.741,1791.79L655.893,1791.56L656.044,1791.33L656.193,1791.1L656.342,1790.86L656.49,1790.63L656.636,1790.39L656.781,1790.15L656.926,1789.91L657.069,1789.67L657.211,1789.43L657.352,1789.19L657.492,1788.95L657.631,1788.7L657.769,1788.46L657.906,1788.21L658.041,1787.96L658.176,1787.71L658.31,1787.46L658.442,1787.21L658.574,1786.96L658.704,1786.7L658.833,1786.45L658.961,1786.19L659.089,1785.94L659.215,1785.68L659.34,1785.42L659.463,1785.16L659.586,1784.9L659.708,1784.63L659.829,1784.37L659.948,1784.1L660.067,1783.84L660.184,1783.57L660.3,1783.3L660.415,1783.03L660.529,1782.76L660.642,1782.49L660.754,1782.21L660.865,1781.94L660.975,1781.66L661.084,1781.38L661.191,1781.11L661.298,1780.83L661.403,1780.55L661.507,1780.27L661.61,1779.98L661.712,1779.7L661.813,1779.41L661.913,1779.13L662.012,1778.84L662.11,1778.55L662.206,1778.26L662.302,1777.97L662.396,1777.68L662.489,1777.38L662.582,1777.09L662.673,1776.79L662.763,1776.5L662.851,1776.2L662.939,1775.9L663.026,1775.6L663.111,1775.3L663.196,1774.99L663.279,1774.69L663.361,1774.38L663.442,1774.08L663.522,1773.77L663.601,1773.46L663.679,1773.15L663.755,1772.84L663.831,1772.53L663.905,1772.22L663.978,1771.9L664.05,1771.59L664.121,1771.27L664.191,1770.95L664.26,1770.63L664.328,1770.31L664.394,1769.99L664.46,1769.67L664.524,1769.34L664.587,1769.02L664.649,1768.69L664.71,1768.36L664.77,1768.04L664.829,1767.7L664.886,1767.37L664.942,1767.04L664.998,1766.71L665.052,1766.37L665.105,1766.04L665.157,1765.7L665.208,1765.36L665.257,1765.02L665.306,1764.68L665.353,1764.34L665.399,1764L665.444,1763.65L665.488,1763.31L665.531,1762.96L665.573,1762.62L665.613,1762.27L665.653,1761.92L665.691,1761.57L665.728,1761.21L665.764,1760.86L665.799,1760.51L665.833,1760.15L665.865,1759.79L665.897,1759.43L665.927,1759.08L665.956,1758.72L665.984,1758.35L666.011,1757.99L666.037,1757.63L666.061,1757.26L666.085,1756.89L666.107,1756.53L666.128,1756.16L666.148,1755.79L666.167,1755.42L666.185,1755.05L666.202,1754.67L666.217,1754.3L666.231,1753.92L666.244,1753.55L666.256,1753.17L666.267,1752.79L666.277,1752.41L666.285,1752.03L666.296,1752.41Z" style="fill:rgb(186,186,186);"/>
                        </g>
                        <g transform="matrix(0.924679,0.258819,-0.412753,0.965926,711.119,-1347.05)">
                            <path d="M510.619,1667.21L510.619,1669.6L508.266,1669.6L508.266,1667.21L510.619,1667.21ZM511.619,1652.07L510.619,1666.06L508.266,1666.06L507.266,1652.07L511.619,1652.07Z" style="fill:rgb(186,186,186);"/>
                        </g>
                        <g transform="matrix(1,0,-0.159364,1,255.22,-1270.9)">
                            <path d="M623.465,1640.72L623.565,1640.72L623.615,1640.72L623.665,1640.72L623.765,1640.73L623.864,1640.74L623.964,1640.74L624.064,1640.75L624.164,1640.76L624.263,1640.77L624.363,1640.78L624.463,1640.79L624.562,1640.81L624.662,1640.82L624.761,1640.83L624.861,1640.85L624.96,1640.87L625.059,1640.88L625.159,1640.9L625.258,1640.92L625.292,1640.92L625.356,1640.94L625.454,1640.96L625.554,1640.98L625.749,1641.03L625.944,1641.08L626.139,1641.14L626.333,1641.2L626.526,1641.26L626.719,1641.32L626.911,1641.39L626.976,1641.41L627.101,1641.46L627.289,1641.54L627.476,1641.62L627.662,1641.7L627.848,1641.79L628.032,1641.88L628.215,1641.97L628.397,1642.06L628.567,1642.15L628.578,1642.16L628.755,1642.26L628.931,1642.37L629.105,1642.48L629.278,1642.59L629.301,1642.61L629.448,1642.71L629.616,1642.83L629.783,1642.95L629.948,1643.07L629.983,1643.1L630.109,1643.2L630.267,1643.34L630.424,1643.47L630.58,1643.61L630.659,1643.68L630.732,1643.75L630.881,1643.89L631.028,1644.04L631.173,1644.19L631.316,1644.34L631.36,1644.38L631.455,1644.49L631.592,1644.65L631.726,1644.81L631.858,1644.97L631.989,1645.13L632.117,1645.29L632.243,1645.46L632.368,1645.62L632.49,1645.79L632.61,1645.96L632.721,1646.12L632.728,1646.13L632.841,1646.3L632.952,1646.48L633.061,1646.66L633.167,1646.83L633.271,1647.01L633.373,1647.19L633.473,1647.37L633.571,1647.56L633.666,1647.74L633.759,1647.92L633.85,1648.11L633.872,1648.15L633.937,1648.3L634.021,1648.48L634.103,1648.67L634.182,1648.86L634.259,1649.05L634.333,1649.24L634.405,1649.43L634.475,1649.63L634.542,1649.82L634.607,1650.01L634.67,1650.21L634.696,1650.29L634.728,1650.4L634.784,1650.6L634.836,1650.79L634.886,1650.99L634.934,1651.19L634.979,1651.38L635.021,1651.58L635.061,1651.78L635.099,1651.98L635.133,1652.17L635.165,1652.37L635.195,1652.57L635.222,1652.77L635.246,1652.96L635.267,1653.16L635.286,1653.36L635.302,1653.55L635.315,1653.75L635.326,1653.95L635.327,1653.98L635.332,1654.14L635.336,1654.34L635.336,1654.54L635.334,1654.73L635.329,1654.93L635.321,1655.12L635.311,1655.31L635.302,1655.44L635.297,1655.51L635.285,1655.44L635.264,1655.32L635.229,1655.13L635.191,1654.94L635.15,1654.75L635.107,1654.56L635.061,1654.38L635.013,1654.19L634.969,1654.03L634.962,1654L634.911,1653.82L634.857,1653.64L634.8,1653.45L634.741,1653.27L634.68,1653.09L634.616,1652.91L634.55,1652.73L634.482,1652.55L634.411,1652.38L634.338,1652.2L634.263,1652.03L634.186,1651.85L634.106,1651.68L634.025,1651.51L633.941,1651.34L633.855,1651.17L633.767,1651L633.678,1650.83L633.625,1650.74L633.587,1650.66L633.495,1650.5L633.401,1650.33L633.306,1650.17L633.209,1650.01L633.109,1649.85L633.008,1649.69L632.905,1649.53L632.8,1649.38L632.694,1649.22L632.586,1649.07L632.503,1648.95L632.476,1648.91L632.367,1648.76L632.256,1648.61L632.143,1648.46L632.029,1648.32L631.913,1648.17L631.795,1648.03L631.676,1647.88L631.556,1647.74L631.434,1647.6L631.31,1647.46L631.185,1647.33L631.178,1647.32L631.062,1647.19L630.937,1647.06L630.811,1646.92L630.684,1646.79L630.555,1646.66L630.425,1646.53L630.294,1646.41L630.161,1646.28L630.027,1646.16L629.892,1646.04L629.798,1645.96L629.757,1645.92L629.623,1645.8L629.487,1645.68L629.351,1645.57L629.213,1645.45L629.146,1645.4L629.076,1645.34L628.939,1645.23L628.801,1645.12L628.662,1645.01L628.551,1644.92L628.522,1644.9L628.384,1644.79L628.245,1644.68L628.104,1644.58L627.981,1644.49L627.963,1644.47L627.822,1644.37L627.681,1644.27L627.538,1644.17L627.394,1644.07L627.385,1644.06L627.252,1643.97L627.108,1643.87L626.963,1643.78L626.817,1643.68L626.67,1643.59L626.522,1643.5L626.373,1643.41L626.222,1643.33L626.122,1643.27L626.071,1643.25L625.921,1643.16L625.769,1643.08L625.616,1643L625.462,1642.92L625.306,1642.84L625.15,1642.77L624.99,1642.7L624.912,1642.67L624.833,1642.63L624.781,1642.61L624.753,1642.6L624.674,1642.56L624.594,1642.53L624.513,1642.5L624.433,1642.47L624.352,1642.43L624.271,1642.4L624.189,1642.37L624.107,1642.34L624.025,1642.31L623.943,1642.28L623.86,1642.26L623.777,1642.23L623.694,1642.2L623.61,1642.18L623.526,1642.15L623.442,1642.13L623.4,1642.12L623.357,1642.1L623.272,1642.08L623.187,1642.05L623.102,1642.03L623.016,1642.01L622.93,1641.98L622.844,1641.96L622.757,1641.94L622.67,1641.92L622.583,1641.9L622.495,1641.88L622.407,1641.87L622.319,1641.85L622.23,1641.83L622.141,1641.82L622.051,1641.8L621.962,1641.79L621.871,1641.78L621.781,1641.76L621.69,1641.75L621.599,1641.74L621.508,1641.73L621.416,1641.72L621.324,1641.71L621.231,1641.71L621.138,1641.7L621.045,1641.69L620.952,1641.69L620.858,1641.68L620.764,1641.68L620.745,1641.68L620.669,1641.68L620.574,1641.67L620.478,1641.67L620.383,1641.67L620.286,1641.67L620.19,1641.67L620.093,1641.67L619.996,1641.67L619.898,1641.68L619.8,1641.68L619.702,1641.69L619.603,1641.69L619.505,1641.7L619.405,1641.71L619.306,1641.72L619.206,1641.73L619.105,1641.74L619.005,1641.75L618.904,1641.76L618.802,1641.78L618.756,1641.78L618.701,1641.79L618.751,1641.77L618.793,1641.74L618.885,1641.7L618.978,1641.66L619.071,1641.61L619.165,1641.57L619.258,1641.53L619.352,1641.49L619.446,1641.45L619.541,1641.41L619.635,1641.38L619.73,1641.34L619.825,1641.31L619.921,1641.27L620.016,1641.24L620.112,1641.21L620.208,1641.18L620.304,1641.15L620.4,1641.12L620.497,1641.09L620.594,1641.06L620.671,1641.04L620.691,1641.04L620.788,1641.01L620.886,1640.99L620.984,1640.97L621.082,1640.95L621.18,1640.93L621.278,1640.91L621.376,1640.89L621.475,1640.87L621.573,1640.86L621.672,1640.84L621.771,1640.83L621.87,1640.81L621.969,1640.8L622.068,1640.79L622.167,1640.78L622.266,1640.77L622.366,1640.76L622.465,1640.75L622.565,1640.74L622.665,1640.74L622.764,1640.73L622.864,1640.73L622.964,1640.72L623.064,1640.72L623.164,1640.72L623.264,1640.72L623.364,1640.72L623.465,1640.72Z" style="fill:rgb(186,186,186);"/>
                        </g>
                        <g transform="matrix(0.988202,0.0619706,-0.221029,0.998078,372.212,-1313.45)">
                            <path d="M622.764,1640.73L622.864,1640.73L622.964,1640.72L623.064,1640.72L623.164,1640.72L623.264,1640.72L623.364,1640.72L623.465,1640.72L623.565,1640.72L623.615,1640.72L623.665,1640.72L623.765,1640.73L623.864,1640.74L623.964,1640.74L624.064,1640.75L624.164,1640.76L624.263,1640.77L624.363,1640.78L624.463,1640.79L624.562,1640.81L624.662,1640.82L624.761,1640.83L624.861,1640.85L624.96,1640.87L625.059,1640.88L625.159,1640.9L625.258,1640.92L625.292,1640.92L625.356,1640.94L625.454,1640.96L625.554,1640.98L625.749,1641.03L625.944,1641.08L626.139,1641.14L626.333,1641.2L626.526,1641.26L626.719,1641.32L626.911,1641.39L626.976,1641.41L627.101,1641.46L627.289,1641.54L627.476,1641.62L627.662,1641.7L627.848,1641.79L628.032,1641.88L628.215,1641.97L628.397,1642.06L628.567,1642.15L628.578,1642.16L628.755,1642.26L628.931,1642.37L629.105,1642.48L629.278,1642.59L629.301,1642.61L629.448,1642.71L629.616,1642.83L629.783,1642.95L629.948,1643.07L629.983,1643.1L630.109,1643.2L630.267,1643.34L630.424,1643.47L630.58,1643.61L630.659,1643.68L630.732,1643.75L630.881,1643.89L631.028,1644.04L631.173,1644.19L631.316,1644.34L631.36,1644.38L631.455,1644.49L631.592,1644.65L631.726,1644.81L631.858,1644.97L631.989,1645.13L632.117,1645.29L632.243,1645.46L632.368,1645.62L632.49,1645.79L632.61,1645.96L632.721,1646.12L632.728,1646.13L632.841,1646.3L632.952,1646.48L633.061,1646.66L633.167,1646.83L633.271,1647.01L633.373,1647.19L633.473,1647.37L633.571,1647.56L633.666,1647.74L633.759,1647.92L633.85,1648.11L633.872,1648.15L633.937,1648.3L634.021,1648.48L634.103,1648.67L634.182,1648.86L634.259,1649.05L634.333,1649.24L634.405,1649.43L634.475,1649.63L634.542,1649.82L634.607,1650.01L634.67,1650.21L634.696,1650.29L634.728,1650.4L634.784,1650.6L634.836,1650.79L634.886,1650.99L634.934,1651.19L634.979,1651.38L635.021,1651.58L635.061,1651.78L635.099,1651.98L635.133,1652.17L635.165,1652.37L635.195,1652.57L635.222,1652.77L635.246,1652.96L635.267,1653.16L635.286,1653.36L635.302,1653.55L635.315,1653.75L635.326,1653.95L635.327,1653.98L635.332,1654.14L635.336,1654.34L635.336,1654.54L635.334,1654.73L635.329,1654.93L635.321,1655.12L635.311,1655.31L635.302,1655.44L635.297,1655.51L635.285,1655.44L635.264,1655.32L635.229,1655.13L635.191,1654.94L635.15,1654.75L635.107,1654.56L635.061,1654.38L635.013,1654.19L634.969,1654.03L634.962,1654L634.911,1653.82L634.857,1653.64L634.8,1653.45L634.741,1653.27L634.68,1653.09L634.616,1652.91L634.55,1652.73L634.482,1652.55L634.411,1652.38L634.338,1652.2L634.263,1652.03L634.186,1651.85L634.106,1651.68L634.025,1651.51L633.941,1651.34L633.855,1651.17L633.767,1651L633.678,1650.83L633.625,1650.74L633.587,1650.66L633.495,1650.5L633.401,1650.33L633.306,1650.17L633.209,1650.01L633.109,1649.85L633.008,1649.69L632.905,1649.53L632.8,1649.38L632.694,1649.22L632.586,1649.07L632.503,1648.95L632.476,1648.91L632.367,1648.76L632.256,1648.61L632.143,1648.46L632.029,1648.32L631.913,1648.17L631.795,1648.03L631.676,1647.88L631.556,1647.74L631.434,1647.6L631.31,1647.46L631.185,1647.33L631.178,1647.32L631.062,1647.19L630.937,1647.06L630.811,1646.92L630.684,1646.79L630.555,1646.66L630.425,1646.53L630.294,1646.41L630.161,1646.28L630.027,1646.16L629.892,1646.04L629.798,1645.96L629.757,1645.92L629.623,1645.8L629.487,1645.68L629.351,1645.57L629.213,1645.45L629.146,1645.4L629.076,1645.34L628.939,1645.23L628.801,1645.12L628.662,1645.01L628.551,1644.92L628.522,1644.9L628.384,1644.79L628.245,1644.68L628.104,1644.58L627.981,1644.49L627.963,1644.47L627.822,1644.37L627.681,1644.27L627.538,1644.17L627.394,1644.07L627.385,1644.06L627.252,1643.97L627.108,1643.87L626.963,1643.78L626.817,1643.68L626.67,1643.59L626.522,1643.5L626.373,1643.41L626.222,1643.33L626.122,1643.27L626.071,1643.25L625.921,1643.16L625.769,1643.08L625.616,1643L625.462,1642.92L625.306,1642.84L625.15,1642.77L624.99,1642.7L624.912,1642.67L624.833,1642.63L624.781,1642.61L624.753,1642.6L624.674,1642.56L624.594,1642.53L624.513,1642.5L624.433,1642.47L624.352,1642.43L624.271,1642.4L624.189,1642.37L624.107,1642.34L624.025,1642.31L623.943,1642.28L623.86,1642.26L623.777,1642.23L623.694,1642.2L623.61,1642.18L623.526,1642.15L623.442,1642.13L623.4,1642.12L623.357,1642.1L623.272,1642.08L623.187,1642.05L623.102,1642.03L623.016,1642.01L622.93,1641.98L622.844,1641.96L622.757,1641.94L622.67,1641.92L622.583,1641.9L622.495,1641.88L622.407,1641.87L622.319,1641.85L622.23,1641.83L622.141,1641.82L622.051,1641.8L621.962,1641.79L621.871,1641.78L621.781,1641.76L621.69,1641.75L621.599,1641.74L621.508,1641.73L621.416,1641.72L621.324,1641.71L621.231,1641.71L621.138,1641.7L621.045,1641.69L620.952,1641.69L620.858,1641.68L620.764,1641.68L620.745,1641.68L620.669,1641.68L620.574,1641.67L620.478,1641.67L620.383,1641.67L620.286,1641.67L620.19,1641.67L620.093,1641.67L619.996,1641.67L619.898,1641.68L619.8,1641.68L619.702,1641.69L619.603,1641.69L619.505,1641.7L619.405,1641.71L619.306,1641.72L619.206,1641.73L619.105,1641.74L619.005,1641.75L618.904,1641.76L618.802,1641.78L618.756,1641.78L618.701,1641.79L618.751,1641.77L618.793,1641.74L618.885,1641.7L618.978,1641.66L619.071,1641.61L619.165,1641.57L619.258,1641.53L619.352,1641.49L619.446,1641.45L619.541,1641.41L619.635,1641.38L619.73,1641.34L619.825,1641.31L619.921,1641.27L620.016,1641.24L620.112,1641.21L620.208,1641.18L620.304,1641.15L620.4,1641.12L620.497,1641.09L620.594,1641.06L620.671,1641.04L620.691,1641.04L620.788,1641.01L620.886,1640.99L620.984,1640.97L621.082,1640.95L621.18,1640.93L621.278,1640.91L621.376,1640.89L621.475,1640.87L621.573,1640.86L621.672,1640.84L621.771,1640.83L621.87,1640.81L621.969,1640.8L622.068,1640.79L622.167,1640.78L622.266,1640.77L622.366,1640.76L622.465,1640.75L622.565,1640.74L622.665,1640.74L622.764,1640.73Z" style="fill:rgb(186,186,186);"/>
                        </g>
                        <g transform="matrix(1,0,0,1,-1.02888,-1277.07)">
                            <path d="M813.468,2181.22L689.829,2181.22L669.79,2098.37L412.267,2098.37L392.228,2181.22L268.59,2181.22L370.552,1452.91L699.518,1452.91C706.632,1452.91 712.159,1457.58 713.113,1464.39C726.106,1557.2 813.468,2181.22 813.468,2181.22ZM662.963,1510.1L419.094,1510.1L419.094,1510.1C419.094,1541.76 444.756,1567.42 476.412,1567.42L605.646,1567.42C637.301,1567.42 662.963,1541.76 662.963,1510.1L662.963,1510.1Z" style="fill:none;stroke:rgb(186,186,186);stroke-width:6.93px;"/>
                        </g>
                        <g transform="matrix(1,0,0,1,-1.02888,-1251.43)">
                            <path d="M663.888,1603.67C663.34,1599.4 659.905,1596.46 655.465,1596.46C620.118,1596.46 470.151,1596.46 429.368,1596.46C426.673,1596.46 423.919,1597.55 421.735,1599.49C419.551,1601.42 418.123,1604.04 417.778,1606.73C410.697,1661.95 377.211,1923.09 370.332,1976.74C369.642,1982.12 373.368,1986.39 378.748,1986.39C427.204,1986.39 643.785,1986.39 699.737,1986.39C702.865,1986.39 706.045,1984.92 708.325,1982.42C710.605,1979.92 711.719,1976.69 711.334,1973.68C703.506,1912.64 669.904,1650.59 663.888,1603.67Z" style="fill:none;stroke:rgb(186,186,186);stroke-width:6.93px;"/>
                        </g>
                        <g transform="matrix(0.924902,0,0,0.924902,39.6016,-1110.94)">
                            <path d="M656.587,1811.52C660.26,1811.52 662.964,1814.19 662.963,1817.82C662.963,1831.61 662.963,1864.54 662.963,1880.26C662.964,1882.42 661.993,1884.63 660.308,1886.29C658.623,1887.95 656.392,1888.91 654.205,1888.91C615.357,1888.91 459.057,1888.91 425.471,1888.91C421.798,1888.91 419.094,1886.24 419.094,1882.62C419.094,1868.82 419.094,1835.89 419.094,1820.17C419.094,1818.01 420.065,1815.8 421.75,1814.14C423.435,1812.48 425.665,1811.52 427.853,1811.52C466.701,1811.52 623.001,1811.52 656.587,1811.52ZM464.913,1843.21L464.913,1839.01C464.913,1834.36 463.853,1830.78 461.733,1828.29C459.613,1825.8 456,1824.56 450.896,1824.56C445.544,1824.56 441.767,1825.97 439.564,1828.79C437.362,1831.61 436.261,1835.78 436.261,1841.29L436.261,1859.2C436.261,1864.59 437.372,1868.72 439.595,1871.58C441.818,1874.44 445.585,1875.87 450.896,1875.87C456.041,1875.87 459.664,1874.57 461.764,1871.95C463.863,1869.34 464.913,1865.64 464.913,1860.87L464.913,1856.73L455.033,1856.73L455.033,1861.61C455.033,1863.91 454.786,1865.65 454.292,1866.83C453.798,1868 452.686,1868.59 450.957,1868.59C449.269,1868.59 448.117,1868.01 447.499,1866.86C446.882,1865.7 446.573,1863.95 446.573,1861.61L446.573,1838.88C446.573,1836.58 446.841,1834.83 447.376,1833.63C447.911,1832.44 449.105,1831.84 450.957,1831.84C452.192,1831.84 453.108,1832.14 453.705,1832.74C454.302,1833.34 454.673,1834.09 454.817,1834.99C454.961,1835.9 455.033,1837.09 455.033,1838.58L455.033,1843.21L464.913,1843.21ZM518.08,1875.87C514.375,1875.87 511.473,1875.25 509.374,1873.99C507.274,1872.73 505.792,1870.91 504.928,1868.52C504.063,1866.14 503.631,1863.09 503.631,1859.38L503.631,1825.17L513.634,1825.17L513.634,1860.81C513.634,1863.19 513.923,1865.07 514.499,1866.42C515.075,1867.78 516.269,1868.46 518.08,1868.46C519.892,1868.46 521.086,1867.78 521.662,1866.42C522.238,1865.07 522.526,1863.19 522.526,1860.81L522.526,1825.17L532.592,1825.17L532.592,1859.38C532.592,1863.09 532.16,1866.14 531.295,1868.52C530.431,1870.91 528.938,1872.73 526.818,1873.99C524.698,1875.25 521.785,1875.87 518.08,1875.87ZM598.603,1875.87C593.293,1875.87 589.506,1874.48 587.241,1871.7C584.977,1868.93 583.845,1864.84 583.845,1859.45L583.845,1840.8C583.845,1835.4 584.977,1831.35 587.241,1828.63C589.506,1825.92 593.293,1824.56 598.603,1824.56C603.873,1824.56 607.65,1825.93 609.935,1828.66C612.22,1831.4 613.362,1835.45 613.362,1840.8L613.362,1859.51C613.362,1864.86 612.22,1868.93 609.935,1871.7C607.65,1874.48 603.873,1875.87 598.603,1875.87ZM576.991,1875.19L576.991,1825.17L566.864,1825.17L566.864,1875.19L576.991,1875.19ZM562.232,1832.71L562.232,1825.17L536.667,1825.17L536.667,1832.71L544.386,1832.71L544.386,1875.19L554.637,1875.19L554.637,1832.71L562.232,1832.71ZM646.831,1875.19L646.831,1825.17L638.371,1825.17L638.371,1851.17L627.256,1825.17L620.155,1825.17L620.155,1875.19L628.861,1875.19L628.861,1847.53L639.977,1875.19L646.831,1875.19ZM499.308,1875.19L489.675,1825.17L478.375,1825.17L468.68,1875.19L478.251,1875.19L480.165,1864.2L488.07,1864.2L489.922,1875.19L499.308,1875.19ZM598.603,1868.59C600.333,1868.59 601.495,1868 602.092,1866.83C602.689,1865.65 602.988,1864.04 602.988,1861.98L602.988,1838.33C602.988,1836.27 602.689,1834.67 602.092,1833.54C601.495,1832.41 600.333,1831.84 598.603,1831.84C596.874,1831.84 595.711,1832.41 595.115,1833.54C594.518,1834.67 594.219,1836.27 594.219,1838.33L594.219,1861.98C594.219,1864.08 594.507,1865.7 595.084,1866.86C595.66,1868.01 596.833,1868.59 598.603,1868.59ZM487.082,1857.9L484.056,1837.77L481.092,1857.9L487.082,1857.9Z" style="fill:rgb(186,186,186);"/>
                        </g>
                        <g transform="matrix(4.85898,0,0,4.85898,-1538.35,-8588.42)">
                            <g transform="matrix(12,0,0,12,401.303,1912.22)">
                                <path d="M0.029,-0.81L0.168,-0.81L0.225,-0.315L0.296,-0.809L0.407,-0.809L0.481,-0.317L0.538,-0.81L0.675,-0.81L0.571,0L0.43,0L0.352,-0.513L0.277,0L0.134,0L0.029,-0.81Z" style="fill:rgb(186,186,186);fill-rule:nonzero;"/>
                            </g>
                            <g transform="matrix(12,0,0,12,409.751,1912.22)">
                                <path d="M0.061,-0.81L0.414,-0.81L0.414,-0.696L0.225,-0.696L0.225,-0.481L0.371,-0.481L0.371,-0.366L0.225,-0.366L0.225,-0.112L0.416,-0.112L0.416,0L0.061,0L0.061,-0.81Z" style="fill:rgb(186,186,186);fill-rule:nonzero;"/>
                            </g>
                            <g transform="matrix(12,0,0,12,415.019,1912.22)">
                                <path d="M0.137,-0.688L0.012,-0.688L0.012,-0.81L0.426,-0.81L0.426,-0.688L0.303,-0.688L0.303,0L0.137,0L0.137,-0.688Z" style="fill:rgb(186,186,186);fill-rule:nonzero;"/>
                            </g>
                            <g transform="matrix(12,0,0,12,423.275,1912.22)">
                                <path d="M0.061,-0.81L0.403,-0.81L0.403,-0.697L0.225,-0.697L0.225,-0.479L0.376,-0.479L0.376,-0.364L0.225,-0.364L0.225,0L0.061,0L0.061,-0.81Z" style="fill:rgb(186,186,186);fill-rule:nonzero;"/>
                            </g>
                            <g transform="matrix(12,0,0,12,428.375,1912.22)">
                                <path d="M0.061,-0.81L0.225,-0.81L0.225,-0.112L0.416,-0.112L0.416,0L0.061,0L0.061,-0.81Z" style="fill:rgb(186,186,186);fill-rule:nonzero;"/>
                            </g>
                            <g transform="matrix(12,0,0,12,433.439,1912.22)">
                                <path d="M0.288,0.011C0.202,0.011 0.141,-0.012 0.104,-0.057C0.067,-0.101 0.049,-0.168 0.049,-0.255L0.049,-0.557C0.049,-0.644 0.067,-0.71 0.104,-0.754C0.141,-0.798 0.202,-0.82 0.288,-0.82C0.373,-0.82 0.435,-0.798 0.472,-0.754C0.509,-0.709 0.527,-0.644 0.527,-0.557L0.527,-0.254C0.527,-0.167 0.509,-0.101 0.472,-0.057C0.435,-0.012 0.373,0.011 0.288,0.011ZM0.288,-0.107C0.316,-0.107 0.335,-0.117 0.345,-0.136C0.354,-0.155 0.359,-0.181 0.359,-0.214L0.359,-0.597C0.359,-0.63 0.354,-0.656 0.345,-0.675C0.335,-0.693 0.316,-0.702 0.288,-0.702C0.26,-0.702 0.241,-0.693 0.232,-0.675C0.222,-0.656 0.217,-0.63 0.217,-0.597L0.217,-0.214C0.217,-0.18 0.222,-0.154 0.231,-0.135C0.24,-0.116 0.259,-0.107 0.288,-0.107Z" style="fill:rgb(186,186,186);fill-rule:nonzero;"/>
                            </g>
                            <g transform="matrix(12,0,0,12,440.351,1912.22)">
                                <path d="M0.288,0.011C0.202,0.011 0.141,-0.012 0.104,-0.057C0.067,-0.101 0.049,-0.168 0.049,-0.255L0.049,-0.557C0.049,-0.644 0.067,-0.71 0.104,-0.754C0.141,-0.798 0.202,-0.82 0.288,-0.82C0.373,-0.82 0.435,-0.798 0.472,-0.754C0.509,-0.709 0.527,-0.644 0.527,-0.557L0.527,-0.254C0.527,-0.167 0.509,-0.101 0.472,-0.057C0.435,-0.012 0.373,0.011 0.288,0.011ZM0.288,-0.107C0.316,-0.107 0.335,-0.117 0.345,-0.136C0.354,-0.155 0.359,-0.181 0.359,-0.214L0.359,-0.597C0.359,-0.63 0.354,-0.656 0.345,-0.675C0.335,-0.693 0.316,-0.702 0.288,-0.702C0.26,-0.702 0.241,-0.693 0.232,-0.675C0.222,-0.656 0.217,-0.63 0.217,-0.597L0.217,-0.214C0.217,-0.18 0.222,-0.154 0.231,-0.135C0.24,-0.116 0.259,-0.107 0.288,-0.107Z" style="fill:rgb(186,186,186);fill-rule:nonzero;"/>
                            </g>
                            <g transform="matrix(12,0,0,12,447.263,1912.22)">
                                <path d="M0.061,-0.81L0.271,-0.81C0.358,-0.81 0.424,-0.794 0.468,-0.762C0.512,-0.73 0.534,-0.675 0.534,-0.596C0.534,-0.543 0.527,-0.501 0.512,-0.469C0.497,-0.436 0.471,-0.412 0.434,-0.395L0.546,0L0.377,0L0.285,-0.367L0.225,-0.367L0.225,0L0.061,0L0.061,-0.81ZM0.274,-0.465C0.313,-0.465 0.34,-0.474 0.356,-0.494C0.371,-0.513 0.379,-0.542 0.379,-0.583C0.379,-0.623 0.372,-0.652 0.358,-0.671C0.344,-0.69 0.319,-0.699 0.282,-0.699L0.225,-0.699L0.225,-0.465L0.274,-0.465Z" style="fill:rgb(186,186,186);fill-rule:nonzero;"/>
                            </g>
                        </g>
                    </g>
                </g>
            </g>
        </g>
    </g>
</svg>
