<?xml version="1.0" encoding="UTF-8"?>
<svg width="562px" height="300px" viewBox="0 0 562 300" version="1.1" xmlns="http://www.w3.org/2000/svg" xmlns:xlink="http://www.w3.org/1999/xlink">
    <!-- Generator: Sketch 55.2 (78181) - https://sketchapp.com -->
    <title>Group 24</title>
    <desc>Created with Sketch.</desc>
    <g id="NBA" stroke="none" stroke-width="1" fill="none" fill-rule="evenodd">
        <g id="Basketball-Match-Commentary" transform="translate(-315.000000, -535.000000)" stroke="#BD842E" stroke-width="1.74454829">
            <g id="Group-14" transform="translate(300.000000, 491.000000)">
                <g id="Group-43" transform="translate(16.000000, 45.000000)">
                    <g id="Group-24">
                        <rect id="Rectangle" fill="#F3CC91" x="0.290758048" y="8.52651283e-14" width="559.047477" height="297.755089"></rect>
                        <path d="M279.814496,297.755671 L279.814496,-1.13686838e-13" id="Path"></path>
                        <path d="M291.709409,148.877544 C291.711153,144.167494 288.843697,139.838253 284.547456,137.951089 C280.280291,136.076734 275.121661,136.968203 271.719792,140.151519 C268.290592,143.359873 267.033936,148.40357 268.598214,152.842861 C270.163655,157.286228 274.305213,160.40957 278.985254,160.758354 C283.626334,161.104228 288.206355,158.543367 290.349242,154.406861 C291.233146,152.700203 291.70999,150.801975 291.709409,148.877544 Z" id="Path"></path>
                        <path d="M315.49865,148.877544 C315.456781,144.291519 314.639751,139.704911 312.884154,135.454861 C311.115182,131.172785 308.593146,127.245316 305.354683,123.926329 C302.115057,120.605595 298.254372,117.961468 294.011049,116.097595 C289.782845,114.240709 285.217362,113.296835 280.612336,113.155342 C276.079418,113.016759 271.413915,113.817975 267.185711,115.459418 C262.890052,117.126481 258.897944,119.540025 255.52864,122.700051 C252.145961,125.873468 249.390156,129.652456 247.435099,133.864076 C245.482949,138.068709 244.40947,142.62038 244.168141,147.244835 C243.930301,151.816304 244.646147,156.461139 246.166231,160.772329 C247.696781,165.115544 250.076345,169.188 253.149076,172.619367 C256.245649,176.076937 259.958048,178.913215 264.119958,180.965165 C268.274891,183.01362 272.797923,184.182835 277.409346,184.525797 C281.968432,184.864684 286.621724,184.248051 290.960415,182.820304 C295.298525,181.392557 299.4081,179.121671 302.878006,176.14157 C306.388619,173.125949 309.330509,169.494278 311.464091,165.378734 C313.616282,161.226506 314.908411,156.713266 315.35676,152.060861 C315.457944,151.003443 315.489346,149.93962 315.49865,148.877544 Z" id="Path"></path>
                        <path d="M559.338235,297.755671 L559.338235,279.890785" id="Path"></path>
                        <path d="M166.815452,297.755671 L166.815452,279.890785" id="Path"></path>
                        <path d="M392.813541,297.755671 L392.813541,279.890785" id="Path"></path>
                        <path d="M392.813541,5.5067062e-14 L392.813541,17.8648861" id="Path"></path>
                        <path d="M166.815452,5.5067062e-14 L166.815452,17.8648861" id="Path"></path>
                        <path d="M0.290758048,297.755671 L0.290758048,279.890785" id="Path"></path>
                        <path d="M559.338235,17.8648861 C556.809221,17.8648861 554.280789,17.8648861 551.751194,17.8648861 C545.598754,17.8648861 539.445732,17.8648861 533.293292,17.8648861 C525.66729,17.8648861 518.040706,17.8648861 510.414704,17.8648861 C503.466168,17.8648861 496.517632,17.8648861 489.568515,17.8648861 C485.448474,17.8648861 481.32785,17.8648861 477.207227,17.8648861 C476.871111,17.8648861 476.534995,17.8648861 476.198879,17.8648861 C476.162825,17.8648861 476.104673,17.8532405 476.069782,17.8677975 C475.387082,18.1472911 474.704382,18.4273671 474.021682,18.7068608 C471.766563,19.631519 469.543427,20.6429367 467.344133,21.6933671 C462.815286,23.8553671 458.39053,26.2502785 454.116968,28.8833418 C449.771298,31.5606582 445.575659,34.454 441.522492,37.556962 C437.583884,40.572 433.833105,43.8246076 430.226542,47.2286076 C426.601952,50.6489114 423.200665,54.2980506 419.951153,58.0752911 C416.7092,61.8432152 413.666127,65.8184304 410.877757,69.934557 C408.078339,74.0669873 405.439418,78.3123797 403.08893,82.718481 C400.746002,87.1117722 398.58567,91.6046329 396.718422,96.2221013 C394.848266,100.84481 393.196179,105.550203 391.817404,110.343519 C390.414206,115.220101 389.252918,120.176456 388.405649,125.180557 C387.564777,130.144481 386.958837,135.142759 386.643655,140.168987 C386.331381,145.145139 386.265088,150.150987 386.51107,155.131215 C386.761121,160.169089 387.260062,165.175519 388.009637,170.163316 C388.766189,175.194785 389.854206,180.180253 391.170758,185.093519 C392.459979,189.904304 394.041121,194.624253 395.818235,199.274329 C397.574413,203.869671 399.611464,208.384658 401.883448,212.747671 C404.186833,217.171823 406.671651,221.504557 409.430363,225.662025 C412.207103,229.848025 415.164112,233.918152 418.368266,237.787975 C421.573583,241.658962 424.953354,245.380886 428.543053,248.899013 C432.108328,252.392684 435.845151,255.704684 439.751194,258.811722 C443.69271,261.946127 447.80054,264.852861 452.037466,267.573266 C456.294164,270.306481 460.723572,272.778253 465.247767,275.037494 C467.395888,276.110633 469.57134,277.138937 471.77703,278.087468 C473.091838,278.652861 474.408972,279.206025 475.733084,279.748709 C476.034891,279.872734 476.140727,279.88962 476.448349,279.88962 C479.917092,279.88962 483.385254,279.88962 486.853416,279.88962 C493.49433,279.88962 500.135244,279.88962 506.775576,279.88962 C514.438214,279.88962 522.10027,279.88962 529.762326,279.88962 C536.295078,279.88962 542.828411,279.88962 549.361163,279.88962 C552.614746,279.88962 555.867747,279.88962 559.120748,279.88962 C559.193437,279.88962 559.265545,279.88962 559.338235,279.88962" id="Path"></path>
                        <path d="M0.289595016,17.8648861 C2.81977155,17.8648861 5.34878505,17.8648861 7.87721703,17.8648861 C14.0302388,17.8648861 20.1832606,17.8648861 26.3362825,17.8648861 C33.9622845,17.8648861 41.5888681,17.8648861 49.2148702,17.8648861 C56.163406,17.8648861 63.1119418,17.8648861 70.0610592,17.8648861 C74.1811007,17.8648861 78.3017238,17.8648861 82.4223468,17.8648861 C82.7584631,17.8648861 83.0945794,17.8648861 83.4306957,17.8648861 C83.4667497,17.8648861 83.5254829,17.8526582 83.5597923,17.8677975 C84.2424922,18.1472911 84.9251921,18.4273671 85.6073105,18.7068608 C87.8624299,19.631519 90.0855659,20.643519 92.2854413,21.6933671 C96.8137072,23.8542025 101.240789,26.2485316 105.512606,28.8833418 C109.857113,31.5624051 114.053915,34.454 118.107664,37.556962 C122.046272,40.572 125.795888,43.8257722 129.403614,47.2280253 C133.028785,50.6471646 136.428328,54.2992152 139.67784,58.0752911 C142.919792,61.8432152 145.962866,65.8184304 148.751236,69.9339747 C151.550654,74.0669873 154.190156,78.3123797 156.540062,82.7190633 C158.882991,87.1117722 161.043904,91.6046329 162.910571,96.221519 C164.779564,100.845392 166.432814,105.550203 167.811589,110.344101 C169.214787,115.220684 170.373167,120.177038 171.222762,125.180557 C172.065961,130.143899 172.669574,135.142759 172.984756,140.168987 C173.29703,145.145139 173.360997,150.150987 173.117342,155.131215 C172.870197,160.169089 172.368349,165.175519 171.618775,170.163316 C170.862222,175.194785 169.773043,180.179671 168.458235,185.093519 C167.17134,189.904304 165.589034,194.625418 163.810177,199.274329 C162.052253,203.869089 160.01811,208.384658 157.745545,212.747671 C155.441578,217.171241 152.957923,221.505139 150.198629,225.662025 C147.420727,229.848025 144.464299,233.916987 141.260145,237.787975 C138.055992,241.658962 134.676802,245.383797 131.085358,248.899013 C127.518339,252.390937 123.783261,255.704684 119.877217,258.811722 C115.936282,261.946709 111.827871,264.852861 107.591526,267.573266 C103.334829,270.306481 98.904839,272.777089 94.3812253,275.037494 C92.2336864,276.111215 90.0576532,277.138937 87.8513811,278.087468 C86.5371547,278.652861 85.2200208,279.206025 83.8959086,279.748709 C83.5946833,279.872734 83.4882658,279.88962 83.1806438,279.88962 C79.7124818,279.88962 76.2437383,279.88962 72.7755763,279.88962 C66.135244,279.88962 59.4943302,279.88962 52.8534164,279.88962 C45.1907788,279.88962 37.5287227,279.88962 29.8666667,279.88962 C23.3333333,279.88962 16.8005815,279.88962 10.2672482,279.88962 C7.01366563,279.88962 3.76066459,279.88962 0.507082035,279.88962 C0.434392523,279.88962 0.362284528,279.88962 0.289595016,279.88962" id="Path"></path>
                        <polyline id="Path" points="559.338235 113.14719 446.835223 113.14719 446.835223 184.608481 559.338235 184.608481"></polyline>
                        <polyline id="Path" points="559.338235 101.237266 446.835223 101.237266 446.835223 196.518987 559.338235 196.518987"></polyline>
                        <path d="M23.5845483,166.743595 L23.5845483,131.012076" id="Path"></path>
                        <path d="M23.5845483,148.877544 C23.6008307,145.171924 25.9431776,141.777241 29.4258775,140.494481 C33.0068536,139.175038 37.1716719,140.344253 39.5215784,143.362785 C41.9313811,146.457013 42.0226791,150.799063 39.8001246,154.020228 C37.6194393,157.179089 33.4668328,158.545114 29.8288681,157.39919 C26.2164901,156.260253 23.6764278,152.860911 23.5868744,149.073772 C23.5851298,149.007975 23.5845483,148.942759 23.5845483,148.877544 Z" id="Path"></path>
                        <path d="M23.5845483,125.057114 C26.4043198,125.057114 29.2235099,125.057114 32.0426999,125.057114 C34.1320872,125.057114 36.1970509,125.252759 38.2288681,125.757595 C42.6699065,126.859848 46.7922741,129.265241 49.9022222,132.632557 C53.0528764,136.04238 55.1521495,140.286608 55.9528972,144.862734 C56.7437591,149.379468 56.1564278,154.120962 54.3426791,158.326759 C52.5289304,162.531975 49.47946,166.210228 45.6536656,168.728582 C41.7772793,171.280127 37.250758,172.658962 32.6120042,172.69681 C29.6032399,172.721848 26.5933126,172.697975 23.5845483,172.697975" id="Path"></path>
                        <path d="M536.044444,125.057114 C533.224673,125.057114 530.406064,125.057114 527.586293,125.057114 C525.496906,125.057114 523.43136,125.252759 521.399543,125.757595 C516.958505,126.861013 512.836137,129.265241 509.726189,132.632557 C506.574372,136.043544 504.479751,140.286608 503.675514,144.862734 C502.882326,149.37481 503.469657,154.126203 505.286314,158.326759 C507.105877,162.535468 510.147788,166.202658 513.975327,168.728582 C517.847061,171.283038 522.381724,172.658962 527.016989,172.69681 C530.026334,172.721848 533.036262,172.697975 536.044444,172.697975" id="Path"></path>
                        <path d="M536.044536,148.877544 C536.06189,145.120684 533.574746,141.631671 530.019356,140.428684 C526.254621,139.155241 521.972918,140.548633 519.741059,143.863544 C517.563863,147.099266 517.752274,151.43957 520.180685,154.485468 C522.693416,157.638506 527.200748,158.67962 530.849761,156.993924 C533.97134,155.55162 536.060145,152.331038 536.044536,148.877544 Z" id="Path"></path>
                        <path d="M536.044444,166.743595 L536.044444,131.012076" id="Path"></path>
                        <polyline id="Path" points="0.290758048 113.14719 112.794351 113.14719 112.794351 184.608481 0.290758048 184.608481"></polyline>
                        <polyline id="Path" points="0.290758048 101.237266 112.794351 101.237266 112.794351 196.518987 0.290758048 196.518987"></polyline>
                        <path d="M113.046363,113.163602 C115.628817,113.176165 118.209114,113.464674 120.747165,114.046228 C125.785421,115.200304 130.557923,117.458962 134.643655,120.628304 C138.741018,123.80638 142.053333,127.849139 144.47244,132.430506 C146.892129,137.012456 148.17379,142.140582 148.443032,147.300734 C148.709367,152.407316 147.758588,157.571544 145.861101,162.306633 C143.935119,167.112759 140.914143,171.447241 137.151153,174.989823 C133.380602,178.539975 128.824424,181.191089 123.92108,182.826709 C120.348105,184.01799 116.586957,184.600462 112.825242,184.602251" id="Path"></path>
                        <path d="M446.884781,113.170751 C444.238354,113.166146 441.592879,113.448971 438.977196,114.025266 C434.011049,115.118785 429.273437,117.358228 425.233063,120.44081 C421.118837,123.579291 417.708245,127.601671 415.28972,132.179544 C412.872939,136.756253 411.471485,141.847696 411.201661,147.017165 C410.933583,152.138886 411.77271,157.333392 413.684154,162.095266 C415.588619,166.841418 418.475265,171.160759 422.170218,174.699266 C425.844818,178.217975 430.265504,180.924405 435.063593,182.606608 C438.759664,183.902852 442.694416,184.595691 446.621865,184.617484" id="Path"></path>
                        <path d="M85.0403323,101.237266 L85.0403323,97.2667089" id="Path"></path>
                        <path d="M66.2067705,101.237266 L66.2067705,97.2667089" id="Path"></path>
                        <rect id="Rectangle" x="41.9220768" y="97.2667089" width="5.94716511" height="3.96997468"></rect>
                        <rect id="Rectangle" x="41.9220768" y="196.518987" width="5.94716511" height="3.96881013"></rect>
                        <path d="M66.2067705,196.518987 L66.2067705,200.48838" id="Path"></path>
                        <path d="M85.0403323,196.518987 L85.0403323,200.48838" id="Path"></path>
                        <path d="M474.58866,196.518987 L474.58866,200.48838" id="Path"></path>
                        <path d="M493.422222,196.518987 L493.422222,200.48838" id="Path"></path>
                        <rect id="Rectangle" x="511.759751" y="196.518987" width="5.94774663" height="3.96881013"></rect>
                        <rect id="Rectangle" x="511.759751" y="97.2667089" width="5.94774663" height="3.96997468"></rect>
                        <path d="M493.422222,101.237266 L493.422222,97.2667089" id="Path"></path>
                        <path d="M474.58866,101.237266 L474.58866,97.2667089" id="Path"></path>
                    </g>
                </g>
            </g>
        </g>
    </g>
</svg>