<?xml version="1.0" encoding="UTF-8"?>
<svg width="32px" height="32px" viewBox="0 0 32 32" version="1.1" xmlns="http://www.w3.org/2000/svg" xmlns:xlink="http://www.w3.org/1999/xlink">
    <!-- Generator: Sketch 55.2 (78181) - https://sketchapp.com -->
    <title>result</title>
    <desc>Created with Sketch.</desc>
    <g id="result" stroke="none" stroke-width="1" fill="none" fill-rule="evenodd">
        <g id="trophy-(1)" transform="translate(4.000000, 4.000000)" fill="#000000" fill-rule="nonzero">
            <path d="M23.296875,1.73219095 L20.217041,1.73219095 C20.2282104,1.39106285 20.234436,1.0479206 20.234436,0.703130364 C20.234436,0.314760714 19.9194946,0 19.531311,0 L4.46887209,0 C4.08050536,0 3.76574709,0.314760714 3.76574709,0.703130364 C3.76574709,1.0479206 3.77178956,1.39106285 3.78295898,1.73219095 L0.703125,1.73219095 C0.314758313,1.73219095 0,2.04695166 0,2.43532131 C0,5.58585802 0.823425281,8.55823181 2.31848147,10.8051361 C3.79632567,13.0264055 5.76489258,14.3004631 7.89129637,14.4244264 C8.37341306,14.9490276 8.88317869,15.3767652 9.41400145,15.7030617 L9.41400145,18.8281465 L8.23443605,18.8281465 C6.80841066,18.8281465 5.6484375,19.9883116 5.6484375,21.4141648 L5.6484375,22.5937393 L5.59844972,22.5937393 C5.21008303,22.5937393 4.89532472,22.9086831 4.89532472,23.2968696 C4.89532472,23.6852393 5.21008303,24 5.59844972,24 L18.4015503,24 C18.789917,24 19.1046753,23.6852393 19.1046753,23.2968696 C19.1046753,22.9086831 18.789917,22.5937393 18.4015503,22.5937393 L18.3515625,22.5937393 L18.3515625,21.4141648 C18.3515625,19.9883116 17.1914062,18.8281465 15.765564,18.8281465 L14.5859985,18.8281465 L14.5859985,15.7030617 C15.1168213,15.3767652 15.6264038,14.9490276 16.1085205,14.4244264 C18.2351074,14.3004631 20.2034912,13.0264055 21.6815185,10.8051361 C23.1765747,8.55823181 24,5.58585802 24,2.43532131 C24,2.04695166 23.6850586,1.73219095 23.296875,1.73219095 Z M3.48925781,10.0261995 C2.25604247,8.17279182 1.53149414,5.74900625 1.42108153,3.13845168 L3.86151122,3.13845168 C4.11511228,6.34758258 4.8684082,9.31373071 6.04577634,11.668485 C6.23327634,12.0434879 6.42938231,12.3976166 6.6328125,12.7314203 C5.46331786,12.2897666 4.38098147,11.3665418 3.48925781,10.0261995 Z M20.5107422,10.0261995 C19.6190185,11.3665418 18.5366821,12.2897666 17.3671875,12.7314203 C17.5708008,12.3976166 17.7667237,12.0434879 17.9542237,11.668485 C19.1315918,9.31373071 19.8847046,6.34758258 20.1384888,3.13845168 L22.5789185,3.13845168 C22.4685059,5.74900625 21.7439575,8.17279182 20.5107422,10.0261995 Z" id="Shape"></path>
        </g>
    </g>
</svg>