<?xml version="1.0" encoding="UTF-8"?>
<svg width="640px" height="424px" viewBox="0 0 640 424" version="1.1" xmlns="http://www.w3.org/2000/svg" xmlns:xlink="http://www.w3.org/1999/xlink">
    <!-- Generator: Sketch 55.2 (78181) - https://sketchapp.com -->
    <title>Group 33</title>
    <desc>Created with Sketch.</desc>
    <g id="Football" stroke="none" stroke-width="1" fill="none" fill-rule="evenodd">
        <g id="Football-Match-Lineup" transform="translate(-468.000000, -499.000000)">
            <g id="Group-25" transform="translate(300.000000, 459.000000)">
                <g id="Group-24" transform="translate(168.000000, 40.000000)">
                    <g id="Group-33">
                        <path d="M3.57886735,-1.78628071e-17 L636.912201,-1.78628071e-17 C638.38496,-6.3075911e-14 639.578867,1.19390733 639.578867,2.66666667 L639.578867,421.333333 C639.578867,422.806093 638.38496,424 636.912201,424 L3.57886735,424 C2.10610802,424 0.912200684,422.806093 0.912200684,421.333333 L0.912200684,2.66666667 C0.912200684,1.19390733 2.10610802,-9.51728392e-15 3.57886735,-1.78628071e-17 Z" id="Rectangle-Copy-9" fill="#36AB53"></path>
                        <rect id="Rectangle" stroke="#45C465" stroke-width="2.18928164" stroke-linecap="round" stroke-linejoin="round" x="12.1994071" y="11.67642" width="615.735462" height="400.237026"></rect>
                        <polyline id="Path" stroke="#45C465" stroke-width="2.00684151" stroke-linecap="round" stroke-linejoin="round" points="12.1994071 268.19788 46.0654048 268.19788 46.0654048 155.392716 12.1994071 155.392716"></polyline>
                        <polygon id="Path" stroke="#45C465" stroke-width="2.00684151" stroke-linecap="round" stroke-linejoin="round" points="12.1994071 189.258713 12.1994071 87.6599931 113.795941 87.6599931 113.795941 211.794933 113.795941 335.930602 12.1994071 335.930602 12.1994071 234.331883"></polygon>
                        <path d="M113.795941,166.768468 C120.273295,171.731676 125.68301,177.919449 129.55439,185.117962 C133.406066,192.278527 135.673432,200.268847 136.16675,208.384688 C136.660068,216.50199 135.368392,224.704675 132.414322,232.279752 C129.460981,239.85264 124.847434,246.765081 118.988187,252.398224 C117.345496,253.978189 115.603558,255.437742 113.795211,256.821398" id="Path" stroke="#45C465" stroke-width="2.00684151" stroke-linecap="round" stroke-linejoin="round"></path>
                        <path d="M323.145998,211.794933 C323.145998,209.916489 321.398951,208.441611 319.547548,208.760523 C317.696146,209.079435 316.538746,211.047642 317.16488,212.820998 C318.286522,215.996255 323.147457,215.16431 323.145998,211.794933 Z" id="Path" stroke="#45C465" stroke-width="2.00684151" stroke-linecap="round" stroke-linejoin="round"></path>
                        <path d="M526.339065,166.768468 C519.865359,171.733136 514.449076,177.91726 510.579886,185.117962 C506.732588,192.279256 504.456465,200.268117 503.966796,208.384688 C503.477127,216.503449 504.766613,224.700296 507.719225,232.279752 C510.669647,239.85264 515.287571,246.765081 521.146089,252.398224 C522.78805,253.978189 524.531448,255.436282 526.339065,256.821398" id="Path" stroke="#45C465" stroke-width="2.00684151" stroke-linecap="round" stroke-linejoin="round"></path>
                        <polygon id="Path" stroke="#45C465" stroke-width="2.00684151" stroke-linecap="round" stroke-linejoin="round" points="627.934869 189.258713 627.934869 87.6599931 526.339065 87.6599931 526.339065 211.794933 526.339065 335.930602 627.934869 335.930602 627.934869 234.331883"></polygon>
                        <polyline id="Path" stroke="#45C465" stroke-width="2.00684151" stroke-linecap="round" stroke-linejoin="round" points="627.934869 268.19788 594.069601 268.19788 594.069601 155.392716 627.934869 155.392716"></polyline>
                        <path d="M12.1994071,405.755594 C15.5548461,405.740269 18.3549373,408.571071 18.3571266,411.913446" id="Path" stroke="#45C465" stroke-width="2.00684151" stroke-linecap="round" stroke-linejoin="round"></path>
                        <path d="M12.1994071,17.8342719 C15.5548461,17.8320826 18.3549373,15.0326609 18.3571266,11.67642" id="Path" stroke="#45C465" stroke-width="2.00684151" stroke-linecap="round" stroke-linejoin="round"></path>
                        <path d="M627.934869,17.8342719 C624.582349,17.8320826 621.77569,15.0326609 621.777149,11.67642" id="Path" stroke="#45C465" stroke-width="2.00684151" stroke-linecap="round" stroke-linejoin="round"></path>
                        <path d="M627.934869,405.755594 C624.582349,405.740269 621.77569,408.571071 621.777149,411.913446" id="Path" stroke="#45C465" stroke-width="2.00684151" stroke-linecap="round" stroke-linejoin="round"></path>
                        <path d="M376.407571,211.794933 C376.334595,203.592248 374.624766,195.49684 371.158404,188.046554 C367.708826,180.633487 362.639909,173.991793 356.385861,168.722809 C350.132543,163.453095 342.737879,159.572874 334.846978,157.427332 C326.956807,155.28252 318.611266,154.881143 310.55179,156.263339 C302.492315,157.645535 294.758312,160.799628 288.03138,165.449033 C281.304447,170.098437 275.621802,176.22053 271.48041,183.271628 C267.339749,190.322726 264.767343,198.271449 263.98431,206.410644 C263.202007,214.549108 264.217104,222.843015 266.94057,230.552372 C269.664036,238.265377 274.079818,245.351504 279.796762,251.199201 C285.512246,257.044709 292.51065,261.614568 300.15854,264.501563 C307.807161,267.390017 316.074618,268.58758 324.228962,267.982596 C332.383307,267.377611 340.386591,264.978836 347.526568,260.991339 C354.664356,257.006031 360.912566,251.457542 365.703444,244.831904 C370.4987,238.204076 373.814732,230.545804 375.37642,222.515346 C376.065314,218.97885 376.375462,215.395649 376.407571,211.794933 Z" id="Path" stroke="#45C465" stroke-width="2.00684151" stroke-linecap="round" stroke-linejoin="round"></path>
                        <path d="M320.067138,411.913446 L320.067138,11.67642" id="Path" stroke="#45C465" stroke-width="2.00684151" stroke-linecap="round" stroke-linejoin="round"></path>
                        <path d="M320.067138,411.913446 L320.067138,11.67642" id="Path" stroke="#45C465" stroke-width="2.18928164" stroke-linecap="round" stroke-linejoin="round"></path>
                    </g>
                </g>
            </g>
        </g>
    </g>
</svg>