<?xml version="1.0" encoding="UTF-8"?>
<svg width="32px" height="32px" viewBox="0 0 32 32" version="1.1" xmlns="http://www.w3.org/2000/svg" xmlns:xlink="http://www.w3.org/1999/xlink">
    <!-- Generator: Sketch 55.2 (78181) - https://sketchapp.com -->
    <title>Artboard</title>
    <desc>Created with Sketch.</desc>
    <g id="Artboard" stroke="none" stroke-width="1" fill="none" fill-rule="evenodd">
        <g id="Group-25">
            <rect id="Rectangle" fill="#EBEBEB" opacity="0" x="0" y="0" width="32" height="32"></rect>
            <g id="whistle" transform="translate(4.000000, 9.000000)" fill="#000000" fill-rule="nonzero">
                <path d="M10.8262307,7.48383769 C10.8262307,9.54368385 9.21772429,11.2134137 7.23340588,11.2134137 C5.24908747,11.2134137 3.64058103,9.54368385 3.64058103,7.48383769 C3.64058103,5.42419397 5.24908747,3.75426172 7.23340588,3.75426172 C9.21772429,3.75426172 10.8262307,5.42419397 10.8262307,7.48383769 Z" id="Path"></path>
                <path d="M23.6007191,0.0246857525 L13.2214473,0.0246857525 C13.0009891,0.0246857525 12.8222445,0.210233815 12.8222445,0.439083083 L12.8222445,1.68227507 L10.8262307,1.68227507 L10.8262307,0.439083083 C10.8262307,0.210233815 10.6474861,0.0246857525 10.427028,0.0246857525 L7.23340588,0.0246857525 C6.00266067,0.0254951741 4.79277221,0.355313336 3.72030466,0.98237259 C3.2811426,0.270329508 2.46811788,-0.0922681555 1.66815297,0.0673800217 C0.868188061,0.227028199 0.24248449,0.876345148 0.0886900791,1.70675855 C-0.0649094209,2.53737428 0.284198035,3.3811423 0.97032778,3.83722215 C-0.464502054,6.48932461 -0.204279538,9.78022215 1.62799876,12.1541037 C3.46047197,14.527783 6.49776566,15.5087392 9.30388038,14.6332034 C12.11019,13.7576676 14.1231622,11.2008685 14.3911816,8.17180201 L23.6964264,5.8139055 C23.8745862,5.76817613 23.9999219,5.60245765 23.9999219,5.41185104 L23.9999219,0.439083083 C23.9999219,0.210233815 23.8211773,0.0246857525 23.6007191,0.0246857525 Z M1.40500659,3.14197351 C1.05726356,2.91717104 0.845771878,2.52199625 0.846161162,2.0966724 C0.846161162,1.4101245 1.3823955,0.853480273 2.04376998,0.853480273 C2.45330366,0.853278083 2.83418367,1.07261729 3.05054842,1.4337986 C2.41509876,1.90505414 1.85917768,2.48233713 1.40500659,3.14197351 Z M7.23340588,12.0422083 C4.80817116,12.0422083 2.84217551,10.0013824 2.84217551,7.48383769 C2.84217551,4.96649533 4.80817116,2.92546706 7.23340588,2.92546706 C9.65864065,2.92546706 11.6246363,4.96649533 11.6246363,7.48383769 C11.6230769,10.0007754 9.65786096,12.040792 7.23340588,12.0422083 Z" id="Shape"></path>
            </g>
        </g>
    </g>
</svg>