<?xml version="1.0" encoding="UTF-8"?>
<svg width="48px" height="48px" viewBox="0 0 48 48" version="1.1" xmlns="http://www.w3.org/2000/svg" xmlns:xlink="http://www.w3.org/1999/xlink">
    <!-- Generator: Sketch 54.1 (76490) - https://sketchapp.com -->
    <title>telephone-red</title>
    <desc>Created with Sketch.</desc>
    <g id="telephone-red" stroke="none" stroke-width="1" fill="none" fill-rule="evenodd">
        <g id="telephone" transform="translate(4.000000, 4.000000)" fill="#ED1A33" fill-rule="nonzero">
            <path d="M30.382869,26.4365904 C29.0772557,25.1476091 27.4473181,25.1476091 26.1500208,26.4365904 C25.1604158,27.4178794 24.1708108,28.3991684 23.1978378,29.3970894 C22.9317256,29.6715177 22.7071933,29.7297297 22.382869,29.5467775 C21.7425364,29.1975052 21.0606237,28.9147609 20.4452391,28.5322245 C17.5762162,26.7276507 15.1728898,24.4074844 13.0439917,21.7962578 C11.9878586,20.4989605 11.0481497,19.1101871 10.391185,17.5467775 C10.2581289,17.2307692 10.2830769,17.022869 10.5408732,16.7650728 C11.5304782,15.8087318 12.4951351,14.8274428 13.4681081,13.8461538 C14.8236175,12.4823285 14.8236175,10.8856549 13.4597921,9.51351351 C12.6864033,8.73180873 11.9130146,7.96673597 11.1396258,7.18503119 C10.341289,6.38669439 9.55126819,5.58004158 8.74461538,4.79002079 C7.43900208,3.51767152 5.80906445,3.51767152 4.51176715,4.7983368 C3.51384615,5.77962578 2.5575052,6.78586279 1.54295218,7.75051975 C0.603243243,8.64033264 0.129230769,9.72972973 0.0294386694,11.002079 C-0.128565489,13.0727651 0.378711019,15.027027 1.09388773,16.9313929 C2.5575052,20.8731809 4.78619543,24.3742204 7.48889813,27.5841996 C11.1396258,31.9251559 15.4972141,35.3596674 20.5949272,37.8378378 C22.8901455,38.952183 25.2685239,39.8087318 27.8548025,39.950104 C29.6344283,40.049896 31.1812058,39.6008316 32.4202911,38.2120582 C33.2685239,37.2640333 34.2248649,36.3991684 35.1229938,35.4927235 C36.4535551,34.1455301 36.4618711,32.5155925 35.1396258,31.1850312 C33.5595842,29.5966736 31.9712266,28.016632 30.382869,26.4365904 Z" id="Path"></path>
            <path d="M28.7945114,19.8087318 L31.8631185,19.2848233 C31.38079,16.4656965 30.0502287,13.9126819 28.0294387,11.8835759 C25.8922245,9.74636175 23.1895218,8.3991684 20.2123909,7.98336798 L19.7799584,11.0686071 C22.0834927,11.3929314 24.1791268,12.4324324 25.8340125,14.0873181 C27.397422,15.6507277 28.4202911,17.6299376 28.7945114,19.8087318 Z" id="Path"></path>
            <path d="M33.5928482,6.46985447 C30.0502287,2.92723493 25.5679002,0.69022869 20.6198753,0 L20.1874428,3.08523909 C24.4618711,3.68399168 28.337131,5.62162162 31.397422,8.67359667 C34.2997089,11.5758836 36.2040748,15.2432432 36.8943035,19.2765073 L39.9629106,18.7525988 C39.1562578,14.0790021 36.9525156,9.83783784 33.5928482,6.46985447 Z" id="Path"></path>
        </g>
    </g>
</svg>