<?xml version="1.0" encoding="UTF-8"?>
<svg width="16px" height="16px" viewBox="0 0 16 16" version="1.1" xmlns="http://www.w3.org/2000/svg" xmlns:xlink="http://www.w3.org/1999/xlink">
    <!-- Generator: Sketch 58 (84663) - https://sketch.com -->
    <title>chart-goal</title>
    <desc>Created with Sketch.</desc>
    <g id="chart-goal" stroke="none" stroke-width="1" fill="none" fill-rule="evenodd">
        <g id="soccer" fill="#7F7F7F" fill-rule="nonzero">
            <path d="M7.96432787,0.0474754098 C7.94832787,0.0474754098 7.93259016,0.0485245902 7.91659016,0.0487868852 C7.91606557,0.0487868852 7.91554098,0.0487868852 7.91501639,0.0487868852 L7.9147541,0.0487868852 C7.89927869,0.0487868852 7.88432787,0.0477377049 7.86885246,0.0477377049 C3.52996721,0.0477377049 0,3.57770492 0,7.91659016 C0,12.2554754 3.52996721,15.7854426 7.86885246,15.7854426 C7.88485246,15.7854426 7.90059016,15.7843934 7.91659016,15.7841311 C7.93259016,15.7841311 7.94832787,15.7854426 7.96432787,15.7854426 C12.3032131,15.7854426 15.8331803,12.2554754 15.8331803,7.91659016 C15.8331803,3.57770492 12.3032131,0.0474754098 7.96432787,0.0474754098 Z M6.25731148,15.0583607 L6.92957377,14.7792787 L5.83134426,11.7088525 C5.91711475,11.6996721 5.99711475,11.650623 6.03855738,11.5677377 L6.15580328,11.3329836 C6.22059016,11.2034098 6.16813115,11.0457705 6.03855738,10.9809836 C5.90898361,10.9159344 5.75160656,10.9686557 5.68655738,11.0982295 L5.56931148,11.3329836 C5.52655738,11.4182295 5.53888525,11.5137049 5.58636066,11.5887213 L2.18281967,11.5900328 L2.21954098,12.4841967 C1.28209836,11.307541 0.697442623,9.83868852 0.628196721,8.23737705 L3.2637377,6.63685246 L3.38045902,6.68695082 C3.41429508,6.70137705 3.44944262,6.70845902 3.48406557,6.70845902 C3.58583607,6.70845902 3.68262295,6.64865574 3.72511475,6.5495082 C3.78229508,6.41652459 3.72039344,6.26203279 3.58767213,6.20511475 L3.48118033,6.15947541 L3.03711475,3.16406557 L2.288,3.26216393 C3.0882623,2.288 4.13429508,1.52419672 5.32957377,1.06308197 L4.96629508,1.58504918 L7.70203279,3.3387541 L7.70203279,3.45757377 C7.70203279,3.60236066 7.81927869,3.71986885 7.96432787,3.71986885 C8.10937705,3.71986885 8.22662295,3.60236066 8.22662295,3.45757377 L8.22662295,3.32485246 L10.6840656,1.44577049 L10.3832131,1.01560656 C11.6236066,1.46885246 12.7087213,2.24760656 13.5344262,3.2477377 L12.891541,3.16354098 L12.4474754,6.15895082 L12.3409836,6.20459016 C12.208,6.2615082 12.1463607,6.416 12.203541,6.54898361 C12.2460328,6.64839344 12.3428197,6.70793443 12.4445902,6.70793443 C12.4792131,6.70793443 12.5143607,6.70111475 12.5481967,6.68642623 L12.664918,6.63632787 L15.2065574,8.17993443 C15.1509508,9.74531148 14.6040656,11.1871475 13.7143607,12.3554098 L13.7458361,11.5892459 L10.6045902,11.5881967 C10.6520656,11.5131803 10.6643934,11.4177049 10.6216393,11.332459 L10.5043934,11.0977049 C10.4396066,10.9678689 10.2819672,10.9154098 10.1523934,10.980459 C10.0228197,11.0452459 9.97036066,11.2028852 10.0351475,11.332459 L10.1523934,11.5672131 C10.194623,11.6514098 10.2761967,11.7007213 10.363541,11.7088525 L8.97993443,14.770623 L9.63777049,15.0436721 C9.08590164,15.1805902 8.50963934,15.2553443 7.91685246,15.2590164 C7.34583607,15.2556066 6.79055738,15.1858361 6.25731148,15.0583607 Z" id="Shape"></path>
            <path d="M9.68314754,10.6287213 C9.72931148,10.7207869 9.82163934,10.7737705 9.91816393,10.7737705 C9.9575082,10.7737705 9.99763934,10.7648525 10.0351475,10.7462295 C10.1647213,10.6814426 10.2171803,10.5238033 10.1523934,10.3942295 L10.0836721,10.2567869 L11.159082,7.03029508 L8.03121311,4.75540984 C8.14295082,4.7252459 8.22688525,4.62767213 8.22688525,4.5064918 L8.22688525,4.24419672 C8.22688525,4.09940984 8.10963934,3.98190164 7.96459016,3.98190164 C7.81954098,3.98190164 7.70229508,4.09940984 7.70229508,4.24419672 L7.70229508,4.5064918 C7.70229508,4.62767213 7.78622951,4.7252459 7.89796721,4.75540984 L4.7624918,7.03554098 L6.04563934,10.3805902 L6.03881967,10.3942295 C5.97403279,10.5238033 6.0264918,10.6814426 6.15606557,10.7462295 C6.19383607,10.7651148 6.23370492,10.7737705 6.27304918,10.7737705 C6.36931148,10.7737705 6.46190164,10.7207869 6.50806557,10.6287213 L6.55291803,10.5390164 L9.63855738,10.5390164 L9.68314754,10.6287213 Z" id="Path"></path>
            <path d="M4.55213115,6.61796721 L4.31108197,6.51462295 C4.17757377,6.45744262 4.02334426,6.51908197 3.96668852,6.65232787 C3.9095082,6.78531148 3.97140984,6.93980328 4.10413115,6.99672131 L4.34518033,7.10006557 C4.37901639,7.1144918 4.41416393,7.12157377 4.44878689,7.12157377 C4.55055738,7.12157377 4.64734426,7.06177049 4.68983607,6.96262295 C4.7467541,6.82937705 4.68485246,6.67514754 4.55213115,6.61796721 Z" id="Path"></path>
            <path d="M11.4803934,7.12157377 C11.5150164,7.12157377 11.5501639,7.1147541 11.584,7.10006557 L11.8250492,6.99672131 C11.9580328,6.93980328 12.0196721,6.78531148 11.9624918,6.65232787 C11.9053115,6.51881967 11.751082,6.45718033 11.6180984,6.51462295 L11.3770492,6.61796721 C11.2440656,6.67514754 11.1824262,6.82937705 11.2396066,6.96236066 C11.2818361,7.06203279 11.378623,7.12157377 11.4803934,7.12157377 Z" id="Path"></path>
        </g>
    </g>
</svg>