<?xml version="1.0" encoding="UTF-8"?>
<svg width="32px" height="32px" viewBox="0 0 32 32" version="1.1" xmlns="http://www.w3.org/2000/svg" xmlns:xlink="http://www.w3.org/1999/xlink">
    <!-- Generator: Sketch 57.1 (83088) - https://sketch.com -->
    <title>ic_goal</title>
    <desc>Created with Sketch.</desc>
    <g id="ic_goal" stroke="none" stroke-width="1" fill="none" fill-rule="evenodd">
        <g>
            <rect id="Rectangle" fill="#EBEBEB" opacity="0" x="0" y="0" width="32" height="32"></rect>
            <g id="Group-2" transform="translate(4.000000, 4.000000)">
                <g id="Group-7">
                    <rect id="Rectangle" fill="#EBEBEB" opacity="0" x="0" y="0" width="24" height="24"></rect>
                    <g id="football-ball" fill="#000000" fill-rule="nonzero">
                        <polygon id="Path" points="13.132008 10.1222052 16.3424547 5.5275332 12.4357183 1.88455533 6.97989537 3.84661569 7.16151308 8.98841046"></polygon>
                        <polygon id="Path" points="11.0519759 19.4321288 13.9900201 22.4922495 19.1219638 20.3014406 19.9600805 15.7671308 14.8657062 15.1398954"></polygon>
                        <path d="M0.759645875,16.2638873 L0.824498994,16.3432757 C2.57022133,20.7970382 6.90364588,23.952338 11.9762414,23.952338 C18.5907767,23.952338 23.9523863,18.5907767 23.9523863,11.9761449 C23.9523863,5.3618994 18.5907284,0 11.9761932,0 C5.3618994,0 0,5.36223742 0,11.9761449 C0,13.4570946 0.270615694,14.8747847 0.762253521,16.1843541 L0.759645875,16.2638873 Z M0.624386318,11.9761449 C0.624386318,10.4637103 0.924217304,9.02061972 1.46366197,7.69941247 L4.29667606,4.1844507 L5.03096982,3.00700201 C6.95251509,1.51567002 9.36159356,0.624434608 11.9766278,0.624434608 C12.039501,0.624434608 12.1013602,0.628297787 12.1646197,0.628973843 L13.4315493,1.09564588 L16.224,1.45197586 C18.0121207,2.17641851 19.5761288,3.34251911 20.7783018,4.81637022 L20.3132716,6.84125553 L22.147992,12.0154044 L23.3200805,12.3122897 C23.1401046,18.4169819 18.1231871,23.3274688 11.9765795,23.3274688 C8.9162173,23.3274688 6.13709457,22.1082978 4.09332797,20.132668 L6.29659557,18.2400966 L4.19391549,12.8202012 L0.904032193,11.6870825 L0.827975855,14.103839 C0.696338028,13.4147445 0.624386318,12.7039195 0.624386318,11.9761449 Z" id="Shape"></path>
                    </g>
                </g>
            </g>
        </g>
    </g>
</svg>