<?xml version="1.0" encoding="UTF-8"?>
<svg width="32px" height="32px" viewBox="0 0 32 32" version="1.1" xmlns="http://www.w3.org/2000/svg" xmlns:xlink="http://www.w3.org/1999/xlink">
    <!-- Generator: Sketch 57.1 (83088) - https://sketch.com -->
    <title>ic_injury</title>
    <desc>Created with Sketch.</desc>
    <g id="ic_injury" stroke="none" stroke-width="1" fill="none" fill-rule="evenodd">
        <g id="ico_injury">
            <rect id="Rectangle" fill="#EBEBEB" opacity="0" x="0" y="0" width="32" height="32"></rect>
            <g id="injury-(1)" transform="translate(6.000000, 4.000000)" fill="#000000" fill-rule="nonzero">
                <path d="M8.78209457,20.6448804 L8.78209457,21.1567048 C8.78209457,21.8180223 8.24590698,22.35421 7.58458937,22.35421 L3.78800677,22.35421 C4.09478949,22.8551196 4.64208679,23.1581991 5.22953484,23.1525468 L5.58874738,23.1525468 L5.58874738,23.5517152 C5.58874738,23.7721544 5.76747662,23.9508836 5.98791578,23.9508836 C6.20835498,23.9508836 6.38708417,23.7721544 6.38708417,23.5517152 L6.38708417,23.1525468 L7.18542097,23.1525468 L7.18542097,23.5517152 C7.18542097,23.7721544 7.36415022,23.9508836 7.58458937,23.9508836 C7.80502857,23.9508836 7.98375777,23.7721544 7.98375777,23.5517152 L7.98375777,23.1525468 L8.78209457,23.1525468 L8.78209457,23.5517152 C8.78209457,23.7721544 8.96082382,23.9508836 9.18126297,23.9508836 C9.40170217,23.9508836 9.58043137,23.7721544 9.58043137,23.5517152 L9.58043137,23.1525468 L11.177105,23.1525468 C11.150013,23.0455432 10.8461538,21.5342386 8.78209457,20.6448804 Z" id="Path"></path>
                <path d="M18.4619282,16.3785733 C18.4539371,16.3785733 18.4498441,16.3746751 18.4420478,16.3746751 C18.2720894,16.3393971 18.0990125,16.4185291 18.0148129,16.5701663 C17.8914371,16.7637084 17.7407745,16.9385395 17.5676975,17.0892022 C17.2946336,17.3258186 16.9668009,17.4905145 16.6138254,17.5680873 C15.8180223,17.6807432 15.0099402,17.4772609 14.362461,17.0012994 C14.2108238,16.9094984 14.0550936,16.8058082 13.8954652,16.6859407 C13.7943088,16.6118763 13.6648909,16.5882926 13.5442438,16.6222064 C13.5344984,16.622986 13.524948,16.6257146 13.5161772,16.6301975 L8.78209457,18.3788981 L8.78209457,19.7923597 C11.6308472,20.7930093 11.9754418,23.1525468 11.9754418,23.1525468 L13.5584719,23.1525468 C13.5584719,21.0600312 18.202118,19.3623961 18.7613045,19.1608628 L18.7613045,16.7658524 C18.7597453,16.5841996 18.6373441,16.4259356 18.4619282,16.3785733 Z" id="Path"></path>
                <path d="M14.3568087,23.1525468 L14.7696206,23.1525468 L14.7696206,23.5517152 C14.7696206,23.7721544 14.9483498,23.9508836 15.168789,23.9508836 C15.3892282,23.9508836 15.5679574,23.7721544 15.5679574,23.5517152 L15.5679574,23.1525468 L16.3662942,23.1525468 L16.3662942,23.5517152 C16.3662942,23.7721544 16.5450234,23.9508836 16.7654626,23.9508836 C16.9859018,23.9508836 17.164631,23.7721544 17.164631,23.5517152 L17.164631,23.1525468 L17.6197375,23.1525468 C17.6616424,23.1517672 17.7033524,23.1449454 17.7435031,23.1324714 C18.389618,22.8843555 18.8012604,22.2468165 18.7613045,21.5558732 L18.7613045,19.9591996 C16.8516112,20.6474143 14.3568087,21.9949974 14.3568087,23.1525468 L14.3568087,23.1525468 Z" id="Path"></path>
                <path d="M7.58458937,4.39163202 L8.38292617,4.39163202 C8.60336537,4.39163202 8.78209457,4.21290282 8.78209457,3.99246362 C8.78209457,3.77202442 8.60336537,3.59329522 8.38292617,3.59329522 L7.58458937,3.59329522 C7.36415022,3.59329522 7.18542097,3.77202442 7.18542097,3.99246362 C7.18542097,4.21290282 7.36415022,4.39163202 7.58458937,4.39163202 Z" id="Path"></path>
                <path d="M10.7779366,3.59329522 L9.97959977,3.59329522 C9.75916062,3.59329522 9.58043137,3.77202442 9.58043137,3.99246362 C9.58043137,4.21290282 9.75916062,4.39163202 9.97959977,4.39163202 L10.7779366,4.39163202 C10.9983758,4.39163202 11.177105,4.21290282 11.177105,3.99246362 C11.177105,3.77202442 10.9983758,3.59329522 10.7779366,3.59329522 Z" id="Path"></path>
                <path d="M7.63877339,2.79495842 C7.67385655,2.79495842 7.70874481,2.79028067 7.74265851,2.78131499 L8.51351351,2.57451922 C8.65521051,2.54138515 8.76767152,2.4336019 8.8068477,2.29346415 C8.84602388,2.15313151 8.80567829,2.00266373 8.70179316,1.90072765 C8.5977131,1.79898651 8.4464657,1.76175937 8.30710758,1.80385916 L7.53586279,2.01007015 C7.3423207,2.06191529 7.21719074,2.24902548 7.24330822,2.44763516 C7.26942566,2.64624479 7.43860446,2.79476353 7.63877339,2.79495842 Z" id="Path"></path>
                <path d="M9.95211797,2.17496712 C9.98700624,2.17515593 10.0216996,2.17067306 10.0554184,2.16151245 L10.8266632,1.95666581 C11.0400858,1.8991684 11.1663851,1.67950882 11.1088877,1.46608625 C11.0513903,1.25266373 10.8317308,1.12636436 10.6183082,1.18386172 L9.84745322,1.39026766 C9.65391114,1.4421128 9.52878117,1.62922299 9.55489866,1.82783262 C9.5810161,2.0264423 9.75019489,2.17496712 9.95036383,2.17496712 L9.95211797,2.17496712 Z" id="Path"></path>
                <path d="M9.84901247,6.56620321 L10.6198675,6.77299899 C10.6537812,6.78196466 10.6886694,6.78664241 10.7235577,6.78664241 C10.9239215,6.78644752 11.0931003,6.63792878 11.1192178,6.43931915 C11.1453353,6.24070947 11.0200104,6.05359928 10.8266632,6.00175415 L10.0554184,5.79554315 C9.84550413,5.74623178 9.63461538,5.8727261 9.57867722,6.08088619 C9.522934,6.28904627 9.64260654,6.50402804 9.84901247,6.56620321 Z" id="Path"></path>
                <path d="M8.51351351,5.38195165 L7.74421776,5.17554571 C7.53118503,5.11843814 7.31230508,5.24473751 7.25519751,5.45777025 C7.19808993,5.67080303 7.3245842,5.88968293 7.53742204,5.94679055 L8.30866683,6.15319644 C8.34238563,6.16235706 8.377079,6.16683992 8.41196727,6.16665111 C8.61233109,6.16665111 8.78150989,6.01812629 8.80762733,5.81951661 C8.83374481,5.62090698 8.70861485,5.43379679 8.51507277,5.38195165 L8.51351351,5.38195165 Z" id="Path"></path>
                <path d="M13.6551455,15.8078872 C13.9155405,15.8073025 14.1691138,15.8913072 14.3776637,16.0472323 C14.5057173,16.1431263 14.6405925,16.2341476 14.774883,16.3152287 C15.1861357,16.6070036 15.6704782,16.779106 16.1739215,16.8120569 C16.2668919,16.812435 16.3598623,16.8030795 16.4508836,16.7841736 C16.6715177,16.7338877 16.8761694,16.6300026 17.0469075,16.4816788 C17.1564449,16.385395 17.2527287,16.2746881 17.3326403,16.1526767 C17.3451143,16.1316268 17.3858498,16.0704262 17.3858498,16.0704262 C17.610382,15.7546778 17.9744672,15.5673727 18.3621361,15.5683472 C18.4096934,15.5685421 18.4570556,15.5714657 18.504223,15.577118 L18.518646,15.577118 L19.9588097,0.435810811 C19.9765462,0.215956341 19.8149688,0.0224142536 19.5955041,0.00077962578 C19.5836149,-0.000194906445 19.5715307,-0.000194906445 19.5596413,0.00077962578 L13.1530665,0.00077962578 C13.0470374,0.0058472183 12.9476352,0.053014553 12.8764943,0.131561863 C12.8053534,0.210304067 12.7683212,0.313994295 12.7737786,0.419828457 L13.506237,15.8221154 C13.5555483,15.8143191 13.6052495,15.8096413 13.6551455,15.8078872 L13.6551455,15.8078872 Z" id="Path"></path>
                <path d="M7.98375777,21.1567048 L7.98375777,8.38331601 C7.98375777,7.50155925 7.26884098,6.78664241 6.38708417,6.78664241 L5.58874738,6.78664241 L5.58874738,5.98830561 L5.98791578,5.98830561 C6.20835498,5.98830561 6.38708417,5.80957642 6.38708417,5.58913721 L6.38708417,2.39579002 C6.38708417,2.17535082 6.20835498,1.99662162 5.98791578,1.99662162 L3.59290538,1.99662162 C2.49070947,1.99662162 1.59706338,2.89007277 1.59706338,3.99246362 L1.59706338,5.58913721 C1.59706338,5.80957642 1.77579263,5.98830561 1.99623178,5.98830561 L2.39540018,5.98830561 L2.39540018,6.78664241 L1.59706338,6.78664241 C0.715306678,6.78664241 0.00038981289,7.50155925 0.00038981289,8.38331601 L0.00038981289,21.1567048 C0.00038981289,21.377144 0.179119035,21.5558732 0.399558187,21.5558732 L7.58458937,21.5558732 C7.80502857,21.5558732 7.98375777,21.377144 7.98375777,21.1567048 Z M7.18542097,20.358368 C7.18542097,20.5788072 7.00669178,20.7575364 6.78625257,20.7575364 L5.18957898,20.7575364 C4.96913983,20.7575364 4.79041058,20.5788072 4.79041058,20.358368 C4.79041058,20.1379288 4.96913983,19.9591996 5.18957898,19.9591996 L6.38708417,19.9591996 L6.38708417,18.7616944 C6.38708417,18.5412552 6.56581342,18.362526 6.78625257,18.362526 C7.00669178,18.362526 7.18542097,18.5412552 7.18542097,18.7616944 L7.18542097,20.358368 Z M7.18542097,17.5641892 L0.798726586,17.5641892 L0.798726586,10.7783264 L7.18542097,10.7783264 L7.18542097,17.5641892 Z M7.18542097,9.58082121 C7.18542097,9.80126041 7.00669178,9.9799896 6.78625257,9.9799896 C6.56581342,9.9799896 6.38708417,9.80126041 6.38708417,9.58082121 L6.38708417,8.38331601 L5.18957898,8.38331601 C4.96913983,8.38331601 4.79041058,8.20458681 4.79041058,7.98414761 C4.79041058,7.76370841 4.96913983,7.58497921 5.18957898,7.58497921 L6.38708417,7.58497921 C6.82796258,7.58497921 7.18542097,7.94243765 7.18542097,8.38331601 L7.18542097,9.58082121 Z" id="Shape"></path>
            </g>
        </g>
    </g>
</svg>