<?xml version="1.0" encoding="UTF-8" standalone="no"?>
<!DOCTYPE svg PUBLIC "-//W3C//DTD SVG 1.1//EN" "http://www.w3.org/Graphics/SVG/1.1/DTD/svg11.dtd">
<svg width="100%" height="100%" viewBox="0 0 1080 1080" version="1.1" xmlns="http://www.w3.org/2000/svg" xmlns:xlink="http://www.w3.org/1999/xlink" xml:space="preserve" xmlns:serif="http://www.serif.com/" style="fill-rule:evenodd;clip-rule:evenodd;stroke-linejoin:round;stroke-miterlimit:1.41421;">
    <g transform="matrix(1,0,0,1,-1.02888,-2542.03)">
        <g id="no_data_football_1" transform="matrix(1,0,0,1,1.02888,2542.03)">
            <rect x="0" y="0" width="1080" height="1080" style="fill:none;"/>
            <clipPath id="_clip1">
                <rect x="0" y="0" width="1080" height="1080"/>
            </clipPath>
            <g clip-path="url(#_clip1)">
                <g transform="matrix(1.22182,0,0,1.22182,228.2,189.171)">
                    <path d="M15.731,336.798L17.074,338.442C53.225,430.672 142.963,496.013 248.008,496.013C384.984,496.013 496.014,384.984 496.014,248.006C496.013,111.036 384.983,0 248.007,0C111.036,0 0,111.043 0,248.006C0,278.674 5.604,308.032 15.785,335.151L15.731,336.798ZM12.93,248.006C12.93,216.686 19.139,186.802 30.31,159.442L88.977,86.653L104.183,62.27C143.975,31.387 193.863,12.931 248.016,12.931C249.318,12.931 250.599,13.011 251.909,13.025L278.145,22.689L335.972,30.068C373.001,45.07 405.389,69.218 430.284,99.739L420.654,141.671L458.648,248.819L482.92,254.967C479.193,381.385 375.301,483.073 248.015,483.073C184.64,483.073 127.089,457.826 84.766,416.914L130.392,377.722L86.849,265.485L18.721,242.02L17.146,292.067C14.42,277.797 12.93,263.077 12.93,248.006ZM228.868,402.407L289.71,465.777L395.984,420.409L413.34,326.511L307.844,313.522L228.868,402.407ZM271.942,209.614L338.425,114.466L257.523,39.026L144.542,79.657L148.303,186.135L271.942,209.614Z" style="fill:rgb(119,119,119);fill-rule:nonzero;"/>
                </g>
                <g transform="matrix(-969.434,0,0,-969.434,269.104,551.74)">
                    <path d="M-0.576,0.576C-0.539,0.541 -0.471,0.492 -0.445,0.473C-0.449,0.507 -0.455,0.552 -0.458,0.576L-0.446,0.576C-0.443,0.549 -0.437,0.498 -0.433,0.463C-0.413,0.439 -0.346,0.363 -0.346,0.362L-0.345,0.361L-0.345,0.36C-0.345,0.36 -0.344,0.359 -0.344,0.358C-0.334,0.351 -0.27,0.306 -0.204,0.271C-0.214,0.295 -0.234,0.347 -0.239,0.391C-0.255,0.404 -0.271,0.42 -0.285,0.436C-0.333,0.482 -0.402,0.55 -0.424,0.572C-0.425,0.573 -0.425,0.574 -0.425,0.576L-0.412,0.576C-0.396,0.56 -0.365,0.53 -0.333,0.498C-0.354,0.53 -0.37,0.559 -0.379,0.576L-0.366,0.576C-0.351,0.547 -0.32,0.492 -0.277,0.444C-0.253,0.42 -0.234,0.402 -0.23,0.398C-0.197,0.381 -0.165,0.362 -0.137,0.342C-0.236,0.439 -0.31,0.527 -0.35,0.576L-0.335,0.576C-0.285,0.515 -0.186,0.4 -0.058,0.282C-0.024,0.255 -0.003,0.234 -0.003,0.234L-0.002,0.233L-0.002,0.232L-0.002,0.232C0.021,0.188 0.028,0.089 0.029,0.08C0.049,-0.002 0.041,-0.041 0.038,-0.051C0.04,-0.054 0.039,-0.059 0.038,-0.065C0.037,-0.073 0.033,-0.08 0.024,-0.086C0.02,-0.089 0.016,-0.087 0.016,-0.087C0.02,-0.08 0.022,-0.076 0.022,-0.076C0.024,-0.073 0.025,-0.07 0.026,-0.066C-0.024,-0.118 -0.082,-0.142 -0.093,-0.146C-0.099,-0.156 -0.141,-0.213 -0.173,-0.248C-0.174,-0.249 -0.175,-0.249 -0.175,-0.25C-0.174,-0.255 -0.172,-0.265 -0.172,-0.276C-0.149,-0.249 -0.13,-0.229 -0.111,-0.209C-0.111,-0.209 -0.105,-0.207 -0.099,-0.204C-0.091,-0.2 -0.087,-0.198 -0.087,-0.198C-0.134,-0.247 -0.213,-0.34 -0.261,-0.402C-0.299,-0.451 -0.345,-0.522 -0.363,-0.551L-0.376,-0.551C-0.374,-0.548 -0.37,-0.543 -0.367,-0.537C-0.369,-0.532 -0.375,-0.518 -0.379,-0.508C-0.38,-0.506 -0.381,-0.504 -0.381,-0.502C-0.399,-0.527 -0.413,-0.544 -0.419,-0.551L-0.433,-0.551C-0.433,-0.55 -0.432,-0.549 -0.431,-0.548C-0.43,-0.547 -0.369,-0.479 -0.314,-0.369C-0.369,-0.338 -0.42,-0.317 -0.433,-0.311C-0.471,-0.35 -0.545,-0.428 -0.553,-0.437C-0.564,-0.465 -0.584,-0.523 -0.594,-0.551L-0.606,-0.551C-0.597,-0.525 -0.576,-0.466 -0.565,-0.436C-0.626,-0.395 -0.698,-0.366 -0.714,-0.359C-0.741,-0.386 -0.776,-0.416 -0.801,-0.437C-0.817,-0.45 -0.83,-0.46 -0.836,-0.466L-0.836,-0.451C-0.807,-0.427 -0.756,-0.384 -0.721,-0.35C-0.719,-0.338 -0.706,-0.27 -0.697,-0.217C-0.758,-0.199 -0.808,-0.181 -0.836,-0.171L-0.836,-0.159C-0.809,-0.169 -0.756,-0.188 -0.691,-0.207C-0.675,-0.197 -0.571,-0.132 -0.556,-0.122C-0.552,-0.119 -0.549,-0.117 -0.548,-0.114C-0.548,-0.113 -0.548,-0.113 -0.548,-0.112C-0.548,-0.112 -0.548,-0.111 -0.547,-0.11C-0.547,-0.107 -0.547,-0.102 -0.547,-0.096C-0.548,-0.092 -0.548,-0.086 -0.548,-0.079C-0.548,-0.051 -0.553,0.011 -0.557,0.02C-0.567,0.028 -0.682,0.068 -0.711,0.073C-0.711,0.073 -0.712,0.073 -0.712,0.072C-0.751,0.039 -0.803,0.012 -0.836,-0.004L-0.836,0.009C-0.804,0.024 -0.756,0.05 -0.72,0.08C-0.726,0.095 -0.757,0.186 -0.765,0.212C-0.785,0.219 -0.811,0.23 -0.836,0.241L-0.836,0.254C-0.81,0.241 -0.782,0.229 -0.761,0.223C-0.713,0.252 -0.636,0.301 -0.63,0.312C-0.629,0.312 -0.629,0.312 -0.629,0.314C-0.629,0.314 -0.629,0.314 -0.629,0.315C-0.63,0.321 -0.635,0.338 -0.659,0.384C-0.674,0.412 -0.69,0.439 -0.693,0.445C-0.704,0.451 -0.78,0.494 -0.836,0.541L-0.836,0.555C-0.783,0.51 -0.709,0.467 -0.691,0.457C-0.684,0.465 -0.665,0.486 -0.631,0.512C-0.59,0.544 -0.585,0.556 -0.594,0.576L-0.576,0.576ZM-0.376,0.319C-0.352,0.336 -0.354,0.351 -0.355,0.355C-0.363,0.364 -0.424,0.435 -0.442,0.457C-0.451,0.463 -0.532,0.521 -0.579,0.563C-0.578,0.543 -0.592,0.528 -0.624,0.503C-0.658,0.477 -0.676,0.456 -0.682,0.449C-0.677,0.44 -0.662,0.414 -0.648,0.388C-0.628,0.35 -0.621,0.33 -0.619,0.319C-0.557,0.298 -0.48,0.256 -0.462,0.246C-0.45,0.258 -0.404,0.3 -0.376,0.319ZM-0.013,0.224C-0.032,0.24 -0.048,0.258 -0.065,0.274C-0.104,0.306 -0.162,0.349 -0.227,0.384C-0.219,0.331 -0.191,0.269 -0.187,0.261C-0.129,0.196 -0.108,0.166 -0.103,0.158C-0.093,0.156 -0.047,0.141 0.017,0.092C0.014,0.121 0.004,0.189 -0.013,0.224ZM-0.113,0.153C-0.119,0.162 -0.141,0.193 -0.196,0.254C-0.258,0.285 -0.322,0.329 -0.344,0.344C-0.346,0.335 -0.352,0.322 -0.37,0.31C-0.396,0.292 -0.443,0.249 -0.454,0.238C-0.445,0.215 -0.409,0.133 -0.402,0.118C-0.388,0.115 -0.324,0.1 -0.239,0.061C-0.206,0.082 -0.129,0.131 -0.113,0.153ZM-0.494,0.064C-0.452,0.085 -0.421,0.106 -0.412,0.114C-0.42,0.132 -0.457,0.215 -0.466,0.235C-0.478,0.242 -0.556,0.285 -0.619,0.307C-0.619,0.307 -0.62,0.306 -0.62,0.306C-0.629,0.29 -0.726,0.231 -0.754,0.214C-0.745,0.188 -0.716,0.102 -0.71,0.085C-0.695,0.082 -0.658,0.07 -0.626,0.059C-0.577,0.042 -0.559,0.034 -0.552,0.03C-0.545,0.035 -0.525,0.047 -0.494,0.064ZM0.027,-0.049C0.032,-0.036 0.035,0.005 0.018,0.076C-0.045,0.126 -0.091,0.143 -0.104,0.147C-0.124,0.119 -0.213,0.064 -0.233,0.052C-0.232,-0.005 -0.231,-0.061 -0.23,-0.079C-0.156,-0.097 -0.111,-0.127 -0.098,-0.136C-0.093,-0.134 -0.024,-0.105 0.027,-0.049ZM-0.242,-0.082C-0.242,-0.068 -0.243,-0.009 -0.245,0.051C-0.328,0.089 -0.39,0.104 -0.404,0.107C-0.415,0.096 -0.451,0.073 -0.488,0.054C-0.518,0.038 -0.538,0.026 -0.546,0.021C-0.54,0 -0.537,-0.064 -0.537,-0.079C-0.537,-0.086 -0.537,-0.091 -0.536,-0.096C-0.536,-0.101 -0.535,-0.105 -0.536,-0.109C-0.517,-0.114 -0.454,-0.131 -0.381,-0.168C-0.367,-0.159 -0.296,-0.119 -0.242,-0.082ZM-0.182,-0.241C-0.154,-0.21 -0.118,-0.162 -0.106,-0.145C-0.119,-0.135 -0.163,-0.107 -0.233,-0.09C-0.289,-0.128 -0.364,-0.171 -0.376,-0.178C-0.397,-0.233 -0.42,-0.285 -0.427,-0.302C-0.411,-0.308 -0.361,-0.329 -0.307,-0.36C-0.291,-0.345 -0.213,-0.274 -0.182,-0.241ZM-0.44,-0.301C-0.436,-0.294 -0.411,-0.238 -0.388,-0.177C-0.459,-0.141 -0.521,-0.125 -0.539,-0.12C-0.541,-0.124 -0.544,-0.127 -0.549,-0.131C-0.565,-0.141 -0.668,-0.206 -0.685,-0.216C-0.694,-0.266 -0.706,-0.331 -0.709,-0.349C-0.691,-0.356 -0.619,-0.385 -0.559,-0.426C-0.543,-0.41 -0.474,-0.337 -0.44,-0.301ZM-0.27,-0.395C-0.245,-0.362 -0.214,-0.325 -0.183,-0.289C-0.183,-0.289 -0.183,-0.289 -0.183,-0.289C-0.182,-0.279 -0.184,-0.268 -0.185,-0.26C-0.223,-0.299 -0.294,-0.363 -0.302,-0.37C-0.323,-0.412 -0.344,-0.447 -0.363,-0.476C-0.363,-0.476 -0.363,-0.476 -0.363,-0.476C-0.366,-0.481 -0.372,-0.495 -0.369,-0.503C-0.366,-0.51 -0.362,-0.519 -0.359,-0.525C-0.337,-0.491 -0.302,-0.436 -0.27,-0.395Z" style="fill:url(#_Radial2);fill-rule:nonzero;"/>
                </g>
            </g>
        </g>
    </g>
    <defs>
        <radialGradient id="_Radial2" cx="0" cy="0" r="1" gradientUnits="userSpaceOnUse" gradientTransform="matrix(-0.982265,-0,-0,-0.982265,0.0309314,0.0298977)"><stop offset="0" style="stop-color:rgb(186,186,186);stop-opacity:1"/><stop offset="1" style="stop-color:rgb(123,123,123);stop-opacity:0"/></radialGradient>
    </defs>
</svg>
