<?xml version="1.0" encoding="UTF-8"?>
<svg width="32px" height="32px" viewBox="0 0 32 32" version="1.1" xmlns="http://www.w3.org/2000/svg" xmlns:xlink="http://www.w3.org/1999/xlink">
    <!-- Generator: Sketch 55.2 (78181) - https://sketchapp.com -->
    <title>Artboard</title>
    <desc>Created with Sketch.</desc>
    <g id="Artboard" stroke="none" stroke-width="1" fill="none" fill-rule="evenodd">
        <g id="Group-27-Copy">
            <rect id="Rectangle" fill="#EBEBEB" opacity="0" x="0" y="0" width="32" height="32"></rect>
            <g id="soccer-ball-in-front-of-the-arch" transform="translate(2.000000, 7.000000)" fill="#000000" fill-rule="nonzero">
                <path d="M27.5657143,0.0251380323 L0.422857143,0.0251380323 C0.42,0.0251380323 0.417142857,0.0251380323 0.414285714,0.0251380323 C0.405714286,0.0251380323 0.397142857,0.0251380323 0.391428571,0.0251380323 C0.385714286,0.0251380323 0.377142857,0.0251380323 0.371428571,0.027928047 C0.365714286,0.027928047 0.357142857,0.0307180617 0.351428571,0.0307180617 C0.342857143,0.0307180617 0.337142857,0.0335080764 0.328571429,0.036298091 C0.322857143,0.036298091 0.317142857,0.0390881057 0.311428571,0.0418781204 C0.302857143,0.0446681351 0.297142857,0.0446681351 0.288571429,0.0474581498 C0.282857143,0.0502481645 0.277142857,0.0502481645 0.271428571,0.0530381791 C0.265714286,0.0558281938 0.257142857,0.0586182085 0.251428571,0.0614082232 C0.245714286,0.0641982379 0.24,0.0669882526 0.234285714,0.0697782673 C0.228571429,0.0725682819 0.222857143,0.0753582966 0.217142857,0.0781483113 C0.211428571,0.080938326 0.202857143,0.0865183554 0.197142857,0.08930837 C0.191428571,0.0920983847 0.185714286,0.0948883994 0.182857143,0.100468429 C0.177142857,0.106048458 0.171428571,0.108838473 0.162857143,0.114418502 C0.157142857,0.117208517 0.154285714,0.122788546 0.148571429,0.125578561 C0.142857143,0.13115859 0.137142857,0.13673862 0.131428571,0.139528634 C0.125714286,0.145108664 0.122857143,0.147898678 0.117142857,0.153478708 C0.111428571,0.159058737 0.108571429,0.164638767 0.102857143,0.167428781 C0.0971428571,0.173008811 0.0942857143,0.17858884 0.0885714286,0.184168869 C0.0857142857,0.186958884 0.0828571429,0.189748899 0.0828571429,0.192538913 C0.08,0.195328928 0.08,0.198118943 0.0771428571,0.198118943 C0.0714285714,0.203698972 0.0685714286,0.212069016 0.0628571429,0.217649046 C0.06,0.223229075 0.0571428571,0.228809104 0.0542857143,0.231599119 C0.0514285714,0.237179148 0.0457142857,0.245549192 0.0428571429,0.251129222 C0.04,0.256709251 0.0371428571,0.26228928 0.0342857143,0.26786931 C0.0314285714,0.273449339 0.0285714286,0.281819383 0.0257142857,0.287399413 C0.0228571429,0.292979442 0.02,0.298559471 0.02,0.306929515 C0.0171428571,0.312509545 0.0171428571,0.320879589 0.0142857143,0.326459618 C0.0114285714,0.332039648 0.0114285714,0.340409692 0.00857142857,0.345989721 C0.00857142857,0.35156975 0.00571428571,0.35714978 0.00571428571,0.365519824 C0.00571428571,0.373889868 0.00285714286,0.379469897 0.00285714286,0.387839941 C0.00285714286,0.393419971 0.00285714286,0.399 -5.68434189e-14,0.404580029 C-5.68434189e-14,0.412950073 -5.68434189e-14,0.421320117 -5.68434189e-14,0.429690162 C-5.68434189e-14,0.432480176 -5.68434189e-14,0.435270191 -5.68434189e-14,0.438060206 L-5.68434189e-14,15.9365918 C-5.68434189e-14,16.0984126 0.0971428571,16.2490734 0.248571429,16.3160338 C0.4,16.3857841 0.58,16.3607019 0.705714286,16.2546814 L3.24,14.1537724 L4.25142857,14.1537724 C4.27142857,14.0142717 4.3,13.8747709 4.33428571,13.7380881 C4.36,13.6320675 4.38857143,13.528837 4.42285714,13.4256065 C4.43428571,13.3893363 4.44571429,13.3530661 4.45714286,13.3195859 L3.51142857,13.3195859 C3.50857143,12.948514 3.50285714,12.583022 3.49714286,12.2231101 L3.96571429,11.7655477 L4.78857143,12.569072 C4.92571429,12.3151806 5.08857143,12.0780294 5.26857143,11.8520382 L4.56571429,11.1740646 L5.57714286,10.1864273 L6.29428571,10.886721 C6.53428571,10.7193201 6.78857143,10.5714493 7.05714286,10.4486887 L6.18285714,9.5949442 L7.26,8.54310866 L8.33714286,9.5949442 L7.72285714,10.1947974 C8.05142857,10.0943289 8.39428571,10.0273965 8.74857143,9.99667841 C8.88282857,9.98554626 9.02,9.97717621 9.15714286,9.97717621 C9.17428571,9.97717621 9.19142857,9.97717621 9.20857143,9.97717621 C9.47714286,9.97717621 9.74285714,9.99949633 10.0028571,10.0385286 L9.54857143,9.5948884 L10.6256857,8.54305286 L11.7028286,9.5948884 L10.9942571,10.2923921 C11.2799714,10.3984126 11.5514,10.5267254 11.8085429,10.6801762 L12.3142571,10.1863715 L13.3914,11.2381791 L12.9799714,11.6399413 C13.1714,11.8519824 13.3428286,12.0779736 13.4942571,12.3207048 L13.9971143,11.8296344 L15.0742571,12.8814699 L14.6256857,13.3195022 L13.9714286,13.3195022 C14.0285714,13.4841131 14.0742857,13.6487239 14.1142857,13.8217048 C14.12,13.846815 14.1256857,13.8719251 14.1314286,13.8970352 C14.1486,13.9835257 14.1657143,14.0700162 14.1771714,14.1565066 L24.7514571,14.1565066 L27.2857429,16.2573877 C27.3657429,16.321558 27.4628857,16.3578282 27.5628857,16.3578282 C27.6228857,16.3578282 27.6857429,16.3438781 27.7428857,16.3187959 C27.8943143,16.2490455 27.9914881,16.1011747 27.9914881,15.939326 L27.9914881,0.443640235 C27.9942857,0.212069016 27.8028571,0.0251380323 27.5657143,0.0251380323 Z M24.4828286,13.3223201 L23.4742571,13.3223201 L22.9599714,12.8201175 L24.0371143,11.7682819 L24.4971143,12.2175022 C24.4914286,12.5773862 24.4857143,12.9456681 24.4828286,13.3223201 Z M16.2914286,12.8842878 L17.3685429,11.8324802 L18.4456857,12.8842878 L17.9971143,13.3223201 L16.7371143,13.3223201 L16.2914286,12.8842878 Z M6.13428571,0.862142438 L6.65714286,1.37271512 L5.58,2.42455066 L4.50285714,1.37271512 L5.02571429,0.862142438 L6.13428571,0.862142438 Z M9.50285714,0.862142438 L10.0257143,1.37271512 L8.9486,2.42455066 L7.87145714,1.37271512 L8.39431429,0.862142438 L9.50285714,0.862142438 L9.50285714,0.862142438 Z M12.8714286,0.862142438 L13.3942857,1.37271512 L12.3171429,2.42455066 L11.24,1.37271512 L11.7628857,0.862142438 L12.8714286,0.862142438 L12.8714286,0.862142438 Z M16.2399714,0.862142438 L16.7628571,1.37271512 L15.6857143,2.42455066 L14.6085714,1.37271512 L15.1314286,0.862142438 L16.2399714,0.862142438 L16.2399714,0.862142438 Z M19.6085714,0.862142438 L20.1314286,1.37271512 L19.0514286,2.42176065 L17.9742857,1.36992511 L18.4971429,0.859352423 L19.6085714,0.862142438 L19.6085714,0.862142438 Z M22.9771429,0.862142438 L23.5,1.37271512 L22.4228571,2.42176065 L21.3457143,1.36992511 L21.8685714,0.859352423 L22.9771429,0.862142438 L22.9771429,0.862142438 Z M14,4.06786931 L12.9228571,3.01603377 L14,1.96419824 L15.0771429,3.01603377 L14,4.06786931 Z M15.6828286,3.60751689 L16.7599714,4.65935242 L15.6828286,5.71118796 L14.6057143,4.65932452 L15.6828286,3.60751689 Z M24.9399714,6.54258443 L24.1057143,7.35726872 L23.0285714,6.30543319 L24.1057143,5.25359765 L25.0028286,6.12966226 C24.9828286,6.26640088 24.96,6.4030837 24.9399714,6.54258443 Z M20.7371429,7.35729662 L19.66,6.30543319 L20.7371429,5.25359765 L21.8142857,6.30543319 L20.7371429,7.35729662 Z M22.4228571,6.8969442 L23.5,7.94877974 L22.4228571,9.00340529 L21.3457143,7.95154185 L22.4228571,6.8969442 Z M22.4228571,5.71397797 L21.3457143,4.66214244 L22.4228571,3.6103069 L23.5,4.66214244 L22.4228571,5.71397797 Z M20.7371429,4.06786931 L19.66,3.01603377 L20.7371429,1.96419824 L21.8142857,3.01603377 L20.7371429,4.06786931 Z M20.1314286,4.65932452 L19.0514286,5.71395007 L17.9742857,4.66211454 L19.0514286,3.610279 L20.1314286,4.65932452 Z M17.3685429,4.06786931 L16.2914286,3.01603377 L17.3685429,1.96419824 L18.4456857,3.01603377 L17.3685429,4.06786931 Z M17.3685429,5.25083554 L18.4456857,6.30267107 L17.3685429,7.35729662 L16.2914286,6.30543319 L17.3685429,5.25083554 Z M19.0514286,6.8969442 L20.1285714,7.94877974 L19.0514286,9.00340529 L17.9742857,7.95154185 L19.0514286,6.8969442 Z M19.66,9.5948884 L20.7371429,8.54305286 L21.8142857,9.5948884 L20.7371429,10.6467239 L19.66,9.5948884 Z M20.1314286,11.2381791 L19.0514286,12.2928326 L17.9742857,11.2409971 L19.0514286,10.1891615 L20.1314286,11.2381791 Z M22.4228571,10.1863715 L23.4342857,11.1740088 L22.3571429,12.2258443 L21.3457143,11.2381791 L22.4228571,10.1863715 Z M23.0285714,9.5948884 L24.1057143,8.54305286 L24.6542571,9.07873568 C24.6285714,9.39676946 24.6057143,9.72043906 24.5857143,10.0496608 L24.0371429,10.5853436 L23.0285714,9.5948884 Z M24.7114,4.65932452 L25.4571429,3.93113069 C25.36,4.30778267 25.2685429,4.70675477 25.1828286,5.12246696 L24.7114,4.65932452 Z M24.1057143,4.06786931 L23.0285714,3.01603377 L24.1057143,1.96419824 L25.1828286,3.01603377 L24.1057143,4.06786931 Z M11.7085714,3.01603377 L10.6314286,4.06786931 L9.55428571,3.01603377 L10.6314286,1.96419824 L11.7085714,3.01603377 Z M8.34,3.01603377 L7.26285714,4.06786931 L6.18571429,3.01603377 L7.26285714,1.96419824 L8.34,3.01603377 Z M2.52571429,3.91720852 L3.28571429,4.65932452 L2.80285714,5.130837 C2.72,4.70678267 2.62571429,4.29944053 2.52571429,3.91720852 Z M2.81428571,3.01603377 L3.89142857,1.96419824 L4.96857143,3.01603377 L3.89142857,4.06786931 L2.81428571,3.01603377 Z M3.28857143,1.36992511 L2.21142857,2.42176065 L1.97142857,2.18739941 C1.73714286,1.60428634 1.50857143,1.17462408 1.30857143,0.862142438 L2.76571429,0.862142438 L3.28857143,1.36992511 Z M3.04857143,6.53145228 C3.02857143,6.39750367 3.00857143,6.26640088 2.98857143,6.13803231 L3.89428571,5.25359765 L4.97142857,6.30543319 L3.89428571,7.35726872 L3.04857143,6.53145228 Z M4.5,4.65932452 L5.57714286,3.60748899 L6.65428571,4.65932452 L5.57714286,5.71116006 L4.5,4.65932452 Z M7.26285714,5.25083554 L8.34,6.30267107 L7.26285714,7.35729662 L6.18571429,6.30543319 L7.26285714,5.25083554 Z M7.86857143,4.65932452 L8.94571429,3.60748899 L10.0228571,4.65932452 L8.94571429,5.71116006 L7.86857143,4.65932452 Z M10.6314286,5.25083554 L11.7085714,6.30267107 L10.6314286,7.35729662 L9.55428571,6.30546109 L10.6314286,5.25083554 Z M11.2371429,4.65932452 L12.3142857,3.60748899 L13.3914286,4.65932452 L12.3142857,5.71116006 L11.2371429,4.65932452 Z M14,5.25083554 L15.0771429,6.30267107 L14,7.35729662 L12.9228571,6.30543319 L14,5.25083554 Z M15.6828286,6.8969442 L16.7599714,7.94877974 L15.6828286,9.00340529 L14.6057143,7.95154185 L15.6828286,6.8969442 Z M17.3685429,8.54026285 L18.4456857,9.59207048 L17.3685429,10.643906 L16.2914286,9.59207048 L17.3685429,8.54026285 Z M19.66,12.8842878 L20.7371429,11.8324802 L21.7485714,12.8201175 L21.2342857,13.3223201 L20.1057143,13.3223201 L19.66,12.8842878 Z M26.0114,2.20692952 L25.7885429,2.42455066 L24.7114,1.37271512 L25.2342857,0.862142438 L26.6371429,0.862142438 L26.68,0.862142438 C26.6057143,0.979323054 26.5257143,1.11603377 26.4428571,1.26948458 C26.3057143,1.52616593 26.16,1.83585756 26.0114,2.20692952 Z M0.851428571,15.035417 L0.851428571,1.78005727 C1.00571429,2.08416887 1.17428571,2.4691909 1.34571429,2.95744347 C2.40285714,5.9846094 2.64,10.3481924 2.64857143,13.5455492 L0.851428571,15.035417 Z M3.96,10.5825257 L3.4,10.0356828 C3.38,9.71204112 3.35714286,9.39676946 3.33428571,9.08707783 L3.89428571,8.54023495 L4.97142857,9.59207048 L3.96,10.5825257 Z M5.57714286,9.00340529 L4.5,7.95154185 L5.57714286,6.89970631 L6.65428571,7.95154185 L5.57714286,9.00340529 Z M8.94571429,9.00340529 L7.86857143,7.95154185 L8.94571429,6.89970631 L10.0228571,7.95154185 L8.94571429,9.00340529 Z M11.2371429,7.94877974 L12.3142857,6.8969442 L13.3914286,7.94877974 L12.3142857,9.00340529 L11.2371429,7.94877974 Z M12.92,9.5948884 L13.9971143,8.54305286 L15.0742571,9.5948884 L13.9971143,10.6467239 L12.92,9.5948884 Z M14.6057143,11.2381791 L15.6828286,10.1863715 L16.7599714,11.2381791 L15.6828286,12.2900147 L14.6057143,11.2381791 Z M27.1371429,15.035417 L25.34,13.5455492 C25.3486,10.4263128 25.5771714,6.15759031 26.5857429,3.13042438 C26.7743143,2.56126138 26.9657429,2.12043906 27.1371714,1.78284728 L27.1371714,15.035417 L27.1371429,15.035417 Z" id="Shape"></path>
                <path d="M13.3,13.897091 C13.2514286,13.6989721 13.1857143,13.506489 13.1085714,13.3223201 C13.0485714,13.1772394 12.98,13.0377386 12.9028571,12.9038179 C12.8885714,12.8759178 12.8714286,12.8508355 12.8571429,12.8229354 C12.7256857,12.6025242 12.5771429,12.3960352 12.4085714,12.2063142 C12.1,11.8575624 11.7342857,11.5590308 11.3228571,11.3246696 C11.2857143,11.3051395 11.2514286,11.2856094 11.2142857,11.2660514 C10.9428571,11.1237606 10.6542571,11.00658 10.3514286,10.9256975 C10.0971429,10.8559471 9.83142857,10.8085169 9.56,10.7861968 C9.44571429,10.7777988 9.33142857,10.7722467 9.21428571,10.7722467 C8.87714286,10.7722467 8.55142857,10.811279 8.23714286,10.8838473 C8.04571429,10.9284875 7.86,10.9842878 7.67714286,11.0540382 C7.39428571,11.1628488 7.12857143,11.2995595 6.88,11.4613803 C6.48,11.7208796 6.12857143,12.0472834 5.84,12.4239354 C5.66285714,12.6527166 5.51142857,12.9010558 5.38857143,13.1661072 C5.36285714,13.2190896 5.34,13.2721278 5.31714286,13.325138 C5.25714286,13.4674288 5.20571429,13.6125095 5.16285714,13.7603803 C5.12571429,13.891511 5.09428571,14.0254317 5.06857143,14.1621424 C5.02571429,14.3964758 5.00285714,14.6364449 5.00285714,14.8847283 C5.00285714,17.1558003 6.88857143,18.99442 9.21142857,18.99442 C11.5371429,18.99163 13.4228571,17.1502203 13.4228571,14.8791483 C13.4228571,14.633627 13.4,14.3908957 13.3571429,14.1565624 C13.3399714,14.0700441 13.3228571,13.9835815 13.3,13.897091 Z M12.5657143,14.8791483 C12.5657143,15.5571498 12.3571429,16.2016153 11.9685714,16.7456681 L10.9228571,16.8963289 C10.8685714,16.904699 10.8057143,16.9521292 10.7828571,17.0023495 L10.3685714,17.9537445 C10.0028571,18.0848752 9.61431429,18.1518634 9.21142857,18.1518634 C8.80857143,18.1518634 8.42,18.0821131 8.05428571,17.9537445 L7.64,17.0023495 C7.61714286,16.9521292 7.55714286,16.904699 7.5,16.8963289 L6.45428571,16.7456681 C6.06571429,16.2016153 5.85714286,15.5571219 5.85714286,14.8791483 C5.85714286,14.8680162 5.85714286,14.8568282 5.85714286,14.8428781 L6.62,14.1565345 L6.63142857,14.1453744 C6.67142857,14.1091043 6.69714286,14.0365918 6.68571429,13.9807915 L6.64571429,13.7799104 L6.55428571,13.319558 L6.50285714,13.0712467 L6.48285714,12.9708062 C6.58857143,12.8284875 6.70571429,12.6918047 6.83714286,12.5634361 C7.03714286,12.3681351 7.26,12.2007342 7.49714286,12.0612335 C7.71714286,11.9328928 7.95428571,11.8296623 8.19714286,11.7543319 L8.64571429,11.9998811 L9.02571429,12.2091322 L9.12002857,12.2593524 C9.16857143,12.2872526 9.2486,12.2872526 9.29714286,12.2593524 L10.22,11.7543319 C10.3399714,11.79063 10.4571429,11.8352423 10.5714286,11.8827004 C10.6457143,11.9161806 10.7228571,11.9524508 10.7942857,11.988721 C11.08,12.1393818 11.3457143,12.3291028 11.58,12.560674 C11.6571429,12.6360044 11.7285714,12.7113348 11.7942857,12.7922452 C11.8428571,12.8480455 11.8885714,12.9066637 11.9314286,12.9680162 L11.9085714,13.0796167 L11.86,13.316768 L11.7485714,13.866373 L11.7256857,13.9807915 C11.7142857,14.0337739 11.7399714,14.1063421 11.7799714,14.1453744 L11.7914,14.1565345 L12.5542286,14.8428781 C12.5657143,14.8568282 12.5657143,14.8680162 12.5657143,14.8791483 Z" id="Shape"></path>
                <path d="M10.7514286,14.3295433 L10.5114286,14.1593245 L10.0628571,13.8412907 L9.33142857,13.3223201 L9.29428571,13.29442 C9.25142857,13.2637298 9.18,13.2637298 9.13428571,13.29163 C9.13428571,13.29163 9.1314,13.29163 9.1314,13.29442 L9.09425714,13.3223201 L8.91711429,13.4478708 L8.40282857,13.8133906 L7.91428571,14.1593245 L7.67428571,14.3295433 C7.62857143,14.3602335 7.60571429,14.4299838 7.62285714,14.4801762 L8.18,16.154185 C8.19714286,16.2071953 8.25714286,16.2490455 8.31142857,16.2490455 L10.1142857,16.2490455 C10.1685429,16.2490455 10.2285714,16.2071953 10.2457143,16.154185 L10.8028571,14.4801762 C10.82,14.4271938 10.7971143,14.3602335 10.7514286,14.3295433 Z" id="Path"></path>
            </g>
        </g>
    </g>
</svg>