<?xml version="1.0" encoding="UTF-8"?>
<svg width="28px" height="17px" viewBox="0 0 28 17" version="1.1" xmlns="http://www.w3.org/2000/svg" xmlns:xlink="http://www.w3.org/1999/xlink">
    <!-- Generator: Sketch 55.2 (78181) - https://sketchapp.com -->
    <title>soccer-goal</title>
    <desc>Created with Sketch.</desc>
    <g id="Football" stroke="none" stroke-width="1" fill="none" fill-rule="evenodd">
        <g id="Group-25-Copy-2" transform="translate(-2.000000, -7.000000)" fill="#000000" fill-rule="nonzero">
            <g id="soccer-goal" transform="translate(2.000000, 7.000000)">
                <path d="M27.5714286,0.00748464164 L0.428571429,0.00748464164 C0.191885714,0.00748464164 0,0.202317406 0,0.442638225 L0,16.5573328 C0,16.7268976 0.0970285714,16.881029 0.248571429,16.9522201 C0.400257143,17.0234403 0.578714286,16.9987526 0.705971429,16.8890068 L3.24025714,14.7039846 L24.7597429,14.7039846 L27.2940286,16.8890068 C27.3730286,16.9571519 27.4717429,16.9924593 27.5715143,16.9924593 C27.6325143,16.9924593 27.6939143,16.9792287 27.7514286,16.9521911 C27.9030286,16.880971 28,16.7268396 28,16.5573038 L28,0.442638225 C28,0.202346416 27.8081143,0.00748464164 27.5714286,0.00748464164 Z M24.4898286,13.8337645 L23.4810571,13.8337645 L22.9673714,13.3121894 L24.0456571,12.217314 L24.5052286,12.6839727 C24.4971714,13.0608737 24.492,13.444157 24.4898286,13.8337645 Z M6.14017143,0.877791809 L6.66165714,1.40728669 L5.58334286,2.50216212 L4.50502857,1.40728669 L5.02651429,0.877791809 L6.14017143,0.877791809 L6.14017143,0.877791809 Z M9.50891429,0.877791809 L10.0304286,1.40728669 L8.95211429,2.50216212 L7.8738,1.40728669 L8.39528571,0.877791809 L9.50891429,0.877791809 L9.50891429,0.877791809 Z M12.8777143,0.877791809 L13.3992,1.40728669 L12.3209143,2.50216212 L11.2425714,1.40728669 L11.7640571,0.877791809 L12.8777143,0.877791809 L12.8777143,0.877791809 Z M16.2464857,0.877791809 L16.7679714,1.40728669 L15.6896571,2.50216212 L14.6113429,1.40728669 L15.1328571,0.877791809 L16.2464857,0.877791809 L16.2464857,0.877791809 Z M19.6152857,0.877791809 L20.1367714,1.40728669 L19.0584571,2.50216212 L17.9801429,1.40728669 L18.5016286,0.877791809 L19.6152857,0.877791809 L19.6152857,0.877791809 Z M22.9840571,0.877791809 L23.5055429,1.40728669 L22.4272286,2.50216212 L21.3489143,1.40728669 L21.8704,0.877791809 L22.9840571,0.877791809 L22.9840571,0.877791809 Z M2.53157143,4.05484812 L3.29285714,4.82782594 L2.81034286,5.31775085 C2.72497143,4.87528669 2.63188571,4.45423208 2.53157143,4.05484812 Z M24.9449714,6.78685836 L24.1116286,7.633 L23.0333143,6.53812457 L24.1116286,5.44324915 L25.0095143,6.35492491 C24.9873429,6.49713311 24.9657429,6.64093686 24.9449714,6.78685836 Z M3.05328571,6.77432594 C3.03351429,6.63588908 3.01297143,6.49933788 2.99194286,6.36415017 L3.89894286,5.44322014 L4.97725714,6.53809556 L3.89894286,7.63297099 L3.05328571,6.77432594 Z M5.58334286,7.15346075 L6.66165714,8.24833618 L5.58334286,9.3432116 L4.50502857,8.24833618 L5.58334286,7.15346075 Z M6.18942857,6.53812457 L7.26774286,5.44324915 L8.34605714,6.53812457 L7.26774286,7.633 L6.18942857,6.53812457 Z M8.95211429,7.15346075 L10.0304286,8.24833618 L8.95211429,9.3432116 L7.8738,8.24833618 L8.95211429,7.15346075 Z M9.5582,6.53809556 L10.6365143,5.44322014 L11.7148,6.53809556 L10.6365143,7.63297099 L9.5582,6.53809556 Z M12.3208857,7.15346075 L13.3991714,8.24833618 L12.3208857,9.3432116 L11.2425714,8.24833618 L12.3208857,7.15346075 Z M12.9269714,6.53809556 L14.0052571,5.44322014 L15.0835714,6.53809556 L14.0052571,7.63297099 L12.9269714,6.53809556 Z M15.6896857,7.15346075 L16.768,8.24833618 L15.6896857,9.3432116 L14.6114,8.24833618 L15.6896857,7.15346075 Z M16.2957714,6.53809556 L17.3740857,5.44322014 L18.4524,6.53809556 L17.3740857,7.63297099 L16.2957714,6.53809556 Z M19.0584571,7.15346075 L20.1367714,8.24833618 L19.0584571,9.3432116 L17.9801429,8.24833618 L19.0584571,7.15346075 Z M19.6645429,6.53809556 L20.7428571,5.44322014 L21.8211714,6.53809556 L20.7428571,7.63297099 L19.6645429,6.53809556 Z M22.4272286,7.15346075 L23.5055429,8.24833618 L22.4272286,9.3432116 L21.3489143,8.24833618 L22.4272286,7.15346075 Z M22.4272286,5.92273038 L21.3489143,4.82785495 L22.4272286,3.73297952 L23.5055429,4.82785495 L22.4272286,5.92273038 Z M20.7428571,4.21246075 L19.6645429,3.11758532 L20.7428571,2.0227099 L21.8211714,3.11758532 L20.7428571,4.21246075 Z M20.1367714,4.82782594 L19.0584571,5.92270137 L17.9801429,4.82782594 L19.0584571,3.73295051 L20.1367714,4.82782594 Z M17.3740571,4.21246075 L16.2957429,3.11758532 L17.3740571,2.0227099 L18.4523714,3.11758532 L17.3740571,4.21246075 Z M16.7679714,4.82782594 L15.6896571,5.92270137 L14.6113429,4.82782594 L15.6896571,3.73295051 L16.7679714,4.82782594 Z M14.0052857,4.21246075 L12.927,3.11758532 L14.0052857,2.0227099 L15.0836,3.11758532 L14.0052857,4.21246075 Z M13.3992,4.82782594 L12.3209143,5.92270137 L11.2426,4.82782594 L12.3209143,3.73295051 L13.3992,4.82782594 Z M10.6365143,4.21246075 L9.5582,3.11758532 L10.6365143,2.0227099 L11.7148,3.11758532 L10.6365143,4.21246075 Z M10.0304286,4.82782594 L8.95211429,5.92270137 L7.8738,4.82782594 L8.95211429,3.73295051 L10.0304286,4.82782594 Z M7.26774286,4.21246075 L6.18942857,3.11758532 L7.26774286,2.0227099 L8.34605714,3.11758532 L7.26774286,4.21246075 Z M6.66165714,4.82782594 L5.58334286,5.92270137 L4.50502857,4.82782594 L5.58334286,3.73295051 L6.66165714,4.82782594 Z M3.89894286,4.21246075 L2.82062857,3.11758532 L3.89894286,2.0227099 L4.97725714,3.11758532 L3.89894286,4.21246075 Z M3.40622857,10.4193174 C3.38674286,10.0836689 3.36454286,9.75443174 3.33965714,9.43163481 L3.89894286,8.86375939 L4.97725714,9.95863481 L3.96488571,10.9865546 L3.40622857,10.4193174 Z M5.58334286,10.574029 L6.66165714,11.6689044 L5.64928571,12.6968242 L4.57097143,11.6019488 L5.58334286,10.574029 Z M6.18942857,9.95863481 L7.26774286,8.86375939 L8.34605714,9.95863481 L7.26774286,11.0534812 L6.18942857,9.95863481 Z M8.95211429,10.574029 L10.0304286,11.6689044 L8.95211429,12.7637509 L7.8738,11.6689044 L8.95211429,10.574029 Z M9.5582,9.95863481 L10.6365143,8.86375939 L11.7148,9.95863481 L10.6365143,11.0534812 L9.5582,9.95863481 Z M12.3208857,10.574029 L13.3991714,11.6689044 L12.3208857,12.7637509 L11.2425714,11.6689044 L12.3208857,10.574029 Z M12.9269714,9.95863481 L14.0052571,8.86375939 L15.0835714,9.95863481 L14.0052571,11.0534812 L12.9269714,9.95863481 Z M15.6896857,10.574029 L16.768,11.6689044 L15.6896857,12.7637509 L14.6114,11.6689044 L15.6896857,10.574029 Z M16.2957714,9.95863481 L17.3740857,8.86375939 L18.4524,9.95863481 L17.3740857,11.0534812 L16.2957714,9.95863481 Z M19.0584571,10.574029 L20.1367714,11.6689044 L19.0584571,12.7637509 L17.9801429,11.6689044 L19.0584571,10.574029 Z M19.6645429,9.95863481 L20.7428571,8.86375939 L21.8211714,9.95863481 L20.7428571,11.0534812 L19.6645429,9.95863481 Z M22.4272286,10.574029 L23.4396,11.6019488 L22.3612857,12.6968242 L21.3489143,11.6689044 L22.4272286,10.574029 Z M23.0333143,9.95863481 L24.1116286,8.86375939 L24.6610571,9.42162628 C24.6356,9.75129863 24.6128857,10.0876724 24.5930571,10.4307184 L24.0456571,10.9865256 L23.0333143,9.95863481 Z M24.7177143,4.82782594 L25.4648,4.0692372 C25.3665714,4.4616587 25.2752286,4.87482253 25.1913429,5.30875768 L24.7177143,4.82782594 Z M24.1116286,4.21246075 L23.0333143,3.11758532 L24.1116286,2.0227099 L25.1899429,3.11758532 L24.1116286,4.21246075 Z M3.29285714,1.40728669 L2.21454286,2.50216212 L1.97505714,2.25896928 C1.74228571,1.65178498 1.51348571,1.20375085 1.31434286,0.877791809 L2.7714,0.877791809 L3.29285714,1.40728669 Z M3.49494286,12.6944744 L3.96488571,12.217314 L5.0432,13.3121894 L4.52951429,13.8337645 L3.51017143,13.8337645 C3.50802857,13.4477543 3.50291429,13.0680102 3.49494286,12.6944744 Z M6.25537143,13.3121604 L7.26774286,12.2842406 L8.34605714,13.379087 L7.89831429,13.8337355 L6.76905714,13.8337355 L6.25537143,13.3121604 Z M9.5582,13.379116 L10.6365143,12.2842696 L11.7148,13.379116 L11.2670571,13.8337645 L10.0059143,13.8337645 L9.5582,13.379116 Z M12.9269714,13.379116 L14.0052571,12.2842696 L15.0835714,13.379116 L14.6358286,13.8337645 L13.3746857,13.8337645 L12.9269714,13.379116 Z M16.2957714,13.379116 L17.3740857,12.2842696 L18.4524,13.379116 L18.0046571,13.8337645 L16.7435143,13.8337645 L16.2957714,13.379116 Z M19.6645429,13.379116 L20.7428571,12.2842696 L21.7552286,13.3121894 L21.2415429,13.8337645 L20.1122857,13.8337645 L19.6645429,13.379116 Z M26.0182857,2.27652048 L25.7960571,2.50219113 L24.7177143,1.40728669 L25.2392,0.877791809 L26.6432571,0.877791809 L26.6856571,0.877791809 C26.6105429,1.0007372 26.5312286,1.14103072 26.4490571,1.30070307 C26.3112857,1.56843857 26.1655143,1.89059727 26.0182857,2.27652048 Z M0.857142857,15.6169949 L0.857142857,1.8362901 C1.02951429,2.18864846 1.2194,2.64738737 1.4088,3.23832594 C2.41722857,6.38486348 2.64511429,10.8242133 2.65397143,14.0677901 L0.857142857,15.6169949 Z M27.1428571,15.6169949 L25.3460286,14.0678191 C25.3549143,10.8242133 25.5827714,6.38489249 26.5912,3.23835495 C26.7806,2.64741638 26.9704571,2.18867747 27.1428571,1.83631911 L27.1428571,15.6169949 Z" id="Shape"></path>
            </g>
        </g>
    </g>
</svg>