<?xml version="1.0" encoding="UTF-8"?>
<svg width="25px" height="23px" viewBox="0 0 25 23" version="1.1" xmlns="http://www.w3.org/2000/svg" xmlns:xlink="http://www.w3.org/1999/xlink">
    <!-- Generator: Sketch 55.2 (78181) - https://sketchapp.com -->
    <title>soccer-shoe</title>
    <desc>Created with Sketch.</desc>
    <g id="Football" stroke="none" stroke-width="1" fill="none" fill-rule="evenodd">
        <g id="Group-25" transform="translate(-2.000000, -5.000000)" fill="#000000" fill-rule="nonzero">
            <g id="soccer-shoe" transform="translate(16.000000, 16.500000) scale(-1, 1) rotate(-30.000000) translate(-16.000000, -16.500000) translate(2.000000, 10.000000)">
                <path d="M17.0831242,1.57985945 C17.7442484,1.94550691 18.6613221,2.2933318 19.7554442,2.328947 C18.8401389,1.27085484 18.3224632,0.650928571 18.3154189,0.642481567 C17.7128295,-0.0478064516 17.1921474,-0.0896820276 16.2848,0.601235023 C16.0902737,0.749447005 15.8228589,0.964366359 15.5104968,1.22673272 C15.9678695,1.16293088 16.4922653,1.25363134 17.0831242,1.57985945 Z" id="Path"></path>
                <path d="M0.292968421,10.9926982 C0.711317895,11.1244954 1.13432421,11.2412558 1.56054316,11.3435184 C1.56549474,11.3447166 1.57050526,11.345765 1.57545684,11.3469631 L1.87670737,12.6924032 C1.91416842,12.8596659 2.08134316,12.9952373 2.25010947,12.9952373 L3.35301474,12.9952373 C3.52178105,12.9952373 3.68895579,12.8596659 3.72641684,12.6924032 L3.93093474,11.7789286 C4.54890947,11.8618111 5.16980211,11.9241452 5.79166737,11.971053 L5.96258526,12.6932719 C6.00205053,12.8600253 6.17087579,12.9952373 6.33964211,12.9952373 L7.54010526,12.9952373 C7.70887158,12.9952373 7.87769684,12.8600253 7.91716211,12.6932719 L8.0612,12.0845484 C8.71418947,12.10303 9.36744421,12.110818 10.0206695,12.1098295 C13.1438779,12.1051866 16.2601895,11.8912558 19.3807158,11.7946244 L19.5933684,12.6932719 C19.6328337,12.8600253 19.8016,12.9952373 19.9704253,12.9952373 L21.1708589,12.9952373 C21.3396547,12.9952373 21.5084505,12.8600253 21.5479453,12.6932719 L21.7766611,11.726659 C22.1659789,11.7147972 22.5657011,11.7022765 22.9618568,11.689576 L23.1993853,12.6932719 C23.2388505,12.8600253 23.4076758,12.9952373 23.5764421,12.9952373 L24.7769053,12.9952373 C24.9457011,12.9952373 25.1144968,12.8600253 25.1539621,12.6932719 L25.4107368,11.6081313 C25.9045684,11.5912673 26.3088,11.577159 26.5656926,11.5681129 C26.7344,11.562212 26.9045516,11.4225369 26.9446358,11.2558733 C27.1656295,10.3371866 27.9052421,7.548447 27.9827579,6.12216129 C27.9944295,5.90852995 27.9999705,5.70490323 27.9999705,5.51035253 C27.9999705,5.19164286 27.9837011,4.90105991 27.9559663,4.62925806 C26.8942063,5.66233871 24.8879326,6.9240576 22.9801895,7.66257143 C20.6431916,8.56762903 18.89832,9.3026682 18.1104295,10.4720991 C17.7627874,10.4934263 17.4093684,10.5154124 17.0505558,10.5380276 L14.9146863,10.6835138 C14.8387916,10.6888756 14.76272,10.6942074 14.6866779,10.6995691 C15.0793558,10.2412742 16.3448084,8.97191705 18.7484758,8.36061751 C21.5937474,7.63779954 26.0091116,6.10487788 27.88184,4.09592857 C27.8314105,3.81538018 27.6741979,3.56137097 27.5984211,3.32928802 C26.7472211,4.02712442 24.5685263,5.56343088 20.8489179,6.60346083 C16.9655242,7.68851152 13.6344968,8.41764977 11.9416168,10.8800415 C10.9082105,10.9392903 9.86725895,10.985 8.82103158,11.0023134 C9.21928,10.4215968 11.1979368,7.86745622 15.7832168,6.97974194 C20.7748211,6.01357834 24.8461389,4.81284562 27.3491621,2.71193779 C27.0887916,2.1771106 26.8232337,1.79483871 26.5326821,1.43952535 C26.1357011,0.954092166 25.4709811,-0.081624424 24.7459874,0.0104539171 C24.3784211,0.0571820276 24.1969811,0.375292627 24.0360547,0.675071429 C23.8519326,1.01807373 23.6480926,1.33983871 23.3799411,1.62263364 C22.8533053,2.17800922 22.1582274,2.56660138 21.4358568,2.78954839 C19.7167453,3.3200023 17.6965895,2.69603226 16.8000589,2.1821129 C16.2129726,1.84504147 15.3837011,1.66888249 14.7859158,2.07065438 C14.5810442,2.20835253 14.4103326,2.38786636 14.22904,2.55435023 C14.1686779,2.60973502 14.1053095,2.66440092 14.0409979,2.71885714 L14.9809137,3.93585484 C15.1092421,4.09760599 15.0827747,4.33555991 14.9233516,4.46508065 C14.7633389,4.59487097 14.5297305,4.56860138 14.4019916,4.40595161 L13.4516716,3.17610369 C13.1747074,3.37185253 11.2832042,4.42059908 10.9350611,4.57887558 L11.5914989,5.77960829 C11.6977221,5.95603687 11.6429305,6.18841935 11.4684168,6.2969424 C11.2933137,6.40552535 11.0656,6.34954147 10.9578737,6.17149539 L10.2460253,4.87916359 C9.59760421,5.14976728 8.93824842,5.38870968 8.27812632,5.62768203 C7.99329263,5.73075346 7.70996211,5.84176267 7.41911579,5.92626267 C7.03377684,6.03817051 6.64849684,6.15019816 6.26283368,6.26102765 C5.77504421,6.40121198 5.28763789,6.54274424 4.79884632,6.67930415 C4.47301474,6.7703341 4.14650526,6.85429493 3.81802105,6.93484101 C3.04852211,7.12346083 2.27071158,7.30785714 1.52670737,7.58609908 C1.03499789,7.77001613 0.482661053,8.00982719 0.217191579,8.49984332 C0.10136,8.71362442 0,9.02436636 0,9.2708871 C0,9.28864977 0.000943157895,10.1203802 0.00147368421,10.5877212 C0.00168,10.7592373 0.131747368,10.9419263 0.292968421,10.9926982 Z" id="Path"></path>
            </g>
        </g>
    </g>
</svg>