<?xml version="1.0" encoding="UTF-8"?>
<svg width="12px" height="12px" viewBox="0 0 12 12" version="1.1" xmlns="http://www.w3.org/2000/svg" xmlns:xlink="http://www.w3.org/1999/xlink">
    <!-- Generator: Sketch 59 (86127) - https://sketch.com -->
    <title>icons/livebar/badminton</title>
    <desc>Created with Sketch.</desc>
    <g id="icons/livebar/badminton" stroke="none" stroke-width="1" fill="none" fill-rule="evenodd">
        <g id="shuttlecock" fill="#000000" fill-rule="nonzero">
            <path d="M11.7059766,5.40639844 L9.93372656,5.00964844 L4.70772656,9.02589844 L4.17297656,8.49114844 L9.53247656,4.37289844 L9.37197656,2.95764844 C9.35247656,2.78364844 9.21522656,2.64639844 9.04197656,2.62764844 L7.52922656,2.45589844 L3.50172656,7.82064844 L2.96697656,7.28514844 L7.03647656,1.86339844 L6.86397656,0.332648437 C6.85347656,0.229898437 6.79872656,0.136148437 6.71622656,0.0746484375 C6.63372656,0.0131484375 6.52872656,-0.0123515625 6.42672656,0.0056484375 L4.30572656,0.380648437 C4.16997656,0.404648437 4.05897656,0.499898437 4.01472656,0.630398437 L1.92147656,6.89514844 L1.29822656,7.51839844 L4.47972656,10.6998984 L5.10222656,10.0773984 L11.3669766,7.98414844 C11.4944766,7.94139844 11.5897266,7.83414844 11.6159766,7.70214844 L11.9909766,5.84664844 C12.0322266,5.64714844 11.9054766,5.45139844 11.7059766,5.40639844 Z" id="Path"></path>
            <path d="M0.767976563,8.04939844 L0.658476563,8.15889844 C-0.218273438,9.03639844 -0.218273438,10.4628984 0.658476563,11.3403984 C1.08297656,11.7656484 1.64847656,11.9996484 2.24922656,11.9996484 C2.84997656,11.9996484 3.41547656,11.7648984 3.83997656,11.3403984 L3.94947656,11.2308984 L0.767976563,8.04939844 Z" id="Path"></path>
        </g>
    </g>
</svg>