<?xml version="1.0" encoding="UTF-8"?>
<svg width="12px" height="12px" viewBox="0 0 12 12" version="1.1" xmlns="http://www.w3.org/2000/svg" xmlns:xlink="http://www.w3.org/1999/xlink">
    <!-- Generator: Sketch 59 (86127) - https://sketch.com -->
    <title>icons/livebar/hockey</title>
    <desc>Created with Sketch.</desc>
    <g id="icons/livebar/hockey" stroke="none" stroke-width="1" fill="none" fill-rule="evenodd">
        <path d="M8.11774085,1.219938 L8.12091419,1.21933358 C8.24582149,0.812866165 8.37028698,0.406328959 8.49519307,0 L12,0 C11.9587766,0.168306258 11.9173525,0.336232724 11.8759085,0.504121735 L11.5434066,1.77275103 L11.2978214,2.7021943 L10.9525862,4.00877358 L10.948175,4.01036137 C10.6794825,4.96127708 10.398478,5.90772011 10.1044877,6.85372472 C9.97571448,7.2677567 9.83557164,7.67781659 9.69888911,8.08927841 C9.61114533,8.35447383 9.51005468,8.66499783 9.38696626,8.91570681 C9.26486647,9.16454658 9.15141746,9.39352589 9.00237667,9.63044939 C8.46825203,10.4779065 7.70080312,11.1482551 6.7593497,11.5730351 C4.90758571,12.408576 2.61636144,11.9919738 1.23964956,10.5494041 C0.647440996,9.92882346 0.274962574,9.23581055 0.0581984221,8.42690607 C-0.194404728,7.49720332 0.398792494,6.54834107 1.38201689,6.30954836 C2.36524128,6.07075564 3.36898042,6.63152132 3.62183073,7.56099041 C3.79756541,8.34022104 4.54746556,8.78789897 5.32010494,8.37386698 C5.53439744,8.25914367 5.69505502,8.09839085 5.82382825,7.91380548 L6.13303231,7.31518813 L6.79766036,5.39246283 C6.79992913,5.38558608 6.80220839,5.3786994 6.80449509,5.37180497 L8.11774085,1.219938 Z M0.499636022,2.68536653 C0.499636022,1.57458321 1.45394205,0.672451488 2.62946122,0.672451488 C3.80448604,0.672451488 4.75879207,1.57458321 4.75879207,2.68536653 C4.75879207,3.79661722 3.80448604,4.69851532 2.62946122,4.69851532 C1.45394205,4.69851532 0.499636022,3.79661722 0.499636022,2.68536653 Z" id="Shape" fill="#000000" fill-rule="nonzero"></path>
    </g>
</svg>