<?xml version="1.0" encoding="UTF-8"?>
<svg width="12px" height="12px" viewBox="0 0 12 12" version="1.1" xmlns="http://www.w3.org/2000/svg" xmlns:xlink="http://www.w3.org/1999/xlink">
    <!-- Generator: Sketch 59 (86127) - https://sketch.com -->
    <title>icons/livebar/kabaddi</title>
    <desc>Created with Sketch.</desc>
    <defs>
        <rect id="path-1" x="0" y="0" width="12" height="12"></rect>
    </defs>
    <g id="icons/livebar/kabaddi" stroke="none" stroke-width="1" fill="none" fill-rule="evenodd">
        <g id="Group">
            <mask id="mask-2" fill="white">
                <use xlink:href="#path-1"></use>
            </mask>
            <use id="Rectangle" fill="#EBEBEB" opacity="0" xlink:href="#path-1"></use>
            <g id="soccer-shoe" mask="url(#mask-2)" fill="#000000" fill-rule="nonzero">
                <g transform="translate(6.685256, 5.500601) scale(-1, 1) rotate(-30.000000) translate(-6.685256, -5.500601) translate(-0.314744, 2.000601)" id="Combined-Shape">
                    <path d="M11.9572214,0.695509636 C12.293826,0.652980997 12.6024463,1.13135209 12.7867591,1.35556131 C12.9216582,1.5196715 13.0449531,1.69623314 13.1658395,1.94325619 C12.0037204,2.91361198 10.1134637,3.46819982 7.79593072,3.91444616 C5.66704848,4.32445876 4.74838541,5.50415119 4.56348416,5.77236939 C5.04923309,5.76437279 5.53253255,5.74326065 6.01232884,5.71589512 C6.79830967,4.57857914 8.34485972,4.24180877 10.1478658,3.74065151 C11.8748287,3.26028818 12.8863666,2.55070738 13.281567,2.22839453 C13.3167492,2.33558773 13.3897408,2.45290811 13.4131545,2.58248626 C12.5436726,3.51036875 10.4936799,4.2183862 9.17265954,4.5522374 C8.05666994,4.83458107 7.46913774,5.42086479 7.28682281,5.63253954 C7.32212811,5.63006308 7.3574471,5.62760046 7.39268398,5.625124 L7.39268398,5.625124 L8.38433871,5.55792765 C8.55093046,5.54748226 8.715018,5.53732741 8.87642343,5.52747692 C9.24223014,4.9873466 10.0523499,4.64785074 11.1373858,4.2298277 C12.0231246,3.88872699 12.9546098,3.30597118 13.4475704,2.82881756 C13.4604472,2.95435591 13.4680009,3.08856877 13.4680009,3.23577264 C13.4680009,3.32563065 13.4654283,3.41968065 13.4600093,3.51835152 C13.4240198,4.17711654 13.0806279,5.4651643 12.9780235,5.88948225 C12.959413,5.96645991 12.880414,6.03097229 12.8020855,6.03369778 C12.6828138,6.03787593 12.4951346,6.04439219 12.2658554,6.05218127 L12.2658554,6.05218127 L12.1466385,6.55338004 C12.1283153,6.63039921 12.0499457,6.69285018 11.9715762,6.69285018 L11.9715762,6.69285018 L11.4142177,6.69285018 C11.3358618,6.69285018 11.2574786,6.63039921 11.2391554,6.55338004 L11.2391554,6.55338004 L11.1288742,6.0897985 C10.9449446,6.09566452 10.7593591,6.10144753 10.5786042,6.10692617 L10.5786042,6.10692617 L10.4724146,6.55338004 C10.4540777,6.63039921 10.3757082,6.69285018 10.2973386,6.69285018 L10.2973386,6.69285018 L9.73999382,6.69285018 C9.66161058,6.69285018 9.58325471,6.63039921 9.56493153,6.55338004 L9.56493153,6.55338004 L9.46619985,6.13831767 C8.01738253,6.18294923 6.57052206,6.28175844 5.12045948,6.28390286 C4.817176,6.28435942 4.51387884,6.28076233 4.21070484,6.27222616 L4.21070484,6.27222616 L4.14383003,6.55338004 C4.12550685,6.63039921 4.04712361,6.69285018 3.96876774,6.69285018 L3.96876774,6.69285018 L3.41140926,6.69285018 C3.33305339,6.69285018 3.25467015,6.63039921 3.23634697,6.55338004 L3.23634697,6.55338004 L3.15699215,6.21980553 C2.86826869,6.19814 2.57999681,6.16934947 2.29307966,6.13106816 L2.29307966,6.13106816 L2.19812483,6.55297882 C2.18073218,6.63023319 2.10311525,6.69285018 2.02475938,6.69285018 L2.02475938,6.69285018 L1.51269568,6.69285018 C1.43433981,6.69285018 1.35672289,6.63023319 1.33933024,6.55297882 L1.33933024,6.55297882 L1.19253956,5.92996331 C0.99465198,5.88273079 0.798255984,5.82880215 0.604022095,5.76792837 C0.529169385,5.74447813 0.4687809,5.66009876 0.468685111,5.58087983 L0.468685111,5.58087983 L0.4680009,4.97266772 C0.4680009,4.85880607 0.515060949,4.71528229 0.568839953,4.61654225 C0.692093767,4.39021629 0.948536142,4.27945367 1.17683007,4.19450707 C1.52226096,4.06599421 1.88338765,3.98082625 2.2406554,3.89370757 C2.39316608,3.85650539 2.54475993,3.81772602 2.69603903,3.7756816 C2.92297822,3.71260806 3.14927425,3.64723792 3.37574817,3.58249035 C3.55480625,3.53130103 3.73368644,3.47955831 3.912594,3.42787094 C4.04762993,3.38884254 4.17917639,3.33757021 4.31142073,3.28996415 C4.61790632,3.17958891 4.92403612,3.0692275 5.22508906,2.94424256 L5.22508906,2.94424256 L5.55559047,3.54113768 C5.60560631,3.62337263 5.71133063,3.64923015 5.79262861,3.59907845 C5.87365291,3.54895443 5.89909188,3.44162288 5.84977393,3.36013502 L5.84977393,3.36013502 L5.54499888,2.80554717 C5.70663694,2.73244329 6.58483576,2.24805399 6.71342642,2.15764259 L6.71342642,2.15764259 L7.15464689,2.725678 C7.21395432,2.80080179 7.32241548,2.81293504 7.39670714,2.7529882 C7.47072511,2.69316587 7.48301355,2.58326102 7.42343243,2.50855228 L7.42343243,2.50855228 L6.9870425,1.94645206 C7.01690148,1.92130012 7.04632256,1.89605134 7.07434785,1.87047051 C7.15851952,1.79357586 7.23777855,1.71066299 7.3328976,1.64706372 C7.61044105,1.46149553 7.9954604,1.54285887 8.26803648,1.69854358 C8.68428323,1.93590983 9.62221369,2.22410569 10.4203735,1.97910255 C10.7557601,1.87612901 11.0784752,1.69664819 11.322985,1.44013436 C11.447484,1.30951859 11.5421241,1.16090355 11.6276095,1.00247953 C11.7023254,0.864019338 11.7865654,0.71709216 11.9572214,0.695509636 Z M8.02880886,0.968376373 C8.45007772,0.649259395 8.69182324,0.668600657 8.97159722,0.9874271 C8.97486775,0.991328557 9.21521748,1.2776567 9.64018108,1.76636251 C9.13219528,1.74991275 8.70641062,1.5892613 8.39945977,1.42037805 C8.12513212,1.2697016 7.88166239,1.22780937 7.66931059,1.25727782 C7.814336,1.13609748 7.93849297,1.03683171 8.02880886,0.968376373 Z"></path>
                </g>
            </g>
        </g>
    </g>
</svg>